;TYPE=PLATED
;Layer: PTH_Through
;EasyEDA Pro v3.2.149, 2026-09-18 17:02:57
;Gerber Generator version 0.3
M48
METRIC,LZ,0000.00000
;Hole size 1 = 0.30480 METRIC
T01C0.30480
;Hole size 2 = 0.30500 METRIC
T02C0.30500
;Hole size 3 = 0.50800 METRIC
T03C0.50800
;Hole size 4 = 0.60000 METRIC
T04C0.60000
;Hole size 5 = 1.10002 METRIC
T05C1.10002
%
G05
G90
T01
X62.357Y32.131
X60.833Y31.75
X15.748Y29.47214
X26.543Y26.07328
X29.718Y42.14203
X28.69336Y32.9946
X4.953Y51.6636
X6.858Y51.6636
X8.763Y51.6636
X12.573Y51.6636
X1.143Y49.7586
X3.048Y49.7586
X4.953Y49.7586
X6.858Y49.7586
X8.763Y49.7586
X10.668Y49.7586
X12.573Y49.7586
X20.955Y51.6636
X27.813Y49.7586
X16.383Y47.8536
X1.143Y45.9486
X19.939Y45.9486
X37.87904Y49.37916
X43.053Y49.3776
X46.863Y49.3776
X62.103Y49.3776
X1.143Y44.0436
X3.048Y42.1386
X6.858Y42.1386
X8.763Y42.1386
X1.143Y40.2336
X29.718Y40.2336
X1.143Y38.3286
X22.098Y38.3286
X24.003Y38.3286
X29.718Y38.3286
X65.913Y38.3286
X1.143Y36.4236
X16.383Y36.4236
X18.288Y36.4236
X24.003Y36.4236
X3.048Y34.5186
X3.048Y32.6136
X6.858Y32.6136
X51.99939Y25.38096
X67.818Y32.6136
X3.048Y30.7086
X3.048Y28.8036
X31.623Y26.8986
X3.048Y21.1836
X24.003Y21.1836
X67.818Y21.1836
X22.098Y19.2786
X24.003Y19.2786
X25.908Y19.2786
X27.813Y19.2786
X29.718Y19.2786
X24.003Y17.3736
X25.908Y17.3736
X27.813Y17.3736
X29.718Y17.3736
X67.818Y17.3736
X1.143Y15.4686
X29.718Y15.4686
X1.143Y13.5636
X29.718Y13.5636
X1.143Y11.6586
X3.048Y11.6586
X5.842Y13.3096
X29.718Y11.6586
X1.143Y9.7536
X29.718Y9.7536
X1.143Y7.8486
X1.143Y5.9436
X3.048Y5.9436
X6.858Y5.9436
X27.813Y6.3246
X67.818Y5.9436
X1.143Y4.0386
X3.048Y4.0386
X4.953Y4.0386
X25.908Y4.0386
X31.623Y4.0386
X62.103Y4.0386
X65.913Y4.0386
X1.143Y2.1336
X3.048Y2.1336
X4.953Y2.1336
X48.768Y2.1336
X57.023Y49.3776
X59.563Y49.3776
X29.21Y0.9906
X39.243Y0.9906
X13.462Y45.9486
X14.478Y45.9486
X14.478Y44.9326
X13.462Y44.9326
X15.494Y44.9326
X16.89701Y6.4126
X3.048Y22.3266
X7.112Y22.3266
X6.858Y31.4706
X54.99766Y15.4924
X34.51476Y21.44261
X38.354Y16.891
X39.8013Y16.891
X67.818Y26.67
X61.214Y26.416
X53.34Y1.524
X58.42Y1.524
X34.036Y51.689
T02
X7.62Y41.2496
X7.874Y38.9636
X22.352Y36.4236
X20.574Y36.4236
X7.239Y36.7792
X19.304Y16.49324
X20.574Y16.49324
X17.907Y23.0886
X29.972Y27.21628
X29.972Y29.4386
X29.972Y30.7086
X29.972Y31.9786
X28.69336Y30.7086
X29.972Y32.9946
X17.907Y32.9946
X16.637Y32.9946
X26.55164Y30.7086
X25.654Y30.7086
X33.02Y36.0426
X33.02Y34.6456
X31.242Y24.8666
X32.385Y36.8046
X34.417Y36.8046
X35.22049Y35.26572
X59.944Y33.2486
X61.976Y34.5186
X57.66664Y26.8986
X7.239Y40.46274
X7.239Y35.3822
X13.462Y34.98973
X13.462Y40.34585
X9.398Y31.4706
X14.478Y40.3606
X14.478Y32.9946
X15.875Y13.0556
X28.69336Y37.5666
X25.273Y40.3606
X55.626Y37.5666
X13.208Y29.47214
X13.97Y29.47214
X19.304Y23.0886
X53.975Y17.1196
X53.086Y17.7546
X29.972Y23.3426
X25.908Y23.3426
X32.258Y23.3426
X33.782Y9.1186
X57.66664Y28.99484
X57.66664Y31.2166
X20.574Y29.4386
X24.384Y29.4386
X24.384Y27.1526
X22.86Y27.1526
X22.86Y25.3746
X24.384Y25.3746
X22.86Y30.2006
X22.86Y31.2166
X13.462Y39.0906
X9.398Y26.2636
X9.398Y18.0086
X15.748Y9.3726
X44.20286Y18.83443
X49.53Y49.3776
X59.182Y33.2486
X60.579Y37.5666
X34.925Y38.3286
X44.25984Y5.35641
X37.90349Y12.06164
X45.12324Y5.90867
X38.63041Y11.24921
X54.20784Y9.39209
X35.53155Y4.3469
X52.85381Y9.77276
X51.09655Y9.75133
X59.31569Y7.76499
X56.72623Y8.42575
X34.36433Y5.43268
X41.11479Y12.76176
X41.72419Y12.0928
X41.89563Y11.20084
X52.28783Y18.37554
X52.28783Y16.27064
X53.07856Y16.50157
X33.65581Y31.18951
X37.71024Y13.37116
X38.37778Y14.10334
X37.67729Y16.03651
X45.3533Y9.70846
X46.35732Y14.47159
X41.61314Y13.3786
X41.04132Y14.10172
X40.44128Y14.85891
X49.94606Y20.05769
X49.49746Y20.75773
X49.95463Y21.4435
X48.77333Y17.87331
X46.59624Y17.87331
X34.27141Y23.88239
X31.36722Y22.52515
X33.655Y17.653
X34.671Y13.716
X48.26Y10.541
X61.214Y29.083
X62.484Y29.083
X67.564Y29.21
T03
X33.401Y7.5946
X15.24Y4.8006
X33.147Y1.0146
X38.1Y1.016
T04
X6.08504Y42.39953G85X5.18504Y42.39953
X6.08503Y33.74951G85X5.185Y33.74951
X1.73497Y42.39959G85X1.13497Y42.39959
X1.73497Y33.74962G85X1.13497Y33.74962
T05
X59.055Y18.8976
X61.595Y18.8976
X64.135Y18.8976
X66.675Y18.8976
X59.055Y16.3576
X61.595Y16.3576
X64.135Y16.3576
X66.675Y16.3576
X59.055Y21.463
X61.595Y21.463
X64.135Y21.463
X66.675Y21.463
M30