G04 Layer: TopLayer*
G04 EasyEDA Pro v3.2.149, 2026-09-18 17:02:57*
G04 Gerber Generator version 0.3*
G04 Scale: 100 percent, Rotated: No, Reflected: No*
G04 Dimensions in millimeters*
G04 Leading zeros omitted, absolute positions, 4 integers and 5 decimals*
G04 Generated by one-click*
G04 Object Configs: Pad,Via,Track,Text,Image,Dimension,BoardOutline,BoardCutout,CopperFilled,SolidRegion,FPCStiffener,Line,PlaneZone,ComponentProperty,ComponentSilkscreen,TearDrop*
G04 Layer Configs: 1,2,3,4,5,6,7,8,9,10,11,13,14,56*
G04 Copper Areas: 169*
%FSLAX45Y45*%
%MOMM*%
%ADD10C,0.2032*%
%ADD11C,0.254*%
%ADD12O,0.45001X1.65001*%
%ADD13O,1.65001X0.45001*%
%ADD14R,1.2X1.4*%
%ADD15R,1.1X0.55001*%
%ADD16R,1.1X0.3*%
%ADD17O,2.0X1.1*%
%ADD18O,1.8087X1.2*%
%ADD19O,1.8X1.2*%
%ADD20R,1.575X0.67201*%
%ADD21R,1.01999X2.99999*%
%ADD22R,0.7X1.25001*%
%ADD23R,2.0X2.99999*%
%ADD24R,3.09999X1.01999*%
%ADD25O,0.63X1.865*%
%ADD26R,0.9X2.49999*%
%ADD27O,0.55999X1.74501*%
%ADD28R,1.7X1.7*%
%ADD29C,1.7*%
%ADD30R,0.80648X0.86401*%
%ADD31R,2.0X1.59301*%
%ADD32R,0.86401X0.80648*%
%ADD33R,0.8X0.8*%
%ADD34R,0.8X0.9*%
%ADD35R,1.2X3.49999*%
%ADD36R,2.49999X1.1*%
%ADD37C,0.6096*%
%ADD38C,0.508*%
%ADD39C,1.016*%
%ADD40C,0.61*%
%ADD41C,0.3048*%
%ADD42C,0.25654*%
%ADD43C,0.2286*%
%ADD44C,0.762*%
G75*


G04 Copper Start*
G36*
G01X385208Y3538220D02*
G01X340360Y3583068D01*
G01X340360Y4031852D01*
G01X359808Y4051300D01*
G01X456936Y4051300D01*
G01X468096Y4040488D01*
G01X481346Y4032370D01*
G01X496048Y4027338D01*
G01X511493Y4025633D01*
G01X527689Y4027510D01*
G01X527689Y4019951D01*
G01X527689Y4019951D01*
G01X527700Y4019070D01*
G01X526216Y4017844D01*
G01X526216Y4017844D01*
G01X475416Y3967044D01*
G01X475416Y3967044D01*
G01X473213Y3963748D01*
G01X472440Y3959860D01*
G01X472440Y3959860D01*
G01X472440Y3629660D01*
G01X472440Y3629660D01*
G01X473213Y3625772D01*
G01X475416Y3622476D01*
G01X475416Y3622476D01*
G01X500816Y3597076D01*
G01X500816Y3597076D01*
G01X504112Y3594873D01*
G01X508000Y3594100D01*
G01X508000Y3594100D01*
G01X527689Y3594100D01*
G01X527689Y3587384D01*
G01X511493Y3589261D01*
G01X496410Y3587636D01*
G01X482019Y3582836D01*
G01X468981Y3575081D01*
G01X457893Y3564727D01*
G01X449266Y3552249D01*
G01X443494Y3538220D01*
G01X385208Y3538220D01*
G37*
G36*
G01X817008Y3233420D02*
G01X780313Y3270115D01*
G01X787105Y3281438D01*
G01X791310Y3293954D01*
G01X792734Y3307080D01*
G01X792734Y3307080D01*
G01X792734Y3436620D01*
G01X792734Y3436620D01*
G01X791558Y3448562D01*
G01X788074Y3460046D01*
G01X782418Y3470629D01*
G01X774805Y3479905D01*
G01X774805Y3479905D01*
G01X723967Y3530743D01*
G01X723967Y3530743D01*
G01X717046Y3536700D01*
G01X709317Y3541562D01*
G01X709317Y3552241D01*
G01X709639Y3551918D01*
G01X709639Y3551918D01*
G01X712935Y3549716D01*
G01X716823Y3548942D01*
G01X716823Y3548942D01*
G01X853314Y3548942D01*
G01X995028Y3407228D01*
G01X995028Y3407228D01*
G01X998325Y3405025D01*
G01X1002213Y3404252D01*
G01X1002213Y3404252D01*
G01X1114843Y3404252D01*
G01X1118705Y3400390D01*
G01X1107987Y3402031D01*
G01X1107987Y3402031D01*
G01X1027340Y3402031D01*
G01X1027340Y3402031D01*
G01X1016273Y3400278D01*
G01X1006289Y3395191D01*
G01X998366Y3387268D01*
G01X993279Y3377284D01*
G01X991526Y3366217D01*
G01X991526Y3366217D01*
G01X991526Y3279816D01*
G01X991526Y3279816D01*
G01X993279Y3268749D01*
G01X998366Y3258765D01*
G01X1006289Y3250842D01*
G01X1016273Y3245755D01*
G01X1027340Y3244002D01*
G01X1027340Y3244002D01*
G01X1107987Y3244002D01*
G01X1107987Y3244002D01*
G01X1117044Y3245166D01*
G01X1125511Y3248583D01*
G01X1132840Y3254029D01*
G01X1132840Y3252868D01*
G01X1113392Y3233420D01*
G01X817008Y3233420D01*
G37*
G36*
G01X1730833Y3209714D02*
G01X1730833Y3091160D01*
G01X1292147Y3091160D01*
G01X1293888Y3097404D01*
G01X1294474Y3103860D01*
G01X1294474Y3103860D01*
G01X1294474Y3190260D01*
G01X1294474Y3190260D01*
G01X1292721Y3201327D01*
G01X1287634Y3211311D01*
G01X1279711Y3219234D01*
G01X1269727Y3224321D01*
G01X1258660Y3226074D01*
G01X1258660Y3226074D01*
G01X1178013Y3226074D01*
G01X1178013Y3226074D01*
G01X1176329Y3226035D01*
G01X1176329Y3235552D01*
G01X1178510Y3244002D01*
G01X1258660Y3244002D01*
G01X1258660Y3244002D01*
G01X1269727Y3245755D01*
G01X1279711Y3250842D01*
G01X1287634Y3258765D01*
G01X1292721Y3268749D01*
G01X1294474Y3279816D01*
G01X1294474Y3279816D01*
G01X1294474Y3366217D01*
G01X1294474Y3366217D01*
G01X1293330Y3375198D01*
G01X1289970Y3383604D01*
G01X1284610Y3390900D01*
G01X1418192Y3390900D01*
G01X1542216Y3266876D01*
G01X1542216Y3266876D01*
G01X1545512Y3264673D01*
G01X1549400Y3263900D01*
G01X1549400Y3263900D01*
G01X1613874Y3263900D01*
G01X1623650Y3253166D01*
G01X1635679Y3245036D01*
G01X1649284Y3239968D01*
G01X1663700Y3238246D01*
G01X1678116Y3239968D01*
G01X1691721Y3245036D01*
G01X1703750Y3253166D01*
G01X1713526Y3263900D01*
G01X1740874Y3263900D01*
G01X1750469Y3253323D01*
G01X1762253Y3245257D01*
G01X1752288Y3242523D01*
G01X1743517Y3237057D01*
G01X1736673Y3229314D01*
G01X1732324Y3219940D01*
G01X1730833Y3209714D01*
G01X1730833Y3209714D01*
G37*
G36*
G01X35814Y3431047D02*
G01X35814Y4183873D01*
G01X47741Y4170271D01*
G01X62012Y4159153D01*
G01X78119Y4150915D01*
G01X95487Y4145853D01*
G01X113497Y4144145D01*
G01X173497Y4144145D01*
G01X192190Y4145986D01*
G01X210164Y4151438D01*
G01X226729Y4160292D01*
G01X241248Y4172208D01*
G01X253164Y4186727D01*
G01X262018Y4203292D01*
G01X267470Y4221266D01*
G01X269311Y4239959D01*
G01X267470Y4258651D01*
G01X262018Y4276625D01*
G01X253164Y4293190D01*
G01X241248Y4307709D01*
G01X226729Y4319625D01*
G01X210164Y4328479D01*
G01X192190Y4333931D01*
G01X173497Y4335772D01*
G01X113497Y4335772D01*
G01X95487Y4334064D01*
G01X78119Y4329002D01*
G01X62012Y4320764D01*
G01X47741Y4309646D01*
G01X35814Y4296044D01*
G01X35814Y5217753D01*
G01X49193Y5217753D01*
G01X49193Y5107753D01*
G01X50946Y5096686D01*
G01X56033Y5086702D01*
G01X63957Y5078779D01*
G01X73940Y5073692D01*
G01X85007Y5071939D01*
G01X335007Y5071939D01*
G01X346074Y5073692D01*
G01X356058Y5078779D01*
G01X363981Y5086702D01*
G01X369068Y5096686D01*
G01X370821Y5107753D01*
G01X370821Y5217753D01*
G01X370821Y5217753D01*
G01X899179Y5217753D01*
G01X899179Y5107753D01*
G01X900932Y5096686D01*
G01X906019Y5086702D01*
G01X913942Y5078779D01*
G01X923926Y5073692D01*
G01X934993Y5071939D01*
G01X1184993Y5071939D01*
G01X1196060Y5073692D01*
G01X1203454Y5077460D01*
G01X1328166Y5077460D01*
G01X1330159Y5049590D01*
G01X1336099Y5022287D01*
G01X1345863Y4996108D01*
G01X1359254Y4971584D01*
G01X1375999Y4949216D01*
G01X1395756Y4929459D01*
G01X1418124Y4912714D01*
G01X1442648Y4899323D01*
G01X1468827Y4889559D01*
G01X1496130Y4883619D01*
G01X1524000Y4881626D01*
G01X1551870Y4883619D01*
G01X1579173Y4889559D01*
G01X1605352Y4899323D01*
G01X1629876Y4912714D01*
G01X1652244Y4929459D01*
G01X1672001Y4949216D01*
G01X1688746Y4971584D01*
G01X1702137Y4996108D01*
G01X1711901Y5022287D01*
G01X1717841Y5049590D01*
G01X1719834Y5077460D01*
G01X1717841Y5105330D01*
G01X1711901Y5132633D01*
G01X1702137Y5158812D01*
G01X1688746Y5183336D01*
G01X1672001Y5205704D01*
G01X1652244Y5225461D01*
G01X1629876Y5242206D01*
G01X1605352Y5255597D01*
G01X1579173Y5265361D01*
G01X1551870Y5271301D01*
G01X1524000Y5273294D01*
G01X1496130Y5271301D01*
G01X1468827Y5265361D01*
G01X1442648Y5255597D01*
G01X1418124Y5242206D01*
G01X1395756Y5225461D01*
G01X1375999Y5205704D01*
G01X1359254Y5183336D01*
G01X1345863Y5158812D01*
G01X1336099Y5132633D01*
G01X1330159Y5105330D01*
G01X1328166Y5077460D01*
G01X1328166Y5077460D01*
G01X1203454Y5077460D01*
G01X1206043Y5078779D01*
G01X1213967Y5086702D01*
G01X1219054Y5096686D01*
G01X1220807Y5107753D01*
G01X1220807Y5217753D01*
G01X1220807Y5217753D01*
G01X1219054Y5228820D01*
G01X1213967Y5238804D01*
G01X1206043Y5246727D01*
G01X1196060Y5251814D01*
G01X1184993Y5253567D01*
G01X934993Y5253567D01*
G01X923926Y5251814D01*
G01X913942Y5246727D01*
G01X906019Y5238804D01*
G01X900932Y5228820D01*
G01X899179Y5217753D01*
G01X370821Y5217753D01*
G01X369068Y5228820D01*
G01X363981Y5238804D01*
G01X356058Y5246727D01*
G01X346074Y5251814D01*
G01X335007Y5253567D01*
G01X85007Y5253567D01*
G01X73940Y5251814D01*
G01X63957Y5246727D01*
G01X56033Y5238804D01*
G01X50946Y5228820D01*
G01X49193Y5217753D01*
G01X35814Y5217753D01*
G01X35814Y5313496D01*
G01X39094Y5334814D01*
G01X44341Y5349243D01*
G01X54375Y5361787D01*
G01X68612Y5371752D01*
G01X84590Y5379015D01*
G01X102412Y5381985D01*
G01X1729342Y5381985D01*
G01X1729287Y5379999D01*
G01X1729287Y5080000D01*
G01X1731036Y5068943D01*
G01X1736114Y5058967D01*
G01X1744023Y5051045D01*
G01X1753992Y5045952D01*
G01X1765046Y5044186D01*
G01X1765046Y4646924D01*
G01X1766784Y4624935D01*
G01X1743019Y4648700D01*
G01X1714439Y4674603D01*
G01X1683458Y4697581D01*
G01X1650374Y4717410D01*
G01X1615506Y4733902D01*
G01X1579189Y4746896D01*
G01X1541773Y4756269D01*
G01X1503619Y4761928D01*
G01X1465094Y4763821D01*
G01X1220807Y4763821D01*
G01X1220807Y4767767D01*
G01X1219054Y4778834D01*
G01X1213967Y4788818D01*
G01X1206043Y4796741D01*
G01X1196060Y4801828D01*
G01X1184993Y4803581D01*
G01X934993Y4803581D01*
G01X923926Y4801828D01*
G01X913942Y4796741D01*
G01X906019Y4788818D01*
G01X900932Y4778834D01*
G01X899179Y4767767D01*
G01X899179Y4763821D01*
G01X370821Y4763821D01*
G01X370821Y4767767D01*
G01X369068Y4778834D01*
G01X363981Y4788818D01*
G01X356058Y4796741D01*
G01X346074Y4801828D01*
G01X335007Y4803581D01*
G01X85007Y4803581D01*
G01X73940Y4801828D01*
G01X63957Y4796741D01*
G01X56033Y4788818D01*
G01X50946Y4778834D01*
G01X49193Y4767767D01*
G01X49193Y4657767D01*
G01X50946Y4646700D01*
G01X56033Y4636716D01*
G01X63957Y4628793D01*
G01X73940Y4623706D01*
G01X85007Y4621953D01*
G01X335007Y4621953D01*
G01X346074Y4623706D01*
G01X356058Y4628793D01*
G01X363981Y4636716D01*
G01X369068Y4646700D01*
G01X370821Y4657767D01*
G01X370821Y4661713D01*
G01X899179Y4661713D01*
G01X899179Y4657767D01*
G01X900932Y4646700D01*
G01X906019Y4636716D01*
G01X913942Y4628793D01*
G01X923926Y4623706D01*
G01X934993Y4621953D01*
G01X1016610Y4621953D01*
G01X1016610Y4469029D01*
G01X1006504Y4463990D01*
G01X998470Y4456054D01*
G01X993306Y4446012D01*
G01X991526Y4434860D01*
G01X991526Y4348460D01*
G01X993306Y4337308D01*
G01X998470Y4327266D01*
G01X1006504Y4319330D01*
G01X1016610Y4314291D01*
G01X1016610Y4290492D01*
G01X1006504Y4285452D01*
G01X998470Y4277517D01*
G01X993306Y4267474D01*
G01X991526Y4256323D01*
G01X991526Y4169922D01*
G01X993279Y4158855D01*
G01X998366Y4148871D01*
G01X1006289Y4140948D01*
G01X1016273Y4135861D01*
G01X1027340Y4134108D01*
G01X1107987Y4134108D01*
G01X1117601Y4135423D01*
G01X1126509Y4139270D01*
G01X1134058Y4145367D01*
G01X1139693Y4153266D01*
G01X1143000Y4162389D01*
G01X1146307Y4153266D01*
G01X1151942Y4145367D01*
G01X1159491Y4139270D01*
G01X1168399Y4135423D01*
G01X1178013Y4134108D01*
G01X1258660Y4134108D01*
G01X1268211Y4135405D01*
G01X1277070Y4139202D01*
G01X1284595Y4145224D01*
G01X1290243Y4153035D01*
G01X1293602Y4162069D01*
G01X1411986Y4162069D01*
G01X1411986Y4086860D01*
G01X1412046Y4085747D01*
G01X1400794Y4075273D01*
G01X1392507Y4062326D01*
G01X1387707Y4047722D01*
G01X1386696Y4032384D01*
G01X1389539Y4017277D01*
G01X1396056Y4003354D01*
G01X1405835Y3991494D01*
G01X1418261Y3982445D01*
G01X1432550Y3976776D01*
G01X1447800Y3974846D01*
G01X1472886Y3974846D01*
G01X1472886Y3959258D01*
G01X1474592Y3944602D01*
G01X1479619Y3930729D01*
G01X1487697Y3918381D01*
G01X1498396Y3908219D01*
G01X1511142Y3900786D01*
G01X1525255Y3896479D01*
G01X1539980Y3895529D01*
G01X1554529Y3897986D01*
G01X1645871Y3897986D01*
G01X1657686Y3895728D01*
G01X1669714Y3895728D01*
G01X1681529Y3897986D01*
G01X1772871Y3897986D01*
G01X1784686Y3895728D01*
G01X1796714Y3895728D01*
G01X1808529Y3897986D01*
G01X1899871Y3897986D01*
G01X1911686Y3895728D01*
G01X1923714Y3895728D01*
G01X1935529Y3897986D01*
G01X2026871Y3897986D01*
G01X2038686Y3895728D01*
G01X2050714Y3895728D01*
G01X2062529Y3897986D01*
G01X2153871Y3897986D01*
G01X2165686Y3895728D01*
G01X2177714Y3895728D01*
G01X2189529Y3897986D01*
G01X2280871Y3897986D01*
G01X2292686Y3895728D01*
G01X2304714Y3895728D01*
G01X2316529Y3897986D01*
G01X2407871Y3897986D01*
G01X2420082Y3895692D01*
G01X2432506Y3895808D01*
G01X2432506Y3890561D01*
G01X2433901Y3885354D01*
G01X2437713Y3881542D01*
G01X2442920Y3880147D01*
G01X2465442Y3880147D01*
G01X2463546Y3858260D01*
G01X2463546Y3563874D01*
G01X2445659Y3563874D01*
G01X2432454Y3566717D01*
G01X2418946Y3566717D01*
G01X2405741Y3563874D01*
G01X2318659Y3563874D01*
G01X2305454Y3566717D01*
G01X2291946Y3566717D01*
G01X2278741Y3563874D01*
G01X2218944Y3563874D01*
G01X2218944Y3717275D01*
G01X2217334Y3729502D01*
G01X2212615Y3740897D01*
G01X2205107Y3750681D01*
G01X2137822Y3817966D01*
G01X2128037Y3825474D01*
G01X2116643Y3830194D01*
G01X2104415Y3831803D01*
G01X1303123Y3831803D01*
G01X1288203Y3846723D01*
G01X1288203Y3899248D01*
G01X1286450Y3910315D01*
G01X1281363Y3920299D01*
G01X1273440Y3928222D01*
G01X1263456Y3933309D01*
G01X1252389Y3935062D01*
G01X1171741Y3935062D01*
G01X1162128Y3933748D01*
G01X1153219Y3929901D01*
G01X1145671Y3923804D01*
G01X1140036Y3915904D01*
G01X1136729Y3906782D01*
G01X1133421Y3915904D01*
G01X1127787Y3923804D01*
G01X1120238Y3929901D01*
G01X1111330Y3933748D01*
G01X1101716Y3935062D01*
G01X1021069Y3935062D01*
G01X1010001Y3933309D01*
G01X1000018Y3928222D01*
G01X992094Y3920299D01*
G01X987007Y3910315D01*
G01X985255Y3899248D01*
G01X985255Y3815271D01*
G01X797201Y3815271D01*
G01X797201Y3855063D01*
G01X795591Y3867291D01*
G01X790871Y3878685D01*
G01X783363Y3888470D01*
G01X777935Y3893898D01*
G01X780555Y3896340D01*
G01X867746Y3983531D01*
G01X992398Y3983531D01*
G01X995757Y3974497D01*
G01X1001405Y3966687D01*
G01X1008930Y3960665D01*
G01X1017789Y3956868D01*
G01X1027340Y3955571D01*
G01X1107987Y3955571D01*
G01X1117601Y3956885D01*
G01X1126509Y3960732D01*
G01X1134058Y3966829D01*
G01X1139693Y3974729D01*
G01X1143000Y3983851D01*
G01X1146307Y3974729D01*
G01X1151942Y3966829D01*
G01X1159491Y3960732D01*
G01X1168399Y3956885D01*
G01X1178013Y3955571D01*
G01X1258660Y3955571D01*
G01X1269727Y3957324D01*
G01X1279711Y3962411D01*
G01X1287634Y3970334D01*
G01X1292721Y3980318D01*
G01X1294474Y3991385D01*
G01X1294474Y4077786D01*
G01X1292721Y4088853D01*
G01X1287634Y4098837D01*
G01X1279711Y4106760D01*
G01X1269727Y4111847D01*
G01X1258660Y4113600D01*
G01X1178013Y4113600D01*
G01X1168399Y4112285D01*
G01X1159491Y4108438D01*
G01X1151942Y4102341D01*
G01X1146307Y4094442D01*
G01X1143000Y4085319D01*
G01X1139693Y4094442D01*
G01X1134058Y4102341D01*
G01X1126509Y4108438D01*
G01X1117601Y4112285D01*
G01X1107987Y4113600D01*
G01X1027340Y4113600D01*
G01X1017789Y4112303D01*
G01X1008930Y4108506D01*
G01X1001405Y4102484D01*
G01X995757Y4094673D01*
G01X992398Y4085639D01*
G01X846599Y4085639D01*
G01X833385Y4083900D01*
G01X821072Y4078799D01*
G01X810498Y4070686D01*
G01X785106Y4045294D01*
G01X784099Y4057374D01*
G01X780732Y4069019D01*
G01X775135Y4079772D01*
G01X767530Y4089211D01*
G01X758214Y4096966D01*
G01X747552Y4102734D01*
G01X735962Y4106288D01*
G01X723900Y4107488D01*
G01X709317Y4107488D01*
G01X709317Y4154962D01*
G01X707505Y4166209D01*
G01X702253Y4176318D01*
G01X694093Y4184266D01*
G01X683849Y4189249D01*
G01X692305Y4204947D01*
G01X697531Y4221995D01*
G01X699325Y4239735D01*
G01X697619Y4257483D01*
G01X692477Y4274556D01*
G01X684098Y4290296D01*
G01X672806Y4304094D01*
G01X659035Y4315421D01*
G01X643316Y4323838D01*
G01X626256Y4329022D01*
G01X608512Y4330772D01*
G01X518512Y4330772D01*
G01X499941Y4328853D01*
G01X482155Y4323177D01*
G01X465906Y4313984D01*
G01X451880Y4301662D01*
G01X440670Y4286733D01*
G01X432750Y4269826D01*
G01X428455Y4251658D01*
G01X427965Y4232994D01*
G01X431303Y4214626D01*
G01X438326Y4197327D01*
G01X448738Y4181831D01*
G01X462099Y4168791D01*
G01X477845Y4158759D01*
G01X465444Y4150247D01*
G01X455120Y4139308D01*
G01X447340Y4126436D01*
G01X442454Y4112210D01*
G01X440682Y4097274D01*
G01X355600Y4097274D01*
G01X346331Y4096054D01*
G01X337693Y4092476D01*
G01X330276Y4086784D01*
G01X304876Y4061384D01*
G01X299184Y4053967D01*
G01X295606Y4045329D01*
G01X294386Y4036060D01*
G01X294386Y3578860D01*
G01X295606Y3569591D01*
G01X299184Y3560953D01*
G01X304876Y3553536D01*
G01X355676Y3502736D01*
G01X363093Y3497044D01*
G01X371731Y3493466D01*
G01X381000Y3492246D01*
G01X445702Y3492246D01*
G01X453493Y3477816D01*
G01X464394Y3465564D01*
G01X477820Y3456149D01*
G01X462080Y3446113D01*
G01X448724Y3433071D01*
G01X438316Y3417574D01*
G01X431298Y3400276D01*
G01X427964Y3381909D01*
G01X428457Y3363248D01*
G01X432754Y3345082D01*
G01X440675Y3328178D01*
G01X451886Y3313252D01*
G01X465911Y3300932D01*
G01X482159Y3291741D01*
G01X499943Y3286066D01*
G01X518512Y3284148D01*
G01X608512Y3284148D01*
G01X623881Y3285458D01*
G01X638807Y3289350D01*
G01X652859Y3295712D01*
G01X665632Y3304361D01*
G01X676757Y3315047D01*
G01X680326Y3306709D01*
G01X685876Y3299536D01*
G01X787476Y3197936D01*
G01X794893Y3192244D01*
G01X803531Y3188666D01*
G01X812800Y3187446D01*
G01X991526Y3187446D01*
G01X991526Y3103860D01*
G01X992918Y3093970D01*
G01X996987Y3084850D01*
G01X1003416Y3077208D01*
G01X1011706Y3071638D01*
G01X1021211Y3068574D01*
G01X495300Y3068574D01*
G01X484233Y3066821D01*
G01X474249Y3061734D01*
G01X466326Y3053811D01*
G01X461239Y3043827D01*
G01X459486Y3032760D01*
G01X459486Y2858474D01*
G01X306327Y2858474D01*
G01X295259Y2856721D01*
G01X285276Y2851634D01*
G01X277352Y2843711D01*
G01X272265Y2833727D01*
G01X270513Y2822660D01*
G01X270513Y2755459D01*
G01X272265Y2744392D01*
G01X277352Y2734408D01*
G01X285276Y2726485D01*
G01X295259Y2721398D01*
G01X306327Y2719645D01*
G01X425724Y2719645D01*
G01X423242Y2713939D01*
G01X421785Y2707889D01*
G01X306314Y2707889D01*
G01X295247Y2706136D01*
G01X285263Y2701049D01*
G01X277340Y2693126D01*
G01X272253Y2683142D01*
G01X270500Y2672075D01*
G01X270500Y2606076D01*
G01X271989Y2595854D01*
G01X276334Y2586483D01*
G01X283173Y2578742D01*
G01X291937Y2573274D01*
G01X228600Y2573274D01*
G01X219331Y2572054D01*
G01X210693Y2568476D01*
G01X203276Y2562784D01*
G01X177876Y2537384D01*
G01X172184Y2529967D01*
G01X168606Y2521329D01*
G01X167386Y2512060D01*
G01X167386Y2385060D01*
G01X168606Y2375791D01*
G01X172184Y2367153D01*
G01X177876Y2359736D01*
G01X254076Y2283536D01*
G01X261493Y2277844D01*
G01X270131Y2274266D01*
G01X279400Y2273046D01*
G01X772565Y2273046D01*
G01X776986Y2268625D01*
G01X776986Y2222095D01*
G01X772565Y2217674D01*
G01X482600Y2217674D01*
G01X471533Y2215921D01*
G01X461549Y2210834D01*
G01X453626Y2202911D01*
G01X448539Y2192927D01*
G01X446786Y2181860D01*
G01X446786Y2085607D01*
G01X306327Y2085607D01*
G01X295259Y2083854D01*
G01X285276Y2078767D01*
G01X277352Y2070844D01*
G01X272265Y2060860D01*
G01X270513Y2049793D01*
G01X270513Y1982592D01*
G01X272265Y1971525D01*
G01X277352Y1961541D01*
G01X285276Y1953618D01*
G01X295259Y1948531D01*
G01X306327Y1946778D01*
G01X422378Y1946778D01*
G01X421386Y1938407D01*
G01X421386Y1935022D01*
G01X306314Y1935022D01*
G01X295247Y1933269D01*
G01X285263Y1928182D01*
G01X277340Y1920258D01*
G01X272253Y1910275D01*
G01X270500Y1899208D01*
G01X270500Y1833208D01*
G01X272253Y1822141D01*
G01X277340Y1812157D01*
G01X285263Y1804234D01*
G01X295247Y1799147D01*
G01X306314Y1797394D01*
G01X426425Y1797394D01*
G01X431876Y1790388D01*
G01X436657Y1785607D01*
G01X410763Y1785607D01*
G01X406400Y1785874D01*
G01X264414Y1785874D01*
G01X264414Y1826260D01*
G01X263019Y1831467D01*
G01X259207Y1835279D01*
G01X254000Y1836674D01*
G01X228600Y1836674D01*
G01X223393Y1835279D01*
G01X219581Y1831467D01*
G01X218186Y1826260D01*
G01X218186Y1784326D01*
G01X210180Y1780774D01*
G01X203276Y1775384D01*
G01X177876Y1749984D01*
G01X172184Y1742567D01*
G01X168606Y1733929D01*
G01X167386Y1724660D01*
G01X167386Y1594417D01*
G01X159941Y1586561D01*
G01X155184Y1576838D01*
G01X153548Y1566139D01*
G01X153548Y1266139D01*
G01X155301Y1255072D01*
G01X160388Y1245088D01*
G01X168311Y1237165D01*
G01X178295Y1232078D01*
G01X189362Y1230325D01*
G01X352685Y1230325D01*
G01X551417Y1031593D01*
G01X568652Y1016475D01*
G01X587710Y1003733D01*
G01X608267Y993584D01*
G01X629971Y986201D01*
G01X652453Y981709D01*
G01X675328Y980186D01*
G01X656411Y967267D01*
G01X640037Y951246D01*
G01X626710Y932615D01*
G01X616836Y911944D01*
G01X610721Y889868D01*
G01X608549Y867063D01*
G01X610390Y844230D01*
G01X616185Y822067D01*
G01X625757Y801256D01*
G01X638813Y782433D01*
G01X654952Y766176D01*
G01X673680Y752984D01*
G01X694421Y743261D01*
G01X716541Y737305D01*
G01X739361Y735300D01*
G01X762180Y737305D01*
G01X784300Y743261D01*
G01X805042Y752984D01*
G01X823770Y766176D01*
G01X839909Y782433D01*
G01X852965Y801255D01*
G01X862537Y822067D01*
G01X868332Y844230D01*
G01X870173Y867063D01*
G01X868001Y889868D01*
G01X861886Y911944D01*
G01X852012Y932614D01*
G01X838685Y951246D01*
G01X822312Y967267D01*
G01X803395Y980186D01*
G01X901383Y980186D01*
G01X1435571Y445998D01*
G01X1407937Y449528D01*
G01X1380081Y449102D01*
G01X1352567Y444727D01*
G01X1325953Y436492D01*
G01X1300776Y424564D01*
G01X1277547Y409184D01*
G01X1256736Y390663D01*
G01X1238762Y369377D01*
G01X1223992Y345756D01*
G01X1212722Y320277D01*
G01X1205182Y293458D01*
G01X1201524Y265840D01*
G01X1201822Y237982D01*
G01X1206070Y210449D01*
G01X1214182Y183797D01*
G01X1225994Y158565D01*
G01X1241266Y135265D01*
G01X1259690Y114368D01*
G01X1280893Y96297D01*
G01X1304446Y81418D01*
G01X1329872Y70031D01*
G01X1356656Y62367D01*
G01X1384257Y58581D01*
G01X1412116Y58750D01*
G01X1439669Y62871D01*
G01X1466358Y70859D01*
G01X1491643Y82554D01*
G01X1515014Y97719D01*
G01X1535996Y116047D01*
G01X1554165Y137166D01*
G01X1569153Y160650D01*
G01X1580657Y186023D01*
G01X1588445Y212771D01*
G01X1592358Y240354D01*
G01X1592318Y268214D01*
G01X1588324Y295785D01*
G01X1642456Y241653D01*
G01X1659717Y226515D01*
G01X1678807Y213760D01*
G01X1699397Y203606D01*
G01X1721137Y196227D01*
G01X1743654Y191748D01*
G01X1766564Y190246D01*
G01X1813862Y190246D01*
G01X1817074Y180967D01*
G01X1822684Y172909D01*
G01X1830272Y166678D01*
G01X1839267Y162741D01*
G01X1848993Y161395D01*
G01X2048993Y161395D01*
G01X2060060Y163148D01*
G01X2070044Y168235D01*
G01X2077967Y176158D01*
G01X2083054Y186142D01*
G01X2084807Y197209D01*
G01X2084807Y356511D01*
G01X2083054Y367578D01*
G01X2077967Y377562D01*
G01X2070044Y385485D01*
G01X2060060Y390572D01*
G01X2048993Y392325D01*
G01X1848993Y392325D01*
G01X1839267Y390979D01*
G01X1830272Y387042D01*
G01X1822684Y380811D01*
G01X1817074Y372753D01*
G01X1813862Y363474D01*
G01X1766564Y363474D01*
G01X1764947Y364144D01*
G01X1586515Y542575D01*
G01X1572838Y553713D01*
G01X1306696Y819855D01*
G01X1745686Y819855D01*
G01X1745686Y469856D01*
G01X1747439Y458788D01*
G01X1752526Y448805D01*
G01X1760449Y440881D01*
G01X1770433Y435794D01*
G01X1781500Y434042D01*
G01X1901500Y434042D01*
G01X1912567Y435794D01*
G01X1922551Y440881D01*
G01X1930474Y448805D01*
G01X1935561Y458788D01*
G01X1937314Y469856D01*
G01X1937314Y819855D01*
G01X1935561Y830922D01*
G01X1930474Y840906D01*
G01X1922551Y848829D01*
G01X1912567Y853916D01*
G01X1901500Y855669D01*
G01X1781500Y855669D01*
G01X1781500Y855669D01*
G01X1770433Y853916D01*
G01X1760449Y848829D01*
G01X1752526Y840906D01*
G01X1747439Y830922D01*
G01X1745686Y819855D01*
G01X1306696Y819855D01*
G01X986644Y1139906D01*
G01X985975Y1141523D01*
G01X985975Y1230325D01*
G01X999360Y1230325D01*
G01X1010428Y1232078D01*
G01X1020411Y1237165D01*
G01X1028335Y1245088D01*
G01X1033422Y1255072D01*
G01X1035174Y1266139D01*
G01X1035174Y1503173D01*
G01X1664020Y886294D01*
G01X1671392Y880730D01*
G01X1679941Y877237D01*
G01X1689100Y876046D01*
G01X1906428Y876046D01*
G01X1970786Y811688D01*
G01X1970786Y556109D01*
G01X1972006Y546840D01*
G01X1975584Y538202D01*
G01X1981276Y530785D01*
G01X2148586Y363475D01*
G01X2148586Y162560D01*
G01X2149806Y153291D01*
G01X2153384Y144653D01*
G01X2159076Y137236D01*
G01X2222576Y73736D01*
G01X2229993Y68044D01*
G01X2238631Y64466D01*
G01X2247900Y63246D01*
G01X2489200Y63246D01*
G01X2498469Y64466D01*
G01X2507107Y68044D01*
G01X2514524Y73736D01*
G01X2565324Y124536D01*
G01X2571016Y131953D01*
G01X2574594Y140591D01*
G01X2575814Y149860D01*
G01X2575814Y251460D01*
G01X2707187Y251460D01*
G01X2708939Y240393D01*
G01X2714026Y230409D01*
G01X2721950Y222486D01*
G01X2731933Y217399D01*
G01X2743001Y215646D01*
G01X2844999Y215646D01*
G01X2856067Y217399D01*
G01X2866050Y222486D01*
G01X2873974Y230409D01*
G01X2879061Y240393D01*
G01X2880813Y251460D01*
G01X2880813Y551459D01*
G01X2879061Y562527D01*
G01X2873974Y572510D01*
G01X2866050Y580434D01*
G01X2856067Y585521D01*
G01X2844999Y587273D01*
G01X2743001Y587273D01*
G01X2731933Y585521D01*
G01X2721950Y580434D01*
G01X2714026Y572510D01*
G01X2708939Y562527D01*
G01X2707187Y551459D01*
G01X2707187Y251460D01*
G01X2707187Y251460D01*
G01X2575814Y251460D01*
G01X2575814Y365760D01*
G01X2574594Y375029D01*
G01X2571016Y383667D01*
G01X2565324Y391084D01*
G01X2522367Y434042D01*
G01X2612700Y434042D01*
G01X2623767Y435794D01*
G01X2633751Y440881D01*
G01X2641674Y448805D01*
G01X2646761Y458788D01*
G01X2648514Y469856D01*
G01X2648514Y819855D01*
G01X2646761Y830922D01*
G01X2641674Y840906D01*
G01X2633751Y848829D01*
G01X2623767Y853916D01*
G01X2612700Y855669D01*
G01X2492700Y855669D01*
G01X2481633Y853916D01*
G01X2471649Y848829D01*
G01X2463726Y840906D01*
G01X2458639Y830922D01*
G01X2456886Y819855D01*
G01X2456886Y499523D01*
G01X2398014Y558395D01*
G01X2398014Y759460D01*
G01X2396794Y768729D01*
G01X2393216Y777367D01*
G01X2387524Y784784D01*
G01X2296187Y876121D01*
G01X2298511Y876046D01*
G01X2618028Y876046D01*
G01X2960716Y533358D01*
G01X2961386Y531741D01*
G01X2961386Y255234D01*
G01X2961187Y251460D01*
G01X2961187Y-48539D01*
G01X2961633Y-54176D01*
G01X102412Y-54176D01*
G01X83197Y-50974D01*
G01X68556Y-45650D01*
G01X55103Y-34887D01*
G01X44341Y-21434D01*
G01X39017Y-6793D01*
G01X35814Y12422D01*
G01X35814Y166141D01*
G01X153548Y166141D01*
G01X155301Y155074D01*
G01X160388Y145090D01*
G01X168311Y137167D01*
G01X178295Y132080D01*
G01X189362Y130327D01*
G01X389362Y130327D01*
G01X400429Y132080D01*
G01X410413Y137167D01*
G01X418336Y145090D01*
G01X423423Y155074D01*
G01X425176Y166141D01*
G01X425176Y166141D01*
G01X763529Y166141D01*
G01X765282Y155074D01*
G01X770369Y145090D01*
G01X778292Y137167D01*
G01X788276Y132080D01*
G01X799343Y130327D01*
G01X999343Y130327D01*
G01X1010410Y132080D01*
G01X1020394Y137167D01*
G01X1028317Y145090D01*
G01X1033404Y155074D01*
G01X1035157Y166141D01*
G01X1035157Y466141D01*
G01X1033404Y477208D01*
G01X1028317Y487192D01*
G01X1020394Y495115D01*
G01X1010410Y500202D01*
G01X999343Y501955D01*
G01X799343Y501955D01*
G01X788276Y500202D01*
G01X778292Y495115D01*
G01X770369Y487192D01*
G01X765282Y477208D01*
G01X763529Y466141D01*
G01X763529Y166141D01*
G01X763529Y166141D01*
G01X425176Y166141D01*
G01X425176Y466141D01*
G01X423423Y477208D01*
G01X418336Y487192D01*
G01X410413Y495115D01*
G01X400429Y500202D01*
G01X389362Y501955D01*
G01X189362Y501955D01*
G01X178295Y500202D01*
G01X168311Y495115D01*
G01X160388Y487192D01*
G01X155301Y477208D01*
G01X153548Y466141D01*
G01X153548Y166141D01*
G01X153548Y166141D01*
G01X35814Y166141D01*
G01X35814Y866115D01*
G01X178547Y866115D01*
G01X180434Y845752D01*
G01X186030Y826084D01*
G01X195145Y807778D01*
G01X207469Y791459D01*
G01X222581Y777682D01*
G01X239967Y766917D01*
G01X259036Y759530D01*
G01X279137Y755772D01*
G01X299587Y755772D01*
G01X319688Y759530D01*
G01X338756Y766917D01*
G01X356143Y777682D01*
G01X371255Y791459D01*
G01X383579Y807778D01*
G01X392694Y826084D01*
G01X398290Y845752D01*
G01X400177Y866115D01*
G01X398290Y886477D01*
G01X392694Y906146D01*
G01X383579Y924451D01*
G01X371255Y940770D01*
G01X356143Y954547D01*
G01X338756Y965312D01*
G01X319688Y972699D01*
G01X299587Y976457D01*
G01X279137Y976457D01*
G01X259036Y972699D01*
G01X239967Y965312D01*
G01X222581Y954547D01*
G01X207469Y940770D01*
G01X195145Y924451D01*
G01X186030Y906146D01*
G01X180434Y886477D01*
G01X178547Y866115D01*
G01X178547Y866115D01*
G01X35814Y866115D01*
G01X35814Y3318876D01*
G01X47741Y3305274D01*
G01X62012Y3294156D01*
G01X78119Y3285918D01*
G01X95487Y3280856D01*
G01X113497Y3279148D01*
G01X173497Y3279148D01*
G01X192190Y3280989D01*
G01X210164Y3286441D01*
G01X226729Y3295295D01*
G01X241248Y3307211D01*
G01X253164Y3321730D01*
G01X262018Y3338295D01*
G01X267470Y3356269D01*
G01X269311Y3374962D01*
G01X267470Y3393654D01*
G01X262018Y3411628D01*
G01X253164Y3428193D01*
G01X241248Y3442712D01*
G01X226729Y3454628D01*
G01X210164Y3463482D01*
G01X192190Y3468934D01*
G01X173497Y3470775D01*
G01X113497Y3470775D01*
G01X95487Y3469067D01*
G01X78119Y3464005D01*
G01X62012Y3455767D01*
G01X47741Y3444649D01*
G01X35814Y3431047D01*
G37*
G36*
G01X425176Y1553064D02*
G01X763547Y1553064D01*
G01X763547Y1266139D01*
G01X765300Y1255072D01*
G01X770387Y1245088D01*
G01X778310Y1237165D01*
G01X788294Y1232078D01*
G01X799361Y1230325D01*
G01X812747Y1230325D01*
G01X812747Y1153414D01*
G01X675524Y1153414D01*
G01X673908Y1154084D01*
G01X425176Y1402816D01*
G01X425176Y1553064D01*
G37*
G36*
G01X2086356Y3685516D02*
G01X2086356Y3649229D01*
G01X2011293Y3574167D01*
G01X2003496Y3563874D01*
G01X1937659Y3563874D01*
G01X1924454Y3566717D01*
G01X1910946Y3566717D01*
G01X1897741Y3563874D01*
G01X1810659Y3563874D01*
G01X1797454Y3566717D01*
G01X1783946Y3566717D01*
G01X1770741Y3563874D01*
G01X1683659Y3563874D01*
G01X1670454Y3566717D01*
G01X1656946Y3566717D01*
G01X1643741Y3563874D01*
G01X1574800Y3563874D01*
G01X1570142Y3562774D01*
G01X1566468Y3559707D01*
G01X1552911Y3564982D01*
G01X1538512Y3567050D01*
G01X1524018Y3565803D01*
G01X1510184Y3561306D01*
G01X1497728Y3553793D01*
G01X1487296Y3543653D01*
G01X1479432Y3531415D01*
G01X1474544Y3517714D01*
G01X1472886Y3503262D01*
G01X1472886Y3401222D01*
G01X1447724Y3426384D01*
G01X1440307Y3432076D01*
G01X1431669Y3435654D01*
G01X1422400Y3436874D01*
G01X1289082Y3436874D01*
G01X1293100Y3445946D01*
G01X1294474Y3455773D01*
G01X1294474Y3542174D01*
G01X1292721Y3553241D01*
G01X1287634Y3563225D01*
G01X1279711Y3571148D01*
G01X1269727Y3576235D01*
G01X1258660Y3577988D01*
G01X1178013Y3577988D01*
G01X1168399Y3576673D01*
G01X1159491Y3572826D01*
G01X1151942Y3566729D01*
G01X1146307Y3558830D01*
G01X1143000Y3549708D01*
G01X1139693Y3558830D01*
G01X1134058Y3566729D01*
G01X1126509Y3572826D01*
G01X1117601Y3576673D01*
G01X1107987Y3577988D01*
G01X1027340Y3577988D01*
G01X1017421Y3576587D01*
G01X1008278Y3572494D01*
G01X1000626Y3566028D01*
G01X995065Y3557697D01*
G01X912401Y3640361D01*
G01X901827Y3648474D01*
G01X889514Y3653574D01*
G01X876300Y3655314D01*
G01X739274Y3655314D01*
G01X726046Y3668542D01*
G01X718235Y3674941D01*
G01X709317Y3679678D01*
G01X709317Y3685223D01*
G01X985255Y3685223D01*
G01X985255Y3634310D01*
G01X987007Y3623243D01*
G01X992094Y3613260D01*
G01X1000018Y3605336D01*
G01X1010001Y3600249D01*
G01X1021069Y3598496D01*
G01X1101716Y3598496D01*
G01X1111330Y3599811D01*
G01X1120238Y3603658D01*
G01X1127787Y3609755D01*
G01X1133421Y3617654D01*
G01X1136729Y3626777D01*
G01X1140036Y3617654D01*
G01X1145671Y3609755D01*
G01X1153219Y3603658D01*
G01X1162128Y3599811D01*
G01X1171741Y3598496D01*
G01X1252389Y3598496D01*
G01X1263456Y3600249D01*
G01X1273440Y3605336D01*
G01X1281363Y3613260D01*
G01X1286450Y3623243D01*
G01X1288203Y3634310D01*
G01X1288203Y3686835D01*
G01X1303123Y3701755D01*
G01X2070117Y3701755D01*
G01X2086356Y3685516D01*
G37*
G36*
G01X809275Y2495986D02*
G01X876224Y2562936D01*
G01X881916Y2570353D01*
G01X885494Y2578991D01*
G01X886714Y2588260D01*
G01X886714Y2666777D01*
G01X896600Y2665386D01*
G01X983000Y2665386D01*
G01X994067Y2667139D01*
G01X1004051Y2672226D01*
G01X1011974Y2680149D01*
G01X1017061Y2690133D01*
G01X1018814Y2701200D01*
G01X1018814Y2781046D01*
G01X1140186Y2781046D01*
G01X1140186Y2701200D01*
G01X1141939Y2690133D01*
G01X1147026Y2680149D01*
G01X1154949Y2672226D01*
G01X1164933Y2667139D01*
G01X1176000Y2665386D01*
G01X1262400Y2665386D01*
G01X1273467Y2667139D01*
G01X1283451Y2672226D01*
G01X1291374Y2680149D01*
G01X1296461Y2690133D01*
G01X1298214Y2701200D01*
G01X1298214Y2781046D01*
G01X1334975Y2781046D01*
G01X1335951Y2781059D01*
G01X1320876Y2765984D01*
G01X1315184Y2758567D01*
G01X1311606Y2749929D01*
G01X1310386Y2740660D01*
G01X1310386Y2501495D01*
G01X1305965Y2497074D01*
G01X1298214Y2497074D01*
G01X1298214Y2568166D01*
G01X1296461Y2579233D01*
G01X1291374Y2589216D01*
G01X1283451Y2597140D01*
G01X1273467Y2602227D01*
G01X1262400Y2603980D01*
G01X1176000Y2603980D01*
G01X1164933Y2602227D01*
G01X1154949Y2597140D01*
G01X1147026Y2589216D01*
G01X1141939Y2579233D01*
G01X1140186Y2568166D01*
G01X1140186Y2489648D01*
G01X800687Y2489648D01*
G01X809275Y2495986D01*
G37*
G36*
G01X1411986Y1936698D02*
G01X1411986Y1656519D01*
G01X1363390Y1656519D01*
G01X1303582Y1716327D01*
G01X1296692Y1721708D01*
G01X1288704Y1725259D01*
G01X1280094Y1726769D01*
G01X1288243Y1732364D01*
G01X1294552Y1739974D01*
G01X1298541Y1749019D01*
G01X1299905Y1758809D01*
G01X1299905Y1839457D01*
G01X1298152Y1850524D01*
G01X1293065Y1860508D01*
G01X1285142Y1868431D01*
G01X1275158Y1873518D01*
G01X1264091Y1875271D01*
G01X1177690Y1875271D01*
G01X1166623Y1873518D01*
G01X1156639Y1868431D01*
G01X1148716Y1860508D01*
G01X1143629Y1850524D01*
G01X1141876Y1839457D01*
G01X1141876Y1758809D01*
G01X1143233Y1749044D01*
G01X1147201Y1740019D01*
G01X1153480Y1732418D01*
G01X1161593Y1726816D01*
G01X815539Y1726816D01*
G01X863524Y1774801D01*
G01X869216Y1782219D01*
G01X872794Y1790856D01*
G01X874014Y1800126D01*
G01X874049Y1827757D01*
G01X875286Y1832037D01*
G01X875716Y1833670D01*
G01X876750Y1838004D01*
G01X877099Y1839633D01*
G01X877929Y1844007D01*
G01X878204Y1845666D01*
G01X878829Y1850078D01*
G01X879026Y1851751D01*
G01X879443Y1856186D01*
G01X879560Y1857860D01*
G01X879769Y1862307D01*
G01X879808Y1863983D01*
G01X879808Y1868438D01*
G01X879769Y1870113D01*
G01X879560Y1874561D01*
G01X879443Y1876235D01*
G01X879026Y1880670D01*
G01X878829Y1882342D01*
G01X878204Y1886754D01*
G01X877929Y1888414D01*
G01X877099Y1892788D01*
G01X876750Y1894417D01*
G01X875716Y1898750D01*
G01X875286Y1900383D01*
G01X874014Y1904782D01*
G01X874014Y1946160D01*
G01X881229Y1941002D01*
G01X889489Y1937775D01*
G01X898290Y1936677D01*
G01X984691Y1936677D01*
G01X995758Y1938430D01*
G01X1005742Y1943517D01*
G01X1013665Y1951440D01*
G01X1018752Y1961424D01*
G01X1020505Y1972491D01*
G01X1020505Y2053138D01*
G01X1020366Y2056282D01*
G01X1141151Y2056282D01*
G01X1141012Y2053138D01*
G01X1141012Y1972491D01*
G01X1142765Y1961424D01*
G01X1147852Y1951440D01*
G01X1155776Y1943517D01*
G01X1165759Y1938430D01*
G01X1176826Y1936677D01*
G01X1263227Y1936677D01*
G01X1274294Y1938430D01*
G01X1284278Y1943517D01*
G01X1292201Y1951440D01*
G01X1297288Y1961424D01*
G01X1299041Y1972491D01*
G01X1299041Y2049643D01*
G01X1411986Y1936698D01*
G37*
G36*
G01X1289614Y4452874D02*
G01X1283919Y4460250D01*
G01X1276514Y4465907D01*
G01X1267900Y4469462D01*
G01X1258660Y4470674D01*
G01X1178013Y4470674D01*
G01X1168399Y4469360D01*
G01X1159491Y4465513D01*
G01X1151942Y4459416D01*
G01X1146307Y4451516D01*
G01X1143000Y4442394D01*
G01X1139827Y4451258D01*
G01X1134454Y4458989D01*
G01X1127251Y4465052D01*
G01X1118718Y4469029D01*
G01X1118718Y4621953D01*
G01X1184993Y4621953D01*
G01X1196060Y4623706D01*
G01X1206043Y4628793D01*
G01X1213967Y4636716D01*
G01X1219054Y4646700D01*
G01X1220807Y4657767D01*
G01X1220807Y4661713D01*
G01X1465094Y4661713D01*
G01X1497668Y4659883D01*
G01X1529833Y4654418D01*
G01X1561184Y4645386D01*
G01X1591327Y4632901D01*
G01X1619882Y4617119D01*
G01X1646491Y4598239D01*
G01X1670818Y4576499D01*
G01X1827637Y4419680D01*
G01X1798129Y4431515D01*
G01X1767724Y4440809D01*
G01X1736642Y4447496D01*
G01X1705105Y4451527D01*
G01X1673341Y4452874D01*
G01X1289614Y4452874D01*
G37*
G36*
G01X2133666Y1724660D02*
G01X2124544Y1721353D01*
G01X2116644Y1715718D01*
G01X2110547Y1708169D01*
G01X2106700Y1699261D01*
G01X2105386Y1689647D01*
G01X2105386Y1609000D01*
G01X2106734Y1599266D01*
G01X2110677Y1590265D01*
G01X2116918Y1582674D01*
G01X1870882Y1582674D01*
G01X1875691Y1588110D01*
G01X1920154Y1588110D01*
G01X1935307Y1587443D01*
G01X1950159Y1590523D01*
G01X1963798Y1597160D01*
G01X1975386Y1606946D01*
G01X1984213Y1619282D01*
G01X1989735Y1633409D01*
G01X1991614Y1648460D01*
G01X1991614Y1649324D01*
G01X1990079Y1662945D01*
G01X1985552Y1675883D01*
G01X1978259Y1687490D01*
G01X1968566Y1697183D01*
G01X1956960Y1704476D01*
G01X1944021Y1709003D01*
G01X1930400Y1710538D01*
G01X1875691Y1710538D01*
G01X1869745Y1716978D01*
G01X1862413Y1721781D01*
G01X1854134Y1724660D01*
G01X1862998Y1727833D01*
G01X1870729Y1733206D01*
G01X1876792Y1740409D01*
G01X1880769Y1748942D01*
G01X2107031Y1748942D01*
G01X2111008Y1740409D01*
G01X2117071Y1733206D01*
G01X2124802Y1727833D01*
G01X2133666Y1724660D01*
G37*
G36*
G01X1902913Y5379999D02*
G01X1902858Y5381985D01*
G01X2237342Y5381985D01*
G01X2237287Y5379999D01*
G01X2237287Y5080000D01*
G01X2239036Y5068943D01*
G01X2244114Y5058967D01*
G01X2252023Y5051045D01*
G01X2261992Y5045952D01*
G01X2273046Y5044186D01*
G01X2273046Y4607881D01*
G01X2274904Y4585151D01*
G01X2280429Y4563024D01*
G01X2289475Y4542088D01*
G01X2301800Y4522900D01*
G01X2317079Y4505968D01*
G01X2334904Y4491742D01*
G01X2238235Y4491742D01*
G01X2228440Y4493032D01*
G01X2219312Y4496813D01*
G01X2211474Y4502827D01*
G01X2132239Y4582062D01*
G01X2126224Y4589901D01*
G01X2122444Y4599028D01*
G01X2121154Y4608824D01*
G01X2121154Y4744187D01*
G01X2132208Y4745953D01*
G01X2142177Y4751046D01*
G01X2150086Y4758967D01*
G01X2155164Y4768944D01*
G01X2156913Y4780001D01*
G01X2156913Y5080000D01*
G01X2155161Y5091067D01*
G01X2150074Y5101051D01*
G01X2142150Y5108974D01*
G01X2132167Y5114061D01*
G01X2121099Y5115814D01*
G01X2019101Y5115814D01*
G01X2008033Y5114061D01*
G01X1998050Y5108974D01*
G01X1990126Y5101051D01*
G01X1985039Y5091067D01*
G01X1983287Y5080000D01*
G01X1983287Y4780001D01*
G01X1985036Y4768944D01*
G01X1990114Y4758967D01*
G01X1998023Y4751046D01*
G01X2007992Y4745953D01*
G01X2019046Y4744187D01*
G01X2019046Y4608824D01*
G01X2020769Y4586930D01*
G01X2025896Y4565575D01*
G01X2034300Y4545286D01*
G01X2045775Y4526561D01*
G01X2060038Y4509861D01*
G01X2137345Y4432554D01*
G01X2081524Y4432554D01*
G01X2071728Y4433844D01*
G01X2062601Y4437624D01*
G01X2054762Y4443639D01*
G01X1878239Y4620162D01*
G01X1872224Y4628001D01*
G01X1868444Y4637128D01*
G01X1867154Y4646924D01*
G01X1867154Y5044186D01*
G01X1878208Y5045952D01*
G01X1888177Y5051045D01*
G01X1896086Y5058967D01*
G01X1901164Y5068943D01*
G01X1902913Y5080000D01*
G01X1902913Y5379999D01*
G37*
G36*
G01X2006524Y2858178D02*
G01X2012216Y2865596D01*
G01X2015794Y2874233D01*
G01X2017014Y2883503D01*
G01X2017014Y3029894D01*
G01X2016245Y3037277D01*
G01X2013970Y3044342D01*
G01X2107031Y3044342D01*
G01X2111008Y3035809D01*
G01X2117071Y3028606D01*
G01X2124802Y3023233D01*
G01X2133666Y3020060D01*
G01X2124544Y3016753D01*
G01X2116644Y3011118D01*
G01X2110547Y3003569D01*
G01X2106700Y2994661D01*
G01X2105386Y2985047D01*
G01X2105386Y2904400D01*
G01X2107139Y2893333D01*
G01X2112226Y2883349D01*
G01X2120149Y2875426D01*
G01X2130133Y2870339D01*
G01X2141200Y2868586D01*
G01X2227600Y2868586D01*
G01X2238667Y2870339D01*
G01X2248651Y2875426D01*
G01X2256574Y2883349D01*
G01X2261661Y2893333D01*
G01X2263414Y2904400D01*
G01X2263414Y2985047D01*
G01X2262100Y2994661D01*
G01X2258253Y3003569D01*
G01X2252156Y3011118D01*
G01X2244256Y3016753D01*
G01X2235134Y3020060D01*
G01X2244256Y3023367D01*
G01X2252156Y3029002D01*
G01X2258253Y3036551D01*
G01X2262100Y3045459D01*
G01X2263414Y3055073D01*
G01X2263414Y3085846D01*
G01X2311215Y3085846D01*
G01X2304182Y3069139D01*
G01X2299889Y3051527D01*
G01X2298446Y3033456D01*
G01X2298446Y2868037D01*
G01X2296503Y2858270D01*
G01X2290971Y2849989D01*
G01X2282690Y2844457D01*
G01X2272923Y2842514D01*
G01X1990860Y2842514D01*
G01X2006524Y2858178D01*
G37*
G36*
G01X2870124Y962736D02*
G01X2875816Y970153D01*
G01X2879394Y978791D01*
G01X2880614Y988060D01*
G01X2880614Y1478342D01*
G01X2879394Y1487611D01*
G01X2875816Y1496249D01*
G01X2870124Y1503666D01*
G01X2801606Y1572184D01*
G01X2794189Y1577876D01*
G01X2785551Y1581454D01*
G01X2776282Y1582674D01*
G01X2251882Y1582674D01*
G01X2258123Y1590265D01*
G01X2262066Y1599266D01*
G01X2263414Y1609000D01*
G01X2263414Y1689647D01*
G01X2262100Y1699261D01*
G01X2258253Y1708169D01*
G01X2252156Y1715718D01*
G01X2244256Y1721353D01*
G01X2235134Y1724660D01*
G01X2244256Y1727967D01*
G01X2252156Y1733602D01*
G01X2258253Y1741151D01*
G01X2262100Y1750059D01*
G01X2263414Y1759673D01*
G01X2263414Y1840320D01*
G01X2261661Y1851387D01*
G01X2256574Y1861371D01*
G01X2248651Y1869294D01*
G01X2238667Y1874381D01*
G01X2227600Y1876134D01*
G01X2141200Y1876134D01*
G01X2130048Y1874354D01*
G01X2120006Y1869190D01*
G01X2112070Y1861156D01*
G01X2107031Y1851050D01*
G01X2095754Y1851050D01*
G01X2095754Y1985790D01*
G01X2102980Y1995977D01*
G01X2108200Y2007325D01*
G01X2115096Y1993231D01*
G01X2125066Y1981117D01*
G01X2137571Y1971641D01*
G01X2151929Y1965316D01*
G01X2167361Y1962487D01*
G01X2183030Y1963307D01*
G01X2198082Y1967732D01*
G01X2211702Y1975522D01*
G01X2223148Y1986253D01*
G01X2231799Y1999342D01*
G01X2237185Y2014078D01*
G01X2239014Y2029661D01*
G01X2239014Y2153161D01*
G01X2237367Y2167957D01*
G01X2232508Y2182031D01*
G01X2224675Y2194691D01*
G01X2214250Y2205321D01*
G01X2201743Y2213398D01*
G01X2187767Y2218529D01*
G01X2173005Y2220462D01*
G01X2158179Y2219102D01*
G01X2144014Y2214517D01*
G01X2144014Y2234946D01*
G01X2463800Y2234946D01*
G01X2465416Y2234276D01*
G01X2466086Y2232660D01*
G01X2466086Y2167848D01*
G01X2467762Y2146557D01*
G01X2472747Y2125790D01*
G01X2480920Y2106059D01*
G01X2492079Y2087849D01*
G01X2505949Y2071609D01*
G01X2522189Y2057739D01*
G01X2540399Y2046580D01*
G01X2560130Y2038407D01*
G01X2580897Y2033422D01*
G01X2602188Y2031746D01*
G01X3022600Y2031746D01*
G01X3028335Y2030605D01*
G01X3033197Y2027357D01*
G01X3036445Y2022495D01*
G01X3037586Y2016760D01*
G01X3037586Y736600D01*
G01X3038849Y716362D01*
G01X3042617Y696439D01*
G01X2823222Y915834D01*
G01X2870124Y962736D01*
G37*
G36*
G01X2565653Y2791206D02*
G01X2590614Y2791206D01*
G01X2584344Y2783607D01*
G01X2580381Y2774587D01*
G01X2579026Y2764829D01*
G01X2579026Y2678428D01*
G01X2580799Y2667298D01*
G01X2585944Y2657270D01*
G01X2593950Y2649338D01*
G01X2593950Y2617574D01*
G01X2593086Y2607328D01*
G01X2593950Y2597082D01*
G01X2593950Y2562135D01*
G01X2587368Y2556021D01*
G01X2563713Y2546306D01*
G01X2541885Y2532983D01*
G01X2522429Y2516387D01*
G01X2517918Y2513373D01*
G01X2512596Y2512314D01*
G01X2212096Y2512314D01*
G01X2223385Y2523034D01*
G01X2231909Y2536060D01*
G01X2237214Y2550696D01*
G01X2239014Y2566159D01*
G01X2239014Y2576855D01*
G01X2465349Y2576855D01*
G01X2484918Y2578783D01*
G01X2503734Y2584491D01*
G01X2521076Y2593760D01*
G01X2536275Y2606234D01*
G01X2548750Y2621434D01*
G01X2558019Y2638775D01*
G01X2563727Y2657592D01*
G01X2565654Y2677160D01*
G01X2565653Y2791206D01*
G37*
G36*
G01X2272923Y2740406D02*
G01X2295086Y2742345D01*
G01X2316576Y2748103D01*
G01X2336739Y2757505D01*
G01X2354963Y2770266D01*
G01X2370694Y2785997D01*
G01X2383455Y2804221D01*
G01X2392857Y2824384D01*
G01X2398615Y2845874D01*
G01X2400554Y2868037D01*
G01X2400554Y3033456D01*
G01X2402128Y3039331D01*
G01X2406429Y3043632D01*
G01X2412304Y3045206D01*
G01X2463800Y3045206D01*
G01X2478400Y3046258D01*
G01X2492699Y3049392D01*
G01X2506401Y3054543D01*
G01X2510766Y3043250D01*
G01X2517269Y3033037D01*
G01X2525654Y3024304D01*
G01X2535595Y3017392D01*
G01X2546701Y3012572D01*
G01X2558539Y3010032D01*
G01X2570645Y3009871D01*
G01X2582546Y3012096D01*
G01X2579917Y3004552D01*
G01X2579026Y2996613D01*
G01X2579026Y2910212D01*
G01X2580101Y2901501D01*
G01X2583263Y2893314D01*
G01X2565400Y2893314D01*
G01X2545529Y2891357D01*
G01X2526422Y2885561D01*
G01X2508813Y2876149D01*
G01X2493378Y2863482D01*
G01X2480711Y2848047D01*
G01X2471299Y2830438D01*
G01X2465503Y2811331D01*
G01X2463546Y2791460D01*
G01X2463546Y2678963D01*
G01X2239014Y2678963D01*
G01X2239014Y2689659D01*
G01X2237486Y2703921D01*
G01X2232971Y2717535D01*
G01X2225674Y2729884D01*
G01X2215926Y2740406D01*
G01X2272923Y2740406D01*
G37*
G36*
G01X2410913Y5379999D02*
G01X2410858Y5381985D01*
G01X3070849Y5381985D01*
G01X3069300Y5376074D01*
G01X3068778Y5369985D01*
G01X3068778Y5119986D01*
G01X3070176Y5110081D01*
G01X3074258Y5100948D01*
G01X3080706Y5093301D01*
G01X3089019Y5087735D01*
G01X3098546Y5084686D01*
G01X3098546Y4696460D01*
G01X3100132Y4678556D01*
G01X3104840Y4661210D01*
G01X3112525Y4644961D01*
G01X2984609Y4644961D01*
G01X2972914Y4646813D01*
G01X2962364Y4652189D01*
G01X2953991Y4660562D01*
G01X2948615Y4671112D01*
G01X2946763Y4682807D01*
G01X2946763Y4754711D01*
G01X2956257Y4757783D01*
G01X2964535Y4763354D01*
G01X2970954Y4770994D01*
G01X2975016Y4780108D01*
G01X2976406Y4789989D01*
G01X2976406Y5039989D01*
G01X2974653Y5051056D01*
G01X2969566Y5061040D01*
G01X2961643Y5068963D01*
G01X2951659Y5074050D01*
G01X2940592Y5075803D01*
G01X2850592Y5075803D01*
G01X2839525Y5074050D01*
G01X2829542Y5068963D01*
G01X2821618Y5061040D01*
G01X2816531Y5051056D01*
G01X2814778Y5039989D01*
G01X2814778Y4789989D01*
G01X2816182Y4780063D01*
G01X2820281Y4770914D01*
G01X2826756Y4763260D01*
G01X2835098Y4757700D01*
G01X2844655Y4754671D01*
G01X2844655Y4682807D01*
G01X2846358Y4661040D01*
G01X2851426Y4639802D01*
G01X2859735Y4619612D01*
G01X2871084Y4600959D01*
G01X2885195Y4584298D01*
G01X2901726Y4570035D01*
G01X2413000Y4570035D01*
G01X2401305Y4571887D01*
G01X2390755Y4577263D01*
G01X2382382Y4585636D01*
G01X2377006Y4596186D01*
G01X2375154Y4607881D01*
G01X2375154Y4780001D01*
G01X2491287Y4780001D01*
G01X2493039Y4768933D01*
G01X2498126Y4758950D01*
G01X2506050Y4751026D01*
G01X2516033Y4745939D01*
G01X2527101Y4744187D01*
G01X2629099Y4744187D01*
G01X2640167Y4745939D01*
G01X2650150Y4751026D01*
G01X2658074Y4758950D01*
G01X2663161Y4768933D01*
G01X2664913Y4780001D01*
G01X2664913Y5080000D01*
G01X2663161Y5091067D01*
G01X2658074Y5101051D01*
G01X2650150Y5108974D01*
G01X2640167Y5114061D01*
G01X2629099Y5115814D01*
G01X2527101Y5115814D01*
G01X2516033Y5114061D01*
G01X2506050Y5108974D01*
G01X2498126Y5101051D01*
G01X2493039Y5091067D01*
G01X2491287Y5080000D01*
G01X2491287Y4780001D01*
G01X2491287Y4780001D01*
G01X2375154Y4780001D01*
G01X2375154Y5044186D01*
G01X2386208Y5045952D01*
G01X2396177Y5051045D01*
G01X2404086Y5058967D01*
G01X2409164Y5068943D01*
G01X2410913Y5080000D01*
G01X2410913Y5379999D01*
G37*
G36*
G01X2730500Y2670894D02*
G01X2733807Y2661772D01*
G01X2739442Y2653872D01*
G01X2746991Y2647775D01*
G01X2755899Y2643928D01*
G01X2765513Y2642614D01*
G01X2846160Y2642614D01*
G01X2857227Y2644367D01*
G01X2867211Y2649454D01*
G01X2875134Y2657377D01*
G01X2880221Y2667361D01*
G01X2881974Y2678428D01*
G01X2881974Y2764829D01*
G01X2880619Y2774587D01*
G01X2876656Y2783607D01*
G01X2870386Y2791206D01*
G01X3213100Y2791206D01*
G01X3224795Y2789354D01*
G01X3235345Y2783978D01*
G01X3243718Y2775605D01*
G01X3249094Y2765055D01*
G01X3250946Y2753360D01*
G01X3250946Y2271916D01*
G01X3235084Y2283154D01*
G01X3217818Y2292087D01*
G01X3199481Y2298540D01*
G01X3180426Y2302390D01*
G01X3168995Y2310447D01*
G01X3156128Y2315926D01*
G01X3142399Y2318586D01*
G01X3128417Y2318307D01*
G01X3114804Y2315102D01*
G01X3102166Y2309114D01*
G01X2881102Y2309114D01*
G01X2877743Y2318148D01*
G01X2872095Y2325959D01*
G01X2864570Y2331980D01*
G01X2855711Y2335777D01*
G01X2846160Y2337074D01*
G01X2765513Y2337074D01*
G01X2755899Y2335760D01*
G01X2746991Y2331913D01*
G01X2739442Y2325816D01*
G01X2733807Y2317916D01*
G01X2730500Y2308794D01*
G01X2727193Y2317916D01*
G01X2721558Y2325816D01*
G01X2714009Y2331913D01*
G01X2705101Y2335760D01*
G01X2695487Y2337074D01*
G01X2614840Y2337074D01*
G01X2603326Y2335173D01*
G01X2593034Y2329671D01*
G01X2585058Y2321152D01*
G01X2570114Y2338639D01*
G01X2552673Y2353639D01*
G01X2533146Y2365797D01*
G01X2553736Y2369806D01*
G01X2573635Y2376447D01*
G01X2592507Y2385607D01*
G01X2610035Y2397132D01*
G01X2625923Y2410830D01*
G01X2695487Y2410830D01*
G01X2705101Y2412144D01*
G01X2714009Y2415991D01*
G01X2721558Y2422088D01*
G01X2727193Y2429988D01*
G01X2730500Y2439110D01*
G01X2733807Y2429988D01*
G01X2739442Y2422088D01*
G01X2746991Y2415991D01*
G01X2755899Y2412144D01*
G01X2765513Y2410830D01*
G01X2846160Y2410830D01*
G01X2857235Y2412585D01*
G01X2867224Y2417679D01*
G01X2875148Y2425612D01*
G01X2880231Y2435606D01*
G01X3090427Y2435606D01*
G01X3103500Y2429052D01*
G01X3117754Y2425786D01*
G01X3132377Y2425995D01*
G01X3146532Y2429665D01*
G01X3159414Y2436589D01*
G01X3170285Y2446370D01*
G01X3178526Y2458450D01*
G01X3183667Y2472141D01*
G01X3185414Y2486660D01*
G01X3183667Y2501179D01*
G01X3178526Y2514870D01*
G01X3170285Y2526950D01*
G01X3159414Y2536731D01*
G01X3146532Y2543655D01*
G01X3132377Y2547325D01*
G01X3117754Y2547534D01*
G01X3103500Y2544268D01*
G01X3090427Y2537714D01*
G01X2881668Y2537714D01*
G01X2878880Y2547608D01*
G01X2873395Y2556301D01*
G01X2865668Y2563079D01*
G01X2856333Y2567383D01*
G01X2846160Y2568858D01*
G01X2765513Y2568858D01*
G01X2755899Y2567544D01*
G01X2746991Y2563697D01*
G01X2739442Y2557600D01*
G01X2733807Y2549700D01*
G01X2730500Y2540578D01*
G01X2727621Y2548857D01*
G01X2722818Y2556189D01*
G01X2716378Y2562135D01*
G01X2716378Y2649338D01*
G01X2722818Y2655283D01*
G01X2727621Y2662615D01*
G01X2730500Y2670894D01*
G37*
G36*
G01X2706218Y4141310D02*
G01X2714496Y4146882D01*
G01X2720915Y4154522D01*
G01X2724977Y4163636D01*
G01X2726367Y4173517D01*
G01X2726367Y4253517D01*
G01X2724672Y4264406D01*
G01X2736117Y4264406D01*
G01X2734633Y4254203D01*
G01X2734633Y4174203D01*
G01X2736385Y4163136D01*
G01X2741472Y4153152D01*
G01X2749396Y4145229D01*
G01X2759379Y4140142D01*
G01X2770447Y4138389D01*
G01X2850446Y4138389D01*
G01X2861514Y4140142D01*
G01X2871497Y4145229D01*
G01X2879421Y4153152D01*
G01X2884508Y4163136D01*
G01X2886260Y4174203D01*
G01X2886260Y4254203D01*
G01X2884776Y4264406D01*
G01X3000543Y4264406D01*
G01X3002026Y4262923D01*
G01X3002026Y3698249D01*
G01X2990566Y3702774D01*
G01X2978557Y3705531D01*
G01X2966271Y3706457D01*
G01X2904362Y3706457D01*
G01X2914985Y3715876D01*
G01X2923152Y3727488D01*
G01X2928425Y3740670D01*
G01X2930519Y3754711D01*
G01X2929323Y3768858D01*
G01X2924900Y3782348D01*
G01X2917488Y3794457D01*
G01X2907486Y3804533D01*
G01X2895432Y3812033D01*
G01X2881974Y3816555D01*
G01X2881974Y3886970D01*
G01X2880221Y3898038D01*
G01X2875134Y3908021D01*
G01X2867211Y3915945D01*
G01X2857227Y3921032D01*
G01X2846160Y3922784D01*
G01X2814259Y3922784D01*
G01X2824179Y3933436D01*
G01X2832938Y3945061D01*
G01X2846160Y3945061D01*
G01X2857227Y3946814D01*
G01X2867211Y3951901D01*
G01X2875134Y3959824D01*
G01X2880221Y3969808D01*
G01X2881974Y3980875D01*
G01X2881974Y4067276D01*
G01X2880221Y4078343D01*
G01X2875134Y4088327D01*
G01X2867211Y4096250D01*
G01X2857227Y4101337D01*
G01X2846160Y4103090D01*
G01X2765513Y4103090D01*
G01X2755899Y4101775D01*
G01X2746991Y4097928D01*
G01X2739442Y4091831D01*
G01X2733807Y4083932D01*
G01X2730500Y4074810D01*
G01X2727327Y4083674D01*
G01X2721954Y4091404D01*
G01X2714751Y4097468D01*
G01X2706218Y4101445D01*
G01X2706218Y4141310D01*
G37*
G36*
G01X3185414Y2016760D02*
G01X3183409Y2042230D01*
G01X3177445Y2067072D01*
G01X3167668Y2090676D01*
G01X3154319Y2112460D01*
G01X3137727Y2131887D01*
G01X3118300Y2148479D01*
G01X3096516Y2161828D01*
G01X3072912Y2171605D01*
G01X3048070Y2177569D01*
G01X3022600Y2179574D01*
G01X2852289Y2179574D01*
G01X2862265Y2182871D01*
G01X2870855Y2188921D01*
G01X2877320Y2197204D01*
G01X2881102Y2207006D01*
G01X3088489Y2207006D01*
G01X3100737Y2196814D01*
G01X3115063Y2189838D01*
G01X3130639Y2186481D01*
G01X3146567Y2186936D01*
G01X3161926Y2191177D01*
G01X3175830Y2198960D01*
G01X3185709Y2193353D01*
G01X3193480Y2185066D01*
G01X3198441Y2174847D01*
G01X3200146Y2163615D01*
G01X3200146Y1534729D01*
G01X3201869Y1512835D01*
G01X3206996Y1491481D01*
G01X3215400Y1471191D01*
G01X3226875Y1452466D01*
G01X3241138Y1435767D01*
G01X3257837Y1421504D01*
G01X3276562Y1410029D01*
G01X3296852Y1401625D01*
G01X3318206Y1396498D01*
G01X3340100Y1394775D01*
G01X3404967Y1394775D01*
G01X3401423Y1380767D01*
G01X3400996Y1366324D01*
G01X3403708Y1352131D01*
G01X3409430Y1338863D01*
G01X3417890Y1327149D01*
G01X3428686Y1317545D01*
G01X3441306Y1310508D01*
G01X3455151Y1306371D01*
G01X3469563Y1305332D01*
G01X3483858Y1307438D01*
G01X3497358Y1312591D01*
G01X3509421Y1320546D01*
G01X3525014Y1320546D01*
G01X3518281Y1308829D01*
G01X3514426Y1295877D01*
G01X3513656Y1282385D01*
G01X3516012Y1269078D01*
G01X3521367Y1256671D01*
G01X3529435Y1245829D01*
G01X3520803Y1233988D01*
G01X3515395Y1220368D01*
G01X3513554Y1205829D01*
G01X3515395Y1191291D01*
G01X3520803Y1177671D01*
G01X3529435Y1165830D01*
G01X3520619Y1153652D01*
G01X3515210Y1139626D01*
G01X3513565Y1124682D01*
G01X3515796Y1109815D01*
G01X3521754Y1096012D01*
G01X3531042Y1084191D01*
G01X3543043Y1075138D01*
G01X3556961Y1069453D01*
G01X3571869Y1067515D01*
G01X3691868Y1067515D01*
G01X3705477Y1069125D01*
G01X3718335Y1073867D01*
G01X3753150Y1073867D01*
G01X3743612Y1064601D01*
G01X3736421Y1053415D01*
G01X3731951Y1040890D01*
G01X3730435Y1027679D01*
G01X3730435Y907679D01*
G01X3732295Y893067D01*
G01X3737758Y879386D01*
G01X3739508Y861120D01*
G01X3743633Y843239D01*
G01X3727989Y845364D01*
G01X3712216Y846074D01*
G01X3340100Y846074D01*
G01X3322697Y844308D01*
G01X3306004Y839081D01*
G01X3290702Y830606D01*
G01X3277414Y819230D01*
G01X3266683Y805416D01*
G01X3258947Y789728D01*
G01X3254520Y772805D01*
G01X3253584Y755338D01*
G01X3256177Y738039D01*
G01X3262192Y721614D01*
G01X3200400Y721614D01*
G01X3194665Y722755D01*
G01X3189803Y726003D01*
G01X3186555Y730865D01*
G01X3185414Y736600D01*
G01X3185414Y2016760D01*
G37*
G36*
G01X3469633Y-54176D02*
G01X3134367Y-54176D01*
G01X3134813Y-48539D01*
G01X3134813Y14846D01*
G01X3314700Y14846D01*
G01X3331598Y16511D01*
G01X3347846Y21439D01*
G01X3362820Y29443D01*
G01X3375945Y40215D01*
G01X3386717Y53340D01*
G01X3394721Y68315D01*
G01X3399650Y84563D01*
G01X3401314Y101460D01*
G01X3399650Y118358D01*
G01X3394721Y134606D01*
G01X3386717Y149580D01*
G01X3375945Y162706D01*
G01X3362820Y173477D01*
G01X3347846Y181481D01*
G01X3331598Y186410D01*
G01X3314700Y188074D01*
G01X3134813Y188074D01*
G01X3134813Y251460D01*
G01X3134614Y255234D01*
G01X3134614Y531741D01*
G01X3133373Y552573D01*
G01X3129669Y573110D01*
G01X3123553Y593063D01*
G01X3141727Y584725D01*
G01X3160786Y578679D01*
G01X3180443Y575014D01*
G01X3200400Y573786D01*
G01X3222998Y573786D01*
G01X3217196Y563286D01*
G01X3215187Y551459D01*
G01X3215187Y251460D01*
G01X3216939Y240393D01*
G01X3222026Y230409D01*
G01X3229950Y222486D01*
G01X3239933Y217399D01*
G01X3251001Y215646D01*
G01X3352999Y215646D01*
G01X3364067Y217399D01*
G01X3374050Y222486D01*
G01X3381974Y230409D01*
G01X3387061Y240393D01*
G01X3388813Y251460D01*
G01X3388813Y492214D01*
G01X3394112Y492214D01*
G01X3407575Y483563D01*
G01X3422718Y478388D01*
G01X3438660Y476992D01*
G01X3454473Y479455D01*
G01X3469234Y485635D01*
G01X3482086Y495171D01*
G01X3482086Y278984D01*
G01X3475129Y271217D01*
G01X3470704Y261776D01*
G01X3469187Y251460D01*
G01X3469187Y-48539D01*
G01X3469633Y-54176D01*
G37*
G36*
G01X3230406Y5369985D02*
G01X3229885Y5376074D01*
G01X3228336Y5381985D01*
G01X3578849Y5381985D01*
G01X3577300Y5376074D01*
G01X3576778Y5369985D01*
G01X3576778Y5119986D01*
G01X3577888Y5111142D01*
G01X3581146Y5102846D01*
G01X3581146Y3816415D01*
G01X3552482Y3845079D01*
G01X3549054Y3856286D01*
G01X3543554Y3866633D01*
G01X3543554Y4585976D01*
G01X3541831Y4607870D01*
G01X3536704Y4629225D01*
G01X3528300Y4649514D01*
G01X3516825Y4668239D01*
G01X3502562Y4684939D01*
G01X3465731Y4721770D01*
G01X3459717Y4729608D01*
G01X3455936Y4738736D01*
G01X3454646Y4748531D01*
G01X3454646Y4754691D01*
G01X3464172Y4757741D01*
G01X3472482Y4763307D01*
G01X3478929Y4770954D01*
G01X3483010Y4780085D01*
G01X3484406Y4789989D01*
G01X3484406Y5039989D01*
G01X3482653Y5051056D01*
G01X3477566Y5061040D01*
G01X3469643Y5068963D01*
G01X3459659Y5074050D01*
G01X3448592Y5075803D01*
G01X3358592Y5075803D01*
G01X3347525Y5074050D01*
G01X3337542Y5068963D01*
G01X3329618Y5061040D01*
G01X3324531Y5051056D01*
G01X3322778Y5039989D01*
G01X3322778Y4789989D01*
G01X3324175Y4780085D01*
G01X3328256Y4770954D01*
G01X3334703Y4763307D01*
G01X3343013Y4757741D01*
G01X3352538Y4754691D01*
G01X3352538Y4748531D01*
G01X3353673Y4730749D01*
G01X3357057Y4713255D01*
G01X3362637Y4696333D01*
G01X3352800Y4696714D01*
G01X3200654Y4696713D01*
G01X3200654Y5084689D01*
G01X3210177Y5087741D01*
G01X3218485Y5093307D01*
G01X3224930Y5100953D01*
G01X3229010Y5110084D01*
G01X3230406Y5119986D01*
G01X3230406Y5369985D01*
G37*
G36*
G01X3470995Y2120900D02*
G01X3472718Y2099006D01*
G01X3477845Y2077652D01*
G01X3486249Y2057362D01*
G01X3497724Y2038637D01*
G01X3511987Y2021938D01*
G01X3528686Y2007675D01*
G01X3547411Y1996200D01*
G01X3567701Y1987796D01*
G01X3589055Y1982669D01*
G01X3610949Y1980946D01*
G01X3699849Y1980946D01*
G01X3711544Y1979094D01*
G01X3722094Y1973718D01*
G01X3730467Y1965345D01*
G01X3735843Y1954795D01*
G01X3737695Y1943100D01*
G01X3737695Y1932158D01*
G01X3732279Y1918529D01*
G01X3730435Y1903979D01*
G01X3730435Y1783979D01*
G01X3732372Y1769071D01*
G01X3738057Y1755154D01*
G01X3747111Y1743152D01*
G01X3758932Y1733864D01*
G01X3772735Y1727907D01*
G01X3787602Y1725676D01*
G01X3802545Y1727320D01*
G01X3816572Y1732730D01*
G01X3828749Y1741546D01*
G01X3840591Y1732913D01*
G01X3854211Y1727506D01*
G01X3868749Y1725665D01*
G01X3883287Y1727506D01*
G01X3896907Y1732913D01*
G01X3908749Y1741546D01*
G01X3920591Y1732913D01*
G01X3934211Y1727506D01*
G01X3948749Y1725665D01*
G01X3963287Y1727506D01*
G01X3976907Y1732913D01*
G01X3988749Y1741546D01*
G01X4000591Y1732913D01*
G01X4014211Y1727506D01*
G01X4028749Y1725665D01*
G01X4043287Y1727506D01*
G01X4056907Y1732913D01*
G01X4068749Y1741546D01*
G01X4080590Y1732913D01*
G01X4094210Y1727506D01*
G01X4108748Y1725665D01*
G01X4123287Y1727506D01*
G01X4136907Y1732913D01*
G01X4148748Y1741546D01*
G01X4160590Y1732913D01*
G01X4174210Y1727506D01*
G01X4188748Y1725665D01*
G01X4203286Y1727506D01*
G01X4216906Y1732913D01*
G01X4228748Y1741546D01*
G01X4240590Y1732913D01*
G01X4254210Y1727506D01*
G01X4268748Y1725665D01*
G01X4283286Y1727506D01*
G01X4296906Y1732913D01*
G01X4308748Y1741546D01*
G01X4315482Y1736084D01*
G01X4305593Y1717551D01*
G01X4298388Y1697820D01*
G01X4294007Y1677275D01*
G01X4292538Y1656321D01*
G01X4292538Y1616517D01*
G01X4292002Y1608436D01*
G01X4292002Y1455891D01*
G01X4292597Y1442532D01*
G01X4294379Y1429280D01*
G01X4227706Y1495954D01*
G01X4211006Y1510216D01*
G01X4192281Y1521691D01*
G01X4171991Y1530095D01*
G01X4150637Y1535222D01*
G01X4128743Y1536945D01*
G01X4086448Y1536945D01*
G01X4073491Y1545350D01*
G01X4058942Y1550530D01*
G01X4043589Y1552203D01*
G01X4028265Y1550280D01*
G01X4013802Y1544865D01*
G01X4000983Y1536251D01*
G01X3990504Y1524906D01*
G01X3982934Y1511444D01*
G01X3978683Y1496597D01*
G01X3977982Y1481169D01*
G01X3980868Y1465997D01*
G01X3987185Y1451904D01*
G01X3971210Y1456824D01*
G01X3954763Y1459804D01*
G01X3938077Y1460803D01*
G01X3880796Y1460803D01*
G01X3867679Y1469525D01*
G01X3852874Y1474907D01*
G01X3837218Y1476646D01*
G01X3821594Y1474643D01*
G01X3806883Y1469011D01*
G01X3793915Y1460069D01*
G01X3783422Y1448320D01*
G01X3775996Y1434428D01*
G01X3772057Y1419176D01*
G01X3771825Y1403426D01*
G01X3756237Y1401761D01*
G01X3741476Y1396484D01*
G01X3734302Y1405829D01*
G01X3742934Y1417671D01*
G01X3748342Y1431291D01*
G01X3750183Y1445829D01*
G01X3748342Y1460367D01*
G01X3742934Y1473987D01*
G01X3734302Y1485829D01*
G01X3742916Y1497638D01*
G01X3748323Y1511219D01*
G01X3750183Y1525717D01*
G01X3748379Y1540223D01*
G01X3763666Y1537461D01*
G01X3779176Y1538332D01*
G01X3794058Y1542788D01*
G01X3807495Y1550583D01*
G01X3818750Y1561291D01*
G01X3827205Y1574323D01*
G01X3832396Y1588964D01*
G01X3834039Y1604412D01*
G01X3832042Y1619818D01*
G01X3826516Y1634336D01*
G01X3817764Y1647171D01*
G01X3806267Y1657617D01*
G01X3792654Y1665102D01*
G01X3777674Y1669215D01*
G01X3762148Y1669730D01*
G01X3746928Y1666618D01*
G01X3749907Y1680159D01*
G01X3749605Y1694019D01*
G01X3746040Y1707417D01*
G01X3739412Y1719595D01*
G01X3730098Y1729864D01*
G01X3718622Y1737644D01*
G01X3705634Y1742495D01*
G01X3691868Y1744143D01*
G01X3571869Y1744143D01*
G01X3557319Y1742299D01*
G01X3543689Y1736882D01*
G01X3425417Y1736882D01*
G01X3430275Y1751096D01*
G01X3431810Y1766039D01*
G01X3429943Y1780943D01*
G01X3424769Y1795045D01*
G01X3416554Y1807621D01*
G01X3416554Y2322775D01*
G01X3431143Y2322046D01*
G01X3445538Y2324528D01*
G01X3459041Y2330101D01*
G01X3470995Y2338495D01*
G01X3470995Y2120900D01*
G37*
G36*
G01X3977633Y-54176D02*
G01X3642367Y-54176D01*
G01X3642813Y-48539D01*
G01X3642813Y251460D01*
G01X3641296Y261776D01*
G01X3636871Y271217D01*
G01X3629914Y278984D01*
G01X3629914Y558800D01*
G01X3627957Y583969D01*
G01X3622132Y608533D01*
G01X3612581Y631901D01*
G01X3599531Y653512D01*
G01X3583298Y672846D01*
G01X3712216Y672846D01*
G01X3713833Y672176D01*
G01X3798736Y587273D01*
G01X3759001Y587273D01*
G01X3747933Y585521D01*
G01X3737950Y580434D01*
G01X3730026Y572510D01*
G01X3724939Y562527D01*
G01X3723187Y551459D01*
G01X3723187Y251460D01*
G01X3723386Y247686D01*
G01X3723386Y101600D01*
G01X3725279Y83592D01*
G01X3730874Y66371D01*
G01X3739928Y50690D01*
G01X3752044Y37233D01*
G01X3766693Y26590D01*
G01X3783235Y19225D01*
G01X3800946Y15460D01*
G01X3819054Y15460D01*
G01X3836765Y19225D01*
G01X3853307Y26590D01*
G01X3867956Y37233D01*
G01X3880072Y50690D01*
G01X3889126Y66371D01*
G01X3894721Y83592D01*
G01X3896614Y101600D01*
G01X3896614Y247686D01*
G01X3896813Y251460D01*
G01X3896813Y489196D01*
G01X4098735Y287274D01*
G01X4013001Y287274D01*
G01X4001933Y285521D01*
G01X3991950Y280434D01*
G01X3984026Y272511D01*
G01X3978939Y262527D01*
G01X3977187Y251460D01*
G01X3977187Y-48539D01*
G01X3977633Y-54176D01*
G37*
G36*
G01X3738406Y5369985D02*
G01X3737885Y5376074D01*
G01X3736336Y5381985D01*
G01X4086849Y5381985D01*
G01X4085300Y5376074D01*
G01X4084778Y5369985D01*
G01X4084778Y5119986D01*
G01X4086175Y5110082D01*
G01X4090256Y5100951D01*
G01X4096703Y5093304D01*
G01X4105013Y5087738D01*
G01X4114538Y5084687D01*
G01X4114538Y4838700D01*
G01X4112686Y4827005D01*
G01X4107310Y4816455D01*
G01X4098938Y4808082D01*
G01X4088387Y4802706D01*
G01X4076692Y4800854D01*
G01X3992406Y4800854D01*
G01X3992406Y5039989D01*
G01X3990653Y5051056D01*
G01X3985566Y5061040D01*
G01X3977643Y5068963D01*
G01X3967659Y5074050D01*
G01X3956592Y5075803D01*
G01X3866592Y5075803D01*
G01X3855525Y5074050D01*
G01X3845542Y5068963D01*
G01X3837618Y5061040D01*
G01X3832531Y5051056D01*
G01X3830778Y5039989D01*
G01X3830778Y4851654D01*
G01X3771900Y4851654D01*
G01X3752760Y4850339D01*
G01X3733980Y4846419D01*
G01X3715913Y4839968D01*
G01X3698898Y4831106D01*
G01X3683254Y4820001D01*
G01X3683254Y5084172D01*
G01X3702592Y5084172D01*
G01X3713659Y5085925D01*
G01X3723643Y5091012D01*
G01X3731566Y5098935D01*
G01X3736653Y5108919D01*
G01X3738406Y5119986D01*
G01X3738406Y5369985D01*
G37*
G36*
G01X5166813Y5377459D02*
G01X5166526Y5381985D01*
G01X5501474Y5381985D01*
G01X5501187Y5377459D01*
G01X5501187Y5077460D01*
G01X5502936Y5066403D01*
G01X5508014Y5056427D01*
G01X5515923Y5048505D01*
G01X5525892Y5043412D01*
G01X5536946Y5041646D01*
G01X5536946Y4140200D01*
G01X5535279Y4133977D01*
G01X5530723Y4129421D01*
G01X5524500Y4127754D01*
G01X5505360Y4126439D01*
G01X5486580Y4122519D01*
G01X5468513Y4116068D01*
G01X5451498Y4107206D01*
G01X5435854Y4096101D01*
G01X5435854Y4876660D01*
G01X5434145Y4895241D01*
G01X5429075Y4913199D01*
G01X5420813Y4929930D01*
G01X5420813Y5077460D01*
G01X5419061Y5088527D01*
G01X5413974Y5098511D01*
G01X5406050Y5106434D01*
G01X5396067Y5111521D01*
G01X5384999Y5113274D01*
G01X5283001Y5113274D01*
G01X5271933Y5111521D01*
G01X5261950Y5106434D01*
G01X5254026Y5098511D01*
G01X5248939Y5088527D01*
G01X5247187Y5077460D01*
G01X5247187Y4777461D01*
G01X5248939Y4766393D01*
G01X5254026Y4756410D01*
G01X5261950Y4748486D01*
G01X5271933Y4743399D01*
G01X5283001Y4741647D01*
G01X5333746Y4741647D01*
G01X5333746Y2233250D01*
G01X5331894Y2221554D01*
G01X5326518Y2211004D01*
G01X5318145Y2202631D01*
G01X5307595Y2197256D01*
G01X5295900Y2195404D01*
G01X5037784Y2195404D01*
G01X5024760Y2203841D01*
G01X5010132Y2209021D01*
G01X4994700Y2210659D01*
G01X4979310Y2208666D01*
G01X4964805Y2203151D01*
G01X4951979Y2194416D01*
G01X4941534Y2182939D01*
G01X4934042Y2169349D01*
G01X4929914Y2154390D01*
G01X4929375Y2138881D01*
G01X4916734Y2133287D01*
G01X4905528Y2125193D01*
G01X4896243Y2114952D01*
G01X4889282Y2103008D01*
G01X4884950Y2089881D01*
G01X4883433Y2076141D01*
G01X4884797Y2062385D01*
G01X4888984Y2049211D01*
G01X4895811Y2037191D01*
G01X4904982Y2026847D01*
G01X4916098Y2018630D01*
G01X4928676Y2012896D01*
G01X4928799Y1997581D01*
G01X4932433Y1982703D01*
G01X4619178Y1982703D01*
G01X4596910Y1981042D01*
G01X4575135Y1976096D01*
G01X4554334Y1967975D01*
G01X4534969Y1956858D01*
G01X4517466Y1942991D01*
G01X4512902Y1938865D01*
G01X4407063Y1833025D01*
G01X4407063Y1903979D01*
G01X4405218Y1918529D01*
G01X4399802Y1932158D01*
G01X4399802Y2298700D01*
G01X4398079Y2320594D01*
G01X4392952Y2341948D01*
G01X4384548Y2362238D01*
G01X4373073Y2380963D01*
G01X4358810Y2397662D01*
G01X4342111Y2411925D01*
G01X4323386Y2423400D01*
G01X4303096Y2431804D01*
G01X4281742Y2436931D01*
G01X4259848Y2438654D01*
G01X3975100Y2438654D01*
G01X3963405Y2440506D01*
G01X3952855Y2445882D01*
G01X3944482Y2454255D01*
G01X3939106Y2464805D01*
G01X3937254Y2476500D01*
G01X3937254Y4508500D01*
G01X3939106Y4520195D01*
G01X3944482Y4530745D01*
G01X3952855Y4539118D01*
G01X3963405Y4544494D01*
G01X3975100Y4546346D01*
G01X4991100Y4546346D01*
G01X5012994Y4548069D01*
G01X5034348Y4553196D01*
G01X5054638Y4561600D01*
G01X5073363Y4573075D01*
G01X5090062Y4587338D01*
G01X5104325Y4604037D01*
G01X5115800Y4622762D01*
G01X5124204Y4643052D01*
G01X5129331Y4664406D01*
G01X5131054Y4686300D01*
G01X5131054Y5041646D01*
G01X5142108Y5043412D01*
G01X5152077Y5048505D01*
G01X5159986Y5056427D01*
G01X5165064Y5066403D01*
G01X5166813Y5077460D01*
G01X5166813Y5377459D01*
G37*
G36*
G01X4448637Y609346D02*
G01X4446476Y598710D01*
G01X4432927Y601591D01*
G01X4419076Y601595D01*
G01X4405526Y598721D01*
G01X4392869Y593095D01*
G01X4381656Y584962D01*
G01X4375432Y586691D01*
G01X4368999Y587273D01*
G01X4267001Y587273D01*
G01X4255933Y585521D01*
G01X4245950Y580434D01*
G01X4238026Y572510D01*
G01X4232939Y562527D01*
G01X4231187Y551459D01*
G01X4231187Y399596D01*
G01X4226207Y404784D01*
G01X4021645Y609346D01*
G01X4448637Y609346D01*
G37*
G36*
G01X4246406Y5369985D02*
G01X4245885Y5376074D01*
G01X4244336Y5381985D01*
G01X4485474Y5381985D01*
G01X4485187Y5377459D01*
G01X4485187Y5077460D01*
G01X4486936Y5066403D01*
G01X4492014Y5056427D01*
G01X4499923Y5048505D01*
G01X4509892Y5043412D01*
G01X4520946Y5041646D01*
G01X4520946Y4787900D01*
G01X4519094Y4776205D01*
G01X4513718Y4765655D01*
G01X4505345Y4757282D01*
G01X4494795Y4751906D01*
G01X4483100Y4750054D01*
G01X4184993Y4750054D01*
G01X4196098Y4765698D01*
G01X4204960Y4782713D01*
G01X4211411Y4800780D01*
G01X4215331Y4819560D01*
G01X4216646Y4838700D01*
G01X4216646Y5084687D01*
G01X4226172Y5087738D01*
G01X4234482Y5093304D01*
G01X4240929Y5100951D01*
G01X4245010Y5110082D01*
G01X4246406Y5119986D01*
G01X4246406Y5369985D01*
G37*
G36*
G01X5002767Y-54176D02*
G01X4658367Y-54176D01*
G01X4658813Y-48539D01*
G01X4658813Y251460D01*
G01X4657061Y262527D01*
G01X4651974Y272511D01*
G01X4644050Y280434D01*
G01X4634067Y285521D01*
G01X4622999Y287274D01*
G01X4521001Y287274D01*
G01X4509933Y285521D01*
G01X4499950Y280434D01*
G01X4492026Y272511D01*
G01X4486939Y262527D01*
G01X4485187Y251460D01*
G01X4485187Y188074D01*
G01X4279900Y188074D01*
G01X4278284Y188744D01*
G01X4277614Y190360D01*
G01X4277614Y215646D01*
G01X4368999Y215646D01*
G01X4380067Y217399D01*
G01X4390050Y222486D01*
G01X4397974Y230409D01*
G01X4403061Y240393D01*
G01X4404813Y251460D01*
G01X4404813Y472797D01*
G01X4418843Y469713D01*
G01X4433207Y469722D01*
G01X4447233Y472824D01*
G01X4460261Y478873D01*
G01X4995191Y478873D01*
G01X5000665Y479167D01*
G01X5011138Y476234D01*
G01X5020344Y470443D01*
G01X5027523Y462273D01*
G01X5032082Y452398D01*
G01X5033645Y441635D01*
G01X5033645Y247237D01*
G01X5022905Y245161D01*
G01X5013293Y239940D01*
G01X5005705Y232061D01*
G01X5000849Y222259D01*
G01X4999178Y211449D01*
G01X4999178Y-38551D01*
G01X5000087Y-46567D01*
G01X5002767Y-54176D01*
G37*
G36*
G01X4631284Y1276929D02*
G01X4631284Y1013655D01*
G01X4623445Y1005742D01*
G01X4618416Y995803D01*
G01X4616684Y984800D01*
G01X4616684Y894800D01*
G01X4616733Y892915D01*
G01X4405163Y892915D01*
G01X4407063Y907679D01*
G01X4407063Y1027679D01*
G01X4405871Y1039406D01*
G01X4402346Y1050654D01*
G01X4396631Y1060963D01*
G01X4396631Y1094210D01*
G01X4405953Y1083093D01*
G01X4417730Y1074622D01*
G01X4431234Y1069320D01*
G01X4445629Y1067515D01*
G01X4565628Y1067515D01*
G01X4580537Y1069453D01*
G01X4594454Y1075138D01*
G01X4606455Y1084191D01*
G01X4615744Y1096012D01*
G01X4621701Y1109815D01*
G01X4623932Y1124682D01*
G01X4622288Y1139626D01*
G01X4616878Y1153652D01*
G01X4608062Y1165830D01*
G01X4616694Y1177671D01*
G01X4622102Y1191291D01*
G01X4623943Y1205829D01*
G01X4622102Y1220368D01*
G01X4616694Y1233988D01*
G01X4608062Y1245829D01*
G01X4616243Y1256867D01*
G01X4621614Y1269513D01*
G01X4623877Y1283065D01*
G01X4622908Y1296769D01*
G01X4627448Y1290988D01*
G01X4630308Y1284215D01*
G01X4631284Y1276929D01*
G37*
G36*
G01X5034501Y1206579D02*
G01X5045568Y1208332D01*
G01X5055552Y1213419D01*
G01X5063475Y1221342D01*
G01X5068562Y1231326D01*
G01X5070315Y1242393D01*
G01X5070315Y1382392D01*
G01X5068562Y1393460D01*
G01X5063475Y1403443D01*
G01X5055552Y1411367D01*
G01X5045568Y1416454D01*
G01X5034501Y1418206D01*
G01X4937296Y1418206D01*
G01X4928909Y1426594D01*
G01X5034501Y1426594D01*
G01X5045568Y1428346D01*
G01X5055552Y1433433D01*
G01X5063475Y1441357D01*
G01X5068562Y1451340D01*
G01X5070315Y1462408D01*
G01X5070315Y1602407D01*
G01X5068562Y1613474D01*
G01X5063475Y1623458D01*
G01X5055552Y1631381D01*
G01X5045568Y1636468D01*
G01X5034501Y1638221D01*
G01X5009431Y1638221D01*
G01X5009916Y1644100D01*
G01X5009916Y1734100D01*
G01X5008163Y1745167D01*
G01X5003076Y1755151D01*
G01X4995153Y1763074D01*
G01X4985169Y1768161D01*
G01X4974102Y1769914D01*
G01X4894102Y1769914D01*
G01X4882462Y1767969D01*
G01X4872086Y1762347D01*
G01X4864100Y1753657D01*
G01X4856114Y1762347D01*
G01X4845738Y1767969D01*
G01X4834098Y1769914D01*
G01X4754098Y1769914D01*
G01X4743077Y1768176D01*
G01X4733125Y1763131D01*
G01X4725209Y1755268D01*
G01X4720097Y1745351D01*
G01X4718285Y1734342D01*
G01X4597986Y1734342D01*
G01X4587914Y1739717D01*
G01X4576989Y1743026D01*
G01X4565628Y1744143D01*
G01X4491320Y1744143D01*
G01X4596124Y1848947D01*
G01X4599602Y1852166D01*
G01X4605336Y1856565D01*
G01X4612013Y1859331D01*
G01X4619179Y1860275D01*
G01X5166482Y1860275D01*
G01X5163130Y1846896D01*
G01X5162617Y1833112D01*
G01X5164967Y1819521D01*
G01X5170078Y1806710D01*
G01X5177729Y1795234D01*
G01X5177729Y1669384D01*
G01X5169431Y1656642D01*
G01X5164253Y1642345D01*
G01X5162469Y1627245D01*
G01X5164171Y1612135D01*
G01X5169270Y1597809D01*
G01X5177498Y1585022D01*
G01X5188423Y1574446D01*
G01X5201469Y1566636D01*
G01X5215952Y1562003D01*
G01X5231109Y1560790D01*
G01X5246144Y1563063D01*
G01X5260266Y1568700D01*
G01X5272733Y1577406D01*
G01X5282889Y1588722D01*
G01X5296201Y1584875D01*
G01X5310022Y1583878D01*
G01X5323749Y1585776D01*
G01X5336781Y1590484D01*
G01X5348551Y1597798D01*
G01X5358543Y1607398D01*
G01X5352093Y1587769D01*
G01X5348181Y1567480D01*
G01X5346870Y1546860D01*
G01X5346870Y939209D01*
G01X5348743Y922674D01*
G01X5354268Y906978D01*
G01X5363164Y892915D01*
G01X4908267Y892915D01*
G01X4908316Y894800D01*
G01X4908316Y984800D01*
G01X4906563Y995867D01*
G01X4901476Y1005851D01*
G01X4893553Y1013774D01*
G01X4883569Y1018861D01*
G01X4872502Y1020614D01*
G01X4792502Y1020614D01*
G01X4780862Y1018669D01*
G01X4770486Y1013047D01*
G01X4762500Y1004357D01*
G01X4758524Y1009402D01*
G01X4753712Y1013655D01*
G01X4753712Y1074888D01*
G01X4754098Y1074886D01*
G01X4834098Y1074886D01*
G01X4845738Y1076831D01*
G01X4856114Y1082453D01*
G01X4864100Y1091143D01*
G01X4872086Y1082453D01*
G01X4882462Y1076831D01*
G01X4894102Y1074886D01*
G01X4974102Y1074886D01*
G01X4985169Y1076639D01*
G01X4995153Y1081726D01*
G01X5003076Y1089649D01*
G01X5008163Y1099633D01*
G01X5009916Y1110700D01*
G01X5009916Y1174370D01*
G01X5016188Y1190148D01*
G01X5020466Y1206579D01*
G01X5034501Y1206579D01*
G37*
G36*
G01X4658813Y5377459D02*
G01X4658526Y5381985D01*
G01X4993474Y5381985D01*
G01X4993187Y5377459D01*
G01X4993187Y5077460D01*
G01X4994936Y5066403D01*
G01X5000014Y5056427D01*
G01X5007923Y5048505D01*
G01X5017892Y5043412D01*
G01X5028946Y5041646D01*
G01X5028946Y4686300D01*
G01X5027094Y4674605D01*
G01X5021718Y4664055D01*
G01X5013345Y4655682D01*
G01X5002795Y4650306D01*
G01X4991100Y4648454D01*
G01X4845401Y4648454D01*
G01X4856506Y4664098D01*
G01X4865368Y4681113D01*
G01X4871819Y4699180D01*
G01X4875739Y4717960D01*
G01X4877054Y4737100D01*
G01X4877054Y4741647D01*
G01X4888108Y4743413D01*
G01X4898077Y4748506D01*
G01X4905986Y4756427D01*
G01X4911064Y4766404D01*
G01X4912813Y4777461D01*
G01X4912813Y5077460D01*
G01X4911061Y5088527D01*
G01X4905974Y5098511D01*
G01X4898050Y5106434D01*
G01X4888067Y5111521D01*
G01X4876999Y5113274D01*
G01X4775001Y5113274D01*
G01X4763933Y5111521D01*
G01X4753950Y5106434D01*
G01X4746026Y5098511D01*
G01X4740939Y5088527D01*
G01X4739187Y5077460D01*
G01X4739187Y4777461D01*
G01X4740936Y4766404D01*
G01X4746014Y4756427D01*
G01X4753923Y4748506D01*
G01X4763892Y4743413D01*
G01X4774946Y4741647D01*
G01X4774946Y4737100D01*
G01X4773094Y4725405D01*
G01X4767718Y4714855D01*
G01X4759345Y4706482D01*
G01X4748795Y4701106D01*
G01X4737100Y4699254D01*
G01X4591401Y4699254D01*
G01X4602506Y4714898D01*
G01X4611368Y4731913D01*
G01X4617819Y4749980D01*
G01X4621739Y4768760D01*
G01X4623054Y4787900D01*
G01X4623054Y5041646D01*
G01X4634108Y5043412D01*
G01X4644077Y5048505D01*
G01X4651986Y5056427D01*
G01X4657064Y5066403D01*
G01X4658813Y5077460D01*
G01X4658813Y5377459D01*
G37*
G36*
G01X4620500Y1426088D02*
G01X4623487Y1438553D01*
G01X4623679Y1451369D01*
G01X4621067Y1463918D01*
G01X4615776Y1475592D01*
G01X4608062Y1485829D01*
G01X4617032Y1498292D01*
G01X4622438Y1512664D01*
G01X4623904Y1527949D01*
G01X4621331Y1543088D01*
G01X4614894Y1557029D01*
G01X4626174Y1553978D01*
G01X4636109Y1547825D01*
G01X4643865Y1539085D01*
G01X4648795Y1528491D01*
G01X4650486Y1516929D01*
G01X4650486Y1485900D01*
G01X4652273Y1465969D01*
G01X4657579Y1446674D01*
G01X4666233Y1428631D01*
G01X4677959Y1412415D01*
G01X4692384Y1398545D01*
G01X4709046Y1387463D01*
G01X4708725Y1384085D01*
G01X4693635Y1397044D01*
G01X4676964Y1407893D01*
G01X4659004Y1416444D01*
G01X4640073Y1422544D01*
G01X4620500Y1426088D01*
G37*
G36*
G01X5510767Y-54176D02*
G01X5157218Y-54176D01*
G01X5159898Y-46567D01*
G01X5160806Y-38551D01*
G01X5160806Y211449D01*
G01X5159029Y222592D01*
G01X5153872Y232629D01*
G01X5145848Y240564D01*
G01X5135753Y245608D01*
G01X5135753Y441635D01*
G01X5134065Y463310D01*
G01X5129039Y484463D01*
G01X5120799Y504581D01*
G01X5109542Y523181D01*
G01X5095540Y539813D01*
G01X5237079Y539813D01*
G01X5248530Y538512D01*
G01X5253178Y538226D01*
G01X5253178Y291446D01*
G01X5254931Y280379D01*
G01X5260018Y270395D01*
G01X5267942Y262472D01*
G01X5277925Y257385D01*
G01X5288992Y255632D01*
G01X5378992Y255632D01*
G01X5390059Y257385D01*
G01X5400043Y262472D01*
G01X5407966Y270395D01*
G01X5413053Y280379D01*
G01X5414806Y291446D01*
G01X5414806Y541445D01*
G01X5413053Y552513D01*
G01X5407966Y562496D01*
G01X5400043Y570420D01*
G01X5390059Y575507D01*
G01X5378992Y577259D01*
G01X5365665Y577259D01*
G01X5352434Y594427D01*
G01X5336711Y609346D01*
G01X5499092Y609346D01*
G01X5510787Y607494D01*
G01X5521338Y602118D01*
G01X5529710Y593745D01*
G01X5535086Y583195D01*
G01X5536938Y571500D01*
G01X5536938Y246747D01*
G01X5527413Y243697D01*
G01X5519103Y238131D01*
G01X5512656Y230484D01*
G01X5508575Y221353D01*
G01X5507178Y211449D01*
G01X5507178Y-38551D01*
G01X5508087Y-46567D01*
G01X5510767Y-54176D01*
G37*
G36*
G01X6497126Y-54176D02*
G01X6173218Y-54176D01*
G01X6175898Y-46567D01*
G01X6176806Y-38551D01*
G01X6176806Y211449D01*
G01X6174802Y223261D01*
G01X6169014Y233752D01*
G01X6160089Y241746D01*
G01X6149028Y246350D01*
G01X6149028Y689385D01*
G01X6147193Y711974D01*
G01X6141736Y733971D01*
G01X6132800Y754799D01*
G01X6120619Y773911D01*
G01X6105514Y790807D01*
G01X6261948Y790807D01*
G01X6273643Y788954D01*
G01X6284193Y783579D01*
G01X6292566Y775206D01*
G01X6297942Y764656D01*
G01X6299794Y752961D01*
G01X6299794Y576880D01*
G01X6290040Y573989D01*
G01X6281493Y568472D01*
G01X6274842Y560773D01*
G01X6270623Y551516D01*
G01X6269178Y541445D01*
G01X6269178Y291446D01*
G01X6270931Y280379D01*
G01X6276018Y270395D01*
G01X6283942Y262472D01*
G01X6293925Y257385D01*
G01X6304992Y255632D01*
G01X6394992Y255632D01*
G01X6406059Y257385D01*
G01X6416043Y262472D01*
G01X6423966Y270395D01*
G01X6429053Y280379D01*
G01X6430806Y291446D01*
G01X6430806Y541445D01*
G01X6429457Y551182D01*
G01X6425512Y560185D01*
G01X6419268Y567776D01*
G01X6411195Y573384D01*
G01X6401902Y576587D01*
G01X6401902Y752961D01*
G01X6401391Y759460D01*
G01X6408166Y759460D01*
G01X6410159Y731590D01*
G01X6416099Y704287D01*
G01X6425863Y678108D01*
G01X6439254Y653584D01*
G01X6455999Y631216D01*
G01X6475756Y611459D01*
G01X6498124Y594714D01*
G01X6522648Y581323D01*
G01X6548827Y571559D01*
G01X6576130Y565619D01*
G01X6604000Y563626D01*
G01X6631870Y565619D01*
G01X6659173Y571559D01*
G01X6685352Y581323D01*
G01X6709876Y594714D01*
G01X6732244Y611459D01*
G01X6752001Y631216D01*
G01X6768746Y653584D01*
G01X6782137Y678108D01*
G01X6791901Y704287D01*
G01X6797841Y731590D01*
G01X6799834Y759460D01*
G01X6797841Y787330D01*
G01X6791901Y814633D01*
G01X6782137Y840812D01*
G01X6768746Y865336D01*
G01X6752001Y887704D01*
G01X6732244Y907461D01*
G01X6709876Y924206D01*
G01X6685352Y937597D01*
G01X6659173Y947361D01*
G01X6631870Y953301D01*
G01X6604000Y955294D01*
G01X6576130Y953301D01*
G01X6548827Y947361D01*
G01X6522648Y937597D01*
G01X6498124Y924206D01*
G01X6475756Y907461D01*
G01X6455999Y887704D01*
G01X6439254Y865336D01*
G01X6425863Y840812D01*
G01X6416099Y814633D01*
G01X6410159Y787330D01*
G01X6408166Y759460D01*
G01X6408166Y759460D01*
G01X6401391Y759460D01*
G01X6400179Y774854D01*
G01X6395052Y796209D01*
G01X6386648Y816498D01*
G01X6375173Y835224D01*
G01X6360911Y851923D01*
G01X6344211Y866186D01*
G01X6325486Y877661D01*
G01X6305196Y886065D01*
G01X6283842Y891192D01*
G01X6261948Y892915D01*
G01X5715791Y892915D01*
G01X5702807Y901621D01*
G01X5688146Y907046D01*
G01X5672623Y908889D01*
G01X5657099Y907046D01*
G01X5642438Y901621D01*
G01X5629455Y892915D01*
G01X5478404Y892915D01*
G01X5487300Y906978D01*
G01X5492825Y922674D01*
G01X5494698Y939209D01*
G01X5494698Y1546860D01*
G01X5495839Y1552595D01*
G01X5499087Y1557457D01*
G01X5503949Y1560705D01*
G01X5509684Y1561846D01*
G01X5784686Y1561846D01*
G01X5784686Y1550760D01*
G01X5786439Y1539693D01*
G01X5791526Y1529709D01*
G01X5799449Y1521786D01*
G01X5809433Y1516699D01*
G01X5820500Y1514946D01*
G01X5990500Y1514946D01*
G01X6001567Y1516699D01*
G01X6011551Y1521786D01*
G01X6019474Y1529709D01*
G01X6024561Y1539693D01*
G01X6026314Y1550760D01*
G01X6026314Y1561846D01*
G01X6063935Y1561846D01*
G01X6078476Y1546144D01*
G01X6095560Y1533253D01*
G01X6114650Y1523579D01*
G01X6135148Y1517426D01*
G01X6156410Y1514986D01*
G01X6177768Y1516335D01*
G01X6198554Y1521432D01*
G01X6218114Y1530117D01*
G01X6235834Y1542117D01*
G01X6251160Y1557055D01*
G01X6263609Y1574463D01*
G01X6272791Y1593794D01*
G01X6278418Y1614443D01*
G01X6280314Y1635760D01*
G01X6292686Y1635760D01*
G01X6294522Y1614781D01*
G01X6299972Y1594439D01*
G01X6308872Y1575353D01*
G01X6320951Y1558102D01*
G01X6335842Y1543211D01*
G01X6353093Y1531132D01*
G01X6372179Y1522232D01*
G01X6392521Y1516782D01*
G01X6413500Y1514946D01*
G01X6434479Y1516782D01*
G01X6454821Y1522232D01*
G01X6473907Y1531132D01*
G01X6491158Y1543211D01*
G01X6506049Y1558102D01*
G01X6518128Y1575353D01*
G01X6527028Y1594439D01*
G01X6532478Y1614781D01*
G01X6534314Y1635760D01*
G01X6546686Y1635760D01*
G01X6548522Y1614781D01*
G01X6553972Y1594439D01*
G01X6562872Y1575353D01*
G01X6574951Y1558102D01*
G01X6589842Y1543211D01*
G01X6607093Y1531132D01*
G01X6626179Y1522232D01*
G01X6646521Y1516782D01*
G01X6667500Y1514946D01*
G01X6688479Y1516782D01*
G01X6708821Y1522232D01*
G01X6727907Y1531132D01*
G01X6745158Y1543211D01*
G01X6760049Y1558102D01*
G01X6772128Y1575353D01*
G01X6781028Y1594439D01*
G01X6786478Y1614781D01*
G01X6788314Y1635760D01*
G01X6786478Y1656739D01*
G01X6781028Y1677081D01*
G01X6772128Y1696167D01*
G01X6760049Y1713418D01*
G01X6745158Y1728309D01*
G01X6727907Y1740388D01*
G01X6708821Y1749288D01*
G01X6688479Y1754738D01*
G01X6667500Y1756574D01*
G01X6646521Y1754738D01*
G01X6626179Y1749288D01*
G01X6607093Y1740388D01*
G01X6589842Y1728309D01*
G01X6574951Y1713418D01*
G01X6562872Y1696167D01*
G01X6553972Y1677081D01*
G01X6548522Y1656739D01*
G01X6546686Y1635760D01*
G01X6546686Y1635760D01*
G01X6534314Y1635760D01*
G01X6532478Y1656739D01*
G01X6527028Y1677081D01*
G01X6518128Y1696167D01*
G01X6506049Y1713418D01*
G01X6491158Y1728309D01*
G01X6473907Y1740388D01*
G01X6454821Y1749288D01*
G01X6434479Y1754738D01*
G01X6413500Y1756574D01*
G01X6392521Y1754738D01*
G01X6372179Y1749288D01*
G01X6353093Y1740388D01*
G01X6335842Y1728309D01*
G01X6320951Y1713418D01*
G01X6308872Y1696167D01*
G01X6299972Y1677081D01*
G01X6294522Y1656739D01*
G01X6292686Y1635760D01*
G01X6292686Y1635760D01*
G01X6280314Y1635760D01*
G01X6278418Y1657077D01*
G01X6272791Y1677726D01*
G01X6263609Y1697057D01*
G01X6251160Y1714465D01*
G01X6235834Y1729403D01*
G01X6218114Y1741403D01*
G01X6198554Y1750088D01*
G01X6177768Y1755185D01*
G01X6156410Y1756534D01*
G01X6135148Y1754094D01*
G01X6114650Y1747941D01*
G01X6095560Y1738267D01*
G01X6078476Y1725376D01*
G01X6063935Y1709674D01*
G01X6026314Y1709674D01*
G01X6026314Y1720760D01*
G01X6024561Y1731827D01*
G01X6019474Y1741811D01*
G01X6011551Y1749734D01*
G01X6001567Y1754821D01*
G01X5990500Y1756574D01*
G01X5820500Y1756574D01*
G01X5809433Y1754821D01*
G01X5799449Y1749734D01*
G01X5791526Y1741811D01*
G01X5786439Y1731827D01*
G01X5784686Y1720760D01*
G01X5784686Y1709674D01*
G01X5702689Y1709674D01*
G01X5715393Y1725919D01*
G01X5725571Y1743854D01*
G01X5733004Y1763091D01*
G01X5737529Y1783211D01*
G01X5739049Y1803777D01*
G01X5739049Y1974760D01*
G01X5784686Y1974760D01*
G01X5784686Y1804760D01*
G01X5786439Y1793693D01*
G01X5791526Y1783709D01*
G01X5799449Y1775786D01*
G01X5809433Y1770699D01*
G01X5820500Y1768946D01*
G01X5990500Y1768946D01*
G01X5990500Y1768946D01*
G01X6001567Y1770699D01*
G01X6011551Y1775786D01*
G01X6019474Y1783709D01*
G01X6024561Y1793693D01*
G01X6026314Y1804760D01*
G01X6026314Y1889760D01*
G01X6038686Y1889760D01*
G01X6040522Y1868781D01*
G01X6045972Y1848439D01*
G01X6054872Y1829353D01*
G01X6066951Y1812102D01*
G01X6081842Y1797211D01*
G01X6099093Y1785132D01*
G01X6118179Y1776232D01*
G01X6138521Y1770782D01*
G01X6159500Y1768946D01*
G01X6180479Y1770782D01*
G01X6200821Y1776232D01*
G01X6219907Y1785132D01*
G01X6237158Y1797211D01*
G01X6252049Y1812102D01*
G01X6264128Y1829353D01*
G01X6273028Y1848439D01*
G01X6278478Y1868781D01*
G01X6280314Y1889760D01*
G01X6278478Y1910739D01*
G01X6273028Y1931081D01*
G01X6264128Y1950167D01*
G01X6252049Y1967418D01*
G01X6237158Y1982309D01*
G01X6219907Y1994388D01*
G01X6200821Y2003288D01*
G01X6180479Y2008738D01*
G01X6159500Y2010574D01*
G01X6138521Y2008738D01*
G01X6118179Y2003288D01*
G01X6099093Y1994388D01*
G01X6081842Y1982309D01*
G01X6066951Y1967418D01*
G01X6054872Y1950167D01*
G01X6045972Y1931081D01*
G01X6040522Y1910739D01*
G01X6038686Y1889760D01*
G01X6038686Y1889760D01*
G01X6026314Y1889760D01*
G01X6026314Y1974760D01*
G01X6024561Y1985827D01*
G01X6019474Y1995811D01*
G01X6011551Y2003734D01*
G01X6001567Y2008821D01*
G01X5990500Y2010574D01*
G01X5820500Y2010574D01*
G01X5809433Y2008821D01*
G01X5799449Y2003734D01*
G01X5791526Y1995811D01*
G01X5786439Y1985827D01*
G01X5784686Y1974760D01*
G01X5739049Y1974760D01*
G01X5739049Y2231300D01*
G01X5784686Y2231300D01*
G01X5784686Y2061300D01*
G01X5786439Y2050233D01*
G01X5791526Y2040249D01*
G01X5799449Y2032326D01*
G01X5809433Y2027239D01*
G01X5820500Y2025486D01*
G01X5990500Y2025486D01*
G01X5990500Y2025486D01*
G01X6001567Y2027239D01*
G01X6011551Y2032326D01*
G01X6019474Y2040249D01*
G01X6024561Y2050233D01*
G01X6026314Y2061300D01*
G01X6026314Y2146300D01*
G01X6038686Y2146300D01*
G01X6040522Y2125321D01*
G01X6045972Y2104979D01*
G01X6054872Y2085893D01*
G01X6066951Y2068642D01*
G01X6081842Y2053751D01*
G01X6099093Y2041672D01*
G01X6118179Y2032772D01*
G01X6138521Y2027322D01*
G01X6159500Y2025486D01*
G01X6180479Y2027322D01*
G01X6200821Y2032772D01*
G01X6219907Y2041672D01*
G01X6237158Y2053751D01*
G01X6252049Y2068642D01*
G01X6264128Y2085893D01*
G01X6273028Y2104979D01*
G01X6278478Y2125321D01*
G01X6280314Y2146300D01*
G01X6278478Y2167279D01*
G01X6273028Y2187621D01*
G01X6264128Y2206707D01*
G01X6252049Y2223958D01*
G01X6237158Y2238849D01*
G01X6219907Y2250928D01*
G01X6200821Y2259828D01*
G01X6180479Y2265278D01*
G01X6159500Y2267114D01*
G01X6138521Y2265278D01*
G01X6118179Y2259828D01*
G01X6099093Y2250928D01*
G01X6081842Y2238849D01*
G01X6066951Y2223958D01*
G01X6054872Y2206707D01*
G01X6045972Y2187621D01*
G01X6040522Y2167279D01*
G01X6038686Y2146300D01*
G01X6038686Y2146300D01*
G01X6026314Y2146300D01*
G01X6026314Y2231300D01*
G01X6024561Y2242367D01*
G01X6019474Y2252351D01*
G01X6011551Y2260274D01*
G01X6001567Y2265361D01*
G01X5990500Y2267114D01*
G01X5820500Y2267114D01*
G01X5809433Y2265361D01*
G01X5799449Y2260274D01*
G01X5791526Y2252351D01*
G01X5786439Y2242367D01*
G01X5784686Y2231300D01*
G01X5739049Y2231300D01*
G01X5739049Y2284397D01*
G01X5806987Y2284397D01*
G01X5816601Y2285712D01*
G01X5825509Y2289559D01*
G01X5833058Y2295656D01*
G01X5838693Y2303555D01*
G01X5842000Y2312677D01*
G01X5845307Y2303555D01*
G01X5850942Y2295656D01*
G01X5858491Y2289559D01*
G01X5867399Y2285712D01*
G01X5877013Y2284397D01*
G01X5957660Y2284397D01*
G01X5967211Y2285694D01*
G01X5976070Y2289491D01*
G01X5983595Y2295513D01*
G01X5989243Y2303324D01*
G01X5992602Y2312358D01*
G01X6400800Y2312358D01*
G01X6420596Y2313765D01*
G01X6439994Y2317958D01*
G01X6458604Y2324853D01*
G01X6476052Y2334310D01*
G01X6491986Y2346141D01*
G01X6491986Y2322824D01*
G01X6491043Y2315658D01*
G01X6488277Y2308981D01*
G01X6483877Y2303247D01*
G01X6443866Y2263235D01*
G01X6422558Y2266774D01*
G01X6400961Y2266461D01*
G01X6379765Y2262308D01*
G01X6359647Y2254447D01*
G01X6341250Y2243130D01*
G01X6325163Y2228717D01*
G01X6311899Y2211670D01*
G01X6301883Y2192533D01*
G01X6295434Y2171919D01*
G01X6292759Y2150486D01*
G01X6293943Y2128919D01*
G01X6298948Y2107908D01*
G01X6307615Y2088124D01*
G01X6319667Y2070199D01*
G01X6334717Y2054707D01*
G01X6352286Y2042142D01*
G01X6352286Y1993918D01*
G01X6335177Y1981746D01*
G01X6320433Y1966796D01*
G01X6308501Y1949519D01*
G01X6299740Y1930436D01*
G01X6294415Y1910126D01*
G01X6292687Y1889200D01*
G01X6294609Y1868290D01*
G01X6300122Y1848030D01*
G01X6309059Y1829030D01*
G01X6321152Y1811864D01*
G01X6336033Y1797051D01*
G01X6353255Y1785039D01*
G01X6372296Y1776190D01*
G01X6392582Y1770771D01*
G01X6413500Y1768946D01*
G01X6434418Y1770771D01*
G01X6454704Y1776190D01*
G01X6473745Y1785039D01*
G01X6490967Y1797051D01*
G01X6505848Y1811864D01*
G01X6517941Y1829030D01*
G01X6526878Y1848030D01*
G01X6532391Y1868290D01*
G01X6534313Y1889200D01*
G01X6534266Y1889760D01*
G01X6546686Y1889760D01*
G01X6548522Y1868781D01*
G01X6553972Y1848439D01*
G01X6562872Y1829353D01*
G01X6574951Y1812102D01*
G01X6589842Y1797211D01*
G01X6607093Y1785132D01*
G01X6626179Y1776232D01*
G01X6646521Y1770782D01*
G01X6667500Y1768946D01*
G01X6688479Y1770782D01*
G01X6708821Y1776232D01*
G01X6727907Y1785132D01*
G01X6745158Y1797211D01*
G01X6760049Y1812102D01*
G01X6772128Y1829353D01*
G01X6781028Y1848439D01*
G01X6786478Y1868781D01*
G01X6788314Y1889760D01*
G01X6786478Y1910739D01*
G01X6781028Y1931081D01*
G01X6772128Y1950167D01*
G01X6760049Y1967418D01*
G01X6745158Y1982309D01*
G01X6727907Y1994388D01*
G01X6708821Y2003288D01*
G01X6688479Y2008738D01*
G01X6667500Y2010574D01*
G01X6646521Y2008738D01*
G01X6626179Y2003288D01*
G01X6607093Y1994388D01*
G01X6589842Y1982309D01*
G01X6574951Y1967418D01*
G01X6562872Y1950167D01*
G01X6553972Y1931081D01*
G01X6548522Y1910739D01*
G01X6546686Y1889760D01*
G01X6546686Y1889760D01*
G01X6534266Y1889760D01*
G01X6532585Y1910126D01*
G01X6527260Y1930436D01*
G01X6518499Y1949519D01*
G01X6506567Y1966796D01*
G01X6491823Y1981746D01*
G01X6474714Y1993918D01*
G01X6474714Y2042142D01*
G01X6490684Y2053356D01*
G01X6504640Y2066994D01*
G01X6516218Y2082701D01*
G01X6525117Y2100067D01*
G01X6531105Y2118639D01*
G01X6534024Y2137932D01*
G01X6533799Y2157444D01*
G01X6530435Y2176666D01*
G01X6566762Y2212993D01*
G01X6556583Y2194189D01*
G01X6549877Y2173885D01*
G01X6546857Y2152716D01*
G01X6547615Y2131347D01*
G01X6552129Y2110446D01*
G01X6560257Y2090668D01*
G01X6571744Y2072633D01*
G01X6586231Y2056906D01*
G01X6603263Y2043979D01*
G01X6622308Y2034257D01*
G01X6642769Y2028045D01*
G01X6664004Y2025537D01*
G01X6685348Y2026812D01*
G01X6706134Y2031830D01*
G01X6725709Y2040434D01*
G01X6743461Y2052354D01*
G01X6758834Y2067217D01*
G01X6771345Y2084557D01*
G01X6780603Y2103831D01*
G01X6786319Y2124436D01*
G01X6788312Y2145726D01*
G01X6786521Y2167033D01*
G01X6781002Y2187691D01*
G01X6771927Y2207053D01*
G01X6759581Y2224511D01*
G01X6744351Y2239520D01*
G01X6726713Y2251608D01*
G01X6707220Y2260398D01*
G01X6686484Y2265613D01*
G01X6665152Y2267091D01*
G01X6643894Y2264785D01*
G01X6623375Y2258768D01*
G01X6604239Y2249227D01*
G01X6587084Y2236463D01*
G01X6598828Y2256217D01*
G01X6607419Y2277533D01*
G01X6612655Y2299910D01*
G01X6614414Y2322824D01*
G01X6614414Y2450639D01*
G01X6913703Y2450639D01*
G01X6919234Y2451069D01*
G01X6919234Y620710D01*
G01X6574304Y278234D01*
G01X6568565Y270800D01*
G01X6564956Y262130D01*
G01X6563724Y252820D01*
G01X6563724Y12422D01*
G01X6560522Y-6793D01*
G01X6555198Y-21434D01*
G01X6544435Y-34887D01*
G01X6530982Y-45650D01*
G01X6516341Y-50974D01*
G01X6497126Y-54176D01*
G37*
G36*
G01X6018767Y-54176D02*
G01X5665218Y-54176D01*
G01X5667898Y-46567D01*
G01X5668806Y-38551D01*
G01X5668806Y211449D01*
G01X5667410Y221353D01*
G01X5663329Y230484D01*
G01X5656882Y238131D01*
G01X5648572Y243697D01*
G01X5639046Y246747D01*
G01X5639046Y571500D01*
G01X5637215Y594068D01*
G01X5631768Y616044D01*
G01X5622849Y636855D01*
G01X5610691Y655956D01*
G01X5595612Y672846D01*
G01X5753092Y672846D01*
G01X5764787Y670994D01*
G01X5775338Y665618D01*
G01X5783710Y657245D01*
G01X5789086Y646695D01*
G01X5790938Y635000D01*
G01X5790938Y576744D01*
G01X5781413Y573693D01*
G01X5773103Y568128D01*
G01X5766656Y560481D01*
G01X5762575Y551349D01*
G01X5761178Y541445D01*
G01X5761178Y291446D01*
G01X5762931Y280379D01*
G01X5768018Y270395D01*
G01X5775942Y262472D01*
G01X5785925Y257385D01*
G01X5796992Y255632D01*
G01X5886992Y255632D01*
G01X5898059Y257385D01*
G01X5908043Y262472D01*
G01X5915966Y270395D01*
G01X5921053Y280379D01*
G01X5922806Y291446D01*
G01X5922806Y541445D01*
G01X5921410Y551349D01*
G01X5917329Y560481D01*
G01X5910882Y568128D01*
G01X5902572Y573693D01*
G01X5893046Y576744D01*
G01X5893046Y635000D01*
G01X5891600Y655070D01*
G01X5887290Y674725D01*
G01X5880206Y693559D01*
G01X5870495Y711182D01*
G01X5858357Y727231D01*
G01X5887182Y727231D01*
G01X5900425Y717953D01*
G01X5915520Y712156D01*
G01X5931569Y710185D01*
G01X5947618Y712156D01*
G01X5962713Y717953D01*
G01X5975956Y727231D01*
G01X6009074Y727231D01*
G01X6020769Y725378D01*
G01X6031319Y720003D01*
G01X6039692Y711630D01*
G01X6045067Y701080D01*
G01X6046920Y689385D01*
G01X6046920Y247030D01*
G01X6036870Y244361D01*
G01X6028011Y238917D01*
G01X6021089Y231157D01*
G01X6016688Y221737D01*
G01X6015178Y211449D01*
G01X6015178Y-38551D01*
G01X6016087Y-46567D01*
G01X6018767Y-54176D01*
G37*
G36*
G01X5674813Y5377459D02*
G01X5674526Y5381985D01*
G01X6009474Y5381985D01*
G01X6009187Y5377459D01*
G01X6009187Y5077460D01*
G01X6010936Y5066403D01*
G01X6016014Y5056427D01*
G01X6023923Y5048505D01*
G01X6033892Y5043412D01*
G01X6044946Y5041646D01*
G01X6044946Y4038600D01*
G01X6043094Y4026905D01*
G01X6037718Y4016355D01*
G01X6029345Y4007982D01*
G01X6018795Y4002606D01*
G01X6007100Y4000754D01*
G01X5852109Y4000754D01*
G01X5866278Y4017430D01*
G01X5877675Y4036110D01*
G01X5886021Y4056339D01*
G01X5891111Y4077622D01*
G01X5892822Y4099437D01*
G01X5892999Y4741647D01*
G01X5904067Y4743399D01*
G01X5914050Y4748486D01*
G01X5921974Y4756410D01*
G01X5927061Y4766393D01*
G01X5928813Y4777461D01*
G01X5928813Y5077460D01*
G01X5927061Y5088527D01*
G01X5921974Y5098511D01*
G01X5914050Y5106434D01*
G01X5904067Y5111521D01*
G01X5892999Y5113274D01*
G01X5791001Y5113274D01*
G01X5779933Y5111521D01*
G01X5769950Y5106434D01*
G01X5762026Y5098511D01*
G01X5756939Y5088527D01*
G01X5755187Y5077460D01*
G01X5755187Y4777461D01*
G01X5756922Y4766448D01*
G01X5761959Y4756502D01*
G01X5769811Y4748588D01*
G01X5779716Y4743471D01*
G01X5790714Y4741648D01*
G01X5790714Y4099437D01*
G01X5788862Y4087742D01*
G01X5783486Y4077192D01*
G01X5775113Y4068819D01*
G01X5764563Y4063444D01*
G01X5752868Y4061591D01*
G01X5607826Y4061591D01*
G01X5618720Y4075044D01*
G01X5627462Y4089985D01*
G01X5633852Y4106072D01*
G01X5637746Y4122939D01*
G01X5639054Y4140200D01*
G01X5639054Y5041646D01*
G01X5650108Y5043412D01*
G01X5660077Y5048505D01*
G01X5667986Y5056427D01*
G01X5673064Y5066403D01*
G01X5674813Y5077460D01*
G01X5674813Y5377459D01*
G37*
G36*
G01X6182813Y5377459D02*
G01X6182526Y5381985D01*
G01X6339452Y5381985D01*
G01X6563724Y5161538D01*
G01X6563724Y4033959D01*
G01X6564926Y4024761D01*
G01X6568449Y4016180D01*
G01X6574058Y4008792D01*
G01X6919234Y3659336D01*
G01X6919234Y3131836D01*
G01X6913703Y3132266D01*
G01X6656077Y3132266D01*
G01X6656077Y3162300D01*
G01X6654229Y3185783D01*
G01X6648730Y3208688D01*
G01X6639716Y3230450D01*
G01X6627408Y3250535D01*
G01X6612110Y3268447D01*
G01X6594198Y3283745D01*
G01X6574114Y3296053D01*
G01X6552351Y3305067D01*
G01X6529446Y3310566D01*
G01X6505963Y3312414D01*
G01X6362700Y3312414D01*
G01X6354145Y3313769D01*
G01X6346427Y3317702D01*
G01X6340302Y3323827D01*
G01X6336369Y3331545D01*
G01X6335014Y3340100D01*
G01X6335014Y3553460D01*
G01X6408166Y3553460D01*
G01X6410159Y3525590D01*
G01X6416099Y3498287D01*
G01X6425863Y3472108D01*
G01X6439254Y3447584D01*
G01X6455999Y3425216D01*
G01X6475756Y3405459D01*
G01X6498124Y3388714D01*
G01X6522648Y3375323D01*
G01X6548827Y3365559D01*
G01X6576130Y3359619D01*
G01X6604000Y3357626D01*
G01X6631870Y3359619D01*
G01X6659173Y3365559D01*
G01X6685352Y3375323D01*
G01X6709876Y3388714D01*
G01X6732244Y3405459D01*
G01X6752001Y3425216D01*
G01X6768746Y3447584D01*
G01X6782137Y3472108D01*
G01X6791901Y3498287D01*
G01X6797841Y3525590D01*
G01X6799834Y3553460D01*
G01X6797841Y3581330D01*
G01X6791901Y3608633D01*
G01X6782137Y3634812D01*
G01X6768746Y3659336D01*
G01X6752001Y3681704D01*
G01X6732244Y3701461D01*
G01X6709876Y3718206D01*
G01X6685352Y3731597D01*
G01X6659173Y3741361D01*
G01X6631870Y3747301D01*
G01X6604000Y3749294D01*
G01X6576130Y3747301D01*
G01X6548827Y3741361D01*
G01X6522648Y3731597D01*
G01X6498124Y3718206D01*
G01X6475756Y3701461D01*
G01X6455999Y3681704D01*
G01X6439254Y3659336D01*
G01X6425863Y3634812D01*
G01X6416099Y3608633D01*
G01X6410159Y3581330D01*
G01X6408166Y3553460D01*
G01X6408166Y3553460D01*
G01X6335014Y3553460D01*
G01X6335014Y3667760D01*
G01X6333166Y3691243D01*
G01X6327667Y3714148D01*
G01X6318653Y3735910D01*
G01X6306345Y3755995D01*
G01X6291047Y3773907D01*
G01X6273135Y3789205D01*
G01X6253050Y3801513D01*
G01X6231288Y3810527D01*
G01X6208383Y3816026D01*
G01X6184900Y3817874D01*
G01X6057900Y3817874D01*
G01X6044279Y3816339D01*
G01X6031340Y3811812D01*
G01X6019734Y3804519D01*
G01X6010041Y3794826D01*
G01X6002748Y3783220D01*
G01X5998221Y3770281D01*
G01X5996686Y3756660D01*
G01X5998221Y3743039D01*
G01X6002748Y3730100D01*
G01X6010041Y3718494D01*
G01X6019734Y3708801D01*
G01X6031340Y3701508D01*
G01X6044279Y3696981D01*
G01X6057900Y3695446D01*
G01X6184900Y3695446D01*
G01X6193455Y3694091D01*
G01X6201173Y3690158D01*
G01X6207298Y3684033D01*
G01X6211231Y3676315D01*
G01X6212586Y3667760D01*
G01X6212586Y3600892D01*
G01X5855564Y3600892D01*
G01X5833413Y3599249D01*
G01X5811748Y3594355D01*
G01X5791042Y3586318D01*
G01X5771749Y3575314D01*
G01X5754290Y3561584D01*
G01X5739049Y3545427D01*
G01X5739049Y3782912D01*
G01X5740901Y3794607D01*
G01X5746277Y3805157D01*
G01X5754649Y3813530D01*
G01X5765200Y3818906D01*
G01X5776895Y3820758D01*
G01X6264498Y3820758D01*
G01X6286391Y3822481D01*
G01X6307746Y3827608D01*
G01X6328036Y3836012D01*
G01X6346761Y3847487D01*
G01X6363460Y3861749D01*
G01X6377723Y3878449D01*
G01X6389198Y3897174D01*
G01X6397602Y3917464D01*
G01X6402729Y3938818D01*
G01X6404452Y3960712D01*
G01X6404452Y4741813D01*
G01X6414662Y4744355D01*
G01X6423693Y4749754D01*
G01X6430765Y4757544D01*
G01X6435268Y4767053D01*
G01X6436813Y4777461D01*
G01X6436813Y5077460D01*
G01X6435061Y5088527D01*
G01X6429974Y5098511D01*
G01X6422050Y5106434D01*
G01X6412067Y5111521D01*
G01X6400999Y5113274D01*
G01X6299001Y5113274D01*
G01X6287933Y5111521D01*
G01X6277950Y5106434D01*
G01X6270026Y5098511D01*
G01X6264939Y5088527D01*
G01X6263187Y5077460D01*
G01X6263187Y4777461D01*
G01X6264939Y4766393D01*
G01X6270026Y4756410D01*
G01X6277950Y4748486D01*
G01X6287933Y4743399D01*
G01X6299001Y4741647D01*
G01X6302344Y4741647D01*
G01X6302344Y3960712D01*
G01X6300491Y3949017D01*
G01X6295116Y3938467D01*
G01X6286743Y3930094D01*
G01X6276193Y3924718D01*
G01X6264498Y3922866D01*
G01X6085794Y3922866D01*
G01X6103459Y3937100D01*
G01X6118591Y3954002D01*
G01X6130795Y3973126D01*
G01X6139748Y3993971D01*
G01X6145215Y4015989D01*
G01X6147054Y4038600D01*
G01X6147054Y5041646D01*
G01X6158108Y5043412D01*
G01X6168077Y5048505D01*
G01X6175986Y5056427D01*
G01X6181064Y5066403D01*
G01X6182813Y5077460D01*
G01X6182813Y5377459D01*
G37*
G36*
G01X5806987Y3352874D02*
G01X5816601Y3354188D01*
G01X5825509Y3358035D01*
G01X5833058Y3364132D01*
G01X5838693Y3372032D01*
G01X5842000Y3381154D01*
G01X5845009Y3372613D01*
G01X5850064Y3365099D01*
G01X5856842Y3359094D01*
G01X5864909Y3354981D01*
G01X5859022Y3340516D01*
G01X5856986Y3325032D01*
G01X5858935Y3309537D01*
G01X5864741Y3295039D01*
G01X5854323Y3289103D01*
G01X5846449Y3280061D01*
G01X5842000Y3268927D01*
G01X5838693Y3278049D01*
G01X5833058Y3285949D01*
G01X5825509Y3292046D01*
G01X5816601Y3295893D01*
G01X5806987Y3297207D01*
G01X5739049Y3297207D01*
G01X5739049Y3352874D01*
G01X5806987Y3352874D01*
G37*
G36*
G01X5806987Y3139178D02*
G01X5816601Y3140493D01*
G01X5825509Y3144340D01*
G01X5833058Y3150437D01*
G01X5838693Y3158336D01*
G01X5842000Y3167459D01*
G01X5845173Y3158595D01*
G01X5850546Y3150864D01*
G01X5857749Y3144801D01*
G01X5866282Y3140824D01*
G01X5866282Y3081867D01*
G01X5857749Y3077890D01*
G01X5850546Y3071826D01*
G01X5845173Y3064095D01*
G01X5842000Y3055232D01*
G01X5838693Y3064354D01*
G01X5833058Y3072253D01*
G01X5825509Y3078350D01*
G01X5816601Y3082197D01*
G01X5806987Y3083512D01*
G01X5739049Y3083512D01*
G01X5739049Y3139178D01*
G01X5806987Y3139178D01*
G37*
G36*
G01X6045454Y3202087D02*
G01X6108446Y3202087D01*
G01X6108446Y3200400D01*
G01X6109895Y3182235D01*
G01X6114207Y3164529D01*
G01X6121272Y3147731D01*
G01X6130911Y3132266D01*
G01X6065707Y3132266D01*
G01X6055105Y3130661D01*
G01X6045454Y3125989D01*
G01X6045454Y3202087D01*
G37*
G36*
G01X6913703Y2704639D02*
G01X6919234Y2705069D01*
G01X6919234Y2623836D01*
G01X6913703Y2624266D01*
G01X6614414Y2624266D01*
G01X6614414Y2704639D01*
G01X6913703Y2704639D01*
G37*
G54D10*
G01X385208Y3538220D02*
G01X340360Y3583068D01*
G01X340360Y4031852D01*
G01X359808Y4051300D01*
G01X456936Y4051300D01*
G03X511493Y4025633I54556J45149D01*
G03X527689Y4027510I0J70815D01*
G01X527689Y4019951D01*
G01X527689Y4019951D01*
G01X527700Y4019070D01*
G01X526216Y4017844D01*
G01X526216Y4017844D01*
G01X475416Y3967044D01*
G01X475416Y3967044D01*
G03X472440Y3959860I7184J-7184D01*
G01X472440Y3959860D01*
G01X472440Y3629660D01*
G01X472440Y3629660D01*
G03X475416Y3622476I10160J0D01*
G01X475416Y3622476D01*
G01X500816Y3597076D01*
G01X500816Y3597076D01*
G03X508000Y3594100I7184J7184D01*
G01X508000Y3594100D01*
G01X527689Y3594100D01*
G01X527689Y3587384D01*
G03X511493Y3589261I-16196J-68938D01*
G03X443494Y3538220I0J-70815D01*
G01X385208Y3538220D01*
G01X817008Y3233420D02*
G01X780313Y3270115D01*
G03X792734Y3307080I-48793J36965D01*
G01X792734Y3307080D01*
G01X792734Y3436620D01*
G01X792734Y3436620D01*
G03X774805Y3479905I-61214J0D01*
G01X774805Y3479905D01*
G01X723967Y3530743D01*
G01X723967Y3530743D01*
G03X709317Y3541562I-43285J-43285D01*
G01X709317Y3552241D01*
G01X709639Y3551918D01*
G01X709639Y3551918D01*
G03X716823Y3548942I7184J7184D01*
G01X716823Y3548942D01*
G01X853314Y3548942D01*
G01X995028Y3407228D01*
G01X995028Y3407228D01*
G03X1002213Y3404252I7184J7184D01*
G01X1002213Y3404252D01*
G01X1114843Y3404252D01*
G01X1118705Y3400390D01*
G03X1107987Y3402031I-10718J-34173D01*
G01X1107987Y3402031D01*
G01X1027340Y3402031D01*
G01X1027340Y3402031D01*
G03X991526Y3366217I0J-35814D01*
G01X991526Y3366217D01*
G01X991526Y3279816D01*
G01X991526Y3279816D01*
G03X1027340Y3244002I35814J0D01*
G01X1027340Y3244002D01*
G01X1107987Y3244002D01*
G01X1107987Y3244002D01*
G03X1132840Y3254029I0J35814D01*
G01X1132840Y3252868D01*
G01X1113392Y3233420D01*
G01X817008Y3233420D01*
G01X1730833Y3209714D02*
G01X1730833Y3091160D01*
G01X1292147Y3091160D01*
G03X1294474Y3103860I-33487J12700D01*
G01X1294474Y3103860D01*
G01X1294474Y3190260D01*
G01X1294474Y3190260D01*
G03X1258660Y3226074I-35814J0D01*
G01X1258660Y3226074D01*
G01X1178013Y3226074D01*
G01X1178013Y3226074D01*
G01X1176329Y3226035D01*
G01X1176329Y3235552D01*
G03X1178510Y3244002I-33329J13108D01*
G01X1258660Y3244002D01*
G01X1258660Y3244002D01*
G03X1294474Y3279816I0J35814D01*
G01X1294474Y3279816D01*
G01X1294474Y3366217D01*
G01X1294474Y3366217D01*
G03X1284610Y3390900I-35814J0D01*
G01X1418192Y3390900D01*
G01X1542216Y3266876D01*
G01X1542216Y3266876D01*
G03X1549400Y3263900I7184J7184D01*
G01X1549400Y3263900D01*
G01X1613874Y3263900D01*
G03X1663700Y3238246I49826J35560D01*
G03X1713526Y3263900I0J61214D01*
G01X1740874Y3263900D01*
G03X1762253Y3245257I49826J35560D01*
G03X1730833Y3209714I4394J-35543D01*
G01X1730833Y3209714D01*
G01X35814Y3431047D02*
G01X35814Y4183873D01*
G03X113497Y4144145I77683J56086D01*
G01X173497Y4144145D01*
G03X173497Y4335772I0J95814D01*
G01X113497Y4335772D01*
G03X35814Y4296044I0J-95814D01*
G01X35814Y5313496D01*
G01X39094Y5334814D01*
G01X44341Y5349243D01*
G01X54375Y5361787D01*
G01X68612Y5371752D01*
G01X84590Y5379015D01*
G01X102412Y5381985D01*
G01X1729342Y5381985D01*
G01X1729287Y5379999D01*
G01X1729287Y5080000D01*
G03X1765046Y5044186I35814J0D01*
G01X1765046Y4646924D01*
G03X1766784Y4624935I139954J0D01*
G01X1743019Y4648700D01*
G03X1465094Y4763821I-277926J-277926D01*
G01X1220807Y4763821D01*
G01X1220807Y4767767D01*
G03X1184993Y4803581I-35814J0D01*
G01X934993Y4803581D01*
G03X899179Y4767767I0J-35814D01*
G01X899179Y4763821D01*
G01X370821Y4763821D01*
G01X370821Y4767767D01*
G03X335007Y4803581I-35814J0D01*
G01X85007Y4803581D01*
G03X49193Y4767767I0J-35814D01*
G01X49193Y4657767D01*
G03X85007Y4621953I35814J0D01*
G01X335007Y4621953D01*
G03X370821Y4657767I0J35814D01*
G01X370821Y4661713D01*
G01X899179Y4661713D01*
G01X899179Y4657767D01*
G03X934993Y4621953I35814J0D01*
G01X1016610Y4621953D01*
G01X1016610Y4469029D01*
G03X991526Y4434860I10730J-34169D01*
G01X991526Y4348460D01*
G03X1016610Y4314291I35814J0D01*
G01X1016610Y4290492D01*
G03X991526Y4256323I10730J-34169D01*
G01X991526Y4169922D01*
G03X1027340Y4134108I35814J0D01*
G01X1107987Y4134108D01*
G03X1143000Y4162389I0J35814D01*
G03X1178013Y4134108I35013J7534D01*
G01X1258660Y4134108D01*
G03X1293602Y4162069I0J35814D01*
G01X1411986Y4162069D01*
G01X1411986Y4086860D01*
G01X1412046Y4085747D01*
G03X1389539Y4017277I35754J-49687D01*
G03X1447800Y3974846I58261J18783D01*
G01X1472886Y3974846D01*
G01X1472886Y3959258D01*
G03X1554529Y3897986I63814J0D01*
G01X1645871Y3897986D01*
G03X1681529Y3897986I17829J61272D01*
G01X1772871Y3897986D01*
G03X1808529Y3897986I17829J61272D01*
G01X1899871Y3897986D01*
G03X1935529Y3897986I17829J61272D01*
G01X2026871Y3897986D01*
G03X2062529Y3897986I17829J61272D01*
G01X2153871Y3897986D01*
G03X2189529Y3897986I17829J61272D01*
G01X2280871Y3897986D01*
G03X2316529Y3897986I17829J61272D01*
G01X2407871Y3897986D01*
G03X2432506Y3895808I17829J61272D01*
G01X2432506Y3890561D01*
G03X2442920Y3880147I10414J0D01*
G01X2465442Y3880147D01*
G03X2463546Y3858260I125358J-21887D01*
G01X2463546Y3563874D01*
G01X2445659Y3563874D01*
G03X2405741Y3563874I-19959J-60612D01*
G01X2318659Y3563874D01*
G03X2278741Y3563874I-19959J-60612D01*
G01X2218944Y3563874D01*
G01X2218944Y3717275D01*
G03X2205107Y3750681I-47244J0D01*
G01X2137822Y3817966D01*
G03X2104415Y3831803I-33407J-33407D01*
G01X1303123Y3831803D01*
G01X1288203Y3846723D01*
G01X1288203Y3899248D01*
G03X1252389Y3935062I-35814J0D01*
G01X1171741Y3935062D01*
G03X1136729Y3906782I0J-35814D01*
G03X1101716Y3935062I-35013J-7534D01*
G01X1021069Y3935062D01*
G03X985255Y3899248I0J-35814D01*
G01X985255Y3815271D01*
G01X797201Y3815271D01*
G01X797201Y3855063D01*
G03X783363Y3888470I-47244J0D01*
G01X777935Y3893898D01*
G03X780555Y3896340I-33481J38543D01*
G01X867746Y3983531D01*
G01X992398Y3983531D01*
G03X1027340Y3955571I34942J7854D01*
G01X1107987Y3955571D01*
G03X1143000Y3983851I0J35814D01*
G03X1178013Y3955571I35013J7534D01*
G01X1258660Y3955571D01*
G03X1294474Y3991385I0J35814D01*
G01X1294474Y4077786D01*
G03X1258660Y4113600I-35814J0D01*
G01X1178013Y4113600D01*
G03X1143000Y4085319I0J-35814D01*
G03X1107987Y4113600I-35013J-7534D01*
G01X1027340Y4113600D01*
G03X992398Y4085639I0J-35814D01*
G01X846599Y4085639D01*
G03X810498Y4070686I0J-51054D01*
G01X785106Y4045294D01*
G03X767530Y4089211I-61206J980D01*
G03X723900Y4107488I-43630J-42937D01*
G01X709317Y4107488D01*
G01X709317Y4154962D01*
G03X683849Y4189249I-35814J0D01*
G03X608512Y4330772I-75338J50709D01*
G01X518512Y4330772D01*
G03X477845Y4158759I0J-90814D01*
G03X440682Y4097274I33648J-62311D01*
G01X355600Y4097274D01*
G03X330276Y4086784I0J-35814D01*
G01X304876Y4061384D01*
G03X294386Y4036060I25324J-25324D01*
G01X294386Y3578860D01*
G03X304876Y3553536I35814J0D01*
G01X355676Y3502736D01*
G03X381000Y3492246I25324J25324D01*
G01X445702Y3492246D01*
G03X477820Y3456149I65790J26200D01*
G03X518512Y3284148I40692J-81187D01*
G01X608512Y3284148D01*
G03X676757Y3315047I0J90814D01*
G03X685876Y3299536I34443J9813D01*
G01X787476Y3197936D01*
G03X812800Y3187446I25324J25324D01*
G01X991526Y3187446D01*
G01X991526Y3103860D01*
G03X1021211Y3068574I35814J0D01*
G01X495300Y3068574D01*
G03X459486Y3032760I0J-35814D01*
G01X459486Y2858474D01*
G01X306327Y2858474D01*
G03X270513Y2822660I0J-35814D01*
G01X270513Y2755459D01*
G03X306327Y2719645I35814J0D01*
G01X425724Y2719645D01*
G03X421785Y2707889I31476J-17085D01*
G01X306314Y2707889D01*
G03X270500Y2672075I0J-35814D01*
G01X270500Y2606076D01*
G03X291937Y2573274I35814J0D01*
G01X228600Y2573274D01*
G03X203276Y2562784I0J-35814D01*
G01X177876Y2537384D01*
G03X167386Y2512060I25324J-25324D01*
G01X167386Y2385060D01*
G03X177876Y2359736I35814J0D01*
G01X254076Y2283536D01*
G03X279400Y2273046I25324J25324D01*
G01X772565Y2273046D01*
G01X776986Y2268625D01*
G01X776986Y2222095D01*
G01X772565Y2217674D01*
G01X482600Y2217674D01*
G03X446786Y2181860I0J-35814D01*
G01X446786Y2085607D01*
G01X306327Y2085607D01*
G03X270513Y2049793I0J-35814D01*
G01X270513Y1982592D01*
G03X306327Y1946778I35814J0D01*
G01X422378Y1946778D01*
G03X421386Y1938407I34822J-8371D01*
G01X421386Y1935022D01*
G01X306314Y1935022D01*
G03X270500Y1899208I0J-35814D01*
G01X270500Y1833208D01*
G03X306314Y1797394I35814J0D01*
G01X426425Y1797394D01*
G03X431876Y1790388I30775J18318D01*
G01X436657Y1785607D01*
G01X410763Y1785607D01*
G03X406400Y1785874I-4363J-35547D01*
G01X264414Y1785874D01*
G01X264414Y1826260D01*
G03X254000Y1836674I-10414J0D01*
G01X228600Y1836674D01*
G03X218186Y1826260I0J-10414D01*
G01X218186Y1784326D01*
G03X203276Y1775384I10414J-34266D01*
G01X177876Y1749984D01*
G03X167386Y1724660I25324J-25324D01*
G01X167386Y1594417D01*
G03X153548Y1566139I21976J-28279D01*
G01X153548Y1266139D01*
G03X189362Y1230325I35814J0D01*
G01X352685Y1230325D01*
G01X551417Y1031593D01*
G03X675328Y980186I124107J124107D01*
G03X739361Y735300I64033J-114072D01*
G03X803395Y980186I0J130815D01*
G01X901383Y980186D01*
G01X1435571Y445998D01*
G03X1259690Y114368I-38571J-191998D01*
G03X1588324Y295785I137310J139632D01*
G01X1642456Y241653D01*
G03X1766564Y190246I124107J124107D01*
G01X1813862Y190246D01*
G03X1848993Y161395I35131J6963D01*
G01X2048993Y161395D01*
G03X2084807Y197209I0J35814D01*
G01X2084807Y356511D01*
G03X2048993Y392325I-35814J0D01*
G01X1848993Y392325D01*
G03X1813862Y363474I0J-35814D01*
G01X1766564Y363474D01*
G01X1764947Y364144D01*
G01X1586515Y542575D01*
G03X1572838Y553713I-61245J-61245D01*
G01X986644Y1139906D01*
G01X985975Y1141523D01*
G01X985975Y1230325D01*
G01X999360Y1230325D01*
G03X1035174Y1266139I0J35814D01*
G01X1035174Y1503173D01*
G01X1664020Y886294D01*
G03X1689100Y876046I25080J25566D01*
G01X1906428Y876046D01*
G01X1970786Y811688D01*
G01X1970786Y556109D01*
G03X1981276Y530785I35814J0D01*
G01X2148586Y363475D01*
G01X2148586Y162560D01*
G03X2159076Y137236I35814J0D01*
G01X2222576Y73736D01*
G03X2247900Y63246I25324J25324D01*
G01X2489200Y63246D01*
G03X2514524Y73736I0J35814D01*
G01X2565324Y124536D01*
G03X2575814Y149860I-25324J25324D01*
G01X2575814Y365760D01*
G03X2565324Y391084I-35814J0D01*
G01X2522367Y434042D01*
G01X2612700Y434042D01*
G03X2648514Y469856I0J35814D01*
G01X2648514Y819855D01*
G03X2612700Y855669I-35814J0D01*
G01X2492700Y855669D01*
G03X2456886Y819855I0J-35814D01*
G01X2456886Y499523D01*
G01X2398014Y558395D01*
G01X2398014Y759460D01*
G03X2387524Y784784I-35814J0D01*
G01X2296187Y876121D01*
G01X2298511Y876046D01*
G01X2618028Y876046D01*
G01X2960716Y533358D01*
G01X2961386Y531741D01*
G01X2961386Y255234D01*
G03X2961187Y251460I35615J-3774D01*
G01X2961187Y-48539D01*
G03X2961633Y-54176I35814J0D01*
G01X102412Y-54176D01*
G01X83197Y-50974D01*
G01X68556Y-45650D01*
G01X55103Y-34887D01*
G01X44341Y-21434D01*
G01X39017Y-6793D01*
G01X35814Y12422D01*
G01X35814Y3318876D01*
G03X113497Y3279148I77683J56086D01*
G01X173497Y3279148D01*
G03X173497Y3470775I0J95814D01*
G01X113497Y3470775D01*
G03X35814Y3431047I0J-95814D01*
G01X370821Y5217753D02*
G03X335007Y5253567I-35814J0D01*
G01X85007Y5253567D01*
G03X49193Y5217753I0J-35814D01*
G01X49193Y5107753D01*
G03X85007Y5071939I35814J0D01*
G01X335007Y5071939D01*
G03X370821Y5107753I0J35814D01*
G01X370821Y5217753D01*
G01X153548Y166141D02*
G03X189362Y130327I35814J0D01*
G01X389362Y130327D01*
G03X425176Y166141I0J35814D01*
G01X425176Y466141D01*
G03X389362Y501955I-35814J0D01*
G01X189362Y501955D01*
G03X153548Y466141I0J-35814D01*
G01X153548Y166141D01*
G01X178547Y866115D02*
G03X400177Y866115I110815J0D01*
G03X178547Y866115I-110815J0D01*
G01X763529Y166141D02*
G03X799343Y130327I35814J0D01*
G01X999343Y130327D01*
G03X1035157Y166141I0J35814D01*
G01X1035157Y466141D01*
G03X999343Y501955I-35814J0D01*
G01X799343Y501955D01*
G03X763529Y466141I0J-35814D01*
G01X763529Y166141D01*
G01X1220807Y5217753D02*
G03X1184993Y5253567I-35814J0D01*
G01X934993Y5253567D01*
G03X899179Y5217753I0J-35814D01*
G01X899179Y5107753D01*
G03X934993Y5071939I35814J0D01*
G01X1184993Y5071939D01*
G03X1220807Y5107753I0J35814D01*
G01X1220807Y5217753D01*
G01X1328166Y5077460D02*
G03X1719834Y5077460I195834J0D01*
G03X1328166Y5077460I-195834J0D01*
G01X1781500Y855669D02*
G03X1745686Y819855I0J-35814D01*
G01X1745686Y469856D01*
G03X1781500Y434042I35814J0D01*
G01X1901500Y434042D01*
G03X1937314Y469856I0J35814D01*
G01X1937314Y819855D01*
G03X1901500Y855669I-35814J0D01*
G01X1781500Y855669D01*
G01X2707187Y251460D02*
G03X2743001Y215646I35814J0D01*
G01X2844999Y215646D01*
G03X2880813Y251460I0J35814D01*
G01X2880813Y551459D01*
G03X2844999Y587273I-35814J0D01*
G01X2743001Y587273D01*
G03X2707187Y551459I0J-35814D01*
G01X2707187Y251460D01*
G01X425176Y1553064D02*
G01X763547Y1553064D01*
G01X763547Y1266139D01*
G03X799361Y1230325I35814J0D01*
G01X812747Y1230325D01*
G01X812747Y1153414D01*
G01X675524Y1153414D01*
G01X673908Y1154084D01*
G01X425176Y1402816D01*
G01X425176Y1553064D01*
G01X2086356Y3685516D02*
G01X2086356Y3649229D01*
G01X2011293Y3574167D01*
G03X2003496Y3563874I33407J-33407D01*
G01X1937659Y3563874D01*
G03X1897741Y3563874I-19959J-60612D01*
G01X1810659Y3563874D01*
G03X1770741Y3563874I-19959J-60612D01*
G01X1683659Y3563874D01*
G03X1643741Y3563874I-19959J-60612D01*
G01X1574800Y3563874D01*
G03X1566468Y3559707I0J-10414D01*
G03X1472886Y3503262I-29768J-56445D01*
G01X1472886Y3401222D01*
G01X1447724Y3426384D01*
G03X1422400Y3436874I-25324J-25324D01*
G01X1289082Y3436874D01*
G03X1294474Y3455773I-30421J18899D01*
G01X1294474Y3542174D01*
G03X1258660Y3577988I-35814J0D01*
G01X1178013Y3577988D01*
G03X1143000Y3549708I0J-35814D01*
G03X1107987Y3577988I-35013J-7534D01*
G01X1027340Y3577988D01*
G03X995065Y3557697I0J-35814D01*
G01X912401Y3640361D01*
G03X876300Y3655314I-36101J-36101D01*
G01X739274Y3655314D01*
G01X726046Y3668542D01*
G03X709317Y3679678I-36101J-36101D01*
G01X709317Y3685223D01*
G01X985255Y3685223D01*
G01X985255Y3634310D01*
G03X1021069Y3598496I35814J0D01*
G01X1101716Y3598496D01*
G03X1136729Y3626777I0J35814D01*
G03X1171741Y3598496I35013J7534D01*
G01X1252389Y3598496D01*
G03X1288203Y3634310I0J35814D01*
G01X1288203Y3686835D01*
G01X1303123Y3701755D01*
G01X2070117Y3701755D01*
G01X2086356Y3685516D01*
G01X809275Y2495986D02*
G01X876224Y2562936D01*
G03X886714Y2588260I-25324J25324D01*
G01X886714Y2666777D01*
G03X896600Y2665386I9886J34423D01*
G01X983000Y2665386D01*
G03X1018814Y2701200I0J35814D01*
G01X1018814Y2781046D01*
G01X1140186Y2781046D01*
G01X1140186Y2701200D01*
G03X1176000Y2665386I35814J0D01*
G01X1262400Y2665386D01*
G03X1298214Y2701200I0J35814D01*
G01X1298214Y2781046D01*
G01X1334975Y2781046D01*
G01X1335951Y2781059D01*
G01X1320876Y2765984D01*
G03X1310386Y2740660I25324J-25324D01*
G01X1310386Y2501495D01*
G01X1305965Y2497074D01*
G01X1298214Y2497074D01*
G01X1298214Y2568166D01*
G03X1262400Y2603980I-35814J0D01*
G01X1176000Y2603980D01*
G03X1140186Y2568166I0J-35814D01*
G01X1140186Y2489648D01*
G01X800687Y2489648D01*
G03X809275Y2495986I-16736J31663D01*
G01X1411986Y1936698D02*
G01X1411986Y1656519D01*
G01X1363390Y1656519D01*
G01X1303582Y1716327D01*
G03X1280094Y1726769I-25324J-25324D01*
G03X1299905Y1758809I-16003J32040D01*
G01X1299905Y1839457D01*
G03X1264091Y1875271I-35814J0D01*
G01X1177690Y1875271D01*
G03X1141876Y1839457I0J-35814D01*
G01X1141876Y1758809D01*
G03X1161593Y1726816I35814J0D01*
G01X815539Y1726816D01*
G01X863524Y1774801D01*
G03X874014Y1800126I-25324J25324D01*
G01X874049Y1827757D01*
G01X875286Y1832037D01*
G01X875716Y1833670D01*
G01X876750Y1838004D01*
G01X877099Y1839633D01*
G01X877929Y1844007D01*
G01X878204Y1845666D01*
G01X878829Y1850078D01*
G01X879026Y1851751D01*
G01X879443Y1856186D01*
G01X879560Y1857860D01*
G01X879769Y1862307D01*
G01X879808Y1863983D01*
G01X879808Y1868438D01*
G01X879769Y1870113D01*
G01X879560Y1874561D01*
G01X879443Y1876235D01*
G01X879026Y1880670D01*
G01X878829Y1882342D01*
G01X878204Y1886754D01*
G01X877929Y1888414D01*
G01X877099Y1892788D01*
G01X876750Y1894417D01*
G01X875716Y1898750D01*
G01X875286Y1900383D01*
G01X874014Y1904782D01*
G01X874014Y1946160D01*
G03X898290Y1936677I24276J26331D01*
G01X984691Y1936677D01*
G03X1020505Y1972491I0J35814D01*
G01X1020505Y2053138D01*
G03X1020366Y2056282I-35814J0D01*
G01X1141151Y2056282D01*
G03X1141012Y2053138I35676J-3144D01*
G01X1141012Y1972491D01*
G03X1176826Y1936677I35814J0D01*
G01X1263227Y1936677D01*
G03X1299041Y1972491I0J35814D01*
G01X1299041Y2049643D01*
G01X1411986Y1936698D01*
G01X1289614Y4452874D02*
G03X1258660Y4470674I-30954J-18014D01*
G01X1178013Y4470674D01*
G03X1143000Y4442394I0J-35814D01*
G03X1118718Y4469029I-35013J-7534D01*
G01X1118718Y4621953D01*
G01X1184993Y4621953D01*
G03X1220807Y4657767I0J35814D01*
G01X1220807Y4661713D01*
G01X1465094Y4661713D01*
G02X1670818Y4576499I0J-290938D01*
G01X1827637Y4419680D01*
G03X1673341Y4452874I-154297J-342011D01*
G01X1289614Y4452874D01*
G01X2133666Y1724660D02*
G03X2105386Y1689647I7534J-35013D01*
G01X2105386Y1609000D01*
G03X2116918Y1582674I35814J0D01*
G01X1870882Y1582674D01*
G03X1875691Y1588110I-24282J26326D01*
G01X1920154Y1588110D01*
G03X1991614Y1648460I10246J60350D01*
G01X1991614Y1649324D01*
G03X1930400Y1710538I-61214J0D01*
G01X1875691Y1710538D01*
G03X1854134Y1724660I-29090J-20890D01*
G03X1880769Y1748942I-7534J35013D01*
G01X2107031Y1748942D01*
G03X2133666Y1724660I34169J10730D01*
G01X1902913Y5379999D02*
G01X1902858Y5381985D01*
G01X2237342Y5381985D01*
G01X2237287Y5379999D01*
G01X2237287Y5080000D01*
G03X2273046Y5044186I35814J0D01*
G01X2273046Y4607881D01*
G03X2334904Y4491742I139954J0D01*
G01X2238235Y4491742D01*
G02X2211474Y4502827I0J37846D01*
G01X2132239Y4582062D01*
G02X2121154Y4608824I26761J26761D01*
G01X2121154Y4744187D01*
G03X2156913Y4780001I-55J35814D01*
G01X2156913Y5080000D01*
G03X2121099Y5115814I-35814J0D01*
G01X2019101Y5115814D01*
G03X1983287Y5080000I0J-35814D01*
G01X1983287Y4780001D01*
G03X2019046Y4744187I35814J0D01*
G01X2019046Y4608824D01*
G03X2060038Y4509861I139954J0D01*
G01X2137345Y4432554D01*
G01X2081524Y4432554D01*
G02X2054762Y4443639I0J37846D01*
G01X1878239Y4620162D01*
G02X1867154Y4646924I26761J26761D01*
G01X1867154Y5044186D01*
G03X1902913Y5080000I-55J35814D01*
G01X1902913Y5379999D01*
G01X2006524Y2858178D02*
G03X2017014Y2883503I-25324J25324D01*
G01X2017014Y3029894D01*
G03X2013970Y3044342I-35814J0D01*
G01X2107031Y3044342D01*
G03X2133666Y3020060I34169J10730D01*
G03X2105386Y2985047I7534J-35013D01*
G01X2105386Y2904400D01*
G03X2141200Y2868586I35814J0D01*
G01X2227600Y2868586D01*
G03X2263414Y2904400I0J35814D01*
G01X2263414Y2985047D01*
G03X2235134Y3020060I-35814J0D01*
G03X2263414Y3055073I-7534J35013D01*
G01X2263414Y3085846D01*
G01X2311215Y3085846D01*
G03X2298446Y3033456I101088J-52390D01*
G01X2298446Y2868037D01*
G02X2272923Y2842514I-25523J0D01*
G01X1990860Y2842514D01*
G01X2006524Y2858178D01*
G01X2870124Y962736D02*
G03X2880614Y988060I-25324J25324D01*
G01X2880614Y1478342D01*
G03X2870124Y1503666I-35814J0D01*
G01X2801606Y1572184D01*
G03X2776282Y1582674I-25324J-25324D01*
G01X2251882Y1582674D01*
G03X2263414Y1609000I-24282J26326D01*
G01X2263414Y1689647D01*
G03X2235134Y1724660I-35814J0D01*
G03X2263414Y1759673I-7534J35013D01*
G01X2263414Y1840320D01*
G03X2227600Y1876134I-35814J0D01*
G01X2141200Y1876134D01*
G03X2107031Y1851050I0J-35814D01*
G01X2095754Y1851050D01*
G01X2095754Y1985790D01*
G03X2108200Y2007325I-51054J43871D01*
G03X2239014Y2029661I63500J22336D01*
G01X2239014Y2153161D01*
G03X2144014Y2214517I-67314J0D01*
G01X2144014Y2234946D01*
G01X2463800Y2234946D01*
G02X2466086Y2232660I0J-2286D01*
G01X2466086Y2167848D01*
G03X2602188Y2031746I136102J0D01*
G01X3022600Y2031746D01*
G02X3037586Y2016760I0J-14986D01*
G01X3037586Y736600D01*
G03X3042617Y696439I162814J0D01*
G01X2823222Y915834D01*
G01X2870124Y962736D01*
G01X2565653Y2791206D02*
G01X2590614Y2791206D01*
G03X2579026Y2764829I24226J-26377D01*
G01X2579026Y2678428D01*
G03X2593950Y2649338I35814J0D01*
G01X2593950Y2617574D01*
G03X2593086Y2607328I60350J-10246D01*
G03X2593950Y2597082I61214J0D01*
G01X2593950Y2562135D01*
G03X2587368Y2556021I20890J-29090D01*
G03X2522429Y2516387I49425J-153997D01*
G02X2512596Y2512314I-9834J9834D01*
G01X2212096Y2512314D01*
G03X2239014Y2566159I-40396J53845D01*
G01X2239014Y2576855D01*
G01X2465349Y2576855D01*
G03X2565654Y2677160I0J100305D01*
G01X2565653Y2791206D01*
G01X2272923Y2740406D02*
G03X2400554Y2868037I0J127631D01*
G01X2400554Y3033456D01*
G02X2412304Y3045206I11750J0D01*
G01X2463800Y3045206D01*
G03X2506401Y3054543I0J101854D01*
G03X2535595Y3017392I58999J16317D01*
G03X2582546Y3012096I29805J53468D01*
G03X2579026Y2996613I32294J-15484D01*
G01X2579026Y2910212D01*
G03X2583263Y2893314I35814J0D01*
G01X2565400Y2893314D01*
G03X2463546Y2791460I0J-101854D01*
G01X2463546Y2678963D01*
G01X2239014Y2678963D01*
G01X2239014Y2689659D01*
G03X2215926Y2740406I-67314J0D01*
G01X2272923Y2740406D01*
G01X2410913Y5379999D02*
G01X2410858Y5381985D01*
G01X3070849Y5381985D01*
G03X3068778Y5369985I33744J-12000D01*
G01X3068778Y5119986D01*
G03X3098546Y5084686I35814J0D01*
G01X3098546Y4696460D01*
G03X3112525Y4644961I101854J0D01*
G01X2984609Y4644961D01*
G02X2946763Y4682807I0J37846D01*
G01X2946763Y4754711D01*
G03X2976406Y4789989I-6171J35278D01*
G01X2976406Y5039989D01*
G03X2940592Y5075803I-35814J0D01*
G01X2850592Y5075803D01*
G03X2814778Y5039989I0J-35814D01*
G01X2814778Y4789989D01*
G03X2844655Y4754671I35814J0D01*
G01X2844655Y4682807D01*
G03X2901726Y4570035I139954J0D01*
G01X2413000Y4570035D01*
G02X2375154Y4607881I0J37846D01*
G01X2375154Y5044186D01*
G03X2410913Y5080000I-55J35814D01*
G01X2410913Y5379999D01*
G01X2491287Y4780001D02*
G03X2527101Y4744187I35814J0D01*
G01X2629099Y4744187D01*
G03X2664913Y4780001I0J35814D01*
G01X2664913Y5080000D01*
G03X2629099Y5115814I-35814J0D01*
G01X2527101Y5115814D01*
G03X2491287Y5080000I0J-35814D01*
G01X2491287Y4780001D01*
G01X2730500Y2670894D02*
G03X2765513Y2642614I35013J7534D01*
G01X2846160Y2642614D01*
G03X2881974Y2678428I0J35814D01*
G01X2881974Y2764829D01*
G03X2870386Y2791206I-35814J0D01*
G01X3213100Y2791206D01*
G02X3250946Y2753360I0J-37846D01*
G01X3250946Y2271916D01*
G03X3180426Y2302390I-88646J-108301D01*
G03X3102166Y2309114I-43704J-49875D01*
G01X2881102Y2309114D01*
G03X2846160Y2337074I-34942J-7854D01*
G01X2765513Y2337074D01*
G03X2730500Y2308794I0J-35814D01*
G03X2695487Y2337074I-35013J-7534D01*
G01X2614840Y2337074D01*
G03X2585058Y2321152I0J-35814D01*
G03X2533146Y2365797I-121258J-88492D01*
G03X2625923Y2410830I-20550J160424D01*
G01X2695487Y2410830D01*
G03X2730500Y2439110I0J35814D01*
G03X2765513Y2410830I35013J7534D01*
G01X2846160Y2410830D01*
G03X2880231Y2435606I0J35814D01*
G01X3090427Y2435606D01*
G03X3185414Y2486660I33773J51054D01*
G03X3090427Y2537714I-61214J0D01*
G01X2881668Y2537714D01*
G03X2846160Y2568858I-35508J-4670D01*
G01X2765513Y2568858D01*
G03X2730500Y2540578I0J-35814D01*
G03X2716378Y2562135I-35013J-7534D01*
G01X2716378Y2649338D01*
G03X2730500Y2670894I-20890J29090D01*
G01X2706218Y4141310D02*
G03X2726367Y4173517I-15664J32207D01*
G01X2726367Y4253517D01*
G03X2724672Y4264406I-35814J0D01*
G01X2736117Y4264406D01*
G03X2734633Y4254203I34330J-10203D01*
G01X2734633Y4174203D01*
G03X2770447Y4138389I35814J0D01*
G01X2850446Y4138389D01*
G03X2886260Y4174203I0J35814D01*
G01X2886260Y4254203D01*
G03X2884776Y4264406I-35814J0D01*
G01X3000543Y4264406D01*
G01X3002026Y4262923D01*
G01X3002026Y3698249D01*
G03X2966271Y3706457I-35755J-73775D01*
G01X2904362Y3706457D01*
G03X2929323Y3768858I-35026J50203D01*
G03X2881974Y3816555I-59986J-12198D01*
G01X2881974Y3886970D01*
G03X2846160Y3922784I-35814J0D01*
G01X2814259Y3922784D01*
G03X2832938Y3945061I-97322J100576D01*
G01X2846160Y3945061D01*
G03X2881974Y3980875I0J35814D01*
G01X2881974Y4067276D01*
G03X2846160Y4103090I-35814J0D01*
G01X2765513Y4103090D01*
G03X2730500Y4074810I0J-35814D01*
G03X2706218Y4101445I-35013J-7534D01*
G01X2706218Y4141310D01*
G01X3185414Y2016760D02*
G03X3022600Y2179574I-162814J0D01*
G01X2852289Y2179574D01*
G03X2881102Y2207006I-6129J35286D01*
G01X3088489Y2207006D01*
G03X3175830Y2198960I48233J45509D01*
G02X3200146Y2163615I-13530J-35345D01*
G01X3200146Y1534729D01*
G03X3340100Y1394775I139954J0D01*
G01X3404967Y1394775D01*
G03X3428686Y1317545I62133J-23175D01*
G03X3509421Y1320546I38414J54055D01*
G01X3525014Y1320546D01*
G03X3529435Y1245829I46854J-34717D01*
G03X3529435Y1165830I42433J-40000D01*
G03X3571869Y1067515I42433J-40000D01*
G01X3691868Y1067515D01*
G03X3718335Y1073867I0J58315D01*
G01X3753150Y1073867D01*
G03X3730435Y1027679I35599J-46188D01*
G01X3730435Y907679D01*
G03X3737758Y879386I58315J0D01*
G03X3743633Y843239I139892J4188D01*
G03X3712216Y846074I-31417J-172680D01*
G01X3340100Y846074D01*
G03X3262192Y721614I0J-86614D01*
G01X3200400Y721614D01*
G02X3185414Y736600I0J14986D01*
G01X3185414Y2016760D01*
G01X3469633Y-54176D02*
G01X3134367Y-54176D01*
G03X3134813Y-48539I-35368J5637D01*
G01X3134813Y14846D01*
G01X3314700Y14846D01*
G03X3401314Y101460I0J86614D01*
G03X3314700Y188074I-86614J0D01*
G01X3134813Y188074D01*
G01X3134813Y251460D01*
G03X3134614Y255234I-35814J0D01*
G01X3134614Y531741D01*
G03X3123553Y593063I-175514J0D01*
G03X3200400Y573786I76847J143537D01*
G01X3222998Y573786D01*
G03X3215187Y551459I28003J-22327D01*
G01X3215187Y251460D01*
G03X3251001Y215646I35814J0D01*
G01X3352999Y215646D01*
G03X3388813Y251460I0J35814D01*
G01X3388813Y492214D01*
G01X3394112Y492214D01*
G03X3438660Y476992I42321J51054D01*
G03X3482086Y495171I-2228J66277D01*
G01X3482086Y278984D01*
G03X3469187Y251460I22915J-27524D01*
G01X3469187Y-48539D01*
G03X3469633Y-54176I35814J0D01*
G01X3230406Y5369985D02*
G03X3228336Y5381985I-35814J0D01*
G01X3578849Y5381985D01*
G03X3576778Y5369985I33744J-12000D01*
G01X3576778Y5119986D01*
G03X3581146Y5102846I35814J0D01*
G01X3581146Y3816415D01*
G01X3552482Y3845079D01*
G03X3543554Y3866633I-59982J-12219D01*
G01X3543554Y4585976D01*
G03X3502562Y4684939I-139954J0D01*
G01X3465731Y4721770D01*
G02X3454646Y4748531I26761J26761D01*
G01X3454646Y4754691D01*
G03X3484406Y4789989I-6054J35299D01*
G01X3484406Y5039989D01*
G03X3448592Y5075803I-35814J0D01*
G01X3358592Y5075803D01*
G03X3322778Y5039989I0J-35814D01*
G01X3322778Y4789989D01*
G03X3352538Y4754691I35814J0D01*
G01X3352538Y4748531D01*
G03X3362637Y4696333I139954J0D01*
G03X3352800Y4696714I-9837J-126873D01*
G01X3200654Y4696713D01*
G01X3200654Y5084689D01*
G03X3230406Y5119986I-6062J35297D01*
G01X3230406Y5369985D01*
G01X3470995Y2120900D02*
G03X3610949Y1980946I139954J0D01*
G01X3699849Y1980946D01*
G02X3737695Y1943100I0J-37846D01*
G01X3737695Y1932158D01*
G03X3730435Y1903979I51054J-28179D01*
G01X3730435Y1783979D01*
G03X3828749Y1741546I58315J0D01*
G03X3908749Y1741546I40000J42433D01*
G03X3988749Y1741546I40000J42433D01*
G03X4068749Y1741546I40000J42433D01*
G03X4148748Y1741546I40000J42433D01*
G03X4228748Y1741546I40000J42433D01*
G03X4308748Y1741546I40000J42433D01*
G03X4315482Y1736084I40000J42433D01*
G03X4292538Y1656321I127170J-79763D01*
G01X4292538Y1616517D01*
G03X4292002Y1608436I60678J-8081D01*
G01X4292002Y1455891D01*
G03X4294379Y1429280I150114J0D01*
G01X4227706Y1495954D01*
G03X4128743Y1536945I-98963J-98963D01*
G01X4086448Y1536945D01*
G03X4000983Y1536251I-42321J-51054D01*
G03X3987185Y1451904I43145J-50360D01*
G03X3938077Y1460803I-49108J-131055D01*
G01X3880796Y1460803D01*
G03X3806883Y1469011I-43017J-50469D01*
G03X3771825Y1403426I30896J-58677D01*
G03X3741476Y1396484I-802J-66309D01*
G03X3734302Y1405829I-49607J-30655D01*
G03X3734302Y1485829I-42433J40000D01*
G03X3748379Y1540223I-42433J40000D01*
G03X3834039Y1604412I19350J63428D01*
G03X3746928Y1666618I-66310J-761D01*
G03X3691868Y1744143I-55060J19210D01*
G01X3571869Y1744143D01*
G03X3543689Y1736882I0J-58315D01*
G01X3425417Y1736882D01*
G03X3416554Y1807621I-59917J28418D01*
G01X3416554Y2322775D01*
G03X3470995Y2338495I10587J65463D01*
G01X3470995Y2120900D01*
G01X3977633Y-54176D02*
G01X3642367Y-54176D01*
G03X3642813Y-48539I-35368J5637D01*
G01X3642813Y251460D01*
G03X3629914Y278984I-35814J0D01*
G01X3629914Y558800D01*
G03X3583298Y672846I-162814J0D01*
G01X3712216Y672846D01*
G01X3713833Y672176D01*
G01X3798736Y587273D01*
G01X3759001Y587273D01*
G03X3723187Y551459I0J-35814D01*
G01X3723187Y251460D01*
G03X3723386Y247686I35814J0D01*
G01X3723386Y101600D01*
G03X3896614Y101600I86614J0D01*
G01X3896614Y247686D01*
G03X3896813Y251460I-35615J3774D01*
G01X3896813Y489196D01*
G01X4098735Y287274D01*
G01X4013001Y287274D01*
G03X3977187Y251460I0J-35814D01*
G01X3977187Y-48539D01*
G03X3977633Y-54176I35814J0D01*
G01X3738406Y5369985D02*
G03X3736336Y5381985I-35814J0D01*
G01X4086849Y5381985D01*
G03X4084778Y5369985I33744J-12000D01*
G01X4084778Y5119986D01*
G03X4114538Y5084687I35814J0D01*
G01X4114538Y4838700D01*
G02X4076692Y4800854I-37846J0D01*
G01X3992406Y4800854D01*
G01X3992406Y5039989D01*
G03X3956592Y5075803I-35814J0D01*
G01X3866592Y5075803D01*
G03X3830778Y5039989I0J-35814D01*
G01X3830778Y4851654D01*
G01X3771900Y4851654D01*
G03X3683254Y4820001I0J-139954D01*
G01X3683254Y5084172D01*
G01X3702592Y5084172D01*
G03X3738406Y5119986I0J35814D01*
G01X3738406Y5369985D01*
G01X5166813Y5377459D02*
G03X5166526Y5381985I-35814J0D01*
G01X5501474Y5381985D01*
G03X5501187Y5377459I35527J-4526D01*
G01X5501187Y5077460D01*
G03X5536946Y5041646I35814J0D01*
G01X5536946Y4140200D01*
G02X5524500Y4127754I-12446J0D01*
G03X5435854Y4096101I0J-139954D01*
G01X5435854Y4876660D01*
G03X5420813Y4929930I-101854J0D01*
G01X5420813Y5077460D01*
G03X5384999Y5113274I-35814J0D01*
G01X5283001Y5113274D01*
G03X5247187Y5077460I0J-35814D01*
G01X5247187Y4777461D01*
G03X5283001Y4741647I35814J0D01*
G01X5333746Y4741647D01*
G01X5333746Y2233250D01*
G02X5295900Y2195404I-37846J0D01*
G01X5037784Y2195404D01*
G03X4964805Y2203151I-42321J-51054D01*
G03X4929375Y2138881I30658J-58802D01*
G03X4883433Y2076141I20371J-63108D01*
G03X4928676Y2012896I66313J-368D01*
G03X4932433Y1982703I65930J-7127D01*
G01X4619178Y1982703D01*
G03X4517466Y1942991I0J-150114D01*
G03X4512902Y1938865I38721J-47411D01*
G01X4407063Y1833025D01*
G01X4407063Y1903979D01*
G03X4399802Y1932158I-58315J0D01*
G01X4399802Y2298700D01*
G03X4259848Y2438654I-139954J0D01*
G01X3975100Y2438654D01*
G02X3937254Y2476500I0J37846D01*
G01X3937254Y4508500D01*
G02X3975100Y4546346I37846J0D01*
G01X4991100Y4546346D01*
G03X5131054Y4686300I0J139954D01*
G01X5131054Y5041646D01*
G03X5166813Y5077460I-55J35814D01*
G01X5166813Y5377459D01*
G01X4448637Y609346D02*
G03X4446476Y598710I63687J-18479D01*
G03X4381656Y584962I-20492J-63069D01*
G03X4368999Y587273I-12657J-33503D01*
G01X4267001Y587273D01*
G03X4231187Y551459I0J-35814D01*
G01X4231187Y399596D01*
G03X4226207Y404784I-129087J-118919D01*
G01X4021645Y609346D01*
G01X4448637Y609346D01*
G01X4246406Y5369985D02*
G03X4244336Y5381985I-35814J0D01*
G01X4485474Y5381985D01*
G03X4485187Y5377459I35527J-4526D01*
G01X4485187Y5077460D01*
G03X4520946Y5041646I35814J0D01*
G01X4520946Y4787900D01*
G02X4483100Y4750054I-37846J0D01*
G01X4184993Y4750054D01*
G03X4216646Y4838700I-108301J88646D01*
G01X4216646Y5084687D01*
G03X4246406Y5119986I-6054J35299D01*
G01X4246406Y5369985D01*
G01X5002767Y-54176D02*
G01X4658367Y-54176D01*
G03X4658813Y-48539I-35368J5637D01*
G01X4658813Y251460D01*
G03X4622999Y287274I-35814J0D01*
G01X4521001Y287274D01*
G03X4485187Y251460I0J-35814D01*
G01X4485187Y188074D01*
G01X4279900Y188074D01*
G02X4277614Y190360I0J2286D01*
G01X4277614Y215646D01*
G01X4368999Y215646D01*
G03X4404813Y251460I0J35814D01*
G01X4404813Y472797D01*
G03X4460261Y478873I21171J62844D01*
G01X4995191Y478873D01*
G03X5000665Y479167I0J51054D01*
G02X5033645Y441635I-4865J-37532D01*
G01X5033645Y247237D01*
G03X4999178Y211449I1347J-35789D01*
G01X4999178Y-38551D01*
G03X5002767Y-54176I35814J0D01*
G01X4631284Y1276929D02*
G01X4631284Y1013655D01*
G03X4616684Y984800I21214J-28855D01*
G01X4616684Y894800D01*
G01X4616733Y892915D01*
G01X4405163Y892915D01*
G03X4407063Y907679I-56415J14765D01*
G01X4407063Y1027679D01*
G03X4396631Y1060963I-58315J0D01*
G01X4396631Y1094210D01*
G03X4445629Y1067515I48998J31620D01*
G01X4565628Y1067515D01*
G03X4608062Y1165830I0J58315D01*
G03X4608062Y1245829I-42433J40000D01*
G03X4622908Y1296769I-42433J40000D01*
G02X4631284Y1276929I-19310J-19840D01*
G01X5034501Y1206579D02*
G03X5070315Y1242393I0J35814D01*
G01X5070315Y1382392D01*
G03X5034501Y1418206I-35814J0D01*
G01X4937296Y1418206D01*
G01X4928909Y1426594D01*
G01X5034501Y1426594D01*
G03X5070315Y1462408I0J35814D01*
G01X5070315Y1602407D01*
G03X5034501Y1638221I-35814J0D01*
G01X5009431Y1638221D01*
G03X5009916Y1644100I-35328J5879D01*
G01X5009916Y1734100D01*
G03X4974102Y1769914I-35814J0D01*
G01X4894102Y1769914D01*
G03X4864100Y1753657I0J-35814D01*
G03X4834098Y1769914I-30002J-19557D01*
G01X4754098Y1769914D01*
G03X4718285Y1734342I0J-35814D01*
G01X4597986Y1734342D01*
G03X4565628Y1744143I-32357J-48514D01*
G01X4491320Y1744143D01*
G01X4596124Y1848947D01*
G03X4599602Y1852166I-39807J46503D01*
G02X4619179Y1860275I19577J-19577D01*
G01X5166482Y1860275D01*
G03X5177729Y1795234I62300J-22720D01*
G01X5177729Y1669384D01*
G03X5188423Y1574446I51054J-42321D01*
G03X5282889Y1588722I40360J52618D01*
G03X5323749Y1585776I24967J61435D01*
G03X5358543Y1607398I-15893J64381D01*
G03X5346870Y1546860I151141J-60538D01*
G01X5346870Y939209D01*
G03X5363164Y892915I73914J0D01*
G01X4908267Y892915D01*
G01X4908316Y894800D01*
G01X4908316Y984800D01*
G03X4872502Y1020614I-35814J0D01*
G01X4792502Y1020614D01*
G03X4762500Y1004357I0J-35814D01*
G03X4753712Y1013655I-30002J-19557D01*
G01X4753712Y1074888D01*
G01X4754098Y1074886D01*
G01X4834098Y1074886D01*
G03X4864100Y1091143I0J35814D01*
G03X4894102Y1074886I30002J19557D01*
G01X4974102Y1074886D01*
G03X5009916Y1110700I0J35814D01*
G01X5009916Y1174370D01*
G03X5020466Y1206579I-124315J58552D01*
G01X5034501Y1206579D01*
G01X4658813Y5377459D02*
G03X4658526Y5381985I-35814J0D01*
G01X4993474Y5381985D01*
G03X4993187Y5377459I35527J-4526D01*
G01X4993187Y5077460D01*
G03X5028946Y5041646I35814J0D01*
G01X5028946Y4686300D01*
G02X4991100Y4648454I-37846J0D01*
G01X4845401Y4648454D01*
G03X4877054Y4737100I-108301J88646D01*
G01X4877054Y4741647D01*
G03X4912813Y4777461I-55J35814D01*
G01X4912813Y5077460D01*
G03X4876999Y5113274I-35814J0D01*
G01X4775001Y5113274D01*
G03X4739187Y5077460I0J-35814D01*
G01X4739187Y4777461D01*
G03X4774946Y4741647I35814J0D01*
G01X4774946Y4737100D01*
G02X4737100Y4699254I-37846J0D01*
G01X4591401Y4699254D01*
G03X4623054Y4787900I-108301J88646D01*
G01X4623054Y5041646D01*
G03X4658813Y5077460I-55J35814D01*
G01X4658813Y5377459D01*
G01X4620500Y1426088D02*
G03X4608062Y1485829I-54872J19740D01*
G03X4614894Y1557029I-42433J40000D01*
G02X4650486Y1516929I-4794J-40100D01*
G01X4650486Y1485900D01*
G03X4709046Y1387463I112014J0D01*
G03X4708725Y1384085I35453J-5071D01*
G03X4620500Y1426088I-105127J-107156D01*
G01X5510767Y-54176D02*
G01X5157218Y-54176D01*
G03X5160806Y-38551I-32226J15625D01*
G01X5160806Y211449D01*
G03X5135753Y245608I-35814J0D01*
G01X5135753Y441635D01*
G03X5095540Y539813I-139954J0D01*
G01X5237079Y539813D01*
G03X5248530Y538512I11451J49753D01*
G02X5253178Y538226I0J-37846D01*
G01X5253178Y291446D01*
G03X5288992Y255632I35814J0D01*
G01X5378992Y255632D01*
G03X5414806Y291446I0J35814D01*
G01X5414806Y541445D01*
G03X5378992Y577259I-35814J0D01*
G01X5365665Y577259D01*
G03X5336711Y609346I-117135J-76593D01*
G01X5499092Y609346D01*
G02X5536938Y571500I0J-37846D01*
G01X5536938Y246747D01*
G03X5507178Y211449I6054J-35299D01*
G01X5507178Y-38551D01*
G03X5510767Y-54176I35814J0D01*
G01X6497126Y-54176D02*
G01X6173218Y-54176D01*
G03X6176806Y-38551I-32226J15625D01*
G01X6176806Y211449D01*
G03X6149028Y246350I-35814J0D01*
G01X6149028Y689385D01*
G03X6105514Y790807I-139954J0D01*
G01X6261948Y790807D01*
G02X6299794Y752961I0J-37846D01*
G01X6299794Y576880D01*
G03X6269178Y541445I5198J-35435D01*
G01X6269178Y291446D01*
G03X6304992Y255632I35814J0D01*
G01X6394992Y255632D01*
G03X6430806Y291446I0J35814D01*
G01X6430806Y541445D01*
G03X6401902Y576587I-35814J0D01*
G01X6401902Y752961D01*
G03X6261948Y892915I-139954J0D01*
G01X5715791Y892915D01*
G03X5629455Y892915I-43168J-50340D01*
G01X5478404Y892915D01*
G03X5494698Y939209I-57620J46295D01*
G01X5494698Y1546860D01*
G02X5509684Y1561846I14986J0D01*
G01X5784686Y1561846D01*
G01X5784686Y1550760D01*
G03X5820500Y1514946I35814J0D01*
G01X5990500Y1514946D01*
G03X6026314Y1550760I0J35814D01*
G01X6026314Y1561846D01*
G01X6063935Y1561846D01*
G03X6280314Y1635760I95565J73914D01*
G03X6063935Y1709674I-120814J0D01*
G01X6026314Y1709674D01*
G01X6026314Y1720760D01*
G03X5990500Y1756574I-35814J0D01*
G01X5820500Y1756574D01*
G03X5784686Y1720760I0J-35814D01*
G01X5784686Y1709674D01*
G01X5702689Y1709674D01*
G03X5739049Y1803777I-103594J94103D01*
G01X5739049Y2284397D01*
G01X5806987Y2284397D01*
G03X5842000Y2312677I0J35814D01*
G03X5877013Y2284397I35013J7534D01*
G01X5957660Y2284397D01*
G03X5992602Y2312358I0J35814D01*
G01X6400800Y2312358D01*
G03X6491986Y2346141I0J139954D01*
G01X6491986Y2322824D01*
G02X6483877Y2303247I-27686J0D01*
G01X6443866Y2263235D01*
G03X6301883Y2192533I-30366J-116935D01*
G03X6352286Y2042142I111617J-46233D01*
G01X6352286Y1993918D01*
G03X6413500Y1768946I61214J-104158D01*
G03X6474714Y1993918I0J120814D01*
G01X6474714Y2042142D01*
G03X6525117Y2100067I-61214J104158D01*
G03X6530435Y2176666I-111617J46233D01*
G01X6566762Y2212993D01*
G03X6758834Y2067217I100738J-66693D01*
G03X6587084Y2236463I-91334J79083D01*
G03X6614414Y2322824I-122785J86361D01*
G01X6614414Y2450639D01*
G01X6913703Y2450639D01*
G03X6919234Y2451069I0J35814D01*
G01X6919234Y620710D01*
G01X6574304Y278234D01*
G03X6563724Y252820I25234J-25415D01*
G01X6563724Y12422D01*
G01X6560522Y-6793D01*
G01X6555198Y-21434D01*
G01X6544435Y-34887D01*
G01X6530982Y-45650D01*
G01X6516341Y-50974D01*
G01X6497126Y-54176D01*
G01X5990500Y2025486D02*
G03X6026314Y2061300I0J35814D01*
G01X6026314Y2231300D01*
G03X5990500Y2267114I-35814J0D01*
G01X5820500Y2267114D01*
G03X5784686Y2231300I0J-35814D01*
G01X5784686Y2061300D01*
G03X5820500Y2025486I35814J0D01*
G01X5990500Y2025486D01*
G01X5990500Y1768946D02*
G03X6026314Y1804760I0J35814D01*
G01X6026314Y1974760D01*
G03X5990500Y2010574I-35814J0D01*
G01X5820500Y2010574D01*
G03X5784686Y1974760I0J-35814D01*
G01X5784686Y1804760D01*
G03X5820500Y1768946I35814J0D01*
G01X5990500Y1768946D01*
G01X6038686Y2146300D02*
G03X6280314Y2146300I120814J0D01*
G03X6038686Y2146300I-120814J0D01*
G01X6038686Y1889760D02*
G03X6280314Y1889760I120814J0D01*
G03X6038686Y1889760I-120814J0D01*
G01X6292686Y1635760D02*
G03X6534314Y1635760I120814J0D01*
G03X6292686Y1635760I-120814J0D01*
G01X6408166Y759460D02*
G03X6799834Y759460I195834J0D01*
G03X6408166Y759460I-195834J0D01*
G01X6546686Y1889760D02*
G03X6788314Y1889760I120814J0D01*
G03X6546686Y1889760I-120814J0D01*
G01X6546686Y1635760D02*
G03X6788314Y1635760I120814J0D01*
G03X6546686Y1635760I-120814J0D01*
G01X6018767Y-54176D02*
G01X5665218Y-54176D01*
G03X5668806Y-38551I-32226J15625D01*
G01X5668806Y211449D01*
G03X5639046Y246747I-35814J0D01*
G01X5639046Y571500D01*
G03X5595612Y672846I-139954J0D01*
G01X5753092Y672846D01*
G02X5790938Y635000I0J-37846D01*
G01X5790938Y576744D01*
G03X5761178Y541445I6054J-35299D01*
G01X5761178Y291446D01*
G03X5796992Y255632I35814J0D01*
G01X5886992Y255632D01*
G03X5922806Y291446I0J35814D01*
G01X5922806Y541445D01*
G03X5893046Y576744I-35814J0D01*
G01X5893046Y635000D01*
G03X5858357Y727231I-139954J0D01*
G01X5887182Y727231D01*
G03X5975956Y727231I44387J49268D01*
G01X6009074Y727231D01*
G02X6046920Y689385I0J-37846D01*
G01X6046920Y247030D01*
G03X6015178Y211449I4073J-35582D01*
G01X6015178Y-38551D01*
G03X6018767Y-54176I35814J0D01*
G01X5674813Y5377459D02*
G03X5674526Y5381985I-35814J0D01*
G01X6009474Y5381985D01*
G03X6009187Y5377459I35527J-4526D01*
G01X6009187Y5077460D01*
G03X6044946Y5041646I35814J0D01*
G01X6044946Y4038600D01*
G02X6007100Y4000754I-37846J0D01*
G01X5852109Y4000754D01*
G03X5892822Y4099437I-99241J98683D01*
G01X5892999Y4741647D01*
G03X5928813Y4777461I0J35814D01*
G01X5928813Y5077460D01*
G03X5892999Y5113274I-35814J0D01*
G01X5791001Y5113274D01*
G03X5755187Y5077460I0J-35814D01*
G01X5755187Y4777461D01*
G03X5790714Y4741648I35814J0D01*
G01X5790714Y4099437D01*
G02X5752868Y4061591I-37846J0D01*
G01X5607826Y4061591D01*
G03X5639054Y4140200I-83326J78609D01*
G01X5639054Y5041646D01*
G03X5674813Y5077460I-55J35814D01*
G01X5674813Y5377459D01*
G01X6182813Y5377459D02*
G03X6182526Y5381985I-35814J0D01*
G01X6339452Y5381985D01*
G01X6563724Y5161538D01*
G01X6563724Y4033959D01*
G03X6574058Y4008792I35814J0D01*
G01X6919234Y3659336D01*
G01X6919234Y3131836D01*
G03X6913703Y3132266I-5531J-35384D01*
G01X6656077Y3132266D01*
G01X6656077Y3162300D01*
G03X6505963Y3312414I-150114J0D01*
G01X6362700Y3312414D01*
G02X6335014Y3340100I0J27686D01*
G01X6335014Y3667760D01*
G03X6184900Y3817874I-150114J0D01*
G01X6057900Y3817874D01*
G03X5996686Y3756660I0J-61214D01*
G03X6057900Y3695446I61214J0D01*
G01X6184900Y3695446D01*
G02X6212586Y3667760I0J-27686D01*
G01X6212586Y3600892D01*
G01X5855564Y3600892D01*
G03X5739049Y3545427I0J-150114D01*
G01X5739049Y3782912D01*
G02X5776895Y3820758I37846J0D01*
G01X6264498Y3820758D01*
G03X6404452Y3960712I0J139954D01*
G01X6404452Y4741813D01*
G03X6436813Y4777461I-3452J35647D01*
G01X6436813Y5077460D01*
G03X6400999Y5113274I-35814J0D01*
G01X6299001Y5113274D01*
G03X6263187Y5077460I0J-35814D01*
G01X6263187Y4777461D01*
G03X6299001Y4741647I35814J0D01*
G01X6302344Y4741647D01*
G01X6302344Y3960712D01*
G02X6264498Y3922866I-37846J0D01*
G01X6085794Y3922866D01*
G03X6147054Y4038600I-78694J115734D01*
G01X6147054Y5041646D01*
G03X6182813Y5077460I-55J35814D01*
G01X6182813Y5377459D01*
G01X6408166Y3553460D02*
G03X6799834Y3553460I195834J0D01*
G03X6408166Y3553460I-195834J0D01*
G01X5806987Y3352874D02*
G03X5842000Y3381154I0J35814D01*
G03X5864909Y3354981I35013J7534D01*
G03X5864741Y3295039I53291J-30121D01*
G03X5842000Y3268927I12272J-33646D01*
G03X5806987Y3297207I-35013J-7534D01*
G01X5739049Y3297207D01*
G01X5739049Y3352874D01*
G01X5806987Y3352874D01*
G01X5806987Y3139178D02*
G03X5842000Y3167459I0J35814D01*
G03X5866282Y3140824I35013J7534D01*
G01X5866282Y3081867D01*
G03X5842000Y3055232I10730J-34169D01*
G03X5806987Y3083512I-35013J-7534D01*
G01X5739049Y3083512D01*
G01X5739049Y3139178D01*
G01X5806987Y3139178D01*
G01X6045454Y3202087D02*
G01X6108446Y3202087D01*
G01X6108446Y3200400D01*
G03X6130911Y3132266I114554J0D01*
G01X6065707Y3132266D01*
G03X6045454Y3125989I0J-35814D01*
G01X6045454Y3202087D01*
G01X6913703Y2704639D02*
G03X6919234Y2705069I0J35814D01*
G01X6919234Y2623836D01*
G03X6913703Y2624266I-5531J-35384D01*
G01X6614414Y2624266D01*
G01X6614414Y2704639D01*
G01X6913703Y2704639D01*
G54D11*
G01X1067664Y3323017D02*
G01X1001432Y3323017D01*
G01X1067664Y3323017D02*
G01X1067664Y3392125D01*
G01X1067664Y3323017D02*
G01X1067664Y3253908D01*
G01X1218336Y3147060D02*
G01X1284568Y3147060D01*
G01X1218336Y3147060D02*
G01X1218336Y3216168D01*
G01X1218336Y3323017D02*
G01X1284568Y3323017D01*
G01X1218336Y3323017D02*
G01X1218336Y3253908D01*
G01X1801647Y3147213D02*
G01X1740739Y3147213D01*
G01X6758704Y2588198D02*
G01X6758704Y2614106D01*
G01X6758704Y2486707D02*
G01X6758704Y2460799D01*
G01X1508954Y3444011D02*
G01X1483046Y3444011D01*
G01X1536700Y3531008D02*
G01X1536700Y3556916D01*
G01X1258406Y3498973D02*
G01X1284314Y3498973D01*
G01X1218336Y3541920D02*
G01X1218336Y3567828D01*
G01X673249Y4127462D02*
G01X699157Y4127462D01*
G01X334753Y5162753D02*
G01X360661Y5162753D01*
G01X85261Y5162753D02*
G01X59353Y5162753D01*
G01X210007Y5108007D02*
G01X210007Y5082099D01*
G01X210007Y5217499D02*
G01X210007Y5243407D01*
G01X1184739Y5162753D02*
G01X1210647Y5162753D01*
G01X935247Y5162753D02*
G01X909339Y5162753D01*
G01X1059993Y5108007D02*
G01X1059993Y5082099D01*
G01X1059993Y5217499D02*
G01X1059993Y5243407D01*
G01X2527355Y4930000D02*
G01X2501447Y4930000D01*
G01X2628845Y4930000D02*
G01X2654753Y4930000D01*
G01X2578100Y5079746D02*
G01X2578100Y5105654D01*
G01X2578100Y4780255D02*
G01X2578100Y4754347D01*
G01X4267255Y401460D02*
G01X4241347Y401460D01*
G01X4368745Y401460D02*
G01X4394653Y401460D01*
G01X4318000Y551205D02*
G01X4318000Y577113D01*
G01X4318000Y251714D02*
G01X4318000Y225806D01*
G01X4013255Y101460D02*
G01X3987347Y101460D01*
G01X4064000Y251206D02*
G01X4064000Y277114D01*
G01X4872248Y939800D02*
G01X4898156Y939800D01*
G01X4832502Y984546D02*
G01X4832502Y1010454D01*
G01X1841500Y819601D02*
G01X1841500Y845509D01*
G01X1841500Y470110D02*
G01X1841500Y444202D01*
G01X1901246Y644855D02*
G01X1927154Y644855D01*
G01X1781754Y644855D02*
G01X1755846Y644855D01*
G01X799597Y316141D02*
G01X773689Y316141D01*
G01X999089Y316141D02*
G01X1024997Y316141D01*
G01X899343Y465887D02*
G01X899343Y491795D01*
G01X899343Y166395D02*
G01X899343Y140487D01*
G01X1219200Y2567912D02*
G01X1219200Y2593820D01*
G01X1262146Y2527842D02*
G01X1288054Y2527842D01*
G01X1176254Y2527842D02*
G01X1150346Y2527842D01*
G01X939800Y2701454D02*
G01X939800Y2675546D01*
G01X982746Y2741524D02*
G01X1008654Y2741524D01*
G01X1219200Y2701454D02*
G01X1219200Y2675546D01*
G01X1176254Y2741524D02*
G01X1150346Y2741524D01*
G01X1262146Y2741524D02*
G01X1288054Y2741524D01*
G01X2845906Y2721628D02*
G01X2871814Y2721628D01*
G01X2805836Y2678682D02*
G01X2805836Y2652774D01*
G01X2184400Y2904654D02*
G01X2184400Y2878746D01*
G01X2227346Y2944724D02*
G01X2253254Y2944724D01*
G01X2141454Y2944724D02*
G01X2115546Y2944724D01*
G01X1220890Y1839203D02*
G01X1220890Y1865111D01*
G01X1263837Y1799133D02*
G01X1289745Y1799133D01*
G01X1177944Y1799133D02*
G01X1152036Y1799133D01*
G01X941490Y1972745D02*
G01X941490Y1946837D01*
G01X984437Y2012815D02*
G01X1010345Y2012815D01*
G01X1220027Y1972745D02*
G01X1220027Y1946837D01*
G01X1177080Y2012815D02*
G01X1151172Y2012815D01*
G01X1262973Y2012815D02*
G01X1288881Y2012815D01*
G01X2655164Y2301006D02*
G01X2655164Y2326914D01*
G01X306581Y2016192D02*
G01X280673Y2016192D01*
G01X385077Y1982846D02*
G01X385077Y1956938D01*
G01X385077Y2049539D02*
G01X385077Y2075447D01*
G01X306581Y2789060D02*
G01X280673Y2789060D01*
G01X385077Y2755713D02*
G01X385077Y2729805D01*
G01X385077Y2822406D02*
G01X385077Y2848314D01*
G01X4587875Y1445829D02*
G01X4613783Y1445829D01*
G01X4973848Y1689100D02*
G01X4999756Y1689100D01*
G01X4934102Y1733846D02*
G01X4934102Y1759754D01*
G01X2141454Y1649324D02*
G01X2115546Y1649324D01*
G01X2227346Y1649324D02*
G01X2253254Y1649324D01*
G01X2202946Y2091411D02*
G01X2228854Y2091411D01*
G01X2171700Y2184406D02*
G01X2171700Y2210314D01*
G01X2171700Y1998415D02*
G01X2171700Y1972507D01*
G01X5766664Y3175246D02*
G01X5766664Y3149338D01*
G01X5766664Y3261139D02*
G01X5766664Y3287047D01*
G01X1027594Y3147060D02*
G01X1001686Y3147060D01*
G01X6083313Y3238155D02*
G01X6083313Y3212247D01*
G01X4794098Y1110954D02*
G01X4794098Y1085046D01*
G01X2552700Y819601D02*
G01X2552700Y845509D01*
G01X2552700Y470110D02*
G01X2552700Y444202D01*
G01X2612446Y644855D02*
G01X2638354Y644855D01*
G01X2492954Y644855D02*
G01X2467046Y644855D01*
G01X4587875Y1285829D02*
G01X4613783Y1285829D01*
G01X4974501Y1462662D02*
G01X4974501Y1436754D01*
G01X5034247Y1532407D02*
G01X5060155Y1532407D01*
G01X2810447Y4174457D02*
G01X2810447Y4148549D01*
G01X2850192Y4214203D02*
G01X2876100Y4214203D01*
G01X2770701Y4214203D02*
G01X2744793Y4214203D01*
G01X1258406Y4034585D02*
G01X1284314Y4034585D01*
G01X1218336Y4077532D02*
G01X1218336Y4103440D01*
G01X1218336Y3991639D02*
G01X1218336Y3965731D01*
G01X189616Y316141D02*
G01X163708Y316141D01*
G01X389108Y316141D02*
G01X415016Y316141D01*
G01X289362Y465887D02*
G01X289362Y491795D01*
G01X289362Y166395D02*
G01X289362Y140487D01*
G01X563512Y4294704D02*
G01X563512Y4320612D01*
G01X663258Y4239959D02*
G01X689166Y4239959D01*
G01X463766Y4239959D02*
G01X437858Y4239959D01*
G01X143497Y4299704D02*
G01X143497Y4325612D01*
G01X143497Y4180213D02*
G01X143497Y4154305D01*
G01X233243Y4239959D02*
G01X259151Y4239959D01*
G01X143497Y3434707D02*
G01X143497Y3460615D01*
G01X143497Y3315216D02*
G01X143497Y3289308D01*
G01X233243Y3374962D02*
G01X259151Y3374962D01*
G01X563512Y3320216D02*
G01X563512Y3294308D01*
G01X463766Y3374962D02*
G01X437858Y3374962D01*
G01X6328754Y1635760D02*
G01X6302846Y1635760D01*
G01X6498246Y1635760D02*
G01X6524154Y1635760D01*
G01X6413500Y1720506D02*
G01X6413500Y1746414D01*
G01X6413500Y1551014D02*
G01X6413500Y1525106D01*
G01X6582754Y2146300D02*
G01X6556846Y2146300D01*
G01X6752246Y2146300D02*
G01X6778154Y2146300D01*
G01X6667500Y2231046D02*
G01X6667500Y2256954D01*
G01X6667500Y2061554D02*
G01X6667500Y2035646D01*
G01X6582754Y1635760D02*
G01X6556846Y1635760D01*
G01X6752246Y1635760D02*
G01X6778154Y1635760D01*
G01X6667500Y1720506D02*
G01X6667500Y1746414D01*
G01X6667500Y1551014D02*
G01X6667500Y1525106D01*
G01X6582754Y1889760D02*
G01X6556846Y1889760D01*
G01X6752246Y1889760D02*
G01X6778154Y1889760D01*
G01X6667500Y1974506D02*
G01X6667500Y2000414D01*
G01X6667500Y1805014D02*
G01X6667500Y1779106D01*
G04 Copper End*

G04 PolygonModel Start*
G36*
G01X482600Y1963807D02*
G01X482600Y2181860D01*
G01X787400Y2181860D01*
G01X812800Y2207260D01*
G01X812800Y2283460D01*
G01X787400Y2308860D01*
G01X279400Y2308860D01*
G01X203200Y2385060D01*
G01X203200Y2512060D01*
G01X228600Y2537460D01*
G01X381000Y2537460D01*
G01X464626Y2453834D01*
G01X1328226Y2453834D01*
G01X1346200Y2435860D01*
G01X1346200Y2105660D01*
G01X1332636Y2092096D01*
G01X870881Y2092096D01*
G01X838200Y2059415D01*
G01X838200Y1800126D01*
G01X786518Y1748443D01*
G01X524469Y1748443D01*
G01X457200Y1815713D01*
G01X457200Y1938407D01*
G01X482600Y1963807D01*
G37*
G36*
G01X2209800Y1000571D02*
G01X2209800Y1343660D01*
G01X2148975Y1404485D01*
G01X1668452Y1404485D01*
G01X1447800Y1625137D01*
G01X1447800Y1951533D01*
G01X1275749Y2123584D01*
G01X1275749Y2461260D01*
G01X1600200Y2461260D01*
G01X1676400Y2385060D01*
G01X1676400Y1623060D01*
G01X1752600Y1546860D01*
G01X2776282Y1546860D01*
G01X2844800Y1478342D01*
G01X2844800Y988060D01*
G01X2768600Y911860D01*
G01X2298511Y911860D01*
G01X2209800Y1000571D01*
G37*
G36*
G01X1689100Y911860D02*
G01X998949Y1588878D01*
G01X203200Y1588878D01*
G01X203200Y1724660D01*
G01X228600Y1750060D01*
G01X406400Y1750060D01*
G01X465458Y1691002D01*
G01X1278258Y1691002D01*
G01X1612900Y1356360D01*
G01X1968500Y1356360D01*
G01X2057400Y1267460D01*
G01X2057400Y962660D01*
G01X2006600Y911860D01*
G01X1689100Y911860D01*
G37*
G36*
G01X495300Y2740660D02*
G01X495300Y3032760D01*
G01X1404331Y3032760D01*
G01X1429731Y3007360D01*
G01X1429731Y2911616D01*
G01X1334975Y2816860D01*
G01X880231Y2816860D01*
G01X850900Y2787529D01*
G01X850900Y2588260D01*
G01X783951Y2521311D01*
G01X506843Y2521311D01*
G01X457200Y2570954D01*
G01X457200Y2702560D01*
G01X495300Y2740660D01*
G37*
G36*
G01X2184400Y378309D02*
G01X2006600Y556109D01*
G01X2006600Y826523D01*
G01X1826154Y1006968D01*
G01X1826154Y1356360D01*
G01X2057454Y1356360D01*
G01X2108200Y1305614D01*
G01X2108200Y1013460D01*
G01X2362200Y759460D01*
G01X2362200Y543560D01*
G01X2540000Y365760D01*
G01X2540000Y149860D01*
G01X2489200Y99060D01*
G01X2247900Y99060D01*
G01X2184400Y162560D01*
G01X2184400Y378309D01*
G37*
G36*
G01X1981200Y3029894D02*
G01X1981200Y2883503D01*
G01X1838357Y2740660D01*
G01X1727200Y2740660D01*
G01X1701800Y2715260D01*
G01X1701800Y2410460D01*
G01X1524000Y2232660D01*
G01X1320800Y2232660D01*
G01X1295400Y2258060D01*
G01X1295400Y2435860D01*
G01X1346200Y2486660D01*
G01X1346200Y2740660D01*
G01X1461073Y2855533D01*
G01X1764135Y2855533D01*
G01X1801647Y2893045D01*
G01X1801647Y3024194D01*
G01X1822913Y3045460D01*
G01X1965634Y3045460D01*
G01X1981200Y3029894D01*
G37*

G04 Pad Start*
G54D12*
G01X4348748Y967679D03*
G01X4268748Y967679D03*
G01X4188748Y967679D03*
G01X4108748Y967679D03*
G01X4028749Y967679D03*
G01X3948749Y967679D03*
G01X3868749Y967679D03*
G01X3788749Y967679D03*
G54D13*
G01X3631869Y1125830D03*
G01X3631869Y1205829D03*
G01X3631869Y1285829D03*
G01X3631869Y1365829D03*
G01X3631869Y1445829D03*
G01X3631869Y1525829D03*
G01X3631869Y1605829D03*
G01X3631869Y1685828D03*
G54D12*
G01X3788749Y1843979D03*
G01X3868749Y1843979D03*
G01X3948749Y1843979D03*
G01X4028749Y1843979D03*
G01X4108748Y1843979D03*
G01X4188748Y1843979D03*
G01X4268748Y1843979D03*
G01X4348748Y1843979D03*
G54D13*
G01X4505629Y1685828D03*
G01X4505629Y1605829D03*
G01X4505629Y1525829D03*
G01X4505629Y1445829D03*
G01X4505629Y1365829D03*
G01X4505629Y1285829D03*
G01X4505629Y1205829D03*
G01X4505629Y1125830D03*
G54D14*
G01X4804499Y1532407D03*
G01X4804499Y1312393D03*
G01X4974501Y1312393D03*
G01X4974501Y1532407D03*
G54D15*
G01X618503Y4127462D03*
G01X618503Y4047452D03*
G54D16*
G01X618503Y3982453D03*
G01X618503Y3932441D03*
G01X618503Y3882454D03*
G01X618503Y3832466D03*
G01X618503Y3782454D03*
G01X618503Y3732467D03*
G01X618503Y3682454D03*
G01X618503Y3632441D03*
G54D15*
G01X618503Y3567443D03*
G01X618503Y3487458D03*
G54D17*
G01X563512Y4239959D03*
G01X563512Y3374962D03*
G54D19*
G01X143497Y4239959D03*
G01X143497Y3374962D03*
G54D20*
G01X385077Y2789060D03*
G01X385077Y2489060D03*
G36*
G01X749021Y2544077D02*
G01X563601Y2544077D01*
G01X559148Y2544183D01*
G01X554706Y2544496D01*
G01X550281Y2545017D01*
G01X545887Y2545743D01*
G01X541531Y2546678D01*
G01X537225Y2547813D01*
G01X532976Y2549149D01*
G01X528795Y2550683D01*
G01X524690Y2552413D01*
G01X520670Y2554331D01*
G01X516745Y2556436D01*
G01X512923Y2558725D01*
G01X509212Y2561189D01*
G01X505620Y2563823D01*
G01X502158Y2566622D01*
G01X498828Y2569583D01*
G01X495643Y2572695D01*
G01X492605Y2575954D01*
G01X489725Y2579350D01*
G01X487007Y2582878D01*
G01X484457Y2586530D01*
G01X482082Y2590297D01*
G01X479885Y2594173D01*
G01X477871Y2598146D01*
G01X476047Y2606076D01*
G01X306314Y2606076D01*
G01X306314Y2672075D01*
G01X476047Y2672075D01*
G01X477871Y2680010D01*
G01X479885Y2683982D01*
G01X482082Y2687858D01*
G01X484457Y2691625D01*
G01X487007Y2695278D01*
G01X489725Y2698806D01*
G01X492605Y2702202D01*
G01X495643Y2705461D01*
G01X498828Y2708572D01*
G01X502158Y2711534D01*
G01X505620Y2714333D01*
G01X509212Y2716967D01*
G01X512923Y2719431D01*
G01X516745Y2721719D01*
G01X520670Y2723825D01*
G01X524690Y2725743D01*
G01X528795Y2727472D01*
G01X532976Y2729006D01*
G01X537225Y2730343D01*
G01X541531Y2731478D01*
G01X545887Y2732413D01*
G01X550281Y2733139D01*
G01X554706Y2733660D01*
G01X559148Y2733972D01*
G01X563601Y2734079D01*
G01X749021Y2734079D01*
G01X753473Y2733972D01*
G01X757916Y2733660D01*
G01X762340Y2733139D01*
G01X766735Y2732413D01*
G01X771091Y2731478D01*
G01X775396Y2730343D01*
G01X779645Y2729006D01*
G01X783826Y2727472D01*
G01X787931Y2725743D01*
G01X791952Y2723825D01*
G01X795876Y2721719D01*
G01X799699Y2719431D01*
G01X803410Y2716967D01*
G01X807001Y2714333D01*
G01X810463Y2711534D01*
G01X813793Y2708572D01*
G01X816978Y2705461D01*
G01X820016Y2702202D01*
G01X822897Y2698806D01*
G01X825614Y2695278D01*
G01X828164Y2691625D01*
G01X830539Y2687858D01*
G01X832736Y2683982D01*
G01X834751Y2680010D01*
G01X836574Y2675946D01*
G01X838208Y2671803D01*
G01X839643Y2667587D01*
G01X840880Y2663307D01*
G01X841913Y2658974D01*
G01X842744Y2654600D01*
G01X843369Y2650188D01*
G01X843785Y2645753D01*
G01X843994Y2641305D01*
G01X843994Y2636850D01*
G01X843785Y2632403D01*
G01X843369Y2627968D01*
G01X842744Y2623556D01*
G01X841913Y2619182D01*
G01X840880Y2614849D01*
G01X839643Y2610569D01*
G01X838208Y2606352D01*
G01X836574Y2602210D01*
G01X834751Y2598146D01*
G01X832736Y2594173D01*
G01X830539Y2590297D01*
G01X828164Y2586530D01*
G01X825614Y2582878D01*
G01X822897Y2579350D01*
G01X820016Y2575954D01*
G01X816978Y2572695D01*
G01X813793Y2569583D01*
G01X810463Y2566622D01*
G01X807001Y2563823D01*
G01X803410Y2561189D01*
G01X799699Y2558725D01*
G01X795876Y2556436D01*
G01X791952Y2554331D01*
G01X787931Y2552413D01*
G01X783826Y2550683D01*
G01X779645Y2549149D01*
G01X775396Y2547813D01*
G01X771091Y2546678D01*
G01X766735Y2545743D01*
G01X762340Y2545017D01*
G01X757916Y2544496D01*
G01X753473Y2544183D01*
G01X749021Y2544077D01*
G37*
G54D21*
G01X4572000Y5227460D03*
G01X4826000Y4927460D03*
G01X5080000Y5227460D03*
G01X5334000Y4927460D03*
G01X5588000Y5227460D03*
G01X5842000Y4927460D03*
G01X6096000Y5227460D03*
G01X6350000Y4927460D03*
G01X2794000Y401460D03*
G01X3048000Y101460D03*
G01X3302000Y401460D03*
G01X3556000Y101460D03*
G01X3810000Y401460D03*
G01X4064000Y101460D03*
G01X4318000Y401460D03*
G01X4572000Y101460D03*
G54D22*
G01X1706651Y2947214D03*
G01X1896643Y2947214D03*
G01X1801647Y3147213D03*
G54D23*
G01X289362Y1416139D03*
G01X289362Y316141D03*
G01X899343Y316141D03*
G01X899361Y1416139D03*
G54D24*
G01X6758704Y2537452D03*
G01X6758704Y2791452D03*
G01X6758704Y3045452D03*
G01X6220706Y2537452D03*
G01X6220706Y2791452D03*
G01X6220706Y3045452D03*
G54D25*
G01X1790700Y2091411D03*
G01X1917700Y2091411D03*
G01X2044700Y2091411D03*
G01X2171700Y2091411D03*
G01X1790700Y2627909D03*
G01X1917700Y2627909D03*
G01X2044700Y2627909D03*
G01X2171700Y2627909D03*
G54D26*
G01X5079992Y86449D03*
G01X5333992Y416446D03*
G01X5587992Y86449D03*
G01X5841992Y416446D03*
G01X6095992Y86449D03*
G01X6349992Y416446D03*
G54D27*
G01X1536700Y3444011D03*
G01X1663700Y3444011D03*
G01X1790700Y3444011D03*
G01X1917700Y3444011D03*
G01X2044700Y3444011D03*
G01X2171700Y3444011D03*
G01X2298700Y3444011D03*
G01X2425700Y3444011D03*
G01X1536700Y4018509D03*
G01X1663700Y4018509D03*
G01X1790700Y4018509D03*
G01X1917700Y4018509D03*
G01X2044700Y4018509D03*
G01X2171700Y4018509D03*
G01X2298700Y4018509D03*
G01X2425700Y4018509D03*
G54D20*
G01X385077Y2016192D03*
G01X385077Y1716193D03*
G36*
G01X749021Y1771209D02*
G01X563601Y1771209D01*
G01X559148Y1771316D01*
G01X554706Y1771628D01*
G01X550281Y1772149D01*
G01X545887Y1772876D01*
G01X541531Y1773810D01*
G01X537225Y1774946D01*
G01X532976Y1776282D01*
G01X528795Y1777816D01*
G01X524690Y1779546D01*
G01X520670Y1781463D01*
G01X516745Y1783569D01*
G01X512923Y1785857D01*
G01X509212Y1788321D01*
G01X505620Y1790955D01*
G01X502158Y1793754D01*
G01X498828Y1796716D01*
G01X495643Y1799827D01*
G01X492605Y1803086D01*
G01X489725Y1806482D01*
G01X487007Y1810010D01*
G01X484457Y1813663D01*
G01X482082Y1817430D01*
G01X479885Y1821306D01*
G01X477871Y1825278D01*
G01X476047Y1833208D01*
G01X306314Y1833208D01*
G01X306314Y1899208D01*
G01X476047Y1899208D01*
G01X477871Y1907142D01*
G01X479885Y1911115D01*
G01X482082Y1914991D01*
G01X484457Y1918758D01*
G01X487007Y1922410D01*
G01X489725Y1925938D01*
G01X492605Y1929334D01*
G01X495643Y1932593D01*
G01X498828Y1935705D01*
G01X502158Y1938666D01*
G01X505620Y1941466D01*
G01X509212Y1944099D01*
G01X512923Y1946563D01*
G01X516745Y1948852D01*
G01X520670Y1950957D01*
G01X524690Y1952875D01*
G01X528795Y1954605D01*
G01X532976Y1956139D01*
G01X537225Y1957475D01*
G01X541531Y1958611D01*
G01X545887Y1959545D01*
G01X550281Y1960272D01*
G01X554706Y1960792D01*
G01X559148Y1961105D01*
G01X563601Y1961211D01*
G01X749021Y1961211D01*
G01X753473Y1961105D01*
G01X757916Y1960792D01*
G01X762340Y1960272D01*
G01X766735Y1959545D01*
G01X771091Y1958611D01*
G01X775396Y1957475D01*
G01X779645Y1956139D01*
G01X783826Y1954605D01*
G01X787931Y1952875D01*
G01X791952Y1950957D01*
G01X795876Y1948852D01*
G01X799699Y1946563D01*
G01X803410Y1944099D01*
G01X807001Y1941466D01*
G01X810463Y1938666D01*
G01X813793Y1935705D01*
G01X816978Y1932593D01*
G01X820016Y1929334D01*
G01X822897Y1925938D01*
G01X825614Y1922410D01*
G01X828164Y1918758D01*
G01X830539Y1914991D01*
G01X832736Y1911115D01*
G01X834751Y1907142D01*
G01X836574Y1903078D01*
G01X838208Y1898936D01*
G01X839643Y1894719D01*
G01X840880Y1890439D01*
G01X841913Y1886106D01*
G01X842744Y1881732D01*
G01X843369Y1877320D01*
G01X843785Y1872886D01*
G01X843994Y1868438D01*
G01X843994Y1863983D01*
G01X843785Y1859535D01*
G01X843369Y1855100D01*
G01X842744Y1850688D01*
G01X841913Y1846315D01*
G01X840880Y1841981D01*
G01X839643Y1837701D01*
G01X838208Y1833485D01*
G01X836574Y1829342D01*
G01X834751Y1825278D01*
G01X832736Y1821306D01*
G01X830539Y1817430D01*
G01X828164Y1813663D01*
G01X825614Y1810010D01*
G01X822897Y1806482D01*
G01X820016Y1803086D01*
G01X816978Y1799827D01*
G01X813793Y1796716D01*
G01X810463Y1793754D01*
G01X807001Y1790955D01*
G01X803410Y1788321D01*
G01X799699Y1785857D01*
G01X795876Y1783569D01*
G01X791952Y1781463D01*
G01X787931Y1779546D01*
G01X783826Y1777816D01*
G01X779645Y1776282D01*
G01X775396Y1774946D01*
G01X771091Y1773810D01*
G01X766735Y1772876D01*
G01X762340Y1772149D01*
G01X757916Y1771628D01*
G01X753473Y1771316D01*
G01X749021Y1771209D01*
G37*
G54D28*
G01X5905500Y1889760D03*
G54D29*
G01X6159500Y1889760D03*
G01X6413500Y1889760D03*
G01X6667500Y1889760D03*
G54D28*
G01X5905500Y1635760D03*
G54D29*
G01X6159500Y1635760D03*
G01X6413500Y1635760D03*
G01X6667500Y1635760D03*
G54D28*
G01X5905500Y2146300D03*
G54D29*
G01X6159500Y2146300D03*
G01X6413500Y2146300D03*
G01X6667500Y2146300D03*
G54D30*
G01X1212065Y3856048D03*
G01X1061392Y3856048D03*
G01X1212065Y3677511D03*
G01X1061392Y3677511D03*
G01X1218336Y4034585D03*
G01X1067664Y4034585D03*
G01X1218336Y3498973D03*
G01X1067664Y3498973D03*
G54D31*
G01X1948993Y276860D03*
G01X2369007Y276860D03*
G54D30*
G01X2655164Y4024076D03*
G01X2805836Y4024076D03*
G54D32*
G01X2184400Y1799996D03*
G01X2184400Y1649324D03*
G01X1803400Y1649324D03*
G01X1803400Y1799996D03*
G54D30*
G01X2805836Y3185197D03*
G01X2655164Y3185197D03*
G01X2805836Y3843770D03*
G01X2655164Y3843770D03*
G54D33*
G01X2650554Y3654717D03*
G01X2810447Y3655403D03*
G54D30*
G01X1218336Y4391660D03*
G01X1067664Y4391660D03*
G54D33*
G01X2650554Y4213517D03*
G01X2810447Y4214203D03*
G01X6083287Y3427700D03*
G01X6083313Y3277900D03*
G54D30*
G01X5917336Y3431888D03*
G01X5766664Y3431888D03*
G54D33*
G01X2650554Y3426117D03*
G01X2810447Y3426803D03*
G54D30*
G01X2655164Y2258060D03*
G01X2805836Y2258060D03*
G01X2655164Y2721628D03*
G01X2805836Y2721628D03*
G54D32*
G01X1220890Y1648460D03*
G01X1220890Y1799133D03*
G01X1220027Y2163487D03*
G01X1220027Y2012815D03*
G01X1219200Y2377169D03*
G01X1219200Y2527842D03*
G01X939800Y2892196D03*
G01X939800Y2741524D03*
G54D34*
G01X4692498Y939800D03*
G01X4832502Y939800D03*
G54D32*
G01X941490Y2163487D03*
G01X941490Y2012815D03*
G01X1219200Y2892196D03*
G01X1219200Y2741524D03*
G54D30*
G01X1218336Y3147060D03*
G01X1067664Y3147060D03*
G01X1218336Y4213123D03*
G01X1067664Y4213123D03*
G54D32*
G01X2184400Y2944724D03*
G01X2184400Y3095396D03*
G54D30*
G01X2805836Y2953412D03*
G01X2655164Y2953412D03*
G01X2655164Y2489844D03*
G01X2805836Y2489844D03*
G01X5766664Y3218193D03*
G01X5917336Y3218193D03*
G01X5917336Y2363412D03*
G01X5766664Y2363412D03*
G01X5766664Y3004497D03*
G01X5917336Y3004497D03*
G01X5766664Y2790802D03*
G01X5917336Y2790802D03*
G01X5766664Y2577107D03*
G01X5917336Y2577107D03*
G54D35*
G01X1841500Y1178865D03*
G01X1841500Y644855D03*
G01X2552700Y1178865D03*
G01X2552700Y644855D03*
G54D30*
G01X1218336Y3323017D03*
G01X1067664Y3323017D03*
G54D36*
G01X210007Y5162753D03*
G01X1059993Y5162753D03*
G01X210007Y4712767D03*
G01X1059993Y4712767D03*
G54D34*
G01X4794098Y1689100D03*
G01X4934102Y1689100D03*
G01X4794098Y1155700D03*
G01X4934102Y1155700D03*
G54D26*
G01X2895592Y4914989D03*
G01X3149592Y5244986D03*
G01X3403592Y4914989D03*
G01X3657592Y5244986D03*
G01X3911592Y4914989D03*
G01X4165592Y5244986D03*
G54D21*
G01X2578100Y4930000D03*
G01X2070100Y4930000D03*
G01X2324100Y5230000D03*
G01X1816100Y5230000D03*
G04 Pad End*

G04 Via Start*
G54D37*
G01X6235700Y3213100D03*
G54D38*
G01X6083300Y3175000D03*
G01X762000Y4124960D03*
G01X787400Y3896360D03*
G01X2235200Y3642360D03*
G01X2057400Y3642360D03*
G01X723900Y3677920D03*
G01X1930400Y1649324D03*
G01X2057400Y1649324D03*
G01X1790700Y2308860D03*
G01X1574800Y2947214D03*
G01X2997200Y2721628D03*
G01X2997200Y2943860D03*
G01X2997200Y3070860D03*
G01X2997200Y3197860D03*
G01X2869336Y3070860D03*
G01X2997200Y3299460D03*
G01X1790700Y3299460D03*
G01X1663700Y3299460D03*
G01X2655164Y3070860D03*
G01X2565400Y3070860D03*
G01X3302000Y3604260D03*
G01X3302000Y3464560D03*
G01X3124200Y2486660D03*
G01X3238500Y3680460D03*
G01X3441700Y3680460D03*
G01X3522049Y3526572D03*
G01X5994400Y3324860D03*
G01X6197600Y3451860D03*
G01X5766664Y2689860D03*
G01X723900Y4046274D03*
G01X723900Y3538220D03*
G01X1346200Y3498973D03*
G01X1346200Y4034585D03*
G01X939800Y3147060D03*
G01X1447800Y4036060D03*
G01X1447800Y3299460D03*
G01X1587500Y1305560D03*
G01X2869336Y3756660D03*
G01X2654300Y2607328D03*
G01X2527300Y4036060D03*
G01X5562600Y3756660D03*
G01X1320800Y2947214D03*
G01X1397000Y2947214D03*
G01X1930400Y2308860D03*
G54D39*
G01X3340100Y759460D03*
G54D38*
G01X2971800Y4214203D03*
G01X5397500Y1711960D03*
G01X5308600Y1775460D03*
G01X2869336Y3299460D03*
G01X495300Y5166360D03*
G01X685800Y5166360D03*
G01X876300Y5166360D03*
G01X1257300Y5166360D03*
G01X114300Y4975860D03*
G01X304800Y4975860D03*
G01X495300Y4975860D03*
G01X685800Y4975860D03*
G01X876300Y4975860D03*
G01X1066800Y4975860D03*
G01X1257300Y4975860D03*
G01X2095500Y5166360D03*
G01X2781300Y4975860D03*
G01X1638300Y4785360D03*
G01X114300Y4594860D03*
G01X1993900Y4594860D03*
G01X3787904Y4937916D03*
G01X4305300Y4937760D03*
G01X4686300Y4937760D03*
G01X6210300Y4937760D03*
G01X114300Y4404360D03*
G01X304800Y4213860D03*
G01X685800Y4213860D03*
G01X876300Y4213860D03*
G01X114300Y4023360D03*
G01X2971800Y4023360D03*
G01X114300Y3832860D03*
G01X2209800Y3832860D03*
G01X2400300Y3832860D03*
G01X2971800Y3832860D03*
G01X6591300Y3832860D03*
G01X114300Y3642360D03*
G01X1638300Y3642360D03*
G01X1828800Y3642360D03*
G01X2400300Y3642360D03*
G01X304800Y3451860D03*
G01X304800Y3261360D03*
G01X685800Y3261360D03*
G01X5199939Y2538096D03*
G01X6781800Y3261360D03*
G01X304800Y3070860D03*
G01X304800Y2880360D03*
G01X3162300Y2689860D03*
G01X304800Y2118360D03*
G01X2400300Y2118360D03*
G01X6781800Y2118360D03*
G01X2209800Y1927860D03*
G01X2400300Y1927860D03*
G01X2590800Y1927860D03*
G01X2781300Y1927860D03*
G01X2971800Y1927860D03*
G01X2400300Y1737360D03*
G01X2590800Y1737360D03*
G01X2781300Y1737360D03*
G01X2971800Y1737360D03*
G01X6781800Y1737360D03*
G01X114300Y1546860D03*
G01X2971800Y1546860D03*
G01X114300Y1356360D03*
G01X2971800Y1356360D03*
G01X114300Y1165860D03*
G01X304800Y1165860D03*
G01X584200Y1330960D03*
G01X2971800Y1165860D03*
G01X114300Y975360D03*
G01X2971800Y975360D03*
G01X114300Y784860D03*
G01X114300Y594360D03*
G01X304800Y594360D03*
G01X685800Y594360D03*
G01X2781300Y632460D03*
G01X6781800Y594360D03*
G01X114300Y403860D03*
G01X304800Y403860D03*
G01X495300Y403860D03*
G01X2590800Y403860D03*
G01X3162300Y403860D03*
G01X6210300Y403860D03*
G01X6591300Y403860D03*
G01X114300Y213360D03*
G01X304800Y213360D03*
G01X495300Y213360D03*
G01X4876800Y213360D03*
G01X2997200Y2334260D03*
G01X2590800Y2334260D03*
G01X3225800Y2334260D03*
G01X3378200Y911860D03*
G01X5766664Y2899484D03*
G01X5766664Y3121660D03*
G01X2057400Y2943860D03*
G01X2438400Y2943860D03*
G01X2438400Y2715260D03*
G01X2286000Y2715260D03*
G01X2286000Y2537460D03*
G01X2438400Y2537460D03*
G01X2286000Y3020060D03*
G01X2286000Y3121660D03*
G01X1346200Y3909060D03*
G01X939800Y2626360D03*
G01X939800Y1800860D03*
G01X1574800Y937260D03*
G01X4420286Y1883443D03*
G01X4953000Y4937760D03*
G01X5702300Y4937760D03*
G01X5956300Y4937760D03*
G01X2921000Y99060D03*
G01X3924300Y99060D03*
G01X1346200Y4594860D03*
G01X1447800Y4594860D03*
G01X1447800Y4493260D03*
G01X1346200Y4493260D03*
G01X1549400Y4493260D03*
G01X1689701Y641260D03*
G01X304800Y2232660D03*
G01X711200Y2232660D03*
G01X685800Y3147060D03*
G01X5918200Y3324860D03*
G01X6057900Y3756660D03*
G01X3492500Y3832860D03*
G01X5499766Y1549240D03*
G54D40*
G01X4425984Y535641D03*
G01X3790349Y1206164D03*
G01X4512324Y590867D03*
G01X3863041Y1124921D03*
G01X5420784Y939209D03*
G01X3553155Y434690D03*
G54D38*
G01X5285381Y977276D03*
G01X5109655Y975133D03*
G54D40*
G01X5931569Y776499D03*
G01X5672623Y842575D03*
G01X3436433Y543268D03*
G01X4111479Y1276176D03*
G01X4172419Y1209280D03*
G01X4189563Y1120084D03*
G01X5228783Y1837554D03*
G01X5228783Y1627064D03*
G01X5307856Y1650157D03*
G01X3365581Y3118951D03*
G01X3771024Y1337116D03*
G01X3837778Y1410334D03*
G01X3767729Y1603651D03*
G54D38*
G01X4535330Y970846D03*
G54D40*
G01X4635732Y1447159D03*
G01X4161314Y1337860D03*
G01X4104132Y1410172D03*
G01X4044128Y1485891D03*
G01X4994606Y2005769D03*
G01X4949746Y2075773D03*
G01X4995463Y2144350D03*
G54D38*
G01X4877333Y1787331D03*
G01X4659624Y1787331D03*
G54D40*
G01X3427141Y2388239D03*
G01X3136722Y2252515D03*
G54D38*
G01X3451476Y2144261D03*
G54D40*
G01X3365500Y1765300D03*
G01X3467100Y1371600D03*
G54D38*
G01X3835400Y1689100D03*
G01X3980130Y1689100D03*
G01X4826000Y1054100D03*
G01X6781800Y2667000D03*
G54D40*
G01X6121400Y2908300D03*
G01X6248400Y2908300D03*
G01X6756400Y2921000D03*
G54D39*
G01X1524000Y480060D03*
G54D37*
G01X6121400Y2641600D03*
G54D38*
G01X5334000Y152400D03*
G54D37*
G01X5842000Y152400D03*
G54D38*
G01X3403600Y5168900D03*
G54D39*
G01X3314700Y101460D03*
G01X3810000Y101600D03*
G04 Via End*

G04 Track Start*
G54D41*
G01X2997200Y3070860D02*
G01X3022600Y3070860D01*
G54D38*
G01X5766664Y3450778D02*
G01X5766664Y3431888D01*
G54D41*
G01X3111500Y3159760D02*
G01X3111500Y4292600D01*
G54D38*
G01X6229885Y3539678D02*
G01X5855564Y3539678D01*
G54D41*
G01X5917336Y3431888D02*
G01X6082088Y3431888D01*
G01X6159500Y3200400D02*
G01X6159500Y3416300D01*
G54D38*
G01X618503Y4127462D02*
G01X759498Y4127462D01*
G54D42*
G01X759498Y4127462D02*
G01X762000Y4124960D01*
G54D43*
G01X1283554Y3784559D02*
G01X1212065Y3856048D01*
G01X1283554Y3748999D02*
G01X1212065Y3677511D01*
G01X617296Y3731260D02*
G01X618503Y3732467D01*
G01X618503Y3832466D02*
G01X543560Y3832466D01*
G01X520700Y3809606D01*
G01X520700Y3754120D01*
G01X543560Y3731260D01*
G01X617296Y3731260D01*
G54D41*
G01X2057400Y3642360D02*
G01X2057400Y3655060D01*
G01X2006600Y3705860D01*
G01X1320800Y3705860D01*
G01X1295400Y3680460D01*
G01X1295400Y3616960D01*
G01X1270000Y3591560D01*
G01X1003300Y3591560D01*
G01X977900Y3616960D01*
G01X981587Y3498973D02*
G01X1067664Y3498973D01*
G01X876300Y3604260D02*
G01X981587Y3498973D01*
G01X787400Y3853255D02*
G01X787400Y3896360D01*
G01X807795Y3832860D02*
G01X787400Y3853255D01*
G01X947420Y3832860D02*
G01X807795Y3832860D01*
G01X977900Y3863340D02*
G01X947420Y3832860D01*
G01X977900Y3921760D02*
G01X977900Y3863340D01*
G01X990600Y3934460D02*
G01X977900Y3921760D01*
G01X1270000Y3934460D02*
G01X990600Y3934460D01*
G01X1308100Y3896360D02*
G01X1270000Y3934460D01*
G01X1308100Y3858260D02*
G01X1308100Y3896360D01*
G01X1333500Y3832860D02*
G01X1308100Y3858260D01*
G01X1067664Y4213123D02*
G01X1067664Y4391660D01*
G01X1067664Y4705096D01*
G01X1059993Y4712767D01*
G01X1803400Y1799996D02*
G01X2184400Y1799996D01*
G01X2044700Y2091411D02*
G01X2044700Y1800167D01*
G01X6195060Y3451860D02*
G01X6197600Y3451860D01*
G01X3022600Y4381500D02*
G01X2081524Y4381500D01*
G01X2018662Y4407538D02*
G01X1842138Y4584062D01*
G01X1816100Y4646924D02*
G01X1816100Y5230000D01*
G54D38*
G01X1803400Y1649324D02*
G01X1930400Y1649324D01*
G01X1930400Y1648460D01*
G01X2184400Y1649324D02*
G01X2057400Y1649324D01*
G54D41*
G01X1790700Y2308860D02*
G01X1790700Y2091411D01*
G01X1706651Y2947214D02*
G01X1574800Y2947214D01*
G01X2057400Y2791460D02*
G01X2044700Y2778760D01*
G01X2044700Y2627909D01*
G01X1059993Y4712767D02*
G01X210007Y4712767D01*
G01X6261100Y3187700D02*
G01X6400800Y3187700D01*
G01X1790700Y3444011D02*
G01X1790700Y3299460D01*
G01X1663700Y3444011D02*
G01X1663700Y3299460D01*
G01X5766664Y2577107D02*
G01X5766664Y2363412D01*
G01X5917336Y3218193D02*
G01X5917336Y3004497D01*
G01X5766664Y2577107D02*
G01X5766664Y2689860D01*
G01X5765800Y2689860D01*
G01X618503Y3567443D02*
G01X605670Y3580276D01*
G01X565144Y3580276D01*
G54D11*
G01X565144Y3580276D02*
G01X558825Y3580276D01*
G01X515584Y3623517D02*
G01X480326Y3623517D01*
G01X533878Y3605222D02*
G01X515584Y3623517D01*
G01X541528Y3597572D02*
G01X497622Y3597572D01*
G01X541528Y3597572D02*
G01X533878Y3605222D01*
G01X558825Y3580276D02*
G01X541528Y3597572D01*
G01X466688Y3628506D02*
G01X466688Y3628839D01*
G01X466688Y3628506D02*
G01X463030Y3632165D01*
G01X533878Y3605222D02*
G01X489972Y3605222D01*
G01X489639Y3605222D01*
G01X489972Y3605222D02*
G01X466688Y3628506D01*
G01X581228Y4061510D02*
G01X581228Y4055523D01*
G01X523685Y3997979D02*
G01X501621Y3997979D01*
G01X501621Y3998645D01*
G01X522541Y4019565D01*
G01X538174Y4019565D01*
G01X661131Y3583870D02*
G01X684636Y3583870D01*
G01X663644Y3569234D02*
G01X678427Y3569234D01*
G01X710211Y3537451D01*
G01X683564Y3552271D02*
G01X687297Y3548538D01*
G01X664678Y3548538D02*
G01X687297Y3548538D01*
G01X708880Y3526955D01*
G01X707248Y3561258D02*
G01X838202Y3561258D01*
G01X859539Y3539921D01*
G01X684636Y3583870D02*
G01X707248Y3561258D01*
G01X718933Y3549573D01*
G54D41*
G01X618503Y3932441D02*
G01X744454Y3932441D01*
G01X846599Y4034585D01*
G01X1067664Y4034585D01*
G54D38*
G01X723900Y4046274D02*
G01X619680Y4046274D01*
G54D11*
G01X619680Y4046274D02*
G01X618503Y4047452D01*
G54D38*
G01X1218336Y3498973D02*
G01X1346200Y3498973D01*
G01X1218336Y4034585D02*
G01X1346200Y4034585D01*
G01X1067664Y3147060D02*
G01X939800Y3147060D01*
G01X1727200Y3248660D02*
G01X1801647Y3174213D01*
G01X1799894Y3172460D01*
G01X1727200Y3172460D01*
G01X1727200Y3096260D01*
G01X1750694Y3096260D02*
G01X1801647Y3147213D01*
G01X1727200Y3096260D02*
G01X1750694Y3096260D01*
G01X1536700Y4018509D02*
G01X1519149Y4036060D01*
G01X1447800Y4036060D01*
G01X1917700Y2091411D02*
G01X1917700Y2296160D01*
G01X1930400Y2308860D01*
G54D41*
G01X1917700Y4106711D02*
G01X1917700Y4018509D01*
G01X1218336Y4213123D02*
G01X1811288Y4213123D01*
G54D38*
G01X1218336Y4391660D02*
G01X1673341Y4391660D01*
G54D41*
G01X1465094Y4712767D02*
G01X1059993Y4712767D01*
G01X1961349Y4358169D02*
G01X1706919Y4612600D01*
G01X3200400Y4645660D02*
G01X3352800Y4645660D01*
G01X3175000Y3000031D02*
G01X3175000Y4369513D01*
G01X2997200Y2943860D02*
G01X3118829Y2943860D01*
G01X2997200Y3197860D02*
G01X3020951Y3221611D01*
G01X3053080Y3299177D02*
G01X3053080Y4262923D01*
G01X1917700Y2627909D02*
G01X1917700Y2739227D01*
G01X1969933Y2791460D02*
G01X2057400Y2791460D01*
G01X2514600Y2791460D02*
G01X2514600Y2677160D01*
G01X2465349Y2627909D02*
G01X2171700Y2627909D01*
G01X2057400Y2791460D02*
G01X2272923Y2791460D01*
G01X2412304Y3096260D02*
G01X2463800Y3096260D01*
G01X2349500Y2868037D02*
G01X2349500Y3033456D01*
G01X2514600Y3147060D02*
G01X2514600Y3858260D01*
G01X1917700Y3444011D02*
G01X1917700Y3181533D01*
G01X2003836Y3095396D02*
G01X2184400Y3095396D01*
G54D44*
G01X2540000Y2167848D02*
G01X2540000Y2232660D01*
G01X2463800Y2308860D02*
G01X1930400Y2308860D01*
G54D41*
G01X5766664Y2790802D02*
G01X5766664Y2899484D01*
G01X5766664Y3004497D01*
G54D38*
G01X5766664Y3218193D02*
G01X5766664Y3121660D01*
G01X618503Y3487458D02*
G01X680682Y3487458D01*
G01X731520Y3307080D02*
G01X685800Y3261360D01*
G01X680682Y3487458D02*
G01X731520Y3436620D01*
G01X731520Y3307080D01*
G54D43*
G01X1061392Y3796638D02*
G01X1061392Y3856048D01*
G54D41*
G01X977900Y3616960D02*
G01X977900Y3650432D01*
G01X952500Y3675832D01*
G01X725988Y3675832D01*
G01X723900Y3677920D01*
G54D43*
G01X1017804Y3721099D02*
G01X1061392Y3677511D01*
G01X990361Y3732467D02*
G01X618503Y3732467D01*
G54D41*
G01X618503Y3632441D02*
G01X689946Y3632441D01*
G01X718127Y3604260D01*
G01X876300Y3604260D01*
G54D43*
G01X1032781Y3768027D02*
G01X1061392Y3796638D01*
G01X618503Y3782454D02*
G01X705726Y3782454D01*
G01X720154Y3768027D01*
G01X749957Y3768027D01*
G01X1032781Y3768027D01*
G01X618503Y3882454D02*
G01X722567Y3882454D01*
G01X749957Y3855063D01*
G01X749957Y3768027D01*
G01X2044700Y3444011D02*
G01X2044700Y3540760D01*
G01X2133600Y3629660D01*
G01X2171700Y3444011D02*
G01X2171700Y3717275D01*
G01X2104415Y3784559D01*
G01X1283554Y3784559D01*
G01X2133600Y3629660D02*
G01X2133600Y3705085D01*
G01X2089686Y3748999D01*
G01X1283554Y3748999D01*
G54D41*
G01X2235200Y3642360D02*
G01X2235200Y3721043D01*
G01X2123383Y3832860D01*
G01X1333500Y3832860D01*
G01X5917336Y3218193D02*
G01X5917336Y3323996D01*
G54D38*
G01X6273800Y3583593D02*
G01X6273800Y3539678D01*
G01X6229885Y3539678D02*
G01X6230553Y3539678D01*
G01X6273800Y3539678D01*
G01X6273800Y3496431D01*
G54D39*
G01X899361Y1416139D02*
G01X899361Y1141523D01*
G01X925399Y1078661D02*
G01X951996Y1052064D01*
G01X1524000Y480060D01*
G01X1525270Y481330D02*
G01X1703702Y302898D01*
G54D41*
G01X2997200Y3573511D02*
G01X2997200Y3624474D01*
G01X2654300Y3540760D02*
G01X2964449Y3540760D01*
G01X2965331Y3540760D01*
G01X2994004Y3540760D01*
G01X2997200Y3543956D02*
G01X2997200Y3508891D01*
G01X2997200Y3299460D01*
G54D11*
G01X523685Y3997979D02*
G01X581228Y4055523D01*
G54D41*
G01X3000543Y4315460D02*
G01X2064458Y4315460D01*
G01X3441700Y3680460D02*
G01X3397494Y3724666D01*
G01X3371456Y3787528D02*
G01X3371456Y4505007D01*
G01X3429000Y4569460D02*
G01X3429000Y3834124D01*
G01X3522049Y3667427D02*
G01X3522049Y3526572D01*
G01X3455038Y3771262D02*
G01X3496011Y3730289D01*
G01X3492500Y3832860D02*
G01X3492500Y4585976D01*
G01X3403592Y4748531D02*
G01X3403592Y4914989D01*
G01X3466462Y4648838D02*
G01X3429631Y4685669D01*
G01X3788749Y1843979D02*
G01X3788749Y1943100D01*
G01X3522049Y2120900D02*
G01X3522049Y3526572D01*
G01X3699849Y2032000D02*
G01X3610949Y2032000D01*
G01X3868749Y1843979D02*
G01X3868749Y1993900D01*
G01X3779849Y2082800D02*
G01X3670300Y2082800D01*
G01X3555362Y3769998D02*
G01X3492500Y3832860D01*
G01X3581400Y2171700D02*
G01X3581400Y3707136D01*
G01X3948749Y1843979D02*
G01X3948749Y2044700D01*
G01X3859849Y2133600D02*
G01X3721100Y2133600D01*
G01X3632200Y2222500D02*
G01X3632200Y5219593D01*
G01X4028749Y1843979D02*
G01X4028749Y2095500D01*
G01X3771900Y4800600D02*
G01X3848100Y4800600D01*
G01X3911592Y4864092D02*
G01X3911592Y4914989D01*
G01X3939849Y2184400D02*
G01X3771900Y2184400D01*
G01X3683000Y2273300D02*
G01X3683000Y4711700D01*
G01X4108748Y1843979D02*
G01X4108748Y2146300D01*
G01X4165592Y4838700D02*
G01X4165592Y5244986D01*
G01X4019848Y2235200D02*
G01X3822700Y2235200D01*
G01X3733800Y2324100D02*
G01X3733800Y4660900D01*
G01X3822700Y4749800D02*
G01X4076692Y4749800D01*
G01X4188748Y1843979D02*
G01X4188748Y2197100D01*
G01X4572000Y4787900D02*
G01X4572000Y5227460D01*
G01X4099848Y2286000D02*
G01X3873500Y2286000D01*
G01X3784600Y2374900D02*
G01X3784600Y4610100D01*
G01X3873500Y4699000D02*
G01X4483100Y4699000D01*
G01X4268748Y1843979D02*
G01X4268748Y2247900D01*
G01X4826000Y4737100D02*
G01X4826000Y4927460D01*
G01X4179848Y2336800D02*
G01X3924300Y2336800D01*
G01X3835400Y2425700D02*
G01X3835400Y4559300D01*
G01X3924300Y4648200D02*
G01X4737100Y4648200D01*
G01X4348748Y1843979D02*
G01X4348748Y2298700D01*
G01X5080000Y4686300D02*
G01X5080000Y5227460D01*
G01X4259848Y2387600D02*
G01X3975100Y2387600D01*
G01X3886200Y2476500D02*
G01X3886200Y4508500D01*
G01X3975100Y4597400D02*
G01X4991100Y4597400D01*
G54D38*
G01X4504655Y1366991D02*
G01X4442116Y1366991D01*
G01X4436079Y1527002D02*
G01X4504655Y1527002D01*
G01X4353216Y1455891D02*
G01X4353216Y1608436D01*
G01X4353752Y1656321D02*
G01X4353752Y1608793D01*
G01X4505629Y1365829D02*
G01X4603598Y1365829D01*
G01X4692498Y1276929D02*
G01X4692498Y939800D01*
G01X4832502Y939800D02*
G01X4832502Y1047598D01*
G54D11*
G01X4934102Y1155700D02*
G01X4948463Y1170060D01*
G01X4974501Y1232922D02*
G01X4974501Y1312393D01*
G01X4882733Y1404161D01*
G01X4838700Y1422400D02*
G01X4762500Y1422400D01*
G01X4699000Y1485900D02*
G01X4699000Y1516929D01*
G01X4610100Y1605829D02*
G01X4505629Y1605829D01*
G01X4505629Y1685828D02*
G01X4784669Y1685828D01*
G01X4804499Y1665999D02*
G01X4804499Y1532407D01*
G54D38*
G01X4826000Y1123798D02*
G01X4826000Y1054100D01*
G54D44*
G01X5420784Y939209D02*
G01X5420784Y1546860D01*
G01X5509684Y1635760D02*
G01X5905500Y1635760D01*
G01X6159500Y1635760D01*
G01X3556000Y251460D02*
G01X3556000Y558800D01*
G54D38*
G01X6527162Y2259962D02*
G01X6413500Y2146300D01*
G01X6553200Y2956552D02*
G01X6553200Y2322824D01*
G01X6758704Y3045452D02*
G01X6642100Y3045452D01*
G01X6413500Y2146300D02*
G01X6413500Y1889760D01*
G54D41*
G01X6261948Y841861D02*
G01X4121017Y841861D01*
G01X6009074Y778285D02*
G01X4034939Y778285D01*
G54D38*
G01X4804499Y1312393D02*
G01X4804499Y1166101D01*
G54D41*
G01X4995799Y530535D02*
G01X4995191Y529927D01*
G01X2655164Y4208907D02*
G01X2655164Y4024076D01*
G54D38*
G01X2102588Y4213860D02*
G01X2438400Y4213860D01*
G01X2527300Y4124960D02*
G01X2527300Y4036060D01*
G54D41*
G01X2590800Y3934460D02*
G01X2716936Y3934460D01*
G01X2805836Y4023360D02*
G01X2805836Y4024076D01*
G54D38*
G01X2810447Y4214203D02*
G01X2971800Y4214203D01*
G54D41*
G01X2655164Y3843770D02*
G01X2655164Y3659327D01*
G01X2966271Y3655403D02*
G01X2810447Y3655403D01*
G54D38*
G01X2805836Y3843770D02*
G01X2805836Y3820160D01*
G01X2805836Y3185197D02*
G01X2805836Y3235960D01*
G54D41*
G01X2650554Y3426117D02*
G01X2650554Y3189807D01*
G01X2565400Y3070860D02*
G01X2565400Y3451860D01*
G01X2655164Y3070860D02*
G01X2655164Y2953412D01*
G01X2844800Y3426803D02*
G01X2810447Y3426803D01*
G01X2933700Y3135224D02*
G01X2933700Y3337903D01*
G01X2805836Y3007360D02*
G01X2805836Y2953412D01*
G01X3946039Y867185D02*
G01X3946039Y949725D01*
G01X4032117Y930761D02*
G01X4032117Y936153D01*
G01X3377465Y543268D02*
G01X3436433Y543268D01*
G01X4111479Y1276176D02*
G01X4111479Y980442D01*
G54D38*
G01X5564169Y3753758D02*
G01X5564169Y2010389D01*
G01X5475269Y1921489D02*
G01X4619178Y1921489D01*
G01X4556187Y1895580D02*
G01X4379790Y1719183D01*
G54D44*
G01X2655164Y2489844D02*
G01X2636793Y2489844D01*
G01X1790700Y2527300D02*
G01X1790700Y2627909D01*
G01X2512596Y2438400D02*
G01X1879600Y2438400D01*
G54D41*
G01X5228783Y1837554D02*
G01X5228783Y1627064D01*
G01X5307856Y1650157D02*
G01X5307856Y1773482D01*
G54D44*
G01X1790700Y2627909D02*
G01X1790700Y2804447D01*
G01X1816738Y2867309D02*
G01X1896643Y2947214D01*
G54D38*
G01X2655164Y2721628D02*
G01X2655164Y2489844D01*
G54D41*
G01X5395475Y1714877D02*
G01X5599095Y1714877D01*
G01X5687995Y1803777D02*
G01X5687995Y3782912D01*
G01X5776895Y3871812D02*
G01X6264498Y3871812D01*
G54D38*
G01X2805836Y2721628D02*
G01X2997200Y2721628D01*
G54D41*
G01X3124200Y2486660D02*
G01X2813524Y2486660D01*
G01X3123336Y2258060D02*
G01X2805836Y2258060D01*
G54D38*
G01X4974501Y1532407D02*
G01X4934102Y1689100D01*
G01X4934102Y1730562D01*
G54D41*
G01X6096000Y5227460D02*
G01X6096000Y4038600D01*
G01X5549900Y1775460D02*
G01X5308600Y1775460D01*
G01X6007100Y3949700D02*
G01X5727700Y3949700D01*
G01X5638800Y3860800D02*
G01X5638800Y1864360D01*
G01X4994606Y2005769D02*
G01X5397500Y2005769D01*
G01X5575300Y4010537D02*
G01X5752868Y4010537D01*
G01X5486400Y2094669D02*
G01X5486400Y3921637D01*
G01X4995463Y2144350D02*
G01X5295900Y2144350D01*
G01X5384800Y2233250D02*
G01X5384800Y4876660D01*
G01X4949746Y2075773D02*
G01X5346700Y2075773D01*
G01X5435600Y2164673D02*
G01X5435600Y3987800D01*
G01X5588000Y4140200D02*
G01X5588000Y5227460D01*
G01X3863041Y1124921D02*
G01X3636995Y1124921D01*
G01X3790349Y1206164D02*
G01X3642880Y1206164D01*
G01X3948893Y970304D02*
G01X3948893Y1245714D01*
G01X3859993Y1334614D02*
G01X3768881Y1334614D01*
G01X3767729Y1603651D02*
G01X3647721Y1603651D01*
G01X4505723Y1447159D02*
G01X4635732Y1447159D01*
G01X4173065Y1209086D02*
G01X4179886Y1209086D01*
G01X4268786Y1120186D02*
G01X4268786Y957641D01*
G01X4189563Y1120084D02*
G01X4189563Y992060D01*
G01X4345577Y965856D02*
G01X4345577Y1101901D01*
G01X4319539Y1164763D02*
G01X4319539Y1179636D01*
G01X4161314Y1337860D01*
G01X4510033Y1202062D02*
G01X4486219Y1202062D01*
G01X4423358Y1228100D02*
G01X4191605Y1459853D01*
G01X4128743Y1485891D02*
G01X4051588Y1485891D01*
G01X4504608Y1286136D02*
G01X4537145Y1286136D01*
G01X4537145Y966113D02*
G01X4536038Y966113D01*
G01X4626045Y1197236D02*
G01X4626045Y1055013D01*
G01X4503535Y1130047D02*
G01X4478235Y1130047D01*
G01X4243176Y1350752D02*
G01X4205118Y1388811D01*
G01X4153802Y1410066D02*
G01X4104936Y1410066D01*
G01X4415373Y1156085D02*
G01X4251322Y1320136D01*
G01X3836964Y1409749D02*
G01X3938077Y1409749D01*
G01X4026977Y1320849D02*
G01X4026977Y1006864D01*
G01X3282556Y4593907D02*
G01X2984609Y4593907D01*
G01X3234889Y2933705D02*
G01X3233758Y3675681D01*
G01X3302000Y3604260D02*
G01X3339542Y3566718D01*
G01X3365581Y3503856D02*
G01X3365581Y3118951D01*
G54D44*
G01X3022600Y2105660D02*
G01X2602188Y2105660D01*
G54D41*
G01X3136722Y2252515D02*
G01X3162300Y2252515D01*
G01X3340100Y1445829D02*
G01X3631869Y1445829D01*
G01X3251200Y2163615D02*
G01X3251200Y1534729D01*
G01X3631869Y1685828D02*
G01X3390900Y1685828D01*
G01X3213100Y2842260D02*
G01X3143444Y2842260D01*
G01X3302000Y1774728D02*
G01X3302000Y2753360D01*
G01X3143444Y2842260D02*
G01X2565400Y2842260D01*
G01X3302000Y3464560D02*
G01X3302000Y2918821D01*
G01X3327400Y2857500D02*
G01X3339462Y2845438D01*
G01X3365500Y2782576D02*
G01X3365500Y1765300D01*
G01X3467100Y1371600D02*
G01X3626098Y1371600D01*
G01X3427141Y2388239D02*
G01X3427141Y3571835D01*
G01X3266568Y3806056D02*
G01X3266568Y4430081D01*
G01X3401103Y3634697D02*
G01X3292606Y3743194D01*
G01X5994400Y2867866D02*
G01X5994400Y3324860D01*
G01X6400800Y2363412D02*
G01X5917336Y2363412D01*
G01X6489700Y3098800D02*
G01X6489700Y2452312D01*
G01X5917336Y2577107D02*
G01X5917336Y2527300D01*
G01X6006236Y2438400D02*
G01X6350000Y2438400D01*
G01X6350000Y3136900D02*
G01X6223000Y3136900D01*
G01X6426200Y2514600D02*
G01X6426200Y3060700D01*
G54D38*
G01X6273800Y3496431D02*
G01X6273800Y3340100D01*
G01X6594863Y3162300D02*
G01X6594863Y3031864D01*
G01X6362700Y3251200D02*
G01X6505963Y3251200D01*
G54D41*
G01X6121400Y2908300D02*
G01X6121400Y2791452D01*
G01X6220706Y2791452D01*
G01X6248400Y2908300D02*
G01X6248400Y3045452D01*
G01X6220706Y3045452D01*
G01X6756400Y2921000D02*
G01X6756400Y2793756D01*
G54D38*
G01X6273800Y3583593D02*
G01X6273800Y3667760D01*
G01X6184900Y3756660D02*
G01X6057900Y3756660D01*
G54D39*
G01X1766564Y276860D02*
G01X1948993Y276860D01*
G01X289362Y1416139D02*
G01X612662Y1092838D01*
G01X675524Y1066800D02*
G01X902976Y1066800D01*
G54D41*
G01X6121400Y2641600D02*
G01X6121400Y2537452D01*
G01X6220706Y2537452D01*
G01X5841768Y4099437D02*
G01X5841768Y4927460D01*
G01X6353398Y3960712D02*
G01X6353398Y4924063D01*
G01X6350000Y4927460D01*
G01X5333992Y416446D02*
G01X5337430Y419883D01*
G01X5337430Y500666D01*
G01X5079992Y86449D02*
G01X5084699Y91156D01*
G01X5084699Y441635D01*
G01X6095992Y86449D02*
G01X6097974Y88430D01*
G01X6097974Y689385D01*
G01X6349992Y416446D02*
G01X6350848Y417301D01*
G01X6350848Y752961D01*
G01X4995191Y529927D02*
G01X4431699Y529927D01*
G01X4425984Y535641D01*
G01X5248530Y589566D02*
G01X5247229Y590867D01*
G01X4512324Y590867D01*
G54D39*
G01X3340100Y759460D02*
G01X3712216Y759460D01*
G01X3775078Y733422D02*
G01X4164962Y343538D01*
G01X4191000Y280676D02*
G01X4191000Y190360D01*
G01X4279900Y101460D02*
G01X4572000Y101460D01*
G54D41*
G01X5841992Y416446D02*
G01X5841992Y635000D01*
G01X5753092Y723900D02*
G01X4024624Y723900D01*
G01X3868749Y879775D02*
G01X3868749Y967679D01*
G01X3961762Y749938D02*
G01X3894787Y816913D01*
G01X5587992Y86449D02*
G01X5587992Y571500D01*
G01X3788749Y883575D02*
G01X3788749Y967679D01*
G01X5499092Y660400D02*
G01X4011924Y660400D01*
G01X3949062Y686438D02*
G01X3814787Y820713D01*
G01X2895709Y4682807D02*
G01X2895709Y4914989D01*
G01X3149600Y5244978D02*
G01X3149600Y4696460D01*
G01X3103825Y4440688D02*
G01X2238235Y4440688D01*
G01X2070100Y4608824D02*
G01X2070100Y4930000D01*
G01X2175373Y4466727D02*
G01X2096138Y4545962D01*
G54D39*
G01X3048000Y101460D02*
G01X3048000Y531741D01*
G01X3021962Y594603D02*
G01X2578738Y1037827D01*
G01X2552700Y1100689D02*
G01X2552700Y1178865D01*
G54D44*
G01X3467100Y647700D02*
G01X3200400Y647700D01*
G01X3111500Y736600D02*
G01X3111500Y2016760D01*
G54D39*
G01X3048000Y101460D02*
G01X3314700Y101460D01*
G01X3810000Y101600D02*
G01X3810000Y401460D01*
G54D41*
G01X3302000Y401460D02*
G01X3288565Y414895D01*
G01X3288565Y454368D01*
G01X2324100Y4607881D02*
G01X2324100Y5230000D01*
G01X3177668Y4518981D02*
G01X2413000Y4518981D01*
G01X3022600Y3070860D02*
G03X3111500Y3159760I0J88900D01*
G01X3111500Y4292600D02*
G03X3022600Y4381500I-88900J0D01*
G54D38*
G01X5855564Y3539678D02*
G03X5766664Y3450778I0J-88900D01*
G54D41*
G01X6082088Y3431888D02*
G03X6082952Y3432752I0J864D01*
G01X2081524Y4381500D02*
G02X2018662Y4407538I0J88900D01*
G01X1842138Y4584062D02*
G02X1816100Y4646924I62862J62862D01*
G01X6223000Y3136900D02*
G02X6159500Y3200400I0J63500D01*
G01X6159500Y3416300D02*
G02X6195060Y3451860I35560J0D01*
G01X6235700Y3213100D02*
G03X6261100Y3187700I25400J0D01*
G54D39*
G01X899361Y1141523D02*
G03X925399Y1078661I88900J0D01*
G01X902976Y1066800D02*
G02X951996Y1052064I-0J-88901D01*
G54D41*
G01X1811288Y4213123D02*
G02X1917700Y4106711I0J-106412D01*
G54D38*
G01X1673341Y4391660D02*
G02X1895366Y4299694I0J-313991D01*
G03X2102588Y4213860I207222J207222D01*
G54D41*
G01X3053080Y4262923D02*
G03X3000543Y4315460I-52537J0D01*
G01X2064458Y4315460D02*
G02X1961349Y4358169I0J145818D01*
G01X1706919Y4612600D02*
G03X1465094Y4712767I-241825J-241825D01*
G01X3175000Y4369513D02*
G03X3103825Y4440688I-71175J0D01*
G01X3149600Y4696460D02*
G03X3200400Y4645660I50800J0D01*
G01X3352800Y4645660D02*
G02X3429000Y4569460I0J-76200D01*
G01X3118829Y2943860D02*
G03X3175000Y3000031I0J56171D01*
G01X3020951Y3221611D02*
G03X3053080Y3299177I-77565J77566D01*
G01X1917700Y2739227D02*
G02X1969933Y2791460I52233J0D01*
G01X2514600Y3858260D02*
G02X2590800Y3934460I76200J0D01*
G01X2514600Y2677160D02*
G02X2465349Y2627909I-49251J0D01*
G01X2565400Y2842260D02*
G03X2514600Y2791460I0J-50800D01*
G01X2272923Y2791460D02*
G03X2349500Y2868037I0J76577D01*
G01X2463800Y3096260D02*
G03X2514600Y3147060I0J50800D01*
G01X2349500Y3033456D02*
G02X2412304Y3096260I62804J0D01*
G01X1917700Y3181533D02*
G03X2003836Y3095396I86136J0D01*
G54D44*
G01X2540000Y2232660D02*
G03X2463800Y2308860I-76200J0D01*
G01X2602188Y2105660D02*
G02X2540000Y2167848I0J62188D01*
G54D43*
G01X990361Y3732467D02*
G02X1017804Y3721099I0J-38811D01*
G54D41*
G01X3143444Y2842260D02*
G03X3234889Y2933705I0J91445D01*
G54D38*
G01X6229885Y3539678D02*
G03X6273800Y3583593I0J43915D01*
G01X6273800Y3496431D02*
G03X6230553Y3539678I-43247J0D01*
G54D41*
G01X2997200Y3624474D02*
G03X2966271Y3655403I-30929J0D01*
G01X2994004Y3540760D02*
G03X2997200Y3543956I0J3196D01*
G01X2964449Y3540760D02*
G03X2997200Y3573511I0J32751D01*
G01X2965331Y3540760D02*
G02X2997200Y3508891I0J-31869D01*
G01X3397494Y3724666D02*
G02X3371456Y3787528I62862J62862D01*
G01X3429000Y3834124D02*
G03X3455038Y3771262I88900J0D01*
G01X3496011Y3730289D02*
G02X3522049Y3667427I-62862J-62862D01*
G01X3492500Y4585976D02*
G03X3466462Y4648838I-88900J0D01*
G01X3429631Y4685669D02*
G02X3403592Y4748531I62862J62862D01*
G01X3788749Y1943100D02*
G03X3699849Y2032000I-88900J0D01*
G01X3610949Y2032000D02*
G02X3522049Y2120900I0J88900D01*
G01X3868749Y1993900D02*
G03X3779849Y2082800I-88900J0D01*
G01X3670300Y2082800D02*
G02X3581400Y2171700I0J88900D01*
G01X3581400Y3707136D02*
G03X3555362Y3769998I-88900J0D01*
G01X3948749Y2044700D02*
G03X3859849Y2133600I-88900J0D01*
G01X3721100Y2133600D02*
G02X3632200Y2222500I0J88900D01*
G01X3632200Y5219593D02*
G02X3657592Y5244986I25392J0D01*
G01X4028749Y2095500D02*
G03X3939849Y2184400I-88900J0D01*
G01X3771900Y2184400D02*
G02X3683000Y2273300I0J88900D01*
G01X3683000Y4711700D02*
G02X3771900Y4800600I88900J0D01*
G01X3848100Y4800600D02*
G03X3911592Y4864092I0J63492D01*
G01X4108748Y2146300D02*
G03X4019848Y2235200I-88900J0D01*
G01X3822700Y2235200D02*
G02X3733800Y2324100I0J88900D01*
G01X3733800Y4660900D02*
G02X3822700Y4749800I88900J0D01*
G01X4076692Y4749800D02*
G03X4165592Y4838700I0J88900D01*
G01X4188748Y2197100D02*
G03X4099848Y2286000I-88900J0D01*
G01X3873500Y2286000D02*
G02X3784600Y2374900I0J88900D01*
G01X3784600Y4610100D02*
G02X3873500Y4699000I88900J0D01*
G01X4483100Y4699000D02*
G03X4572000Y4787900I0J88900D01*
G01X4268748Y2247900D02*
G03X4179848Y2336800I-88900J0D01*
G01X3924300Y2336800D02*
G02X3835400Y2425700I0J88900D01*
G01X3835400Y4559300D02*
G02X3924300Y4648200I88900J0D01*
G01X4737100Y4648200D02*
G03X4826000Y4737100I0J88900D01*
G01X4348748Y2298700D02*
G03X4259848Y2387600I-88900J0D01*
G01X3975100Y2387600D02*
G02X3886200Y2476500I0J88900D01*
G01X3886200Y4508500D02*
G02X3975100Y4597400I88900J0D01*
G01X4991100Y4597400D02*
G03X5080000Y4686300I0J88900D01*
G54D38*
G01X4442116Y1366991D02*
G02X4353216Y1455891I0J88900D01*
G01X4354645Y1608436D02*
G03X4436079Y1527002I81434J0D01*
G01X4379790Y1719183D02*
G03X4353752Y1656321I62862J-62862D01*
G01X4603598Y1365829D02*
G02X4692498Y1276929I0J-88900D01*
G01X4832502Y1047598D02*
G03X4826000Y1054100I-6502J0D01*
G54D11*
G01X4948463Y1170060D02*
G03X4974501Y1232922I-62862J62862D01*
G01X4882733Y1404161D02*
G03X4838700Y1422400I-44033J-44033D01*
G01X4762500Y1422400D02*
G02X4699000Y1485900I0J63500D01*
G01X4699000Y1516929D02*
G03X4610100Y1605829I-88900J0D01*
G01X4784669Y1685828D02*
G02X4787900Y1682598I0J-3231D01*
G02X4804499Y1665999I0J-16599D01*
G54D38*
G01X4794098Y1155700D02*
G02X4826000Y1123798I0J-31902D01*
G54D44*
G01X5420784Y1546860D02*
G02X5509684Y1635760I88900J0D01*
G54D38*
G01X6553200Y2322824D02*
G02X6527162Y2259962I-88900J0D01*
G01X6642100Y3045452D02*
G03X6594863Y3031864I0J-88900D01*
G03X6553200Y2956552I47237J-75312D01*
G01X4804499Y1166101D02*
G02X4794098Y1155700I-10401J0D01*
G54D41*
G01X5084699Y441635D02*
G03X4995799Y530535I-88900J0D01*
G01X3636995Y1124921D02*
G01X3635090Y1126826D01*
G01X5337430Y500666D02*
G03X5248530Y589566I-88900J0D01*
G01X2650554Y4213517D02*
G02X2655164Y4208907I0J-4610D01*
G54D38*
G01X2438400Y4213860D02*
G02X2527300Y4124960I0J-88900D01*
G54D41*
G01X2716936Y3934460D02*
G03X2805836Y4023360I0J88900D01*
G01X2655164Y3659327D02*
G02X2650554Y3654717I-4610J0D01*
G54D38*
G01X2805836Y3820160D02*
G03X2869336Y3756660I63500J0D01*
G01X2805836Y3235960D02*
G02X2869336Y3299460I63500J0D01*
G54D41*
G01X2650554Y3189807D02*
G03X2655164Y3185197I4610J0D01*
G01X2565400Y3451860D02*
G02X2654300Y3540760I88900J0D01*
G01X2869336Y3070860D02*
G03X2933700Y3135224I0J64364D01*
G01X2933700Y3337903D02*
G03X2844800Y3426803I-88900J0D01*
G01X2869336Y3070860D02*
G03X2805836Y3007360I0J-63500D01*
G01X6097974Y689385D02*
G03X6009074Y778285I-88900J0D01*
G01X4034939Y778285D02*
G02X3946039Y867185I0J88900D01*
G01X6350848Y752961D02*
G03X6261948Y841861I-88900J0D01*
G01X4121017Y841861D02*
G02X4032117Y930761I0J88900D01*
G01X3288565Y454368D02*
G02X3377465Y543268I88900J0D01*
G01X4111479Y980442D02*
G02X4108265Y977227I-3214J0D01*
G54D38*
G01X5564169Y2010389D02*
G02X5475269Y1921489I-88900J0D01*
G01X4619178Y1921489D02*
G03X4556317Y1895450I0J-88900D01*
G54D44*
G01X2636793Y2489844D02*
G03X2574694Y2464122I0J-87820D01*
G02X2512596Y2438400I-62099J62099D01*
G01X1879600Y2438400D02*
G02X1790700Y2527300I0J88900D01*
G01X1790700Y2804447D02*
G02X1816738Y2867309I88900J0D01*
G54D41*
G01X5599095Y1714877D02*
G03X5687995Y1803777I0J88900D01*
G01X5687995Y3782912D02*
G02X5776895Y3871812I88900J0D01*
G01X6264498Y3871812D02*
G03X6353398Y3960712I0J88900D01*
G01X2813524Y2486660D02*
G02X2805836Y2489844I0J10871D01*
G01X3136722Y2252515D02*
G03X3123336Y2258060I-13386J-13386D01*
G01X5752868Y4010537D02*
G03X5841768Y4099437I0J88900D01*
G54D38*
G01X4934102Y1730562D02*
G03X4877333Y1787331I-56770J0D01*
G54D41*
G01X6096000Y4038600D02*
G02X6007100Y3949700I-88900J0D01*
G01X5727700Y3949700D02*
G03X5638800Y3860800I0J-88900D01*
G01X5638800Y1864360D02*
G02X5549900Y1775460I-88900J0D01*
G01X5397500Y2005769D02*
G03X5486400Y2094669I0J88900D01*
G01X5486400Y3921637D02*
G02X5575300Y4010537I88900J0D01*
G01X5295900Y2144350D02*
G03X5384800Y2233250I0J88900D01*
G01X5384800Y4876660D02*
G03X5334000Y4927460I-50800J0D01*
G01X5346700Y2075773D02*
G03X5435600Y2164673I0J88900D01*
G01X5435600Y3987800D02*
G02X5524500Y4076700I88900J0D01*
G03X5588000Y4140200I0J63500D01*
G01X3948893Y1245714D02*
G03X3859993Y1334614I-88900J0D01*
G01X3647721Y1603651D02*
G01X3646292Y1605080D01*
G01X4179886Y1209086D02*
G02X4268786Y1120186I0J-88900D01*
G01X4345577Y1101901D02*
G03X4319539Y1164763I-88900J-0D01*
G01X4486219Y1202062D02*
G02X4423358Y1228100I0J88900D01*
G01X4191605Y1459853D02*
G03X4128743Y1485891I-62862J-62862D01*
G01X4537145Y1286136D02*
G02X4626045Y1197236I0J-88900D01*
G01X4626045Y1055013D02*
G02X4537145Y966113I-88900J0D01*
G01X4478235Y1130047D02*
G02X4415373Y1156085I0J88900D01*
G01X4247803Y1328632D02*
G03X4243176Y1350752I-55186J0D01*
G01X4205118Y1388811D02*
G03X4153802Y1410066I-51315J-51315D01*
G01X4251322Y1320136D02*
G02X4247803Y1328632I8496J8495D01*
G01X3938077Y1409749D02*
G02X4026977Y1320849I0J-88900D01*
G01X3266568Y4430081D02*
G03X3177668Y4518981I-88900J0D01*
G01X2984609Y4593907D02*
G02X2895709Y4682807I0J88900D01*
G01X3371456Y4505007D02*
G03X3282556Y4593907I-88900J0D01*
G01X3233758Y3675681D02*
G02X3237432Y3679355I3674J0D01*
G01X3339542Y3566718D02*
G02X3365581Y3503856I-62862J-62862D01*
G54D44*
G01X3556000Y558800D02*
G03X3467100Y647700I-88900J0D01*
G01X3111500Y2016760D02*
G03X3022600Y2105660I-88900J0D01*
G54D41*
G01X3162300Y2252515D02*
G02X3251200Y2163615I0J-88900D01*
G01X3251200Y1534729D02*
G03X3340100Y1445829I88900J0D01*
G01X3390900Y1685828D02*
G02X3302000Y1774728I0J88900D01*
G01X3302000Y2753360D02*
G03X3213100Y2842260I-88900J0D01*
G01X3302000Y2918821D02*
G03X3327400Y2857500I86721J0D01*
G01X3339462Y2845438D02*
G02X3365500Y2782576I-62862J-62862D01*
G01X3626098Y1371600D02*
G02X3631869Y1365829I0J-5771D01*
G01X3292606Y3743194D02*
G02X3266568Y3806056I62862J62862D01*
G01X3427141Y3571835D02*
G03X3401103Y3634697I-88900J-0D01*
G01X5917336Y2790802D02*
G03X5994400Y2867866I0J77064D01*
G01X6489700Y2452312D02*
G02X6400800Y2363412I-88900J0D01*
G01X6400800Y3187700D02*
G02X6489700Y3098800I0J-88900D01*
G01X5917336Y2527300D02*
G03X6006236Y2438400I88900J0D01*
G01X6350000Y2438400D02*
G03X6426200Y2514600I0J76200D01*
G01X6426200Y3060700D02*
G03X6350000Y3136900I-76200J0D01*
G54D38*
G01X6273800Y3340100D02*
G03X6362700Y3251200I88900J0D01*
G01X6505963Y3251200D02*
G02X6594863Y3162300I0J-88900D01*
G54D41*
G01X6756400Y2793756D02*
G01X6758704Y2791452D01*
G54D38*
G01X6273800Y3667760D02*
G03X6184900Y3756660I-88900J0D01*
G54D39*
G01X1703702Y302898D02*
G03X1766564Y276860I62862J62862D01*
G01X612662Y1092838D02*
G03X675524Y1066800I62862J62862D01*
G01X3712216Y759460D02*
G02X3775078Y733422I0J-88900D01*
G01X4164962Y343538D02*
G02X4191000Y280676I-62862J-62862D01*
G01X4191000Y190360D02*
G03X4279900Y101460I88900J0D01*
G54D41*
G01X5841992Y635000D02*
G03X5753092Y723900I-88900J0D01*
G01X4024624Y723900D02*
G02X3961762Y749938I0J88900D01*
G01X3894787Y816913D02*
G02X3868749Y879775I62862J62862D01*
G01X5587992Y571500D02*
G03X5499092Y660400I-88900J0D01*
G01X4011924Y660400D02*
G02X3949062Y686438I0J88900D01*
G01X3814787Y820713D02*
G02X3788749Y883575I62862J62862D01*
G01X2238235Y4440688D02*
G02X2175373Y4466727I0J88900D01*
G01X2096138Y4545962D02*
G02X2070100Y4608824I62862J62862D01*
G54D39*
G01X3048000Y531741D02*
G03X3021962Y594603I-88900J0D01*
G01X2578738Y1037827D02*
G02X2552700Y1100689I62862J62862D01*
G54D44*
G01X3200400Y647700D02*
G02X3111500Y736600I0J88900D01*
G54D41*
G01X2413000Y4518981D02*
G02X2324100Y4607881I0J88900D01*
G04 Track End*

M02*

