G04 Layer: BottomLayer*
G04 EasyEDA Pro v3.2.149, 2026-09-18 17:02:57*
G04 Gerber Generator version 0.3*
G04 Scale: 100 percent, Rotated: No, Reflected: No*
G04 Dimensions in millimeters*
G04 Leading zeros omitted, absolute positions, 4 integers and 5 decimals*
G04 Generated by one-click*
G04 Object Configs: Pad,Via,Track,Text,Image,Dimension,BoardOutline,BoardCutout,CopperFilled,SolidRegion,FPCStiffener,Line,PlaneZone,ComponentProperty,ComponentSilkscreen,TearDrop*
G04 Layer Configs: 1,2,3,4,5,6,7,8,9,10,11,13,14,56*
G04 Copper Areas: 38*
%FSLAX45Y45*%
%MOMM*%
%ADD10C,0.2032*%
%ADD11C,0.254*%
%ADD12O,2.0X1.1*%
%ADD13O,1.8X1.2*%
%ADD14R,1.7X1.7*%
%ADD15C,1.7*%
%ADD16C,0.6096*%
%ADD17C,0.508*%
%ADD18C,1.0287*%
%ADD19C,1.016*%
%ADD20C,0.61*%
%ADD21C,0.3048*%
%ADD22C,0.762*%
G75*


G04 Copper Start*
G36*
G01X35814Y3431047D02*
G01X35814Y3667415D01*
G01X573786Y3667415D01*
G01X574744Y3656628D01*
G01X577588Y3646179D01*
G01X583552Y3623183D01*
G01X592185Y3601051D01*
G01X603366Y3580090D01*
G01X616940Y3560593D01*
G01X632718Y3542832D01*
G01X680615Y3494935D01*
G01X691332Y3486389D01*
G01X703682Y3480441D01*
G01X717046Y3477391D01*
G01X730754Y3477391D01*
G01X744118Y3480441D01*
G01X756468Y3486389D01*
G01X767185Y3494935D01*
G01X775731Y3505652D01*
G01X781679Y3518002D01*
G01X784729Y3531366D01*
G01X784729Y3545074D01*
G01X781679Y3558438D01*
G01X775731Y3570788D01*
G01X767185Y3581505D01*
G01X719288Y3629402D01*
G01X709490Y3641340D01*
G01X702211Y3654960D01*
G01X697728Y3669738D01*
G01X696214Y3685107D01*
G01X696214Y3887937D01*
G01X697524Y3904585D01*
G01X701423Y3920823D01*
G01X707813Y3936252D01*
G01X716539Y3950490D01*
G01X727384Y3963189D01*
G01X767185Y4002989D01*
G01X775731Y4013706D01*
G01X781679Y4026056D01*
G01X784729Y4039420D01*
G01X784729Y4053128D01*
G01X781679Y4066492D01*
G01X775731Y4078842D01*
G01X767185Y4089559D01*
G01X756468Y4098105D01*
G01X744118Y4104053D01*
G01X730754Y4107103D01*
G01X717046Y4107103D01*
G01X703682Y4104053D01*
G01X691332Y4098105D01*
G01X680615Y4089559D01*
G01X640815Y4049758D01*
G01X621077Y4027252D01*
G01X604446Y4002362D01*
G01X591206Y3975514D01*
G01X581584Y3947168D01*
G01X575744Y3917808D01*
G01X573786Y3887937D01*
G01X573786Y3887937D01*
G01X573786Y3667415D01*
G01X35814Y3667415D01*
G01X35814Y4183873D01*
G01X47741Y4170271D01*
G01X62012Y4159153D01*
G01X78119Y4150915D01*
G01X95487Y4145853D01*
G01X113497Y4144145D01*
G01X173497Y4144145D01*
G01X192190Y4145986D01*
G01X210164Y4151438D01*
G01X226729Y4160292D01*
G01X241248Y4172208D01*
G01X253164Y4186727D01*
G01X262018Y4203292D01*
G01X267470Y4221266D01*
G01X268625Y4232994D01*
G01X427965Y4232994D01*
G01X431303Y4214626D01*
G01X438326Y4197327D01*
G01X448738Y4181831D01*
G01X462099Y4168791D01*
G01X477845Y4158759D01*
G01X464534Y4149455D01*
G01X453693Y4137363D01*
G01X445891Y4123119D01*
G01X441541Y4107472D01*
G01X440869Y4091245D01*
G01X443911Y4075292D01*
G01X450508Y4060452D01*
G01X460313Y4047505D01*
G01X472809Y4037133D01*
G01X487340Y4029879D01*
G01X503141Y4026127D01*
G01X519381Y4026074D01*
G01X535207Y4029722D01*
G01X549785Y4036879D01*
G01X562349Y4047170D01*
G01X572238Y4060052D01*
G01X578933Y4074848D01*
G01X582081Y4090781D01*
G01X581516Y4107011D01*
G01X577268Y4122686D01*
G01X569560Y4136981D01*
G01X558799Y4149145D01*
G01X608512Y4149145D01*
G01X608512Y4149145D01*
G01X627393Y4151129D01*
G01X645449Y4156996D01*
G01X661891Y4166489D01*
G01X675999Y4179192D01*
G01X687159Y4194552D01*
G01X694881Y4211895D01*
G01X698828Y4230466D01*
G01X698828Y4249451D01*
G01X694881Y4268022D01*
G01X687159Y4285365D01*
G01X675999Y4300725D01*
G01X661891Y4313428D01*
G01X645449Y4322921D01*
G01X627393Y4328788D01*
G01X608512Y4330772D01*
G01X518512Y4330772D01*
G01X499941Y4328853D01*
G01X482155Y4323177D01*
G01X465906Y4313984D01*
G01X451880Y4301662D01*
G01X440670Y4286733D01*
G01X432750Y4269826D01*
G01X428455Y4251658D01*
G01X427965Y4232994D01*
G01X268625Y4232994D01*
G01X269311Y4239959D01*
G01X267470Y4258651D01*
G01X262018Y4276625D01*
G01X253164Y4293190D01*
G01X241248Y4307709D01*
G01X226729Y4319625D01*
G01X210164Y4328479D01*
G01X192190Y4333931D01*
G01X173497Y4335772D01*
G01X113497Y4335772D01*
G01X95487Y4334064D01*
G01X78119Y4329002D01*
G01X62012Y4320764D01*
G01X47741Y4309646D01*
G01X35814Y4296044D01*
G01X35814Y5077460D01*
G01X1328166Y5077460D01*
G01X1330159Y5049590D01*
G01X1336099Y5022287D01*
G01X1345863Y4996108D01*
G01X1359254Y4971584D01*
G01X1375999Y4949216D01*
G01X1395756Y4929459D01*
G01X1418124Y4912714D01*
G01X1442648Y4899323D01*
G01X1468827Y4889559D01*
G01X1496130Y4883619D01*
G01X1524000Y4881626D01*
G01X1551870Y4883619D01*
G01X1579173Y4889559D01*
G01X1605352Y4899323D01*
G01X1629876Y4912714D01*
G01X1652244Y4929459D01*
G01X1672001Y4949216D01*
G01X1688746Y4971584D01*
G01X1702137Y4996108D01*
G01X1711901Y5022287D01*
G01X1717841Y5049590D01*
G01X1719834Y5077460D01*
G01X1717841Y5105330D01*
G01X1711901Y5132633D01*
G01X1702137Y5158812D01*
G01X1688746Y5183336D01*
G01X1672001Y5205704D01*
G01X1652244Y5225461D01*
G01X1629876Y5242206D01*
G01X1605352Y5255597D01*
G01X1579173Y5265361D01*
G01X1551870Y5271301D01*
G01X1524000Y5273294D01*
G01X1496130Y5271301D01*
G01X1468827Y5265361D01*
G01X1442648Y5255597D01*
G01X1418124Y5242206D01*
G01X1395756Y5225461D01*
G01X1375999Y5205704D01*
G01X1359254Y5183336D01*
G01X1345863Y5158812D01*
G01X1336099Y5132633D01*
G01X1330159Y5105330D01*
G01X1328166Y5077460D01*
G01X1328166Y5077460D01*
G01X35814Y5077460D01*
G01X35814Y5313496D01*
G01X39094Y5334814D01*
G01X44341Y5349243D01*
G01X54375Y5361787D01*
G01X68612Y5371752D01*
G01X84590Y5379015D01*
G01X102412Y5381985D01*
G01X6339452Y5381985D01*
G01X6563724Y5161538D01*
G01X6563724Y4033959D01*
G01X6564926Y4024761D01*
G01X6568449Y4016180D01*
G01X6574058Y4008792D01*
G01X6919234Y3659336D01*
G01X6919234Y620710D01*
G01X6574304Y278234D01*
G01X6568565Y270800D01*
G01X6564956Y262130D01*
G01X6563724Y252820D01*
G01X6563724Y12422D01*
G01X6560522Y-6793D01*
G01X6555198Y-21434D01*
G01X6544435Y-34887D01*
G01X6530982Y-45650D01*
G01X6516341Y-50974D01*
G01X6497126Y-54176D01*
G01X102412Y-54176D01*
G01X83197Y-50974D01*
G01X68556Y-45650D01*
G01X55103Y-34887D01*
G01X44341Y-21434D01*
G01X39017Y-6793D01*
G01X35814Y12422D01*
G01X35814Y243976D01*
G01X1201423Y243976D01*
G01X1204884Y216021D01*
G01X1212320Y188852D01*
G01X1223577Y163031D01*
G01X1238422Y139092D01*
G01X1256547Y117530D01*
G01X1277579Y98792D01*
G01X1301081Y83265D01*
G01X1326568Y71270D01*
G01X1353512Y63056D01*
G01X1381356Y58792D01*
G01X1409523Y58567D01*
G01X1437431Y62385D01*
G01X1464503Y70168D01*
G01X1490178Y81754D01*
G01X1513926Y96903D01*
G01X1519208Y101460D01*
G01X3228086Y101460D01*
G01X3229750Y84563D01*
G01X3234679Y68315D01*
G01X3242683Y53340D01*
G01X3253455Y40215D01*
G01X3266580Y29443D01*
G01X3281554Y21439D01*
G01X3297802Y16511D01*
G01X3314700Y14846D01*
G01X3809860Y14846D01*
G01X3826782Y16515D01*
G01X3843052Y21458D01*
G01X3858042Y29485D01*
G01X3871175Y40285D01*
G01X3882194Y53746D01*
G01X3890300Y69137D01*
G01X3895168Y85838D01*
G01X3896600Y103174D01*
G01X3894539Y120447D01*
G01X3889068Y136960D01*
G01X3880407Y152046D01*
G01X3868907Y165098D01*
G01X3855030Y175588D01*
G01X3839338Y183094D01*
G01X3822461Y187313D01*
G01X3805083Y188074D01*
G01X3314700Y188074D01*
G01X3297802Y186410D01*
G01X3281554Y181481D01*
G01X3266580Y173477D01*
G01X3253455Y162706D01*
G01X3242683Y149580D01*
G01X3234679Y134606D01*
G01X3229750Y118358D01*
G01X3228086Y101460D01*
G01X3228086Y101460D01*
G01X1519208Y101460D01*
G01X1535254Y115303D01*
G01X1553722Y136573D01*
G01X1568947Y160272D01*
G01X1580616Y185910D01*
G01X1588485Y212956D01*
G01X1592392Y240852D01*
G01X1592257Y269020D01*
G01X1588082Y296877D01*
G01X1579954Y323848D01*
G01X1568041Y349373D01*
G01X1552589Y372924D01*
G01X1533918Y394016D01*
G01X1551473Y397919D01*
G01X1567844Y405363D01*
G01X1582324Y416027D01*
G01X1594291Y429452D01*
G01X1603227Y445058D01*
G01X1608747Y462173D01*
G01X1610614Y480060D01*
G01X1610614Y670560D01*
G01X1611284Y672176D01*
G01X1612900Y672846D01*
G01X3340100Y672846D01*
G01X3355893Y674298D01*
G01X3371156Y678605D01*
G01X3385379Y685623D01*
G01X3385379Y585589D01*
G01X3377185Y573055D01*
G01X3372012Y559003D01*
G01X3370124Y544148D01*
G01X3371618Y529248D01*
G01X3376416Y515063D01*
G01X3384274Y502316D01*
G01X3394792Y491658D01*
G01X3407434Y483631D01*
G01X3421554Y478645D01*
G01X3436433Y476954D01*
G01X3451311Y478645D01*
G01X3465431Y483631D01*
G01X3478073Y491658D01*
G01X3488591Y502316D01*
G01X3496449Y515063D01*
G01X3501248Y529248D01*
G01X3502741Y544148D01*
G01X3500853Y559003D01*
G01X3495680Y573055D01*
G01X3487487Y585589D01*
G01X3487487Y1187276D01*
G01X3489339Y1198971D01*
G01X3494714Y1209522D01*
G01X3503087Y1217894D01*
G01X3513637Y1223270D01*
G01X3525333Y1225122D01*
G01X3726803Y1225122D01*
G01X3724101Y1209108D01*
G01X3725372Y1192918D01*
G01X3730540Y1177521D01*
G01X3739295Y1163843D01*
G01X3739295Y624541D01*
G01X3741144Y601870D01*
G01X3746640Y579798D01*
G01X3755640Y558907D01*
G01X3767904Y539751D01*
G01X3783110Y522834D01*
G01X3800856Y508604D01*
G01X3553155Y508604D01*
G01X3536708Y506750D01*
G01X3521085Y501284D01*
G01X3507070Y492478D01*
G01X3495367Y480774D01*
G01X3486561Y466760D01*
G01X3481094Y451137D01*
G01X3479241Y434690D01*
G01X3481094Y418242D01*
G01X3486561Y402619D01*
G01X3495367Y388605D01*
G01X3507070Y376901D01*
G01X3521085Y368095D01*
G01X3536708Y362629D01*
G01X3553155Y360776D01*
G01X5331884Y360776D01*
G01X5357354Y362780D01*
G01X5382196Y368744D01*
G01X5405800Y378521D01*
G01X5427584Y391870D01*
G01X5447011Y408463D01*
G01X5463603Y427890D01*
G01X5476952Y449673D01*
G01X5486729Y473277D01*
G01X5492693Y498120D01*
G01X5494698Y523590D01*
G01X5494698Y850310D01*
G01X5606761Y850310D01*
G01X5606874Y833930D01*
G01X5611000Y818077D01*
G01X5618885Y803719D01*
G01X5630049Y791732D01*
G01X5643811Y782847D01*
G01X5659331Y777607D01*
G01X5675662Y776331D01*
G01X5691807Y779097D01*
G01X5706782Y785736D01*
G01X5719673Y795844D01*
G01X5741508Y803366D01*
G01X5761808Y814377D01*
G01X5780022Y828576D01*
G01X5795652Y845578D01*
G01X5808273Y864918D01*
G01X5817542Y886070D01*
G01X5823207Y908459D01*
G01X5825112Y931475D01*
G01X5825112Y1514946D01*
G01X5986594Y1514946D01*
G01X5986594Y865399D01*
G01X5985273Y855489D01*
G01X5981404Y846271D01*
G01X5975257Y838388D01*
G01X5967260Y832389D01*
G01X5953989Y838908D01*
G01X5939604Y842324D01*
G01X5924820Y842469D01*
G01X5910371Y839333D01*
G01X5896976Y833075D01*
G01X5885300Y824004D01*
G01X5875925Y812572D01*
G01X5869315Y799346D01*
G01X5865800Y784985D01*
G01X5865555Y770202D01*
G01X5868591Y755732D01*
G01X5874757Y742294D01*
G01X5883748Y730557D01*
G01X5895116Y721103D01*
G01X5908295Y714403D01*
G01X5922632Y710790D01*
G01X5937413Y710443D01*
G01X5951904Y713379D01*
G01X5965384Y719454D01*
G01X5977182Y728364D01*
G01X5997578Y734239D01*
G01X6016850Y743132D01*
G01X6034555Y754836D01*
G01X6039662Y759460D01*
G01X6408166Y759460D01*
G01X6410159Y731590D01*
G01X6416099Y704287D01*
G01X6425863Y678108D01*
G01X6439254Y653584D01*
G01X6455999Y631216D01*
G01X6475756Y611459D01*
G01X6498124Y594714D01*
G01X6522648Y581323D01*
G01X6548827Y571559D01*
G01X6576130Y565619D01*
G01X6604000Y563626D01*
G01X6631870Y565619D01*
G01X6659173Y571559D01*
G01X6685352Y581323D01*
G01X6709876Y594714D01*
G01X6732244Y611459D01*
G01X6752001Y631216D01*
G01X6768746Y653584D01*
G01X6782137Y678108D01*
G01X6791901Y704287D01*
G01X6797841Y731590D01*
G01X6799834Y759460D01*
G01X6797841Y787330D01*
G01X6791901Y814633D01*
G01X6782137Y840812D01*
G01X6768746Y865336D01*
G01X6752001Y887704D01*
G01X6732244Y907461D01*
G01X6709876Y924206D01*
G01X6685352Y937597D01*
G01X6659173Y947361D01*
G01X6631870Y953301D01*
G01X6604000Y955294D01*
G01X6576130Y953301D01*
G01X6548827Y947361D01*
G01X6522648Y937597D01*
G01X6498124Y924206D01*
G01X6475756Y907461D01*
G01X6455999Y887704D01*
G01X6439254Y865336D01*
G01X6425863Y840812D01*
G01X6416099Y814633D01*
G01X6410159Y787330D01*
G01X6408166Y759460D01*
G01X6408166Y759460D01*
G01X6039662Y759460D01*
G01X6050288Y769083D01*
G01X6063685Y785545D01*
G01X6074438Y803844D01*
G01X6082301Y823558D01*
G01X6087092Y844235D01*
G01X6088702Y865399D01*
G01X6088702Y1537864D01*
G01X6107708Y1526611D01*
G01X6128444Y1519006D01*
G01X6150219Y1515303D01*
G01X6172304Y1515627D01*
G01X6193961Y1519965D01*
G01X6214466Y1528174D01*
G01X6233134Y1539979D01*
G01X6249341Y1554985D01*
G01X6262545Y1572691D01*
G01X6272305Y1592505D01*
G01X6278295Y1613765D01*
G01X6280314Y1635760D01*
G01X6292686Y1635760D01*
G01X6294522Y1614781D01*
G01X6299972Y1594439D01*
G01X6308872Y1575353D01*
G01X6320951Y1558102D01*
G01X6335842Y1543211D01*
G01X6353093Y1531132D01*
G01X6372179Y1522232D01*
G01X6392521Y1516782D01*
G01X6413500Y1514946D01*
G01X6434479Y1516782D01*
G01X6454821Y1522232D01*
G01X6473907Y1531132D01*
G01X6491158Y1543211D01*
G01X6506049Y1558102D01*
G01X6518128Y1575353D01*
G01X6527028Y1594439D01*
G01X6532478Y1614781D01*
G01X6534314Y1635760D01*
G01X6546686Y1635760D01*
G01X6548522Y1614781D01*
G01X6553972Y1594439D01*
G01X6562872Y1575353D01*
G01X6574951Y1558102D01*
G01X6589842Y1543211D01*
G01X6607093Y1531132D01*
G01X6626179Y1522232D01*
G01X6646521Y1516782D01*
G01X6667500Y1514946D01*
G01X6688479Y1516782D01*
G01X6708821Y1522232D01*
G01X6727907Y1531132D01*
G01X6745158Y1543211D01*
G01X6760049Y1558102D01*
G01X6772128Y1575353D01*
G01X6781028Y1594439D01*
G01X6786478Y1614781D01*
G01X6788314Y1635760D01*
G01X6786478Y1656739D01*
G01X6781028Y1677081D01*
G01X6772128Y1696167D01*
G01X6760049Y1713418D01*
G01X6745158Y1728309D01*
G01X6727907Y1740388D01*
G01X6708821Y1749288D01*
G01X6688479Y1754738D01*
G01X6667500Y1756574D01*
G01X6646521Y1754738D01*
G01X6626179Y1749288D01*
G01X6607093Y1740388D01*
G01X6589842Y1728309D01*
G01X6574951Y1713418D01*
G01X6562872Y1696167D01*
G01X6553972Y1677081D01*
G01X6548522Y1656739D01*
G01X6546686Y1635760D01*
G01X6546686Y1635760D01*
G01X6534314Y1635760D01*
G01X6532478Y1656739D01*
G01X6527028Y1677081D01*
G01X6518128Y1696167D01*
G01X6506049Y1713418D01*
G01X6491158Y1728309D01*
G01X6473907Y1740388D01*
G01X6454821Y1749288D01*
G01X6434479Y1754738D01*
G01X6413500Y1756574D01*
G01X6392521Y1754738D01*
G01X6372179Y1749288D01*
G01X6353093Y1740388D01*
G01X6335842Y1728309D01*
G01X6320951Y1713418D01*
G01X6308872Y1696167D01*
G01X6299972Y1677081D01*
G01X6294522Y1656739D01*
G01X6292686Y1635760D01*
G01X6292686Y1635760D01*
G01X6280314Y1635760D01*
G01X6280314Y1635760D01*
G01X6278295Y1657755D01*
G01X6272305Y1679015D01*
G01X6262545Y1698829D01*
G01X6249341Y1716535D01*
G01X6233134Y1731541D01*
G01X6214466Y1743346D01*
G01X6193961Y1751555D01*
G01X6172304Y1755893D01*
G01X6150219Y1756217D01*
G01X6128444Y1752514D01*
G01X6107708Y1744909D01*
G01X6088702Y1733656D01*
G01X6088702Y1791864D01*
G01X6106498Y1781193D01*
G01X6125858Y1773725D01*
G01X6146210Y1769679D01*
G01X6166954Y1769176D01*
G01X6187478Y1772230D01*
G01X6207177Y1778751D01*
G01X6225469Y1788547D01*
G01X6241816Y1801329D01*
G01X6255734Y1816719D01*
G01X6266813Y1834264D01*
G01X6274727Y1853445D01*
G01X6279241Y1873699D01*
G01X6280003Y1889760D01*
G01X6292686Y1889760D01*
G01X6294522Y1868781D01*
G01X6299972Y1848439D01*
G01X6308872Y1829353D01*
G01X6320951Y1812102D01*
G01X6335842Y1797211D01*
G01X6353093Y1785132D01*
G01X6372179Y1776232D01*
G01X6392521Y1770782D01*
G01X6413500Y1768946D01*
G01X6434479Y1770782D01*
G01X6454821Y1776232D01*
G01X6473907Y1785132D01*
G01X6491158Y1797211D01*
G01X6506049Y1812102D01*
G01X6518128Y1829353D01*
G01X6527028Y1848439D01*
G01X6532478Y1868781D01*
G01X6534314Y1889760D01*
G01X6546686Y1889760D01*
G01X6548522Y1868781D01*
G01X6553972Y1848439D01*
G01X6562872Y1829353D01*
G01X6574951Y1812102D01*
G01X6589842Y1797211D01*
G01X6607093Y1785132D01*
G01X6626179Y1776232D01*
G01X6646521Y1770782D01*
G01X6667500Y1768946D01*
G01X6688479Y1770782D01*
G01X6708821Y1776232D01*
G01X6727907Y1785132D01*
G01X6745158Y1797211D01*
G01X6760049Y1812102D01*
G01X6772128Y1829353D01*
G01X6781028Y1848439D01*
G01X6786478Y1868781D01*
G01X6788314Y1889760D01*
G01X6786478Y1910739D01*
G01X6781028Y1931081D01*
G01X6772128Y1950167D01*
G01X6760049Y1967418D01*
G01X6745158Y1982309D01*
G01X6727907Y1994388D01*
G01X6708821Y2003288D01*
G01X6688479Y2008738D01*
G01X6667500Y2010574D01*
G01X6646521Y2008738D01*
G01X6626179Y2003288D01*
G01X6607093Y1994388D01*
G01X6589842Y1982309D01*
G01X6574951Y1967418D01*
G01X6562872Y1950167D01*
G01X6553972Y1931081D01*
G01X6548522Y1910739D01*
G01X6546686Y1889760D01*
G01X6546686Y1889760D01*
G01X6534314Y1889760D01*
G01X6532478Y1910739D01*
G01X6527028Y1931081D01*
G01X6518128Y1950167D01*
G01X6506049Y1967418D01*
G01X6491158Y1982309D01*
G01X6473907Y1994388D01*
G01X6454821Y2003288D01*
G01X6434479Y2008738D01*
G01X6413500Y2010574D01*
G01X6392521Y2008738D01*
G01X6372179Y2003288D01*
G01X6353093Y1994388D01*
G01X6335842Y1982309D01*
G01X6320951Y1967418D01*
G01X6308872Y1950167D01*
G01X6299972Y1931081D01*
G01X6294522Y1910739D01*
G01X6292686Y1889760D01*
G01X6292686Y1889760D01*
G01X6280003Y1889760D01*
G01X6280224Y1894426D01*
G01X6277645Y1915015D01*
G01X6271581Y1934859D01*
G01X6262210Y1953373D01*
G01X6249810Y1970010D01*
G01X6234745Y1984281D01*
G01X6217461Y1995762D01*
G01X6198467Y2004117D01*
G01X6178324Y2009098D01*
G01X6157625Y2010559D01*
G01X6136982Y2008457D01*
G01X6117003Y2002853D01*
G01X6098277Y1993912D01*
G01X6081358Y1981900D01*
G01X6066743Y1967169D01*
G01X6054865Y1950155D01*
G01X6046074Y1931359D01*
G01X6040628Y1911336D01*
G01X6026314Y1898534D01*
G01X6026314Y1974760D01*
G01X6024561Y1985827D01*
G01X6019474Y1995811D01*
G01X6011551Y2003734D01*
G01X6001567Y2008821D01*
G01X5990500Y2010574D01*
G01X5820500Y2010574D01*
G01X5809433Y2008821D01*
G01X5799449Y2003734D01*
G01X5791526Y1995811D01*
G01X5786439Y1985827D01*
G01X5784686Y1974760D01*
G01X5784686Y1916880D01*
G01X5766908Y1902651D01*
G01X5751673Y1885728D01*
G01X5739383Y1866559D01*
G01X5730365Y1845650D01*
G01X5724857Y1823555D01*
G01X5723004Y1800860D01*
G01X5723004Y931475D01*
G01X5721856Y922224D01*
G01X5718481Y913534D01*
G01X5713085Y905932D01*
G01X5705994Y899880D01*
G01X5705994Y899880D01*
G01X5690928Y906312D01*
G01X5674746Y908855D01*
G01X5658434Y907353D01*
G01X5642988Y901899D01*
G01X5629350Y892825D01*
G01X5618353Y880685D01*
G01X5610667Y866219D01*
G01X5606761Y850310D01*
G01X5494698Y850310D01*
G01X5494698Y939209D01*
G01X5492845Y955657D01*
G01X5487378Y971279D01*
G01X5478572Y985294D01*
G01X5466869Y996997D01*
G01X5452854Y1005803D01*
G01X5437231Y1011270D01*
G01X5420784Y1013123D01*
G01X5404337Y1011270D01*
G01X5388714Y1005803D01*
G01X5374699Y996997D01*
G01X5362996Y985294D01*
G01X5354190Y971279D01*
G01X5348723Y955657D01*
G01X5346870Y939209D01*
G01X5346870Y523590D01*
G01X5345729Y517855D01*
G01X5342481Y512993D01*
G01X5337619Y509744D01*
G01X5331884Y508604D01*
G01X4486536Y508604D01*
G01X4489909Y518001D01*
G01X4491833Y527798D01*
G01X4507633Y524719D01*
G01X4523709Y525537D01*
G01X4539114Y530205D01*
G01X4552941Y538447D01*
G01X4564374Y549777D01*
G01X4572741Y563529D01*
G01X4577548Y578891D01*
G01X4578512Y594959D01*
G01X4575576Y610786D01*
G01X4568913Y625439D01*
G01X4558916Y638056D01*
G01X4546174Y647891D01*
G01X4531437Y654367D01*
G01X4515574Y657101D01*
G01X4504725Y659760D01*
G01X4493591Y660654D01*
G01X3951941Y660654D01*
G01X3940246Y662506D01*
G01X3929696Y667882D01*
G01X3921323Y676255D01*
G01X3915947Y686805D01*
G01X3914095Y698500D01*
G01X3914095Y1082600D01*
G01X3922653Y1095871D01*
G01X3927832Y1110788D01*
G01X3929336Y1126508D01*
G01X3927081Y1142137D01*
G01X3921195Y1156790D01*
G01X3912012Y1169636D01*
G01X3900051Y1179946D01*
G01X3885993Y1187136D01*
G01X3870632Y1190799D01*
G01X3854841Y1190726D01*
G01X3856544Y1202188D01*
G01X3856226Y1213771D01*
G01X3853896Y1225122D01*
G01X4069158Y1225122D01*
G01X4080361Y1217617D01*
G01X4092851Y1212533D01*
G01X4106110Y1210080D01*
G01X4107807Y1194354D01*
G01X4113179Y1179478D01*
G01X4121922Y1166297D01*
G01X4133537Y1155561D01*
G01X4126803Y1141502D01*
G01X4123537Y1126259D01*
G01X4123920Y1110675D01*
G01X4127930Y1095611D01*
G01X4135346Y1081899D01*
G01X4145758Y1070298D01*
G01X4158591Y1061447D01*
G01X4173135Y1055837D01*
G01X4188587Y1053777D01*
G01X4204093Y1055381D01*
G01X4218796Y1060561D01*
G01X4231884Y1069030D01*
G01X5308600Y1069030D01*
G01X5330494Y1070753D01*
G01X5351848Y1075880D01*
G01X5372138Y1084284D01*
G01X5390863Y1095759D01*
G01X5407562Y1110022D01*
G01X5421825Y1126721D01*
G01X5433300Y1145446D01*
G01X5441704Y1165736D01*
G01X5446831Y1187090D01*
G01X5448554Y1208984D01*
G01X5448554Y1678187D01*
G01X5454989Y1690932D01*
G01X5458296Y1704821D01*
G01X5458296Y1719099D01*
G01X5454989Y1732988D01*
G01X5448554Y1745733D01*
G01X5448554Y2057400D01*
G01X5450406Y2069095D01*
G01X5455782Y2079645D01*
G01X5464155Y2088018D01*
G01X5474705Y2093394D01*
G01X5486400Y2095246D01*
G01X5784686Y2095246D01*
G01X5784686Y2061300D01*
G01X5786439Y2050233D01*
G01X5791526Y2040249D01*
G01X5799449Y2032326D01*
G01X5809433Y2027239D01*
G01X5820500Y2025486D01*
G01X5990500Y2025486D01*
G01X6001567Y2027239D01*
G01X6011551Y2032326D01*
G01X6019474Y2040249D01*
G01X6024561Y2050233D01*
G01X6026314Y2061300D01*
G01X6026314Y2222246D01*
G01X6065542Y2222246D01*
G01X6053900Y2204991D01*
G01X6045393Y2185994D01*
G01X6040273Y2165818D01*
G01X6038692Y2145063D01*
G01X6040698Y2124345D01*
G01X6046229Y2104279D01*
G01X6055124Y2085460D01*
G01X6067116Y2068447D01*
G01X6081850Y2053745D01*
G01X6098890Y2041790D01*
G01X6117729Y2032937D01*
G01X6137807Y2027450D01*
G01X6158530Y2025490D01*
G01X6179281Y2027117D01*
G01X6199445Y2032281D01*
G01X6218423Y2040830D01*
G01X6235653Y2052509D01*
G01X6250622Y2066973D01*
G01X6262886Y2083791D01*
G01X6272081Y2102465D01*
G01X6277934Y2122440D01*
G01X6280272Y2143123D01*
G01X6280081Y2146300D01*
G01X6292686Y2146300D01*
G01X6294522Y2125321D01*
G01X6299972Y2104979D01*
G01X6308872Y2085893D01*
G01X6320951Y2068642D01*
G01X6335842Y2053751D01*
G01X6353093Y2041672D01*
G01X6372179Y2032772D01*
G01X6392521Y2027322D01*
G01X6413500Y2025486D01*
G01X6434479Y2027322D01*
G01X6454821Y2032772D01*
G01X6473907Y2041672D01*
G01X6491158Y2053751D01*
G01X6506049Y2068642D01*
G01X6518128Y2085893D01*
G01X6527028Y2104979D01*
G01X6532478Y2125321D01*
G01X6534314Y2146300D01*
G01X6546686Y2146300D01*
G01X6548522Y2125321D01*
G01X6553972Y2104979D01*
G01X6562872Y2085893D01*
G01X6574951Y2068642D01*
G01X6589842Y2053751D01*
G01X6607093Y2041672D01*
G01X6626179Y2032772D01*
G01X6646521Y2027322D01*
G01X6667500Y2025486D01*
G01X6688479Y2027322D01*
G01X6708821Y2032772D01*
G01X6727907Y2041672D01*
G01X6745158Y2053751D01*
G01X6760049Y2068642D01*
G01X6772128Y2085893D01*
G01X6781028Y2104979D01*
G01X6786478Y2125321D01*
G01X6788314Y2146300D01*
G01X6786478Y2167279D01*
G01X6781028Y2187621D01*
G01X6772128Y2206707D01*
G01X6760049Y2223958D01*
G01X6745158Y2238849D01*
G01X6727907Y2250928D01*
G01X6708821Y2259828D01*
G01X6688479Y2265278D01*
G01X6667500Y2267114D01*
G01X6646521Y2265278D01*
G01X6626179Y2259828D01*
G01X6607093Y2250928D01*
G01X6589842Y2238849D01*
G01X6574951Y2223958D01*
G01X6562872Y2206707D01*
G01X6553972Y2187621D01*
G01X6548522Y2167279D01*
G01X6546686Y2146300D01*
G01X6546686Y2146300D01*
G01X6534314Y2146300D01*
G01X6532478Y2167279D01*
G01X6527028Y2187621D01*
G01X6518128Y2206707D01*
G01X6506049Y2223958D01*
G01X6491158Y2238849D01*
G01X6473907Y2250928D01*
G01X6454821Y2259828D01*
G01X6434479Y2265278D01*
G01X6413500Y2267114D01*
G01X6392521Y2265278D01*
G01X6372179Y2259828D01*
G01X6353093Y2250928D01*
G01X6335842Y2238849D01*
G01X6320951Y2223958D01*
G01X6308872Y2206707D01*
G01X6299972Y2187621D01*
G01X6294522Y2167279D01*
G01X6292686Y2146300D01*
G01X6292686Y2146300D01*
G01X6280081Y2146300D01*
G01X6279025Y2163901D01*
G01X6274230Y2184156D01*
G01X6266029Y2203287D01*
G01X6254666Y2220727D01*
G01X6240479Y2235957D01*
G01X6223887Y2248527D01*
G01X6205384Y2258061D01*
G01X6185520Y2264279D01*
G01X6171271Y2281624D01*
G01X6154433Y2296468D01*
G01X6135437Y2308429D01*
G01X6114774Y2317200D01*
G01X6092975Y2322554D01*
G01X6070600Y2324354D01*
G01X5397500Y2324354D01*
G01X5374314Y2322420D01*
G01X5351768Y2316671D01*
G01X5330487Y2307267D01*
G01X5311057Y2294467D01*
G01X5294017Y2278625D01*
G01X5279837Y2260179D01*
G01X5279837Y2451322D01*
G01X5281689Y2463017D01*
G01X5287064Y2473567D01*
G01X5295437Y2481940D01*
G01X5305987Y2487315D01*
G01X5317683Y2489168D01*
G01X6032500Y2489168D01*
G01X6055511Y2491072D01*
G01X6077895Y2496734D01*
G01X6099044Y2506000D01*
G01X6118381Y2518616D01*
G01X6135381Y2534240D01*
G01X6149581Y2552447D01*
G01X6160595Y2572740D01*
G01X6168121Y2594568D01*
G01X6178223Y2607453D01*
G01X6184859Y2622421D01*
G01X6187624Y2638559D01*
G01X6186350Y2654882D01*
G01X6181114Y2670396D01*
G01X6172235Y2684152D01*
G01X6160256Y2695314D01*
G01X6145906Y2703198D01*
G01X6130062Y2707326D01*
G01X6113689Y2707444D01*
G01X6097787Y2703546D01*
G01X6083325Y2695870D01*
G01X6071185Y2684883D01*
G01X6062109Y2671256D01*
G01X6056649Y2655820D01*
G01X6055139Y2639517D01*
G01X6057670Y2623341D01*
G01X6064089Y2608278D01*
G01X6058037Y2601190D01*
G01X6050437Y2595796D01*
G01X6041749Y2592423D01*
G01X6032500Y2591276D01*
G01X5317683Y2591276D01*
G01X5295382Y2589488D01*
G01X5273651Y2584169D01*
G01X5253045Y2575455D01*
G01X5234091Y2563569D01*
G01X5217273Y2548815D01*
G01X5203021Y2531570D01*
G01X5191699Y2512274D01*
G01X5191699Y2905930D01*
G01X5705790Y2905930D01*
G01X5705998Y2891307D01*
G01X5709669Y2877151D01*
G01X5716592Y2864270D01*
G01X5726373Y2853399D01*
G01X5738454Y2845157D01*
G01X5752144Y2840017D01*
G01X5766664Y2838270D01*
G01X5781183Y2840017D01*
G01X5794873Y2845157D01*
G01X5806954Y2853399D01*
G01X5816735Y2864270D01*
G01X5823658Y2877151D01*
G01X5827329Y2891307D01*
G01X5827537Y2905930D01*
G01X5824271Y2920184D01*
G01X5817718Y2933257D01*
G01X5817718Y2959100D01*
G01X5819570Y2970795D01*
G01X5824946Y2981345D01*
G01X5833318Y2989718D01*
G01X5843869Y2995094D01*
G01X5855564Y2996946D01*
G01X6159500Y2996946D01*
G01X6171195Y2995094D01*
G01X6181745Y2989718D01*
G01X6190118Y2981345D01*
G01X6195494Y2970795D01*
G01X6197346Y2959100D01*
G01X6197346Y2950621D01*
G01X6189959Y2939641D01*
G01X6184900Y2927413D01*
G01X6179250Y2940717D01*
G01X6170853Y2952481D01*
G01X6160105Y2962147D01*
G01X6147519Y2969254D01*
G01X6133692Y2973465D01*
G01X6119281Y2974580D01*
G01X6104970Y2972547D01*
G01X6091441Y2967461D01*
G01X6079334Y2959564D01*
G01X6069226Y2949232D01*
G01X6061597Y2936956D01*
G01X6056809Y2923318D01*
G01X6055089Y2908966D01*
G01X6056520Y2894583D01*
G01X6061033Y2880851D01*
G01X6068415Y2868424D01*
G01X6063006Y2857961D01*
G01X6054643Y2849668D01*
G01X6044135Y2844347D01*
G01X6032500Y2842514D01*
G01X5823535Y2842514D01*
G01X5804794Y2840874D01*
G01X5786623Y2836005D01*
G01X5769573Y2828055D01*
G01X5754162Y2817264D01*
G01X5740859Y2803962D01*
G01X5730069Y2788551D01*
G01X5722118Y2771501D01*
G01X5717249Y2753329D01*
G01X5715610Y2734588D01*
G01X5715610Y2723633D01*
G01X5709056Y2710560D01*
G01X5705790Y2696306D01*
G01X5705998Y2681683D01*
G01X5709669Y2667528D01*
G01X5716592Y2654646D01*
G01X5726373Y2643775D01*
G01X5738454Y2635534D01*
G01X5752144Y2630393D01*
G01X5766664Y2628646D01*
G01X5781183Y2630393D01*
G01X5794873Y2635534D01*
G01X5806954Y2643775D01*
G01X5816735Y2654646D01*
G01X5823658Y2667528D01*
G01X5827329Y2681683D01*
G01X5827537Y2696306D01*
G01X5824271Y2710560D01*
G01X5817718Y2723633D01*
G01X5817718Y2734588D01*
G01X5819422Y2738702D01*
G01X5823535Y2740406D01*
G01X6032500Y2740406D01*
G01X6055114Y2742245D01*
G01X6077134Y2747714D01*
G01X6097981Y2756669D01*
G01X6117107Y2768876D01*
G01X6134009Y2784012D01*
G01X6148244Y2801680D01*
G01X6159436Y2821416D01*
G01X6167292Y2842702D01*
G01X6171606Y2864977D01*
G01X6179527Y2876382D01*
G01X6184900Y2889187D01*
G01X6190645Y2875713D01*
G01X6199208Y2863829D01*
G01X6210171Y2854114D01*
G01X6222999Y2847044D01*
G01X6237066Y2842962D01*
G01X6251687Y2842067D01*
G01X6266147Y2844405D01*
G01X6279741Y2849859D01*
G01X6291806Y2858165D01*
G01X6301753Y2868917D01*
G01X6309097Y2881591D01*
G01X6313480Y2895568D01*
G01X6314688Y2910165D01*
G01X6312661Y2924672D01*
G01X6307499Y2938380D01*
G01X6299454Y2950621D01*
G01X6299454Y2959100D01*
G01X6297731Y2980994D01*
G01X6292604Y3002348D01*
G01X6284200Y3022638D01*
G01X6272725Y3041363D01*
G01X6258462Y3058062D01*
G01X6241763Y3072325D01*
G01X6223038Y3083800D01*
G01X6202748Y3092204D01*
G01X6181394Y3097331D01*
G01X6159500Y3099054D01*
G01X5855564Y3099054D01*
G01X5833670Y3097331D01*
G01X5812315Y3092204D01*
G01X5792026Y3083800D01*
G01X5773301Y3072325D01*
G01X5756601Y3058062D01*
G01X5742338Y3041363D01*
G01X5730864Y3022638D01*
G01X5722459Y3002348D01*
G01X5717333Y2980994D01*
G01X5715610Y2959100D01*
G01X5715610Y2933257D01*
G01X5715610Y2933257D01*
G01X5709056Y2920184D01*
G01X5705790Y2905930D01*
G01X5191699Y2905930D01*
G01X5191699Y3312421D01*
G01X5189879Y3334918D01*
G01X5184466Y3356830D01*
G01X5175602Y3377587D01*
G01X5163516Y3396649D01*
G01X5148524Y3413520D01*
G01X5815555Y3413520D01*
G01X5828908Y3411762D01*
G01X5841350Y3406608D01*
G01X5852035Y3398409D01*
G01X5860234Y3387724D01*
G01X5865388Y3375281D01*
G01X5867146Y3361929D01*
G01X5867146Y3358633D01*
G01X5860673Y3345784D01*
G01X5857378Y3331778D01*
G01X5857443Y3317391D01*
G01X5860865Y3303415D01*
G01X5867454Y3290625D01*
G01X5876847Y3279726D01*
G01X5888524Y3271320D01*
G01X5901841Y3265872D01*
G01X5916061Y3263683D01*
G01X5930400Y3264874D01*
G01X5944064Y3269379D01*
G01X5956300Y3276948D01*
G01X5968536Y3269379D01*
G01X5982200Y3264874D01*
G01X5996539Y3263683D01*
G01X6010759Y3265872D01*
G01X6024076Y3271320D01*
G01X6035753Y3279726D01*
G01X6045146Y3290625D01*
G01X6051735Y3303415D01*
G01X6055157Y3317391D01*
G01X6055222Y3331778D01*
G01X6051927Y3345784D01*
G01X6045454Y3358633D01*
G01X6045454Y3437672D01*
G01X6043625Y3460225D01*
G01X6038185Y3482189D01*
G01X6029278Y3502989D01*
G01X6017134Y3522081D01*
G01X6002073Y3538967D01*
G01X5984488Y3553206D01*
G01X6074463Y3553206D01*
G01X6078754Y3552056D01*
G01X6081896Y3548914D01*
G01X6083046Y3544623D01*
G01X6083046Y3302000D01*
G01X6084957Y3278952D01*
G01X6090637Y3256533D01*
G01X6099932Y3235355D01*
G01X6112588Y3215998D01*
G01X6128259Y3198989D01*
G01X6146517Y3184793D01*
G01X6166863Y3173798D01*
G01X6188743Y3166303D01*
G01X6201646Y3156221D01*
G01X6216626Y3149609D01*
G01X6232770Y3146871D01*
G01X6249093Y3148173D01*
G01X6264599Y3153436D01*
G01X6278341Y3162340D01*
G01X6289482Y3174340D01*
G01X6297342Y3188705D01*
G01X6301441Y3204558D01*
G01X6301530Y3220933D01*
G01X6297602Y3236829D01*
G01X6289897Y3251278D01*
G01X6278886Y3263398D01*
G01X6265240Y3272449D01*
G01X6249792Y3277879D01*
G01X6233484Y3279357D01*
G01X6217311Y3276793D01*
G01X6202261Y3270342D01*
G01X6195132Y3276394D01*
G01X6189704Y3284008D01*
G01X6186309Y3292721D01*
G01X6185154Y3302000D01*
G01X6185154Y3391925D01*
G01X6199513Y3390676D01*
G01X6213765Y3392819D01*
G01X6227122Y3398235D01*
G01X6238842Y3406624D01*
G01X6248275Y3417521D01*
G01X6254900Y3430321D01*
G01X6258347Y3444316D01*
G01X6258427Y3458728D01*
G01X6255136Y3472760D01*
G01X6248654Y3485633D01*
G01X6248654Y3596879D01*
G01X6246996Y3617940D01*
G01X6242064Y3638483D01*
G01X6233980Y3658002D01*
G01X6222941Y3676015D01*
G01X6209220Y3692080D01*
G01X6193155Y3705801D01*
G01X6175142Y3716840D01*
G01X6155623Y3724924D01*
G01X6135080Y3729856D01*
G01X6114019Y3731514D01*
G01X6113711Y3731514D01*
G01X6117748Y3743800D01*
G01X6119114Y3756660D01*
G01X6117748Y3769520D01*
G01X6113711Y3781806D01*
G01X6277686Y3781806D01*
G01X6285355Y3780281D01*
G01X6291857Y3775936D01*
G01X6296201Y3769435D01*
G01X6297727Y3761765D01*
G01X6297727Y3330441D01*
G01X6299547Y3311959D01*
G01X6304938Y3294187D01*
G01X6313692Y3277809D01*
G01X6325474Y3263453D01*
G01X6339829Y3251672D01*
G01X6356208Y3242917D01*
G01X6373979Y3237526D01*
G01X6392461Y3235706D01*
G01X6429530Y3235706D01*
G01X6434088Y3234485D01*
G01X6437425Y3231148D01*
G01X6438646Y3226590D01*
G01X6438646Y3009900D01*
G01X6440369Y2988006D01*
G01X6445496Y2966652D01*
G01X6453900Y2946362D01*
G01X6465375Y2927637D01*
G01X6479638Y2910938D01*
G01X6496337Y2896675D01*
G01X6515062Y2885200D01*
G01X6535352Y2876796D01*
G01X6556706Y2871669D01*
G01X6578600Y2869946D01*
G01X6714079Y2869946D01*
G01X6726613Y2861752D01*
G01X6740666Y2856580D01*
G01X6755521Y2854692D01*
G01X6770421Y2856185D01*
G01X6784605Y2860983D01*
G01X6797352Y2868842D01*
G01X6808011Y2879360D01*
G01X6816037Y2892001D01*
G01X6821023Y2906121D01*
G01X6822714Y2921000D01*
G01X6821023Y2935879D01*
G01X6816037Y2949999D01*
G01X6808011Y2962640D01*
G01X6797352Y2973158D01*
G01X6784605Y2981017D01*
G01X6770421Y2985815D01*
G01X6755521Y2987308D01*
G01X6740666Y2985420D01*
G01X6726613Y2980248D01*
G01X6714079Y2972054D01*
G01X6578600Y2972054D01*
G01X6566905Y2973906D01*
G01X6556355Y2979282D01*
G01X6547982Y2987655D01*
G01X6542606Y2998205D01*
G01X6540754Y3009900D01*
G01X6540754Y3226590D01*
G01X6539064Y3245904D01*
G01X6534046Y3264631D01*
G01X6525853Y3282202D01*
G01X6514732Y3298083D01*
G01X6501023Y3311792D01*
G01X6485142Y3322913D01*
G01X6467571Y3331106D01*
G01X6448844Y3336124D01*
G01X6429530Y3337814D01*
G01X6399835Y3337814D01*
G01X6399835Y3553460D01*
G01X6408166Y3553460D01*
G01X6410159Y3525590D01*
G01X6416099Y3498287D01*
G01X6425863Y3472108D01*
G01X6439254Y3447584D01*
G01X6455999Y3425216D01*
G01X6475756Y3405459D01*
G01X6498124Y3388714D01*
G01X6522648Y3375323D01*
G01X6548827Y3365559D01*
G01X6576130Y3359619D01*
G01X6604000Y3357626D01*
G01X6631870Y3359619D01*
G01X6659173Y3365559D01*
G01X6685352Y3375323D01*
G01X6709876Y3388714D01*
G01X6732244Y3405459D01*
G01X6752001Y3425216D01*
G01X6768746Y3447584D01*
G01X6782137Y3472108D01*
G01X6791901Y3498287D01*
G01X6797841Y3525590D01*
G01X6799834Y3553460D01*
G01X6797841Y3581330D01*
G01X6791901Y3608633D01*
G01X6782137Y3634812D01*
G01X6768746Y3659336D01*
G01X6752001Y3681704D01*
G01X6732244Y3701461D01*
G01X6709876Y3718206D01*
G01X6685352Y3731597D01*
G01X6659173Y3741361D01*
G01X6631870Y3747301D01*
G01X6604000Y3749294D01*
G01X6576130Y3747301D01*
G01X6548827Y3741361D01*
G01X6522648Y3731597D01*
G01X6498124Y3718206D01*
G01X6475756Y3701461D01*
G01X6455999Y3681704D01*
G01X6439254Y3659336D01*
G01X6425863Y3634812D01*
G01X6416099Y3608633D01*
G01X6410159Y3581330D01*
G01X6408166Y3553460D01*
G01X6408166Y3553460D01*
G01X6399835Y3553460D01*
G01X6399835Y3761765D01*
G01X6397979Y3782976D01*
G01X6392468Y3803543D01*
G01X6383470Y3822840D01*
G01X6371257Y3840281D01*
G01X6356202Y3855337D01*
G01X6338761Y3867549D01*
G01X6319463Y3876548D01*
G01X6298897Y3882058D01*
G01X6277686Y3883914D01*
G01X3526273Y3883914D01*
G01X3513155Y3890484D01*
G01X3498850Y3893744D01*
G01X3484180Y3893506D01*
G01X3469988Y3889784D01*
G01X3457090Y3882793D01*
G01X3446225Y3872933D01*
G01X3438019Y3860771D01*
G01X3432943Y3847005D01*
G01X3431288Y3832427D01*
G01X3433149Y3817874D01*
G01X2930550Y3817874D01*
G01X2930550Y3935324D01*
G01X2928557Y3960658D01*
G01X2922624Y3985369D01*
G01X2912899Y4008848D01*
G01X2899621Y4030516D01*
G01X2883116Y4049840D01*
G01X2863792Y4066344D01*
G01X2842124Y4079622D01*
G01X2818645Y4089348D01*
G01X2793935Y4095280D01*
G01X2768600Y4097274D01*
G01X2527300Y4097274D01*
G01X2513679Y4095739D01*
G01X2500740Y4091212D01*
G01X2489134Y4083919D01*
G01X2479441Y4074226D01*
G01X2472148Y4062620D01*
G01X2467621Y4049681D01*
G01X2466086Y4036060D01*
G01X2467621Y4022439D01*
G01X2472148Y4009500D01*
G01X2479441Y3997894D01*
G01X2489134Y3988201D01*
G01X2500740Y3980908D01*
G01X2513679Y3976381D01*
G01X2527300Y3974846D01*
G01X2768600Y3974846D01*
G01X2780813Y3972912D01*
G01X2791831Y3967298D01*
G01X2800574Y3958554D01*
G01X2806188Y3947537D01*
G01X2808122Y3935324D01*
G01X2808122Y3236957D01*
G01X2806856Y3224097D01*
G01X2803105Y3211731D01*
G01X2797013Y3200334D01*
G01X2788815Y3190345D01*
G01X2772317Y3171532D01*
G01X2758415Y3150726D01*
G01X2747348Y3128284D01*
G01X2739304Y3104589D01*
G01X2734423Y3080048D01*
G01X2732786Y3055078D01*
G01X2732786Y2783852D01*
G01X2731843Y2776686D01*
G01X2729077Y2770009D01*
G01X2724677Y2764275D01*
G01X2611015Y2650613D01*
G01X2602469Y2639896D01*
G01X2596521Y2627546D01*
G01X2593471Y2614182D01*
G01X2593471Y2600474D01*
G01X2596521Y2587111D01*
G01X2602469Y2574760D01*
G01X2611015Y2564043D01*
G01X2611015Y2564043D01*
G01X2621732Y2555497D01*
G01X2634082Y2549549D01*
G01X2647446Y2546499D01*
G01X2661154Y2546499D01*
G01X2674518Y2549549D01*
G01X2686868Y2555497D01*
G01X2697585Y2564043D01*
G01X2811247Y2677705D01*
G01X2824781Y2693239D01*
G01X2836061Y2710479D01*
G01X2844874Y2729102D01*
G01X2844874Y2097132D01*
G01X2846597Y2075239D01*
G01X2851723Y2053884D01*
G01X2860128Y2033594D01*
G01X2871602Y2014869D01*
G01X2885865Y1998170D01*
G01X2902565Y1983907D01*
G01X2921290Y1972432D01*
G01X2941579Y1964028D01*
G01X2962934Y1958901D01*
G01X2984828Y1957178D01*
G01X3446715Y1957178D01*
G01X3458410Y1955326D01*
G01X3468960Y1949950D01*
G01X3477333Y1941578D01*
G01X3482708Y1931027D01*
G01X3484561Y1919332D01*
G01X3484561Y1435574D01*
G01X3471581Y1437763D01*
G01X3458424Y1437344D01*
G01X3445610Y1434335D01*
G01X3433642Y1428855D01*
G01X3426520Y1434906D01*
G01X3421099Y1442518D01*
G01X3417708Y1451226D01*
G01X3416554Y1460500D01*
G01X3416554Y1722979D01*
G01X3424748Y1735513D01*
G01X3429920Y1749566D01*
G01X3431808Y1764421D01*
G01X3430315Y1779321D01*
G01X3425517Y1793505D01*
G01X3417658Y1806252D01*
G01X3407140Y1816911D01*
G01X3394499Y1824937D01*
G01X3380379Y1829923D01*
G01X3365500Y1831614D01*
G01X3350621Y1829923D01*
G01X3336501Y1824937D01*
G01X3323860Y1816911D01*
G01X3313342Y1806252D01*
G01X3305483Y1793505D01*
G01X3300685Y1779321D01*
G01X3299192Y1764421D01*
G01X3301080Y1749566D01*
G01X3306252Y1735513D01*
G01X3314446Y1722979D01*
G01X3314446Y1460500D01*
G01X3316356Y1437456D01*
G01X3322034Y1415042D01*
G01X3331325Y1393868D01*
G01X3343976Y1374513D01*
G01X3359641Y1357506D01*
G01X3377892Y1343309D01*
G01X3398232Y1332311D01*
G01X3420105Y1324813D01*
G01X3429750Y1316804D01*
G01X3440730Y1310754D01*
G01X3452653Y1306879D01*
G01X3435984Y1294998D01*
G01X3421226Y1280812D01*
G01X3408695Y1264625D01*
G01X3398660Y1246784D01*
G01X3391334Y1227670D01*
G01X3386876Y1207691D01*
G01X3385379Y1187276D01*
G01X3385379Y833297D01*
G01X3371156Y840315D01*
G01X3355893Y844622D01*
G01X3340100Y846074D01*
G01X1612900Y846074D01*
G01X1587922Y844288D01*
G01X1563452Y838964D01*
G01X1539989Y830213D01*
G01X1518010Y818212D01*
G01X1497963Y803205D01*
G01X1480255Y785497D01*
G01X1465248Y765450D01*
G01X1453247Y743471D01*
G01X1444496Y720008D01*
G01X1439172Y695538D01*
G01X1437386Y670560D01*
G01X1437386Y480060D01*
G01X1439402Y461483D01*
G01X1445355Y443770D01*
G01X1417629Y448744D01*
G01X1389477Y449689D01*
G01X1361480Y446586D01*
G01X1334218Y439498D01*
G01X1308255Y428572D01*
G01X1284128Y414034D01*
G01X1262337Y396186D01*
G01X1243331Y375395D01*
G01X1227505Y352093D01*
G01X1215185Y326762D01*
G01X1206627Y299925D01*
G01X1202008Y272138D01*
G01X1201423Y243976D01*
G01X35814Y243976D01*
G01X35814Y866115D01*
G01X178547Y866115D01*
G01X180434Y845752D01*
G01X186030Y826084D01*
G01X195145Y807778D01*
G01X207469Y791459D01*
G01X222581Y777682D01*
G01X239967Y766917D01*
G01X259036Y759530D01*
G01X279137Y755772D01*
G01X299587Y755772D01*
G01X319688Y759530D01*
G01X338756Y766917D01*
G01X356143Y777682D01*
G01X371255Y791459D01*
G01X383579Y807778D01*
G01X392694Y826084D01*
G01X398290Y845752D01*
G01X400177Y866115D01*
G01X400177Y866115D01*
G01X608546Y866115D01*
G01X610533Y843399D01*
G01X616435Y821373D01*
G01X626072Y800707D01*
G01X639151Y782028D01*
G01X655275Y765904D01*
G01X673953Y752825D01*
G01X694620Y743189D01*
G01X716645Y737287D01*
G01X739361Y735300D01*
G01X762077Y737287D01*
G01X784102Y743189D01*
G01X804769Y752825D01*
G01X823447Y765904D01*
G01X839571Y782028D01*
G01X852650Y800707D01*
G01X862287Y821373D01*
G01X868189Y843399D01*
G01X870176Y866115D01*
G01X868189Y888830D01*
G01X862287Y910856D01*
G01X852650Y931522D01*
G01X839571Y950201D01*
G01X823447Y966325D01*
G01X804769Y979404D01*
G01X784102Y989041D01*
G01X762077Y994942D01*
G01X739361Y996930D01*
G01X716645Y994942D01*
G01X694620Y989041D01*
G01X673953Y979404D01*
G01X655275Y966325D01*
G01X639151Y950201D01*
G01X626072Y931522D01*
G01X616435Y910856D01*
G01X610533Y888830D01*
G01X608546Y866115D01*
G01X608546Y866115D01*
G01X400177Y866115D01*
G01X398290Y886477D01*
G01X392694Y906146D01*
G01X383579Y924451D01*
G01X371255Y940770D01*
G01X356143Y954547D01*
G01X338756Y965312D01*
G01X319688Y972699D01*
G01X299587Y976457D01*
G01X279137Y976457D01*
G01X259036Y972699D01*
G01X239967Y965312D01*
G01X222581Y954547D01*
G01X207469Y940770D01*
G01X195145Y924451D01*
G01X186030Y906146D01*
G01X180434Y886477D01*
G01X178547Y866115D01*
G01X178547Y866115D01*
G01X35814Y866115D01*
G01X35814Y1306424D01*
G01X1526286Y1306424D01*
G01X1526286Y1305560D01*
G01X1528185Y1290430D01*
G01X1533765Y1276239D01*
G01X1542680Y1263867D01*
G01X1554376Y1254082D01*
G01X1568127Y1247492D01*
G01X1583081Y1244506D01*
G01X1598308Y1245308D01*
G01X1612865Y1249849D01*
G01X1625848Y1257847D01*
G01X1636452Y1268806D01*
G01X1973685Y1606039D01*
G01X1973685Y1606039D01*
G01X1982231Y1616756D01*
G01X1988179Y1629106D01*
G01X1991229Y1642470D01*
G01X1991229Y1656177D01*
G01X1988179Y1669541D01*
G01X1982231Y1681891D01*
G01X1973685Y1692608D01*
G01X1962968Y1701155D01*
G01X1950618Y1707102D01*
G01X1937254Y1710153D01*
G01X1923546Y1710153D01*
G01X1910182Y1707102D01*
G01X1897832Y1701155D01*
G01X1887115Y1692608D01*
G01X1544215Y1349708D01*
G01X1536602Y1340432D01*
G01X1530946Y1329849D01*
G01X1527462Y1318366D01*
G01X1526286Y1306424D01*
G01X35814Y1306424D01*
G01X35814Y2947214D01*
G01X1246886Y2947214D01*
G01X1248739Y2930766D01*
G01X1254206Y2915143D01*
G01X1263012Y2901129D01*
G01X1274715Y2889425D01*
G01X1288730Y2880619D01*
G01X1304353Y2875153D01*
G01X1320800Y2873300D01*
G01X1397000Y2873300D01*
G01X1411420Y2874720D01*
G01X1425286Y2878926D01*
G01X1438064Y2885756D01*
G01X1449265Y2894948D01*
G01X1515112Y2960795D01*
G01X1513592Y2946346D01*
G01X1515520Y2931947D01*
G01X1520788Y2918407D01*
G01X1529097Y2906490D01*
G01X1539981Y2896867D01*
G01X1552827Y2890079D01*
G01X1566910Y2886510D01*
G01X1581437Y2886360D01*
G01X1595591Y2889638D01*
G01X1608573Y2896160D01*
G01X1698446Y2896160D01*
G01X1711178Y2894143D01*
G01X1722663Y2888291D01*
G01X1731778Y2879176D01*
G01X1737630Y2867691D01*
G01X1739646Y2854960D01*
G01X1739646Y2342633D01*
G01X1739646Y2342633D01*
G01X1733473Y2330592D01*
G01X1730097Y2317488D01*
G01X1729682Y2303963D01*
G01X1732249Y2290677D01*
G01X1737672Y2278280D01*
G01X1745686Y2267377D01*
G01X1755899Y2258501D01*
G01X1767813Y2252085D01*
G01X1780846Y2248444D01*
G01X1794360Y2247755D01*
G01X1807695Y2250052D01*
G01X1820199Y2255223D01*
G01X1831263Y2263014D01*
G01X1840344Y2273046D01*
G01X1865742Y2273046D01*
G01X1875099Y2259818D01*
G01X1887113Y2248947D01*
G01X1901207Y2240955D01*
G01X1916704Y2236226D01*
G01X1932859Y2234987D01*
G01X1948895Y2237297D01*
G01X1964043Y2243047D01*
G01X1977575Y2251958D01*
G01X1988839Y2263604D01*
G01X1997296Y2277424D01*
G01X2002538Y2292755D01*
G01X2004314Y2308860D01*
G01X2004314Y2898263D01*
G01X2002422Y2927124D01*
G01X1996780Y2955491D01*
G01X1987483Y2982879D01*
G01X1974691Y3008819D01*
G01X1958622Y3032867D01*
G01X1939552Y3054612D01*
G01X1917807Y3073682D01*
G01X1893759Y3089751D01*
G01X1867819Y3102543D01*
G01X1840431Y3111840D01*
G01X1812064Y3117482D01*
G01X1783203Y3119374D01*
G01X1495246Y3119374D01*
G01X1480827Y3117954D01*
G01X1466961Y3113748D01*
G01X1454182Y3106917D01*
G01X1442981Y3097725D01*
G01X1366384Y3021128D01*
G01X1320800Y3021128D01*
G01X1304353Y3019274D01*
G01X1288730Y3013808D01*
G01X1274715Y3005002D01*
G01X1263012Y2993298D01*
G01X1254206Y2979284D01*
G01X1248739Y2963661D01*
G01X1246886Y2947214D01*
G01X35814Y2947214D01*
G01X35814Y3318876D01*
G01X47741Y3305274D01*
G01X62012Y3294156D01*
G01X78119Y3285918D01*
G01X95487Y3280856D01*
G01X113497Y3279148D01*
G01X173497Y3279148D01*
G01X192190Y3280989D01*
G01X210164Y3286441D01*
G01X226729Y3295295D01*
G01X241248Y3307211D01*
G01X253164Y3321730D01*
G01X262018Y3338295D01*
G01X267470Y3356269D01*
G01X269311Y3374962D01*
G01X268627Y3381909D01*
G01X427964Y3381909D01*
G01X428457Y3363248D01*
G01X432754Y3345082D01*
G01X440675Y3328178D01*
G01X451886Y3313252D01*
G01X465911Y3300932D01*
G01X482159Y3291741D01*
G01X499943Y3286066D01*
G01X518512Y3284148D01*
G01X518512Y3284148D01*
G01X608512Y3284148D01*
G01X627393Y3286132D01*
G01X645449Y3291999D01*
G01X658372Y3299460D01*
G01X1386586Y3299460D01*
G01X1388365Y3284811D01*
G01X1393598Y3271012D01*
G01X1401981Y3258868D01*
G01X1413026Y3249082D01*
G01X1426093Y3242224D01*
G01X1440421Y3238692D01*
G01X1455179Y3238692D01*
G01X1469507Y3242224D01*
G01X1482574Y3249082D01*
G01X1493619Y3258868D01*
G01X1502002Y3271012D01*
G01X1507235Y3284811D01*
G01X1508450Y3294816D01*
G01X1602662Y3294816D01*
G01X1605408Y3280773D01*
G01X1611339Y3267751D01*
G01X1620131Y3256462D01*
G01X1629456Y3236248D01*
G01X1642162Y3217969D01*
G01X1657859Y3202183D01*
G01X1676066Y3189375D01*
G01X1696227Y3179935D01*
G01X1717724Y3174153D01*
G01X1739900Y3172206D01*
G01X2476500Y3172206D01*
G01X2476500Y3172206D01*
G01X2488195Y3170354D01*
G01X2498745Y3164978D01*
G01X2507118Y3156605D01*
G01X2512494Y3146055D01*
G01X2514346Y3134360D01*
G01X2514346Y3104633D01*
G01X2507614Y3091057D01*
G01X2504423Y3076244D01*
G01X2504969Y3061100D01*
G01X2509218Y3046554D01*
G01X2516910Y3033498D01*
G01X2527574Y3022732D01*
G01X2540555Y3014914D01*
G01X2555060Y3010526D01*
G01X2570197Y3009834D01*
G01X2585041Y3012883D01*
G01X2598681Y3019484D01*
G01X2610282Y3029233D01*
G01X2621882Y3019484D01*
G01X2635523Y3012883D01*
G01X2650366Y3009834D01*
G01X2665504Y3010526D01*
G01X2680008Y3014914D01*
G01X2692990Y3022732D01*
G01X2703653Y3033498D01*
G01X2711345Y3046554D01*
G01X2715594Y3061100D01*
G01X2716140Y3076244D01*
G01X2712950Y3091057D01*
G01X2706218Y3104633D01*
G01X2706218Y3210560D01*
G01X2704495Y3232454D01*
G01X2699368Y3253808D01*
G01X2690964Y3274098D01*
G01X2679489Y3292823D01*
G01X2665226Y3309522D01*
G01X2648526Y3323785D01*
G01X2629801Y3335260D01*
G01X2609512Y3343664D01*
G01X2588157Y3348791D01*
G01X2566264Y3350514D01*
G01X1824473Y3350514D01*
G01X1810395Y3357419D01*
G01X1795025Y3360521D01*
G01X1779371Y3359616D01*
G01X1764460Y3354765D01*
G01X1751271Y3346284D01*
G01X1740669Y3334731D01*
G01X1733350Y3320864D01*
G01X1729794Y3305592D01*
G01X1730234Y3289918D01*
G01X1734642Y3274870D01*
G01X1727962Y3277328D01*
G01X1722239Y3281560D01*
G01X1724795Y3295639D01*
G01X1724013Y3309926D01*
G01X1719935Y3323642D01*
G01X1712785Y3336036D01*
G01X1702953Y3346432D01*
G01X1690976Y3354261D01*
G01X1677509Y3359096D01*
G01X1663287Y3360673D01*
G01X1649088Y3358904D01*
G01X1635687Y3353888D01*
G01X1623817Y3345898D01*
G01X1614126Y3335371D01*
G01X1607144Y3322881D01*
G01X1603252Y3309112D01*
G01X1602662Y3294816D01*
G01X1508450Y3294816D01*
G01X1509014Y3299460D01*
G01X1509014Y4036060D01*
G01X1507235Y4050709D01*
G01X1502002Y4064508D01*
G01X1493619Y4076652D01*
G01X1482574Y4086438D01*
G01X1469507Y4093296D01*
G01X1455179Y4096828D01*
G01X1440421Y4096828D01*
G01X1426093Y4093296D01*
G01X1413026Y4086438D01*
G01X1401981Y4076652D01*
G01X1393598Y4064508D01*
G01X1388365Y4050709D01*
G01X1386586Y4036060D01*
G01X1386586Y3299460D01*
G01X1386586Y3299460D01*
G01X658372Y3299460D01*
G01X661891Y3301492D01*
G01X675999Y3314195D01*
G01X687159Y3329555D01*
G01X694881Y3346898D01*
G01X698828Y3365469D01*
G01X698828Y3384454D01*
G01X694881Y3403025D01*
G01X687159Y3420368D01*
G01X675999Y3435728D01*
G01X661891Y3448431D01*
G01X645449Y3457924D01*
G01X627393Y3463791D01*
G01X608512Y3465775D01*
G01X558827Y3465775D01*
G01X569580Y3477942D01*
G01X577280Y3492238D01*
G01X581520Y3507912D01*
G01X582078Y3524140D01*
G01X578926Y3540068D01*
G01X572228Y3554860D01*
G01X562337Y3567737D01*
G01X549773Y3578023D01*
G01X535196Y3585176D01*
G01X519373Y3588821D01*
G01X503136Y3588766D01*
G01X487338Y3585014D01*
G01X472810Y3577763D01*
G01X460315Y3567392D01*
G01X450512Y3554448D01*
G01X443914Y3539612D01*
G01X440870Y3523662D01*
G01X441538Y3507438D01*
G01X445884Y3491793D01*
G01X453680Y3477550D01*
G01X464515Y3465456D01*
G01X477820Y3456149D01*
G01X462080Y3446113D01*
G01X448724Y3433071D01*
G01X438316Y3417574D01*
G01X431298Y3400276D01*
G01X427964Y3381909D01*
G01X268627Y3381909D01*
G01X267470Y3393654D01*
G01X262018Y3411628D01*
G01X253164Y3428193D01*
G01X241248Y3442712D01*
G01X226729Y3454628D01*
G01X210164Y3463482D01*
G01X192190Y3468934D01*
G01X173497Y3470775D01*
G01X113497Y3470775D01*
G01X95487Y3469067D01*
G01X78119Y3464005D01*
G01X62012Y3455767D01*
G01X47741Y3444649D01*
G01X35814Y3431047D01*
G37*
G36*
G01X2969410Y2889317D02*
G01X2983090Y2884294D01*
G01X2997570Y2882647D01*
G01X3012028Y2884469D01*
G01X3012028Y2158208D01*
G01X3013749Y2136326D01*
G01X3018871Y2114982D01*
G01X3027266Y2094701D01*
G01X3038730Y2075982D01*
G01X3052979Y2059286D01*
G01X2984828Y2059286D01*
G01X2973133Y2061139D01*
G01X2962582Y2066514D01*
G01X2954210Y2074887D01*
G01X2948834Y2085437D01*
G01X2946982Y2097132D01*
G01X2946982Y2854754D01*
G01X2948538Y2865497D01*
G01X2953080Y2875355D01*
G01X2960234Y2883520D01*
G01X2969410Y2889317D01*
G37*
G36*
G01X3038139Y3116370D02*
G01X3026725Y3124483D01*
G01X3013766Y3129790D01*
G01X2999939Y3132013D01*
G01X2985970Y3131035D01*
G01X2972588Y3126908D01*
G01X2960494Y3119848D01*
G01X2968232Y3143934D01*
G01X2980001Y3139112D01*
G01X2992513Y3136826D01*
G01X3005227Y3137175D01*
G01X3017594Y3140143D01*
G01X3029081Y3145604D01*
G01X3304858Y3145604D01*
G01X3300491Y3131635D01*
G01X3299294Y3117049D01*
G01X3301326Y3102555D01*
G01X3306487Y3088860D01*
G01X3314527Y3076631D01*
G01X3314527Y2612464D01*
G01X3313237Y2602669D01*
G01X3309456Y2593541D01*
G01X3303442Y2585703D01*
G01X3256076Y2538337D01*
G01X3157012Y2538337D01*
G01X3143577Y2544726D01*
G01X3128998Y2547686D01*
G01X3114136Y2547041D01*
G01X3114136Y3007944D01*
G01X3112381Y3027989D01*
G01X3107169Y3047423D01*
G01X3098659Y3065657D01*
G01X3087111Y3082134D01*
G01X3072874Y3096353D01*
G01X3056383Y3107882D01*
G01X3038139Y3116370D01*
G37*
G36*
G01X3151982Y2120362D02*
G01X3140287Y2122214D01*
G01X3129737Y2127590D01*
G01X3121364Y2135963D01*
G01X3115988Y2146513D01*
G01X3114136Y2158208D01*
G01X3114136Y2190166D01*
G01X3127494Y2186846D01*
G01X3141250Y2186356D01*
G01X3154810Y2188716D01*
G01X3167592Y2193824D01*
G01X3179043Y2201461D01*
G01X3338241Y2201461D01*
G01X3360135Y2203184D01*
G01X3381490Y2208311D01*
G01X3401779Y2216715D01*
G01X3420504Y2228190D01*
G01X3437204Y2242453D01*
G01X3451467Y2259152D01*
G01X3462941Y2277877D01*
G01X3471346Y2298167D01*
G01X3476472Y2319522D01*
G01X3478195Y2341415D01*
G01X3478195Y2345918D01*
G01X3486033Y2357753D01*
G01X3491172Y2370985D01*
G01X3493377Y2385008D01*
G01X3492547Y2399179D01*
G01X3488720Y2412848D01*
G01X3482072Y2425390D01*
G01X3472907Y2436229D01*
G01X3558821Y2436229D01*
G01X3570516Y2434377D01*
G01X3581066Y2429001D01*
G01X3589439Y2420629D01*
G01X3594814Y2410078D01*
G01X3596667Y2398383D01*
G01X3596667Y2085795D01*
G01X3580633Y2097892D01*
G01X3563033Y2107569D01*
G01X3544229Y2114627D01*
G01X3524609Y2118921D01*
G01X3504576Y2120362D01*
G01X3151982Y2120362D01*
G37*
G36*
G01X3376087Y2345918D02*
G01X3376087Y2341415D01*
G01X3374235Y2329720D01*
G01X3368860Y2319170D01*
G01X3360487Y2310797D01*
G01X3349937Y2305421D01*
G01X3338241Y2303569D01*
G01X3179043Y2303569D01*
G01X3167592Y2311206D01*
G01X3154810Y2316315D01*
G01X3141250Y2318675D01*
G01X3127494Y2318184D01*
G01X3114136Y2314864D01*
G01X3114136Y2426279D01*
G01X3129749Y2425698D01*
G01X3145001Y2429088D01*
G01X3158897Y2436229D01*
G01X3381376Y2436229D01*
G01X3372211Y2425390D01*
G01X3365563Y2412848D01*
G01X3361736Y2399179D01*
G01X3360906Y2385008D01*
G01X3363111Y2370985D01*
G01X3368250Y2357753D01*
G01X3376087Y2345918D01*
G37*
G36*
G01X3416635Y3076631D02*
G01X3424674Y3088860D01*
G01X3429836Y3102555D01*
G01X3431868Y3117049D01*
G01X3430671Y3131635D01*
G01X3426303Y3145604D01*
G01X3811497Y3145604D01*
G01X3823192Y3143751D01*
G01X3833743Y3138376D01*
G01X3842115Y3130003D01*
G01X3847491Y3119453D01*
G01X3849343Y3107758D01*
G01X3849343Y1475632D01*
G01X3835023Y1476591D01*
G01X3820831Y1474446D01*
G01X3807434Y1469298D01*
G01X3795458Y1461388D01*
G01X3682376Y1461388D01*
G01X3670681Y1463240D01*
G01X3660130Y1468616D01*
G01X3651758Y1476989D01*
G01X3646382Y1487539D01*
G01X3644530Y1499234D01*
G01X3644530Y1587164D01*
G01X3662309Y1573955D01*
G01X3681950Y1563717D01*
G01X3702960Y1556705D01*
G01X3724813Y1553096D01*
G01X3737196Y1544784D01*
G01X3751123Y1539450D01*
G01X3765890Y1537362D01*
G01X3780750Y1538628D01*
G01X3794951Y1543182D01*
G01X3807776Y1550795D01*
G01X3818575Y1561080D01*
G01X3826802Y1573520D01*
G01X3832042Y1587483D01*
G01X3834028Y1602263D01*
G01X3832662Y1617114D01*
G01X3828011Y1631284D01*
G01X3820311Y1644057D01*
G01X3809952Y1654785D01*
G01X3797457Y1662928D01*
G01X3783459Y1668072D01*
G01X3768665Y1669958D01*
G01X3753824Y1668491D01*
G01X3739686Y1663744D01*
G01X3726966Y1655957D01*
G01X3717798Y1659717D01*
G01X3709921Y1665728D01*
G01X3703874Y1673578D01*
G01X3700072Y1682727D01*
G01X3698775Y1692551D01*
G01X3698775Y2398383D01*
G01X3697052Y2420277D01*
G01X3691925Y2441631D01*
G01X3683521Y2461921D01*
G01X3672046Y2480646D01*
G01X3657783Y2497346D01*
G01X3641084Y2511608D01*
G01X3622358Y2523083D01*
G01X3602069Y2531487D01*
G01X3580714Y2536614D01*
G01X3558821Y2538337D01*
G01X3395392Y2538337D01*
G01X3404549Y2555570D01*
G01X3411219Y2573909D01*
G01X3415274Y2592997D01*
G01X3416635Y2612464D01*
G01X3416635Y3076631D01*
G37*
G36*
G01X3826188Y3246938D02*
G01X4988007Y3246938D01*
G01X4993519Y3246640D01*
G01X5005214Y3244788D01*
G01X5015765Y3239412D01*
G01X5024137Y3231039D01*
G01X5029513Y3220489D01*
G01X5031365Y3208794D01*
G01X5031365Y2200104D01*
G01X5019040Y2206331D01*
G01X5005693Y2209870D01*
G01X4991902Y2210568D01*
G01X4978266Y2208395D01*
G01X4965375Y2203445D01*
G01X4953789Y2195933D01*
G01X4910159Y2195933D01*
G01X4888266Y2194210D01*
G01X4866911Y2189083D01*
G01X4846622Y2180679D01*
G01X4827896Y2169204D01*
G01X4811197Y2154941D01*
G01X4796934Y2138242D01*
G01X4785459Y2119516D01*
G01X4777055Y2099227D01*
G01X4771928Y2077872D01*
G01X4770205Y2055979D01*
G01X4770205Y1600402D01*
G01X4768353Y1588707D01*
G01X4762977Y1578156D01*
G01X4754605Y1569784D01*
G01X4744054Y1564408D01*
G01X4732359Y1562556D01*
G01X4075970Y1562556D01*
G01X4062007Y1561322D01*
G01X4048477Y1557659D01*
G01X4035799Y1551680D01*
G01X4020136Y1547714D01*
G01X4005898Y1540077D01*
G01X3993929Y1529223D01*
G01X3984940Y1515797D01*
G01X3979464Y1500596D01*
G01X3977828Y1484522D01*
G01X3980127Y1468529D01*
G01X3986225Y1453567D01*
G01X3995761Y1440524D01*
G01X4008168Y1430174D01*
G01X4022709Y1423131D01*
G01X4038522Y1419815D01*
G01X4038031Y1404853D01*
G01X4040909Y1390162D01*
G01X4047008Y1376491D01*
G01X4056018Y1364536D01*
G01X4067480Y1354907D01*
G01X4080810Y1348094D01*
G01X4095328Y1344445D01*
G01X4095050Y1340423D01*
G01X4081373Y1335262D01*
G01X4069158Y1327230D01*
G01X4005052Y1327230D01*
G01X3997273Y1329095D01*
G01X3989297Y1329722D01*
G01X3977602Y1331574D01*
G01X3967052Y1336950D01*
G01X3958679Y1345323D01*
G01X3953304Y1355873D01*
G01X3951451Y1367568D01*
G01X3951451Y3107758D01*
G01X3949600Y3130448D01*
G01X3944094Y3152538D01*
G01X3935079Y3173444D01*
G01X3922794Y3192611D01*
G01X3907565Y3209533D01*
G01X3889793Y3223762D01*
G01X3869949Y3234921D01*
G01X3848559Y3242715D01*
G01X3826188Y3246938D01*
G37*
G36*
G01X4872313Y2055979D02*
G01X4873658Y2065976D01*
G01X4877595Y2075264D01*
G01X4883847Y2083181D01*
G01X4883601Y2071038D01*
G01X4882119Y2057201D01*
G01X4882119Y1474626D01*
G01X4880267Y1462931D01*
G01X4874891Y1452380D01*
G01X4866518Y1444008D01*
G01X4855968Y1438632D01*
G01X4844273Y1436780D01*
G01X4279988Y1436780D01*
G01X4270654Y1446114D01*
G01X4262343Y1452841D01*
G01X4252813Y1457690D01*
G01X4242483Y1460448D01*
G01X4732359Y1460448D01*
G01X4754253Y1462171D01*
G01X4775608Y1467298D01*
G01X4795897Y1475702D01*
G01X4814622Y1487177D01*
G01X4831322Y1501439D01*
G01X4845585Y1518139D01*
G01X4857059Y1536864D01*
G01X4865464Y1557154D01*
G01X4870590Y1578508D01*
G01X4872313Y1600402D01*
G01X4872313Y2055979D01*
G37*
G54D10*
G01X35814Y3431047D02*
G01X35814Y4183873D01*
G03X113497Y4144145I77683J56086D01*
G01X173497Y4144145D01*
G03X173497Y4335772I0J95814D01*
G01X113497Y4335772D01*
G03X35814Y4296044I0J-95814D01*
G01X35814Y5313496D01*
G01X39094Y5334814D01*
G01X44341Y5349243D01*
G01X54375Y5361787D01*
G01X68612Y5371752D01*
G01X84590Y5379015D01*
G01X102412Y5381985D01*
G01X6339452Y5381985D01*
G01X6563724Y5161538D01*
G01X6563724Y4033959D01*
G03X6574058Y4008792I35814J0D01*
G01X6919234Y3659336D01*
G01X6919234Y620710D01*
G01X6574304Y278234D01*
G03X6563724Y252820I25234J-25415D01*
G01X6563724Y12422D01*
G01X6560522Y-6793D01*
G01X6555198Y-21434D01*
G01X6544435Y-34887D01*
G01X6530982Y-45650D01*
G01X6516341Y-50974D01*
G01X6497126Y-54176D01*
G01X102412Y-54176D01*
G01X83197Y-50974D01*
G01X68556Y-45650D01*
G01X55103Y-34887D01*
G01X44341Y-21434D01*
G01X39017Y-6793D01*
G01X35814Y12422D01*
G01X35814Y3318876D01*
G03X113497Y3279148I77683J56086D01*
G01X173497Y3279148D01*
G03X173497Y3470775I0J95814D01*
G01X113497Y3470775D01*
G03X35814Y3431047I0J-95814D01*
G01X178547Y866115D02*
G03X400177Y866115I110815J0D01*
G03X178547Y866115I-110815J0D01*
G01X608512Y4149145D02*
G03X608512Y4330772I0J90814D01*
G01X518512Y4330772D01*
G03X477845Y4158759I0J-90814D01*
G03X503141Y4026127I33648J-62311D01*
G03X558799Y4149145I8352J70321D01*
G01X608512Y4149145D01*
G01X518512Y3284148D02*
G01X608512Y3284148D01*
G03X608512Y3465775I0J90814D01*
G01X558827Y3465775D01*
G03X503136Y3588766I-47335J52671D01*
G03X477820Y3456149I8357J-70320D01*
G03X518512Y3284148I40692J-81187D01*
G01X573786Y3887937D02*
G01X573786Y3667415D01*
G03X577588Y3646179I61214J0D01*
G03X632718Y3542832I197405J38928D01*
G01X680615Y3494935D01*
G03X767185Y3494935I43285J43285D01*
G03X767185Y3581505I-43285J43285D01*
G01X719288Y3629402D01*
G02X696214Y3685107I55705J55705D01*
G01X696214Y3887937D01*
G02X727384Y3963189I106422J0D01*
G01X767185Y4002989D01*
G03X767185Y4089559I-43285J43285D01*
G03X680615Y4089559I-43285J-43285D01*
G01X640815Y4049758D01*
G03X573786Y3887937I161821J-161821D01*
G01X608546Y866115D02*
G03X870176Y866115I130815J0D01*
G03X608546Y866115I-130815J0D01*
G01X2611015Y2564043D02*
G03X2697585Y2564043I43285J43285D01*
G01X2811247Y2677705D01*
G03X2844874Y2729102I-106147J106147D01*
G01X2844874Y2097132D01*
G03X2984828Y1957178I139954J0D01*
G01X3446715Y1957178D01*
G02X3484561Y1919332I0J-37846D01*
G01X3484561Y1435574D01*
G03X3433642Y1428855I-17461J-63974D01*
G02X3416554Y1460500I20758J31645D01*
G01X3416554Y1722979D01*
G03X3365500Y1831614I-51054J42321D01*
G03X3314446Y1722979I0J-66314D01*
G01X3314446Y1460500D01*
G03X3420105Y1324813I139954J0D01*
G03X3452653Y1306879I46995J46787D01*
G03X3385379Y1187276I72680J-119603D01*
G01X3385379Y833297D01*
G03X3340100Y846074I-45279J-73837D01*
G01X1612900Y846074D01*
G03X1437386Y670560I0J-175514D01*
G01X1437386Y480060D01*
G03X1445355Y443770I86614J0D01*
G03X1301081Y83265I-48355J-189770D01*
G03X1533918Y394016I95919J170735D01*
G03X1610614Y480060I-9918J86044D01*
G01X1610614Y670560D01*
G02X1612900Y672846I2286J0D01*
G01X3340100Y672846D01*
G03X3385379Y685623I0J86614D01*
G01X3385379Y585589D01*
G03X3436433Y476954I51054J-42321D01*
G03X3487487Y585589I0J66314D01*
G01X3487487Y1187276D01*
G02X3525333Y1225122I37846J0D01*
G01X3726803Y1225122D01*
G03X3739295Y1163843I63546J-18958D01*
G01X3739295Y624541D01*
G03X3800856Y508604I139954J0D01*
G01X3553155Y508604D01*
G03X3553155Y360776I0J-73914D01*
G01X5331884Y360776D01*
G03X5494698Y523590I0J162814D01*
G01X5494698Y939209D01*
G03X5346870Y939209I-73914J0D01*
G01X5346870Y523590D01*
G02X5331884Y508604I-14986J0D01*
G01X4486536Y508604D01*
G03X4491833Y527798I-60552J27038D01*
G03X4577548Y578891I20492J63069D01*
G03X4515574Y657101I-65224J11976D01*
G03X4493591Y660654I-21983J-66234D01*
G01X3951941Y660654D01*
G02X3914095Y698500I0J37846D01*
G01X3914095Y1082600D01*
G03X3854841Y1190726I-51054J42321D01*
G03X3853896Y1225122I-64492J15438D01*
G01X4069158Y1225122D01*
G03X4106110Y1210080I42321J51054D01*
G03X4133537Y1155561I66309J-800D01*
G03X4145758Y1070298I56026J-35477D01*
G03X4231884Y1069030I43805J49786D01*
G01X5308600Y1069030D01*
G03X5448554Y1208984I0J139954D01*
G01X5448554Y1678187D01*
G03X5448554Y1745733I-51054J33773D01*
G01X5448554Y2057400D01*
G02X5486400Y2095246I37846J0D01*
G01X5784686Y2095246D01*
G01X5784686Y2061300D01*
G03X5820500Y2025486I35814J0D01*
G01X5990500Y2025486D01*
G03X6026314Y2061300I0J35814D01*
G01X6026314Y2222246D01*
G01X6065542Y2222246D01*
G03X6199445Y2032281I93958J-75946D01*
G03X6185520Y2264279I-39945J114019D01*
G03X6070600Y2324354I-114920J-79879D01*
G01X5397500Y2324354D01*
G03X5279837Y2260179I0J-139954D01*
G01X5279837Y2451322D01*
G02X5317683Y2489168I37846J0D01*
G01X6032500Y2489168D01*
G03X6168121Y2594568I0J139954D01*
G03X6130062Y2707326I-46721J47032D01*
G03X6064089Y2608278I-8662J-65726D01*
G02X6032500Y2591276I-31589J20844D01*
G01X5317683Y2591276D01*
G03X5191699Y2512274I0J-139954D01*
G01X5191699Y3312421D01*
G03X5148524Y3413520I-139954J0D01*
G01X5815555Y3413520D01*
G02X5867146Y3361929I0J-51591D01*
G01X5867146Y3358633D01*
G03X5876847Y3279726I51054J-33773D01*
G03X5956300Y3276948I41353J45134D01*
G03X6035753Y3279726I38100J47912D01*
G03X6045454Y3358633I-41353J45134D01*
G01X6045454Y3437672D01*
G03X5984488Y3553206I-139954J0D01*
G01X6074463Y3553206D01*
G02X6083046Y3544623I0J-8583D01*
G01X6083046Y3302000D01*
G03X6188743Y3166303I139954J0D01*
G03X6301441Y3204558I46957J46797D01*
G03X6202261Y3270342I-65741J8542D01*
G02X6185154Y3302000I20739J31658D01*
G01X6185154Y3391925D01*
G03X6248275Y3417521I12446J59935D01*
G03X6248654Y3485633I-50675J34339D01*
G01X6248654Y3596879D01*
G03X6114019Y3731514I-134635J0D01*
G01X6113711Y3731514D01*
G03X6113711Y3781806I-55811J25146D01*
G01X6277686Y3781806D01*
G02X6297727Y3761765I0J-20041D01*
G01X6297727Y3330441D01*
G03X6392461Y3235706I94734J-0D01*
G01X6429530Y3235706D01*
G02X6438646Y3226590I0J-9116D01*
G01X6438646Y3009900D01*
G03X6578600Y2869946I139954J0D01*
G01X6714079Y2869946D01*
G03X6822714Y2921000I42321J51054D01*
G03X6714079Y2972054I-66314J0D01*
G01X6578600Y2972054D01*
G02X6540754Y3009900I0J37846D01*
G01X6540754Y3226590D01*
G03X6429530Y3337814I-111224J0D01*
G01X6399835Y3337814D01*
G01X6399835Y3761765D01*
G03X6277686Y3883914I-122149J0D01*
G01X3526273Y3883914D01*
G03X3457090Y3882793I-33773J-51054D01*
G03X3433149Y3817874I35410J-49933D01*
G01X2930550Y3817874D01*
G01X2930550Y3935324D01*
G03X2768600Y4097274I-161950J0D01*
G01X2527300Y4097274D01*
G03X2466086Y4036060I0J-61214D01*
G03X2527300Y3974846I61214J0D01*
G01X2768600Y3974846D01*
G02X2808122Y3935324I0J-39522D01*
G01X2808122Y3236957D01*
G02X2788815Y3190345I-65919J0D01*
G03X2732786Y3055078I135266J-135266D01*
G01X2732786Y2783852D01*
G02X2724677Y2764275I-27686J0D01*
G01X2611015Y2650613D01*
G03X2611015Y2564043I43285J-43285D01*
G01X1739646Y2342633D02*
G03X1755899Y2258501I51054J-33773D01*
G03X1840344Y2273046I34801J50359D01*
G01X1865742Y2273046D01*
G03X2004314Y2308860I64658J35814D01*
G01X2004314Y2898263D01*
G03X1783203Y3119374I-221111J0D01*
G01X1495246Y3119374D01*
G03X1442981Y3097725I0J-73914D01*
G01X1366384Y3021128D01*
G01X1320800Y3021128D01*
G03X1320800Y2873300I0J-73914D01*
G01X1397000Y2873300D01*
G03X1449265Y2894948I0J73914D01*
G01X1515112Y2960795D01*
G03X1539981Y2896867I59688J-13581D01*
G03X1608573Y2896160I34819J50347D01*
G01X1698446Y2896160D01*
G02X1739646Y2854960I0J-41200D01*
G01X1739646Y2342633D01*
G01X1328166Y5077460D02*
G03X1719834Y5077460I195834J0D01*
G03X1328166Y5077460I-195834J0D01*
G01X1386586Y3299460D02*
G03X1509014Y3299460I61214J0D01*
G01X1509014Y4036060D01*
G03X1386586Y4036060I-61214J0D01*
G01X1386586Y3299460D01*
G01X1973685Y1606039D02*
G03X1973685Y1692608I-43285J43285D01*
G03X1887115Y1692608I-43285J-43285D01*
G01X1544215Y1349708D01*
G03X1526286Y1306424I43285J-43285D01*
G01X1526286Y1305560D01*
G03X1636452Y1268806I61214J0D01*
G01X1973685Y1606039D01*
G01X2476500Y3172206D02*
G02X2514346Y3134360I0J-37846D01*
G01X2514346Y3104633D01*
G03X2527574Y3022732I51054J-33773D01*
G03X2610282Y3029233I37826J48128D01*
G03X2692990Y3022732I44882J41627D01*
G03X2706218Y3104633I-37826J48128D01*
G01X2706218Y3210560D01*
G03X2566264Y3350514I-139954J0D01*
G01X1824473Y3350514D01*
G03X1751271Y3346284I-33773J-51054D01*
G03X1734642Y3274870I39429J-46824D01*
G02X1722239Y3281560I5258J24590D01*
G03X1649088Y3358904I-58539J17900D01*
G03X1620131Y3256462I14612J-59444D01*
G03X1739900Y3172206I119769J42998D01*
G01X2476500Y3172206D01*
G01X3228086Y101460D02*
G03X3314700Y14846I86614J0D01*
G01X3809860Y14846D01*
G03X3871175Y40285I0J86614D01*
G03X3889068Y136960I-61175J61315D01*
G03X3805083Y188074I-79068J-35360D01*
G01X3314700Y188074D01*
G03X3228086Y101460I0J-86614D01*
G01X5705994Y899880D02*
G03X5606874Y833930I-33371J-57306D01*
G03X5719673Y795844I65748J8645D01*
G03X5825112Y931475I-34515J135631D01*
G01X5825112Y1514946D01*
G01X5986594Y1514946D01*
G01X5986594Y865399D01*
G02X5967260Y832389I-37846J0D01*
G03X5865555Y770202I-35691J-55890D01*
G03X5977182Y728364I66014J6297D01*
G03X6088702Y865399I-28435J137035D01*
G01X6088702Y1537864D01*
G03X6280314Y1635760I70798J97896D01*
G03X6088702Y1733656I-120814J0D01*
G01X6088702Y1791864D01*
G03X6271581Y1934859I70798J97896D01*
G03X6040628Y1911336I-112081J-45099D01*
G03X6026314Y1898534I85919J-110476D01*
G01X6026314Y1974760D01*
G03X5990500Y2010574I-35814J0D01*
G01X5820500Y2010574D01*
G03X5784686Y1974760I0J-35814D01*
G01X5784686Y1916880D01*
G03X5723004Y1800860I78272J-116020D01*
G01X5723004Y931475D01*
G02X5705994Y899880I-37846J0D01*
G01X5715610Y2933257D02*
G03X5766664Y2838270I51054J-33773D01*
G03X5817718Y2933257I0J61214D01*
G01X5817718Y2959100D01*
G02X5855564Y2996946I37846J0D01*
G01X6159500Y2996946D01*
G02X6197346Y2959100I0J-37846D01*
G01X6197346Y2950621D01*
G03X6184900Y2927413I51054J-42321D01*
G03X6091441Y2967461I-63500J-19113D01*
G03X6068415Y2868424I29959J-59161D01*
G02X6032500Y2842514I-35915J11936D01*
G01X5823535Y2842514D01*
G03X5715610Y2734588I0J-107926D01*
G01X5715610Y2723633D01*
G03X5766664Y2628646I51054J-33773D01*
G03X5817718Y2723633I0J61214D01*
G01X5817718Y2734588D01*
G02X5823535Y2740406I5818J0D01*
G01X6032500Y2740406D01*
G03X6171606Y2864977I0J139954D01*
G03X6184900Y2889187I-50206J43323D01*
G03X6279741Y2849859I63500J19113D01*
G03X6299454Y2950621I-31341J58441D01*
G01X6299454Y2959100D01*
G03X6159500Y3099054I-139954J0D01*
G01X5855564Y3099054D01*
G03X5715610Y2959100I0J-139954D01*
G01X5715610Y2933257D01*
G01X6292686Y1635760D02*
G03X6534314Y1635760I120814J0D01*
G03X6292686Y1635760I-120814J0D01*
G01X6292686Y2146300D02*
G03X6534314Y2146300I120814J0D01*
G03X6292686Y2146300I-120814J0D01*
G01X6292686Y1889760D02*
G03X6534314Y1889760I120814J0D01*
G03X6292686Y1889760I-120814J0D01*
G01X6408166Y3553460D02*
G03X6799834Y3553460I195834J0D01*
G03X6408166Y3553460I-195834J0D01*
G01X6408166Y759460D02*
G03X6799834Y759460I195834J0D01*
G03X6408166Y759460I-195834J0D01*
G01X6546686Y1635760D02*
G03X6788314Y1635760I120814J0D01*
G03X6546686Y1635760I-120814J0D01*
G01X6546686Y2146300D02*
G03X6788314Y2146300I120814J0D01*
G03X6546686Y2146300I-120814J0D01*
G01X6546686Y1889760D02*
G03X6788314Y1889760I120814J0D01*
G03X6546686Y1889760I-120814J0D01*
G01X2969410Y2889317D02*
G03X3012028Y2884469I27790J54543D01*
G01X3012028Y2158208D01*
G03X3052979Y2059286I139954J0D01*
G01X2984828Y2059286D01*
G02X2946982Y2097132I0J37846D01*
G01X2946982Y2854754D01*
G02X2969410Y2889317I37846J0D01*
G01X3038139Y3116370D02*
G03X2960494Y3119848I-40939J-45510D01*
G03X2968232Y3143934I-226064J85919D01*
G03X3029081Y3145604I28968J53926D01*
G01X3304858Y3145604D01*
G03X3314527Y3076631I60722J-26652D01*
G01X3314527Y2612464D01*
G02X3303442Y2585703I-37846J0D01*
G01X3256076Y2538337D01*
G01X3157012Y2538337D01*
G03X3114136Y2547041I-32812J-51677D01*
G01X3114136Y3007944D01*
G03X3038139Y3116370I-115344J0D01*
G01X3151982Y2120362D02*
G02X3114136Y2158208I0J37846D01*
G01X3114136Y2190166D01*
G03X3179043Y2201461I22586J62349D01*
G01X3338241Y2201461D01*
G03X3478195Y2341415I0J139954D01*
G01X3478195Y2345918D01*
G03X3472907Y2436229I-51054J42321D01*
G01X3558821Y2436229D01*
G02X3596667Y2398383I0J-37846D01*
G01X3596667Y2085795D01*
G03X3504576Y2120362I-92091J-105387D01*
G01X3151982Y2120362D01*
G01X3376087Y2345918D02*
G01X3376087Y2341415D01*
G02X3338241Y2303569I-37846J0D01*
G01X3179043Y2303569D01*
G03X3114136Y2314864I-42321J-51054D01*
G01X3114136Y2426279D01*
G03X3158897Y2436229I10064J60381D01*
G01X3381376Y2436229D01*
G03X3376087Y2345918I45765J-47991D01*
G01X3416635Y3076631D02*
G03X3426303Y3145604I-51054J42321D01*
G01X3811497Y3145604D01*
G02X3849343Y3107758I0J-37846D01*
G01X3849343Y1475632D01*
G03X3795458Y1461388I-11565J-65298D01*
G01X3682376Y1461388D01*
G02X3644530Y1499234I0J37846D01*
G01X3644530Y1587164D01*
G03X3724813Y1553096I92091J105387D01*
G03X3834028Y1602263I42916J50555D01*
G03X3726966Y1655957I-66300J1387D01*
G02X3698775Y1692551I9655J36594D01*
G01X3698775Y2398383D01*
G03X3558821Y2538337I-139954J0D01*
G01X3395392Y2538337D01*
G03X3416635Y2612464I-118711J74127D01*
G01X3416635Y3076631D01*
G01X3826188Y3246938D02*
G01X4988007Y3246938D01*
G03X4993519Y3246640I5512J50756D01*
G02X5031365Y3208794I0J-37846D01*
G01X5031365Y2200104D01*
G03X4953789Y2195933I-35902J-55755D01*
G01X4910159Y2195933D01*
G03X4770205Y2055979I0J-139954D01*
G01X4770205Y1600402D01*
G02X4732359Y1562556I-37846J0D01*
G01X4075970Y1562556D01*
G03X4035799Y1551680I0J-79627D01*
G03X3977828Y1484522I8328J-65789D01*
G03X4038522Y1419815I66300J1369D01*
G03X4095328Y1344445I65609J-9643D01*
G03X4095050Y1340423I65986J-6584D01*
G03X4069158Y1327230I16429J-64247D01*
G01X4005052Y1327230D01*
G03X3989297Y1329722I-15755J-48562D01*
G02X3951451Y1367568I0J37846D01*
G01X3951451Y3107758D01*
G03X3826188Y3246938I-139954J0D01*
G01X4872313Y2055979D02*
G02X4883847Y2083181I37846J0D01*
G03X4883601Y2071038I65899J-7408D01*
G03X4882119Y2057201I63859J-13837D01*
G01X4882119Y1474626D01*
G02X4844273Y1436780I-37846J0D01*
G01X4279988Y1436780D01*
G01X4270654Y1446114D01*
G03X4242483Y1460448I-36101J-36101D01*
G01X4732359Y1460448D01*
G03X4872313Y1600402I0J139954D01*
G01X4872313Y2055979D01*
G54D11*
G01X563512Y4294704D02*
G01X563512Y4320612D01*
G01X563512Y4185213D02*
G01X563512Y4159305D01*
G01X663258Y4239959D02*
G01X689166Y4239959D01*
G01X463766Y4239959D02*
G01X437858Y4239959D01*
G01X143497Y4299704D02*
G01X143497Y4325612D01*
G01X143497Y4180213D02*
G01X143497Y4154305D01*
G01X233243Y4239959D02*
G01X259151Y4239959D01*
G01X143497Y3434707D02*
G01X143497Y3460615D01*
G01X143497Y3315216D02*
G01X143497Y3289308D01*
G01X233243Y3374962D02*
G01X259151Y3374962D01*
G01X563512Y3429707D02*
G01X563512Y3455615D01*
G01X563512Y3320216D02*
G01X563512Y3294308D01*
G01X663258Y3374962D02*
G01X689166Y3374962D01*
G01X463766Y3374962D02*
G01X437858Y3374962D01*
G01X6328754Y1635760D02*
G01X6302846Y1635760D01*
G01X6498246Y1635760D02*
G01X6524154Y1635760D01*
G01X6413500Y1720506D02*
G01X6413500Y1746414D01*
G01X6413500Y1551014D02*
G01X6413500Y1525106D01*
G01X6582754Y2146300D02*
G01X6556846Y2146300D01*
G01X6752246Y2146300D02*
G01X6778154Y2146300D01*
G01X6667500Y2231046D02*
G01X6667500Y2256954D01*
G01X6667500Y2061554D02*
G01X6667500Y2035646D01*
G01X6582754Y1635760D02*
G01X6556846Y1635760D01*
G01X6752246Y1635760D02*
G01X6778154Y1635760D01*
G01X6667500Y1720506D02*
G01X6667500Y1746414D01*
G01X6667500Y1551014D02*
G01X6667500Y1525106D01*
G01X6582754Y1889760D02*
G01X6556846Y1889760D01*
G01X6752246Y1889760D02*
G01X6778154Y1889760D01*
G01X6667500Y1974506D02*
G01X6667500Y2000414D01*
G01X6667500Y1805014D02*
G01X6667500Y1779106D01*
G04 Copper End*

G04 Pad Start*
G54D12*
G01X563512Y4239959D03*
G01X563512Y3374962D03*
G54D13*
G01X143497Y4239959D03*
G01X143497Y3374962D03*
G54D14*
G01X5905500Y1889760D03*
G54D15*
G01X6159500Y1889760D03*
G01X6413500Y1889760D03*
G01X6667500Y1889760D03*
G54D14*
G01X5905500Y1635760D03*
G54D15*
G01X6159500Y1635760D03*
G01X6413500Y1635760D03*
G01X6667500Y1635760D03*
G54D14*
G01X5905500Y2146300D03*
G54D15*
G01X6159500Y2146300D03*
G01X6413500Y2146300D03*
G01X6667500Y2146300D03*
G04 Pad End*

G04 Via Start*
G54D16*
G01X6235700Y3213100D03*
G54D17*
G01X6083300Y3175000D03*
G01X762000Y4124960D03*
G01X787400Y3896360D03*
G01X2235200Y3642360D03*
G01X2057400Y3642360D03*
G01X723900Y3677920D03*
G01X1930400Y1649324D03*
G01X2057400Y1649324D03*
G01X1790700Y2308860D03*
G01X1574800Y2947214D03*
G01X2997200Y2721628D03*
G01X2997200Y2943860D03*
G01X2997200Y3070860D03*
G01X2997200Y3197860D03*
G01X2869336Y3070860D03*
G01X2997200Y3299460D03*
G01X1790700Y3299460D03*
G01X1663700Y3299460D03*
G01X2655164Y3070860D03*
G01X2565400Y3070860D03*
G01X3302000Y3604260D03*
G01X3302000Y3464560D03*
G01X3124200Y2486660D03*
G01X3238500Y3680460D03*
G01X3441700Y3680460D03*
G01X3522049Y3526572D03*
G01X5994400Y3324860D03*
G01X6197600Y3451860D03*
G01X5766664Y2689860D03*
G01X723900Y4046274D03*
G01X723900Y3538220D03*
G01X1346200Y3498973D03*
G01X1346200Y4034585D03*
G01X939800Y3147060D03*
G01X1447800Y4036060D03*
G01X1447800Y3299460D03*
G01X1587500Y1305560D03*
G01X2869336Y3756660D03*
G01X2654300Y2607328D03*
G01X2527300Y4036060D03*
G01X5562600Y3756660D03*
G01X1320800Y2947214D03*
G01X1397000Y2947214D03*
G01X1930400Y2308860D03*
G54D19*
G01X3340100Y759460D03*
G54D17*
G01X2971800Y4214203D03*
G01X5397500Y1711960D03*
G01X5308600Y1775460D03*
G01X2869336Y3299460D03*
G01X495300Y5166360D03*
G01X685800Y5166360D03*
G01X876300Y5166360D03*
G01X1257300Y5166360D03*
G01X114300Y4975860D03*
G01X304800Y4975860D03*
G01X495300Y4975860D03*
G01X685800Y4975860D03*
G01X876300Y4975860D03*
G01X1066800Y4975860D03*
G01X1257300Y4975860D03*
G01X2095500Y5166360D03*
G01X2781300Y4975860D03*
G01X1638300Y4785360D03*
G01X114300Y4594860D03*
G01X1993900Y4594860D03*
G01X3787904Y4937916D03*
G01X4305300Y4937760D03*
G01X4686300Y4937760D03*
G01X6210300Y4937760D03*
G01X114300Y4404360D03*
G01X304800Y4213860D03*
G01X685800Y4213860D03*
G01X876300Y4213860D03*
G01X114300Y4023360D03*
G01X2971800Y4023360D03*
G01X114300Y3832860D03*
G01X2209800Y3832860D03*
G01X2400300Y3832860D03*
G01X2971800Y3832860D03*
G01X6591300Y3832860D03*
G01X114300Y3642360D03*
G01X1638300Y3642360D03*
G01X1828800Y3642360D03*
G01X2400300Y3642360D03*
G01X304800Y3451860D03*
G01X304800Y3261360D03*
G01X685800Y3261360D03*
G01X5199939Y2538096D03*
G01X6781800Y3261360D03*
G01X304800Y3070860D03*
G01X304800Y2880360D03*
G01X3162300Y2689860D03*
G01X304800Y2118360D03*
G01X2400300Y2118360D03*
G01X6781800Y2118360D03*
G01X2209800Y1927860D03*
G01X2400300Y1927860D03*
G01X2590800Y1927860D03*
G01X2781300Y1927860D03*
G01X2971800Y1927860D03*
G01X2400300Y1737360D03*
G01X2590800Y1737360D03*
G01X2781300Y1737360D03*
G01X2971800Y1737360D03*
G01X6781800Y1737360D03*
G01X114300Y1546860D03*
G01X2971800Y1546860D03*
G01X114300Y1356360D03*
G01X2971800Y1356360D03*
G01X114300Y1165860D03*
G01X304800Y1165860D03*
G01X584200Y1330960D03*
G01X2971800Y1165860D03*
G01X114300Y975360D03*
G01X2971800Y975360D03*
G01X114300Y784860D03*
G01X114300Y594360D03*
G01X304800Y594360D03*
G01X685800Y594360D03*
G01X2781300Y632460D03*
G01X6781800Y594360D03*
G01X114300Y403860D03*
G01X304800Y403860D03*
G01X495300Y403860D03*
G01X2590800Y403860D03*
G01X3162300Y403860D03*
G01X6210300Y403860D03*
G01X6591300Y403860D03*
G01X114300Y213360D03*
G01X304800Y213360D03*
G01X495300Y213360D03*
G01X4876800Y213360D03*
G01X2997200Y2334260D03*
G01X2590800Y2334260D03*
G01X3225800Y2334260D03*
G01X3378200Y911860D03*
G01X5766664Y2899484D03*
G01X5766664Y3121660D03*
G01X2057400Y2943860D03*
G01X2438400Y2943860D03*
G01X2438400Y2715260D03*
G01X2286000Y2715260D03*
G01X2286000Y2537460D03*
G01X2438400Y2537460D03*
G01X2286000Y3020060D03*
G01X2286000Y3121660D03*
G01X1346200Y3909060D03*
G01X939800Y2626360D03*
G01X939800Y1800860D03*
G01X1574800Y937260D03*
G01X4420286Y1883443D03*
G01X4953000Y4937760D03*
G01X5702300Y4937760D03*
G01X5956300Y4937760D03*
G01X2921000Y99060D03*
G01X3924300Y99060D03*
G01X1346200Y4594860D03*
G01X1447800Y4594860D03*
G01X1447800Y4493260D03*
G01X1346200Y4493260D03*
G01X1549400Y4493260D03*
G01X1689701Y641260D03*
G01X304800Y2232660D03*
G01X711200Y2232660D03*
G01X685800Y3147060D03*
G01X5918200Y3324860D03*
G01X6057900Y3756660D03*
G01X3492500Y3832860D03*
G01X5499766Y1549240D03*
G54D20*
G01X4425984Y535641D03*
G01X3790349Y1206164D03*
G01X4512324Y590867D03*
G01X3863041Y1124921D03*
G01X5420784Y939209D03*
G01X3553155Y434690D03*
G54D17*
G01X5285381Y977276D03*
G01X5109655Y975133D03*
G54D20*
G01X5931569Y776499D03*
G01X5672623Y842575D03*
G01X3436433Y543268D03*
G01X4111479Y1276176D03*
G01X4172419Y1209280D03*
G01X4189563Y1120084D03*
G01X5228783Y1837554D03*
G01X5228783Y1627064D03*
G01X5307856Y1650157D03*
G01X3365581Y3118951D03*
G01X3771024Y1337116D03*
G01X3837778Y1410334D03*
G01X3767729Y1603651D03*
G54D17*
G01X4535330Y970846D03*
G54D20*
G01X4635732Y1447159D03*
G01X4161314Y1337860D03*
G01X4104132Y1410172D03*
G01X4044128Y1485891D03*
G01X4994606Y2005769D03*
G01X4949746Y2075773D03*
G01X4995463Y2144350D03*
G54D17*
G01X4877333Y1787331D03*
G01X4659624Y1787331D03*
G54D20*
G01X3427141Y2388239D03*
G01X3136722Y2252515D03*
G54D17*
G01X3451476Y2144261D03*
G54D20*
G01X3365500Y1765300D03*
G01X3467100Y1371600D03*
G54D17*
G01X3835400Y1689100D03*
G01X3980130Y1689100D03*
G01X4826000Y1054100D03*
G01X6781800Y2667000D03*
G54D20*
G01X6121400Y2908300D03*
G01X6248400Y2908300D03*
G01X6756400Y2921000D03*
G54D19*
G01X1524000Y480060D03*
G54D16*
G01X6121400Y2641600D03*
G54D17*
G01X5334000Y152400D03*
G54D16*
G01X5842000Y152400D03*
G54D17*
G01X3403600Y5168900D03*
G54D19*
G01X3314700Y101460D03*
G01X3810000Y101600D03*
G04 Via End*

G04 Track Start*
G54D21*
G01X6223000Y3213100D02*
G01X6235700Y3213100D01*
G01X1790700Y2308860D02*
G01X1790700Y2854960D01*
G01X6134100Y3544623D02*
G01X6134100Y3302000D01*
G54D17*
G01X1447800Y4036060D02*
G01X1447800Y3299460D01*
G54D22*
G01X1320800Y2947214D02*
G01X1397000Y2947214D01*
G01X1495246Y3045460D01*
G01X1783203Y3045460D01*
G01X1930400Y2898263D02*
G01X1930400Y2308860D01*
G54D21*
G01X1698446Y2947214D02*
G01X1574800Y2947214D01*
G01X5766664Y2689860D02*
G01X5766664Y2734588D01*
G54D17*
G01X684099Y4006474D02*
G01X723900Y4046274D01*
G01X723900Y3538220D02*
G01X676003Y3586117D01*
G01X635000Y3667415D02*
G01X635000Y3685107D01*
G01X635000Y3887937D01*
G01X2869336Y3756660D02*
G01X2869336Y3935324D01*
G54D21*
G01X2997200Y3401060D02*
G01X2951061Y3354921D01*
G01X2925216Y3292526D02*
G01X2925216Y3205766D01*
G54D17*
G01X2869336Y3299460D02*
G01X2869336Y3236957D01*
G01X2869336Y3299460D02*
G01X2869336Y3756660D01*
G54D21*
G01X6197600Y3451860D02*
G01X6197600Y3596879D01*
G01X3505200Y3604260D02*
G01X6074463Y3604260D01*
G01X5815555Y3464574D02*
G01X3365486Y3464574D01*
G01X5918200Y3324860D02*
G01X5918200Y3361929D01*
G01X6348781Y3761765D02*
G01X6348781Y3330440D01*
G01X6392461Y3286760D02*
G01X6429530Y3286760D01*
G54D22*
G01X5420784Y939209D02*
G01X5420784Y523590D01*
G54D21*
G01X3238500Y3680460D02*
G01X3441700Y3680460D01*
G01X6114019Y3680460D02*
G01X3441700Y3680460D01*
G01X5905500Y3526572D02*
G01X3522049Y3526572D01*
G01X3492500Y3832860D02*
G01X6277686Y3832860D01*
G01X5308600Y2184400D02*
G01X5308600Y1775460D01*
G01X6159500Y2146300D02*
G01X6159500Y2184400D01*
G01X6070600Y2273300D02*
G01X5397500Y2273300D01*
G01X5397500Y1711960D02*
G01X5397500Y2057400D01*
G01X5486400Y2146300D02*
G01X5905500Y2146300D01*
G01X5774058Y931475D02*
G01X5774058Y1800860D01*
G01X5862958Y1889760D02*
G01X5905500Y1889760D01*
G01X6037648Y865399D02*
G01X6037648Y1800860D01*
G01X6126548Y1889760D02*
G01X6159500Y1889760D01*
G54D17*
G01X2768600Y4036060D02*
G01X2527300Y4036060D01*
G54D21*
G01X1739900Y3223260D02*
G01X2476500Y3223260D01*
G01X2565400Y3134360D02*
G01X2565400Y3070860D01*
G01X1790700Y3299460D02*
G01X2566264Y3299460D01*
G01X2655164Y3210560D02*
G01X2655164Y3070860D01*
G54D22*
G01X5331884Y434690D02*
G01X3553155Y434690D01*
G54D21*
G01X5931569Y776499D02*
G01X5948748Y776499D01*
G01X5672623Y842575D02*
G01X5685158Y842575D01*
G01X3436433Y543268D02*
G01X3436433Y1187276D01*
G54D17*
G01X5562600Y3756660D02*
G01X2869336Y3756660D01*
G01X2767962Y2720990D02*
G01X2654300Y2607328D01*
G01X2794000Y3055078D02*
G01X2794000Y2783852D01*
G54D21*
G01X5228783Y1837554D02*
G01X5228783Y2451322D01*
G01X5228783Y1365820D02*
G01X5228783Y1627064D01*
G01X4111325Y1276920D02*
G01X5139883Y1276920D01*
G01X5307799Y1775729D02*
G01X5229545Y1775729D01*
G01X5140645Y1864629D02*
G01X5140645Y3312421D01*
G01X5051745Y3401060D02*
G01X2997200Y3401060D01*
G01X5082419Y3208794D02*
G01X5082419Y1800730D01*
G01X2997934Y3297992D02*
G01X4993519Y3297992D01*
G01X3773845Y1332828D02*
G01X3624515Y1332828D01*
G01X2984828Y2943654D02*
G01X2995577Y2943654D01*
G01X3535615Y1421728D02*
G01X3535615Y1919332D01*
G01X3446715Y2008232D02*
G01X2984828Y2008232D01*
G01X2895928Y2097132D02*
G01X2895928Y2854754D01*
G01X3682376Y1410334D02*
G01X3837778Y1410334D01*
G01X3063082Y3007944D02*
G01X3063082Y2158208D01*
G01X3151982Y2069308D02*
G01X3504576Y2069308D01*
G01X3593476Y1980408D02*
G01X3593476Y1499234D01*
G01X3767729Y1603651D02*
G01X3736621Y1603651D01*
G01X3647721Y1692551D02*
G01X3647721Y2398383D01*
G01X4160263Y1335722D02*
G01X4905706Y1335722D01*
G01X4994606Y1424622D02*
G01X4994606Y2005769D01*
G01X4844273Y1385726D02*
G01X4258841Y1385726D01*
G01X4234553Y1410013D01*
G01X4107402Y1410013D01*
G01X4933173Y2057201D02*
G01X4933173Y1474626D01*
G01X4634712Y1445968D02*
G01X4789638Y1445968D01*
G01X4878538Y1534868D02*
G01X4878538Y1782182D01*
G01X4993652Y2144879D02*
G01X4910159Y2144879D01*
G01X4821259Y2055979D02*
G01X4821259Y1600402D01*
G01X4732359Y1511502D02*
G01X4075970Y1511502D01*
G01X2996764Y3196658D02*
G01X3811497Y3196658D01*
G01X3900397Y3107758D02*
G01X3900397Y1367568D01*
G01X3364647Y3464561D02*
G01X3302235Y3464561D01*
G01X3308385Y3604326D02*
G01X3504692Y3604326D01*
G01X3365581Y3118951D02*
G01X3365581Y2612464D01*
G01X3339542Y2549602D02*
G01X3277223Y2487283D01*
G01X3558821Y2487283D02*
G01X3277223Y2487283D01*
G01X3124823Y2487283D01*
G01X3124200Y2486660D01*
G01X3365500Y1765300D02*
G01X3365500Y1460500D01*
G01X3454400Y1371600D02*
G01X3467100Y1371600D01*
G01X3427141Y2388239D02*
G01X3427141Y2341415D01*
G01X3338241Y2252515D02*
G01X3136722Y2252515D01*
G01X5308600Y1120084D02*
G01X4189563Y1120084D01*
G01X5397500Y1711830D02*
G01X5397500Y1208984D01*
G01X5171319Y1711830D02*
G01X5397500Y1711830D01*
G01X5307856Y1650157D02*
G01X5307856Y1298180D01*
G01X5218956Y1209280D02*
G01X4172419Y1209280D01*
G01X5994400Y3324860D02*
G01X5994400Y3437672D01*
G01X5823535Y2791460D02*
G01X6032500Y2791460D01*
G01X6121400Y2880360D02*
G01X6121400Y2908300D01*
G01X5766664Y2899484D02*
G01X5766664Y2959100D01*
G01X6248400Y2959100D02*
G01X6248400Y2908300D01*
G01X5855564Y3048000D02*
G01X6159500Y3048000D01*
G01X6489700Y3226590D02*
G01X6489700Y3009900D01*
G01X6578600Y2921000D02*
G01X6756400Y2921000D01*
G54D17*
G01X6057900Y3756660D02*
G01X5562600Y3756660D01*
G54D21*
G01X5317683Y2540222D02*
G01X6032500Y2540222D01*
G01X6121400Y2629122D02*
G01X6121400Y2641600D01*
G01X3525333Y1276176D02*
G01X4110670Y1276176D01*
G01X4425984Y535641D02*
G01X3879249Y535641D01*
G01X3790349Y624541D02*
G01X3790349Y1206164D01*
G01X3863041Y698500D02*
G01X3863041Y1124921D01*
G01X4493591Y609600D02*
G01X3951941Y609600D01*
G54D19*
G01X3314700Y101460D02*
G01X3809860Y101460D01*
G54D17*
G01X1930400Y1649324D02*
G01X1587500Y1306424D01*
G01X1587500Y1305560D01*
G54D19*
G01X3340100Y759460D02*
G01X1612900Y759460D01*
G01X1524000Y670560D02*
G01X1524000Y480060D01*
G54D21*
G01X6134100Y3302000D02*
G03X6223000Y3213100I88900J0D01*
G54D22*
G01X1783203Y3045460D02*
G02X1930400Y2898263I0J-147197D01*
G54D21*
G01X1790700Y2854960D02*
G03X1698446Y2947214I-92254J0D01*
G01X1663700Y3299460D02*
G03X1739900Y3223260I76200J0D01*
G01X5766664Y2734588D02*
G02X5823535Y2791460I56872J0D01*
G54D17*
G01X684099Y4006474D02*
G03X635000Y3887937I118536J-118537D01*
G01X676003Y3586117D02*
G02X635000Y3685107I98989J98989D01*
G01X2869336Y3935324D02*
G03X2768600Y4036060I-100736J0D01*
G54D21*
G01X2951061Y3354921D02*
G03X2925216Y3292526I62395J-62395D01*
G01X2925216Y3205766D02*
G02X2869336Y3070860I-190786J0D01*
G54D17*
G01X2869336Y3236957D02*
G02X2832100Y3147060I-127133J0D01*
G03X2794000Y3055078I91982J-91982D01*
G54D21*
G01X6197600Y3596879D02*
G03X6114019Y3680460I-83581J0D01*
G01X6074463Y3604260D02*
G02X6134100Y3544623I0J-59637D01*
G01X5918200Y3361929D02*
G03X5815555Y3464574I-102645J0D01*
G01X6429530Y3286760D02*
G02X6489700Y3226590I0J-60170D01*
G01X6277686Y3832860D02*
G02X6348781Y3761765I0J-71095D01*
G01X6348781Y3330440D02*
G03X6392461Y3286760I43680J0D01*
G01X5397500Y2273300D02*
G03X5308600Y2184400I0J-88900D01*
G01X6159500Y2184400D02*
G03X6070600Y2273300I-88900J0D01*
G01X5397500Y2057400D02*
G02X5486400Y2146300I88900J0D01*
G01X5774058Y1800860D02*
G02X5862958Y1889760I88900J0D01*
G01X6037648Y1800860D02*
G02X6126548Y1889760I88900J0D01*
G01X2476500Y3223260D02*
G02X2565400Y3134360I0J-88900D01*
G01X2566264Y3299460D02*
G02X2655164Y3210560I0J-88900D01*
G54D22*
G01X5420784Y523590D02*
G02X5331884Y434690I-88900J0D01*
G54D21*
G01X5948748Y776499D02*
G03X6037648Y865399I0J88900D01*
G01X5685158Y842575D02*
G03X5774058Y931475I0J88900D01*
G01X3436433Y1187276D02*
G02X3525333Y1276176I88900J0D01*
G54D17*
G01X2794000Y2783852D02*
G02X2767962Y2720990I-88900J0D01*
G54D21*
G01X5228783Y2451322D02*
G02X5317683Y2540222I88900J0D01*
G01X5139883Y1276920D02*
G03X5228783Y1365820I0J88900D01*
G01X5229545Y1775729D02*
G02X5140645Y1864629I0J88900D01*
G01X5140645Y3312421D02*
G03X5051745Y3401321I-88900J0D01*
G01X5082419Y1800730D02*
G03X5171319Y1711830I88900J0D01*
G01X4993519Y3297694D02*
G02X5082419Y3208794I0J-88900D01*
G01X3624515Y1332828D02*
G02X3535615Y1421728I0J88900D01*
G01X3535615Y1919332D02*
G03X3446715Y2008232I-88900J0D01*
G01X2984828Y2008232D02*
G02X2895928Y2097132I0J88900D01*
G01X2895928Y2854754D02*
G02X2984828Y2943654I88900J0D01*
G01X2998792Y3072234D02*
G02X3063082Y3007944I0J-64290D01*
G01X3063082Y2158208D02*
G03X3151982Y2069308I88900J0D01*
G01X3504576Y2069308D02*
G02X3593476Y1980408I0J-88900D01*
G01X3593476Y1499234D02*
G03X3682376Y1410334I88900J0D01*
G01X3647721Y2398383D02*
G03X3558821Y2487283I-88900J0D01*
G01X3736621Y1603651D02*
G02X3647721Y1692551I0J88900D01*
G01X4905706Y1335722D02*
G03X4994606Y1424622I0J88900D01*
G01X4947460Y2071487D02*
G03X4933173Y2057201I0J-14287D01*
G01X4933173Y1474626D02*
G02X4844273Y1385726I-88900J0D01*
G01X4789638Y1445968D02*
G03X4878538Y1534868I0J88900D01*
G01X4910159Y2144879D02*
G03X4821259Y2055979I0J-88900D01*
G01X4821259Y1600402D02*
G02X4732359Y1511502I-88900J0D01*
G01X4075970Y1511502D02*
G03X4047396Y1482928I0J-28573D01*
G01X3811497Y3196658D02*
G02X3900397Y3107758I0J-88900D01*
G01X3900397Y1367568D02*
G03X3989297Y1278668I88900J0D01*
G01X3302235Y3464561D02*
G02X3301993Y3464803I0J242D01*
G01X3305119Y3601061D02*
G02X3308385Y3604326I3266J0D01*
G01X3365581Y2612464D02*
G02X3339542Y2549602I-88900J0D01*
G01X3365500Y1460500D02*
G03X3454400Y1371600I88900J0D01*
G01X3427141Y2341415D02*
G02X3338241Y2252515I-88900J0D01*
G01X5397500Y1208984D02*
G02X5308600Y1120084I-88900J0D01*
G01X5307856Y1298180D02*
G02X5218956Y1209280I-88900J0D01*
G01X5994400Y3437672D02*
G03X5905500Y3526572I-88900J0D01*
G01X6032500Y2791460D02*
G03X6121400Y2880360I0J88900D01*
G01X5766664Y2959100D02*
G02X5855564Y3048000I88900J0D01*
G01X6159500Y3048000D02*
G02X6248400Y2959100I0J-88900D01*
G01X6489700Y3009900D02*
G03X6578600Y2921000I88900J0D01*
G01X6032500Y2540222D02*
G03X6121400Y2629122I0J88900D01*
G01X3879249Y535641D02*
G02X3790349Y624541I0J88900D01*
G01X4512324Y590867D02*
G03X4493591Y609600I-18733J0D01*
G01X3951941Y609600D02*
G02X3863041Y698500I0J88900D01*
G54D19*
G01X1612900Y759460D02*
G03X1524000Y670560I0J-88900D01*
G04 Track End*

M02*

