G04 Layer: TopSolderMaskLayer*
G04 EasyEDA Pro v3.2.149, 2026-09-18 17:02:57*
G04 Gerber Generator version 0.3*
G04 Scale: 100 percent, Rotated: No, Reflected: No*
G04 Dimensions in millimeters*
G04 Leading zeros omitted, absolute positions, 4 integers and 5 decimals*
G04 Generated by one-click*
G04 Object Configs: Pad,Via,Track,Text,Image,Dimension,BoardOutline,BoardCutout,CopperFilled,SolidRegion,FPCStiffener,Line,PlaneZone,ComponentProperty,ComponentSilkscreen,TearDrop*
G04 Layer Configs: 1,2,3,4,5,6,7,8,9,10,11,13,14,56*
G04 Copper Areas: 0*
%FSLAX45Y45*%
%MOMM*%
%AMRoundRect*1,1,$1,$2,$3*1,1,$1,$4,$5*1,1,$1,0-$2,0-$3*1,1,$1,0-$4,0-$5*20,1,$1,$2,$3,$4,$5,0*20,1,$1,$4,$5,0-$2,0-$3,0*20,1,$1,0-$2,0-$3,0-$4,0-$5,0*20,1,$1,0-$4,0-$5,$2,$3,0*4,1,4,$2,$3,$4,$5,0-$2,0-$3,0-$4,0-$5,$2,$3,0*%
%ADD10O,0.55161X1.75161*%
%ADD11O,1.75161X0.55161*%
%ADD12RoundRect,0.1016X-0.6X-0.7X-0.6X0.7*%
%ADD13RoundRect,0.10003X-0.55X-0.27501X-0.55X0.27501*%
%ADD14RoundRect,0.10003X-0.55X-0.15X-0.55X0.15*%
%ADD15O,2.1020X1.20002*%
%ADD16O,2.10002X1.20002*%
%ADD17O,1.90002X1.30002*%
%ADD18RoundRect,0.1016X-0.7875X0.336X0.7875X0.336*%
%ADD19RoundRect,0.1016X-0.50999X1.5X0.50999X1.5*%
%ADD20RoundRect,0.1016X-0.35X-0.62501X-0.35X0.62501*%
%ADD21RoundRect,0.10003X-1.0X1.5X1.0X1.5*%
%ADD22RoundRect,0.1X-1.55X-0.50999X-1.55X0.50999*%
%ADD23O,0.7316X1.9666*%
%ADD24RoundRect,0.1X-0.45X1.25X0.45X1.25*%
%ADD25O,0.66159X1.84661*%
%ADD26RoundRect,0.1016X-0.85X0.85X0.85X0.85*%
%ADD27C,1.8016*%
%ADD28RoundRect,0.1016X-0.40324X0.432X0.40324X0.432*%
%ADD29RoundRect,0.1016X-1.0X0.79651X1.0X0.79651*%
%ADD30RoundRect,0.1016X-0.432X-0.40324X-0.432X0.40324*%
%ADD31RoundRect,0.1016X-0.4X-0.4X-0.4X0.4*%
%ADD32RoundRect,0.1016X-0.4X0.4X0.4X0.4*%
%ADD33RoundRect,0.1016X-0.4X0.45X0.4X0.45*%
%ADD34RoundRect,0.1016X-0.6X-1.75X-0.6X1.75*%
%ADD35RoundRect,0.1016X-1.25X0.55X1.25X0.55*%
G75*


G04 Pad Start*
G54D10*
G01X4348748Y967679D03*
G01X4268748Y967679D03*
G01X4188748Y967679D03*
G01X4108748Y967679D03*
G01X4028749Y967679D03*
G01X3948749Y967679D03*
G01X3868749Y967679D03*
G01X3788749Y967679D03*
G54D11*
G01X3631869Y1125830D03*
G01X3631869Y1205829D03*
G01X3631869Y1285829D03*
G01X3631869Y1365829D03*
G01X3631869Y1445829D03*
G01X3631869Y1525829D03*
G01X3631869Y1605829D03*
G01X3631869Y1685828D03*
G54D10*
G01X3788749Y1843979D03*
G01X3868749Y1843979D03*
G01X3948749Y1843979D03*
G01X4028749Y1843979D03*
G01X4108748Y1843979D03*
G01X4188748Y1843979D03*
G01X4268748Y1843979D03*
G01X4348748Y1843979D03*
G54D11*
G01X4505629Y1685828D03*
G01X4505629Y1605829D03*
G01X4505629Y1525829D03*
G01X4505629Y1445829D03*
G01X4505629Y1365829D03*
G01X4505629Y1285829D03*
G01X4505629Y1205829D03*
G01X4505629Y1125830D03*
G54D12*
G01X4804499Y1532407D03*
G01X4804499Y1312393D03*
G01X4974501Y1312393D03*
G01X4974501Y1532407D03*
G54D13*
G01X618503Y4127462D03*
G01X618503Y4047452D03*
G54D14*
G01X618503Y3982453D03*
G01X618503Y3932441D03*
G01X618503Y3882454D03*
G01X618503Y3832466D03*
G01X618503Y3782454D03*
G01X618503Y3732467D03*
G01X618503Y3682454D03*
G01X618503Y3632441D03*
G54D13*
G01X618503Y3567443D03*
G01X618503Y3487458D03*
G54D16*
G01X563512Y4239959D03*
G01X563512Y3374962D03*
G54D17*
G01X143497Y4239959D03*
G01X143497Y3374962D03*
G54D18*
G01X385077Y2789060D03*
G01X385077Y2489060D03*
G36*
G01X753593Y2539184D02*
G01X749140Y2539077D01*
G01X749021Y2539075D01*
G01X563601Y2539075D01*
G01X563481Y2539077D01*
G01X559028Y2539184D01*
G01X558797Y2539194D01*
G01X554355Y2539507D01*
G01X554121Y2539529D01*
G01X549696Y2540050D01*
G01X549465Y2540082D01*
G01X545071Y2540809D01*
G01X544837Y2540853D01*
G01X540481Y2541788D01*
G01X540255Y2541842D01*
G01X535950Y2542977D01*
G01X535725Y2543042D01*
G01X531476Y2544378D01*
G01X531253Y2544454D01*
G01X527072Y2545988D01*
G01X526853Y2546074D01*
G01X522748Y2547804D01*
G01X522537Y2547899D01*
G01X518517Y2549817D01*
G01X518305Y2549924D01*
G01X514381Y2552029D01*
G01X514176Y2552145D01*
G01X510354Y2554434D01*
G01X510156Y2554558D01*
G01X506445Y2557022D01*
G01X506254Y2557156D01*
G01X502662Y2559790D01*
G01X502476Y2559934D01*
G01X499014Y2562733D01*
G01X498834Y2562885D01*
G01X495504Y2565846D01*
G01X495333Y2566006D01*
G01X492148Y2569117D01*
G01X491985Y2569285D01*
G01X488947Y2572543D01*
G01X488791Y2572719D01*
G01X485911Y2576115D01*
G01X485763Y2576298D01*
G01X483045Y2579826D01*
G01X482906Y2580015D01*
G01X480356Y2583667D01*
G01X480226Y2583863D01*
G01X477851Y2587630D01*
G01X477731Y2587831D01*
G01X475534Y2591707D01*
G01X475424Y2591911D01*
G01X473410Y2595884D01*
G01X472996Y2597025D01*
G01X472065Y2601074D01*
G01X306314Y2601074D01*
G02X301313Y2606076I0J5001D01*
G01X301313Y2672075D01*
G02X306314Y2677076I5001J0D01*
G01X472065Y2677076D01*
G01X472996Y2681130D01*
G01X473410Y2682272D01*
G01X475424Y2686244D01*
G01X475534Y2686449D01*
G01X477731Y2690325D01*
G01X477851Y2690526D01*
G01X480226Y2694293D01*
G01X480356Y2694488D01*
G01X482906Y2698141D01*
G01X483045Y2698330D01*
G01X485763Y2701858D01*
G01X485911Y2702041D01*
G01X488791Y2705437D01*
G01X488947Y2705612D01*
G01X491985Y2708871D01*
G01X492148Y2709038D01*
G01X495333Y2712150D01*
G01X495504Y2712309D01*
G01X498834Y2715271D01*
G01X499014Y2715423D01*
G01X502476Y2718222D01*
G01X502662Y2718366D01*
G01X506254Y2721000D01*
G01X506445Y2721133D01*
G01X510156Y2723597D01*
G01X510354Y2723722D01*
G01X514176Y2726010D01*
G01X514381Y2726126D01*
G01X518305Y2728232D01*
G01X518517Y2728339D01*
G01X522537Y2730257D01*
G01X522748Y2730351D01*
G01X526853Y2732081D01*
G01X527072Y2732167D01*
G01X531253Y2733702D01*
G01X531476Y2733777D01*
G01X535725Y2735114D01*
G01X535950Y2735178D01*
G01X540255Y2736314D01*
G01X540481Y2736368D01*
G01X544837Y2737303D01*
G01X545071Y2737347D01*
G01X549465Y2738073D01*
G01X549696Y2738106D01*
G01X554121Y2738627D01*
G01X554355Y2738649D01*
G01X558797Y2738961D01*
G01X559028Y2738972D01*
G01X563481Y2739079D01*
G01X563601Y2739080D01*
G01X749021Y2739080D01*
G01X749140Y2739079D01*
G01X753593Y2738972D01*
G01X753824Y2738961D01*
G01X758267Y2738649D01*
G01X758500Y2738627D01*
G01X762925Y2738106D01*
G01X763156Y2738073D01*
G01X767550Y2737347D01*
G01X767784Y2737303D01*
G01X772140Y2736368D01*
G01X772366Y2736314D01*
G01X776671Y2735178D01*
G01X776896Y2735114D01*
G01X781145Y2733777D01*
G01X781368Y2733702D01*
G01X785549Y2732167D01*
G01X785768Y2732081D01*
G01X789873Y2730351D01*
G01X790084Y2730257D01*
G01X794105Y2728339D01*
G01X794316Y2728232D01*
G01X798241Y2726126D01*
G01X798445Y2726010D01*
G01X802268Y2723722D01*
G01X802465Y2723597D01*
G01X806176Y2721133D01*
G01X806367Y2721000D01*
G01X809959Y2718366D01*
G01X810146Y2718222D01*
G01X813608Y2715423D01*
G01X813787Y2715271D01*
G01X817117Y2712309D01*
G01X817288Y2712150D01*
G01X820473Y2709038D01*
G01X820637Y2708871D01*
G01X823674Y2705612D01*
G01X823830Y2705437D01*
G01X826711Y2702041D01*
G01X826858Y2701858D01*
G01X829576Y2698330D01*
G01X829715Y2698141D01*
G01X832265Y2694488D01*
G01X832395Y2694293D01*
G01X834770Y2690526D01*
G01X834890Y2690325D01*
G01X837087Y2686449D01*
G01X837197Y2686244D01*
G01X839211Y2682272D01*
G01X839314Y2682057D01*
G01X841137Y2677993D01*
G01X841227Y2677780D01*
G01X842860Y2673637D01*
G01X842942Y2673415D01*
G01X844377Y2669198D01*
G01X844447Y2668975D01*
G01X845684Y2664695D01*
G01X845744Y2664467D01*
G01X846778Y2660134D01*
G01X846827Y2659907D01*
G01X847658Y2655533D01*
G01X847696Y2655301D01*
G01X848321Y2650889D01*
G01X848348Y2650655D01*
G01X848765Y2646221D01*
G01X848781Y2645987D01*
G01X848990Y2641539D01*
G01X848995Y2641305D01*
G01X848995Y2636850D01*
G01X848990Y2636616D01*
G01X848781Y2632169D01*
G01X848765Y2631935D01*
G01X848348Y2627500D01*
G01X848321Y2627267D01*
G01X847696Y2622855D01*
G01X847658Y2622623D01*
G01X846827Y2618249D01*
G01X846778Y2618021D01*
G01X845744Y2613688D01*
G01X845684Y2613460D01*
G01X844447Y2609180D01*
G01X844377Y2608957D01*
G01X842942Y2604741D01*
G01X842860Y2604518D01*
G01X841227Y2600375D01*
G01X841137Y2600162D01*
G01X839314Y2596098D01*
G01X839211Y2595884D01*
G01X837197Y2591911D01*
G01X837087Y2591707D01*
G01X834890Y2587831D01*
G01X834770Y2587630D01*
G01X832395Y2583863D01*
G01X832265Y2583667D01*
G01X829715Y2580015D01*
G01X829576Y2579826D01*
G01X826858Y2576298D01*
G01X826711Y2576115D01*
G01X823830Y2572719D01*
G01X823674Y2572543D01*
G01X820637Y2569285D01*
G01X820473Y2569117D01*
G01X817288Y2566006D01*
G01X817117Y2565846D01*
G01X813787Y2562885D01*
G01X813608Y2562733D01*
G01X810146Y2559934D01*
G01X809959Y2559790D01*
G01X806367Y2557156D01*
G01X806176Y2557022D01*
G01X802465Y2554558D01*
G01X802268Y2554434D01*
G01X798445Y2552145D01*
G01X798241Y2552029D01*
G01X794316Y2549924D01*
G01X794105Y2549817D01*
G01X790084Y2547899D01*
G01X789873Y2547804D01*
G01X785768Y2546074D01*
G01X785549Y2545988D01*
G01X781368Y2544454D01*
G01X781145Y2544378D01*
G01X776896Y2543042D01*
G01X776671Y2542977D01*
G01X772366Y2541842D01*
G01X772140Y2541788D01*
G01X767784Y2540853D01*
G01X767550Y2540809D01*
G01X763156Y2540082D01*
G01X762925Y2540050D01*
G01X758500Y2539529D01*
G01X758267Y2539507D01*
G01X753824Y2539194D01*
G01X753593Y2539184D01*
G37*
G54D19*
G01X4572000Y5227460D03*
G01X4826000Y4927460D03*
G01X5080000Y5227460D03*
G01X5334000Y4927460D03*
G01X5588000Y5227460D03*
G01X5842000Y4927460D03*
G01X6096000Y5227460D03*
G01X6350000Y4927460D03*
G01X2794000Y401460D03*
G01X3048000Y101460D03*
G01X3302000Y401460D03*
G01X3556000Y101460D03*
G01X3810000Y401460D03*
G01X4064000Y101460D03*
G01X4318000Y401460D03*
G01X4572000Y101460D03*
G54D20*
G01X1706651Y2947214D03*
G01X1896643Y2947214D03*
G01X1801647Y3147213D03*
G54D21*
G01X289362Y1416139D03*
G01X289362Y316141D03*
G01X899343Y316141D03*
G01X899361Y1416139D03*
G54D22*
G01X6758704Y2537452D03*
G01X6758704Y2791452D03*
G01X6758704Y3045452D03*
G01X6220706Y2537452D03*
G01X6220706Y2791452D03*
G01X6220706Y3045452D03*
G54D23*
G01X1790700Y2091411D03*
G01X1917700Y2091411D03*
G01X2044700Y2091411D03*
G01X2171700Y2091411D03*
G01X1790700Y2627909D03*
G01X1917700Y2627909D03*
G01X2044700Y2627909D03*
G01X2171700Y2627909D03*
G54D24*
G01X5079992Y86449D03*
G01X5333992Y416446D03*
G01X5587992Y86449D03*
G01X5841992Y416446D03*
G01X6095992Y86449D03*
G01X6349992Y416446D03*
G54D25*
G01X1536700Y3444011D03*
G01X1663700Y3444011D03*
G01X1790700Y3444011D03*
G01X1917700Y3444011D03*
G01X2044700Y3444011D03*
G01X2171700Y3444011D03*
G01X2298700Y3444011D03*
G01X2425700Y3444011D03*
G01X1536700Y4018509D03*
G01X1663700Y4018509D03*
G01X1790700Y4018509D03*
G01X1917700Y4018509D03*
G01X2044700Y4018509D03*
G01X2171700Y4018509D03*
G01X2298700Y4018509D03*
G01X2425700Y4018509D03*
G54D18*
G01X385077Y2016192D03*
G01X385077Y1716193D03*
G36*
G01X753593Y1766316D02*
G01X749140Y1766209D01*
G01X749021Y1766208D01*
G01X563601Y1766208D01*
G01X563481Y1766209D01*
G01X559028Y1766316D01*
G01X558797Y1766327D01*
G01X554355Y1766639D01*
G01X554121Y1766661D01*
G01X549696Y1767182D01*
G01X549465Y1767215D01*
G01X545071Y1767941D01*
G01X544837Y1767986D01*
G01X540481Y1768920D01*
G01X540255Y1768974D01*
G01X535950Y1770110D01*
G01X535725Y1770175D01*
G01X531476Y1771511D01*
G01X531253Y1771587D01*
G01X527072Y1773121D01*
G01X526853Y1773207D01*
G01X522748Y1774937D01*
G01X522537Y1775031D01*
G01X518517Y1776949D01*
G01X518305Y1777056D01*
G01X514381Y1779162D01*
G01X514176Y1779278D01*
G01X510354Y1781566D01*
G01X510156Y1781691D01*
G01X506445Y1784155D01*
G01X506254Y1784288D01*
G01X502662Y1786922D01*
G01X502476Y1787066D01*
G01X499014Y1789865D01*
G01X498834Y1790017D01*
G01X495504Y1792979D01*
G01X495333Y1793138D01*
G01X492148Y1796250D01*
G01X491985Y1796417D01*
G01X488947Y1799676D01*
G01X488791Y1799851D01*
G01X485911Y1803247D01*
G01X485763Y1803430D01*
G01X483045Y1806958D01*
G01X482906Y1807147D01*
G01X480356Y1810800D01*
G01X480226Y1810996D01*
G01X477851Y1814762D01*
G01X477731Y1814963D01*
G01X475534Y1818839D01*
G01X475424Y1819044D01*
G01X473410Y1823017D01*
G01X472996Y1824157D01*
G01X472065Y1828207D01*
G01X306314Y1828207D01*
G02X301313Y1833208I0J5001D01*
G01X301313Y1899208D01*
G02X306314Y1904209I5001J0D01*
G01X472065Y1904209D01*
G01X472996Y1908263D01*
G01X473410Y1909404D01*
G01X475424Y1913377D01*
G01X475534Y1913581D01*
G01X477731Y1917457D01*
G01X477851Y1917658D01*
G01X480226Y1921425D01*
G01X480356Y1921621D01*
G01X482906Y1925273D01*
G01X483045Y1925463D01*
G01X485763Y1928991D01*
G01X485911Y1929173D01*
G01X488791Y1932569D01*
G01X488947Y1932745D01*
G01X491985Y1936004D01*
G01X492148Y1936171D01*
G01X495333Y1939282D01*
G01X495504Y1939442D01*
G01X498834Y1942403D01*
G01X499014Y1942556D01*
G01X502476Y1945355D01*
G01X502662Y1945498D01*
G01X506254Y1948132D01*
G01X506445Y1948266D01*
G01X510156Y1950730D01*
G01X510354Y1950854D01*
G01X514176Y1953143D01*
G01X514381Y1953259D01*
G01X518305Y1955364D01*
G01X518517Y1955472D01*
G01X522537Y1957389D01*
G01X522748Y1957484D01*
G01X526853Y1959214D01*
G01X527072Y1959300D01*
G01X531253Y1960834D01*
G01X531476Y1960910D01*
G01X535725Y1962246D01*
G01X535950Y1962311D01*
G01X540255Y1963446D01*
G01X540481Y1963500D01*
G01X544837Y1964435D01*
G01X545071Y1964480D01*
G01X549465Y1965206D01*
G01X549696Y1965239D01*
G01X554121Y1965759D01*
G01X554355Y1965781D01*
G01X558797Y1966094D01*
G01X559028Y1966105D01*
G01X563481Y1966211D01*
G01X563601Y1966213D01*
G01X749021Y1966213D01*
G01X749140Y1966211D01*
G01X753593Y1966105D01*
G01X753824Y1966094D01*
G01X758267Y1965781D01*
G01X758500Y1965759D01*
G01X762925Y1965239D01*
G01X763156Y1965206D01*
G01X767550Y1964480D01*
G01X767784Y1964435D01*
G01X772140Y1963500D01*
G01X772366Y1963446D01*
G01X776671Y1962311D01*
G01X776896Y1962246D01*
G01X781145Y1960910D01*
G01X781368Y1960834D01*
G01X785549Y1959300D01*
G01X785768Y1959214D01*
G01X789873Y1957484D01*
G01X790084Y1957389D01*
G01X794105Y1955472D01*
G01X794316Y1955364D01*
G01X798241Y1953259D01*
G01X798445Y1953143D01*
G01X802268Y1950854D01*
G01X802465Y1950730D01*
G01X806176Y1948266D01*
G01X806367Y1948132D01*
G01X809959Y1945498D01*
G01X810146Y1945355D01*
G01X813608Y1942556D01*
G01X813787Y1942403D01*
G01X817117Y1939442D01*
G01X817288Y1939282D01*
G01X820473Y1936171D01*
G01X820637Y1936004D01*
G01X823674Y1932745D01*
G01X823830Y1932569D01*
G01X826711Y1929173D01*
G01X826858Y1928991D01*
G01X829576Y1925463D01*
G01X829715Y1925273D01*
G01X832265Y1921621D01*
G01X832395Y1921425D01*
G01X834770Y1917658D01*
G01X834890Y1917457D01*
G01X837087Y1913581D01*
G01X837197Y1913377D01*
G01X839211Y1909404D01*
G01X839314Y1909190D01*
G01X841137Y1905126D01*
G01X841227Y1904913D01*
G01X842860Y1900770D01*
G01X842942Y1900547D01*
G01X844377Y1896331D01*
G01X844447Y1896108D01*
G01X845684Y1891828D01*
G01X845744Y1891600D01*
G01X846778Y1887267D01*
G01X846827Y1887039D01*
G01X847658Y1882665D01*
G01X847696Y1882434D01*
G01X848321Y1878022D01*
G01X848348Y1877788D01*
G01X848765Y1873353D01*
G01X848781Y1873119D01*
G01X848990Y1868672D01*
G01X848995Y1868438D01*
G01X848995Y1863983D01*
G01X848990Y1863749D01*
G01X848781Y1859301D01*
G01X848765Y1859068D01*
G01X848348Y1854633D01*
G01X848321Y1854399D01*
G01X847696Y1849987D01*
G01X847658Y1849755D01*
G01X846827Y1845382D01*
G01X846778Y1845154D01*
G01X845744Y1840821D01*
G01X845684Y1840593D01*
G01X844447Y1836313D01*
G01X844377Y1836090D01*
G01X842942Y1831874D01*
G01X842860Y1831651D01*
G01X841227Y1827508D01*
G01X841137Y1827295D01*
G01X839314Y1823231D01*
G01X839211Y1823017D01*
G01X837197Y1819044D01*
G01X837087Y1818839D01*
G01X834890Y1814963D01*
G01X834770Y1814762D01*
G01X832395Y1810996D01*
G01X832265Y1810800D01*
G01X829715Y1807147D01*
G01X829576Y1806958D01*
G01X826858Y1803430D01*
G01X826711Y1803247D01*
G01X823830Y1799851D01*
G01X823674Y1799676D01*
G01X820637Y1796417D01*
G01X820473Y1796250D01*
G01X817288Y1793138D01*
G01X817117Y1792979D01*
G01X813787Y1790017D01*
G01X813608Y1789865D01*
G01X810146Y1787066D01*
G01X809959Y1786922D01*
G01X806367Y1784288D01*
G01X806176Y1784155D01*
G01X802465Y1781691D01*
G01X802268Y1781566D01*
G01X798445Y1779278D01*
G01X798241Y1779162D01*
G01X794316Y1777056D01*
G01X794105Y1776949D01*
G01X790084Y1775031D01*
G01X789873Y1774937D01*
G01X785768Y1773207D01*
G01X785549Y1773121D01*
G01X781368Y1771587D01*
G01X781145Y1771511D01*
G01X776896Y1770175D01*
G01X776671Y1770110D01*
G01X772366Y1768974D01*
G01X772140Y1768920D01*
G01X767784Y1767986D01*
G01X767550Y1767941D01*
G01X763156Y1767215D01*
G01X762925Y1767182D01*
G01X758500Y1766661D01*
G01X758267Y1766639D01*
G01X753824Y1766327D01*
G01X753593Y1766316D01*
G37*
G54D26*
G01X5905500Y1889760D03*
G54D27*
G01X6159500Y1889760D03*
G01X6413500Y1889760D03*
G01X6667500Y1889760D03*
G54D26*
G01X5905500Y1635760D03*
G54D27*
G01X6159500Y1635760D03*
G01X6413500Y1635760D03*
G01X6667500Y1635760D03*
G54D26*
G01X5905500Y2146300D03*
G54D27*
G01X6159500Y2146300D03*
G01X6413500Y2146300D03*
G01X6667500Y2146300D03*
G54D28*
G01X1212065Y3856048D03*
G01X1061392Y3856048D03*
G01X1212065Y3677511D03*
G01X1061392Y3677511D03*
G01X1218336Y4034585D03*
G01X1067664Y4034585D03*
G01X1218336Y3498973D03*
G01X1067664Y3498973D03*
G54D29*
G01X1948993Y276860D03*
G01X2369007Y276860D03*
G54D28*
G01X2655164Y4024076D03*
G01X2805836Y4024076D03*
G54D30*
G01X2184400Y1799996D03*
G01X2184400Y1649324D03*
G01X1803400Y1649324D03*
G01X1803400Y1799996D03*
G54D28*
G01X2805836Y3185197D03*
G01X2655164Y3185197D03*
G01X2805836Y3843770D03*
G01X2655164Y3843770D03*
G54D31*
G01X2650554Y3654717D03*
G01X2810447Y3655403D03*
G54D28*
G01X1218336Y4391660D03*
G01X1067664Y4391660D03*
G54D31*
G01X2650554Y4213517D03*
G01X2810447Y4214203D03*
G54D32*
G01X6083287Y3427700D03*
G01X6083313Y3277900D03*
G54D28*
G01X5917336Y3431888D03*
G01X5766664Y3431888D03*
G54D31*
G01X2650554Y3426117D03*
G01X2810447Y3426803D03*
G54D28*
G01X2655164Y2258060D03*
G01X2805836Y2258060D03*
G01X2655164Y2721628D03*
G01X2805836Y2721628D03*
G54D30*
G01X1220890Y1648460D03*
G01X1220890Y1799133D03*
G01X1220027Y2163487D03*
G01X1220027Y2012815D03*
G01X1219200Y2377169D03*
G01X1219200Y2527842D03*
G01X939800Y2892196D03*
G01X939800Y2741524D03*
G54D33*
G01X4692498Y939800D03*
G01X4832502Y939800D03*
G54D30*
G01X941490Y2163487D03*
G01X941490Y2012815D03*
G01X1219200Y2892196D03*
G01X1219200Y2741524D03*
G54D28*
G01X1218336Y3147060D03*
G01X1067664Y3147060D03*
G01X1218336Y4213123D03*
G01X1067664Y4213123D03*
G54D30*
G01X2184400Y2944724D03*
G01X2184400Y3095396D03*
G54D28*
G01X2805836Y2953412D03*
G01X2655164Y2953412D03*
G01X2655164Y2489844D03*
G01X2805836Y2489844D03*
G01X5766664Y3218193D03*
G01X5917336Y3218193D03*
G01X5917336Y2363412D03*
G01X5766664Y2363412D03*
G01X5766664Y3004497D03*
G01X5917336Y3004497D03*
G01X5766664Y2790802D03*
G01X5917336Y2790802D03*
G01X5766664Y2577107D03*
G01X5917336Y2577107D03*
G54D34*
G01X1841500Y1178865D03*
G01X1841500Y644855D03*
G01X2552700Y1178865D03*
G01X2552700Y644855D03*
G54D28*
G01X1218336Y3323017D03*
G01X1067664Y3323017D03*
G54D35*
G01X210007Y5162753D03*
G01X1059993Y5162753D03*
G01X210007Y4712767D03*
G01X1059993Y4712767D03*
G54D33*
G01X4794098Y1689100D03*
G01X4934102Y1689100D03*
G01X4794098Y1155700D03*
G01X4934102Y1155700D03*
G54D24*
G01X2895592Y4914989D03*
G01X3149592Y5244986D03*
G01X3403592Y4914989D03*
G01X3657592Y5244986D03*
G01X3911592Y4914989D03*
G01X4165592Y5244986D03*
G54D19*
G01X2578100Y4930000D03*
G01X2070100Y4930000D03*
G01X2324100Y5230000D03*
G01X1816100Y5230000D03*
G04 Pad End*

M02*

