G04 Layer: TopSilkscreenLayer*
G04 EasyEDA Pro v3.2.149, 2026-09-18 17:02:57*
G04 Gerber Generator version 0.3*
G04 Scale: 100 percent, Rotated: No, Reflected: No*
G04 Dimensions in millimeters*
G04 Leading zeros omitted, absolute positions, 4 integers and 5 decimals*
G04 Generated by one-click*
G04 Object Configs: Pad,Via,Track,Text,Image,Dimension,BoardOutline,BoardCutout,CopperFilled,SolidRegion,FPCStiffener,Line,PlaneZone,ComponentProperty,ComponentSilkscreen,TearDrop*
G04 Layer Configs: 1,2,3,4,5,6,7,8,9,10,11,13,14,56*
G04 Copper Areas: 0*
%FSLAX45Y45*%
%MOMM*%
%ADD10C,0.254*%
%ADD11C,0.3*%
%ADD12C,0.4*%
%ADD13C,0.1524*%
%ADD14C,0.15001*%
%ADD15C,0.1508*%
%ADD16C,0.15199*%
G75*


G04 PolygonModel Start*
G54D10*
G01X3773753Y1109563D02*
G01X4363744Y1109563D01*
G01X4363744Y1109563D02*
G01X4363744Y1699555D01*
G01X4363744Y1699555D02*
G01X3773753Y1699555D01*
G01X3773753Y1699555D02*
G01X3773753Y1109563D01*
G54D11*
G01X4475149Y1029909D02*
G03X4505150Y1030036I15001J127D01*
G03X4475149Y1030163I-15001J0D01*
G54D12*
G01X4268647Y1184595D02*
G03X4308646Y1184722I20000J127D01*
G03X4268647Y1184849I-20000J0D01*
G54D13*
G01X4883561Y1629070D02*
G01X4717842Y1629070D01*
G01X4717842Y1629070D02*
G01X4717842Y1443350D01*
G54D10*
G01X241305Y3350252D02*
G01X440700Y3350252D01*
G01X-101597Y3350252D02*
G01X45700Y3350252D01*
G01X241618Y4257451D02*
G01X440390Y4257451D01*
G01X-116497Y4257451D02*
G01X45387Y4257451D01*
G01X-116497Y3357453D02*
G01X-116497Y4257451D01*
G54D13*
G01X450451Y2406429D02*
G01X715688Y2406429D01*
G01X715688Y2406429D02*
G01X715688Y2521311D01*
G01X450451Y2871666D02*
G01X715688Y2871666D01*
G01X715688Y2871666D02*
G01X715688Y2756784D01*
G54D10*
G01X6424112Y4952462D02*
G01X6501999Y4952462D01*
G01X5916112Y4952462D02*
G01X6275883Y4952462D01*
G01X5408112Y4952462D02*
G01X5767883Y4952462D01*
G01X4900115Y4952462D02*
G01X5259883Y4952462D01*
G01X4420001Y4952462D02*
G01X4751885Y4952462D01*
G01X6170112Y5202458D02*
G01X6501999Y5202458D01*
G01X5662112Y5202458D02*
G01X6021883Y5202458D01*
G01X5154115Y5202458D02*
G01X5513883Y5202458D01*
G01X4646115Y5202458D02*
G01X5005885Y5202458D01*
G01X4420001Y5202458D02*
G01X4497885Y5202458D01*
G01X6501999Y5202458D02*
G01X6501999Y4952462D01*
G01X4420001Y5202458D02*
G01X4420001Y4952462D01*
G01X4646112Y126462D02*
G01X4723999Y126462D01*
G01X4138112Y126462D02*
G01X4497883Y126462D01*
G01X3630112Y126462D02*
G01X3989883Y126462D01*
G01X3122115Y126462D02*
G01X3481883Y126462D01*
G01X2642001Y126462D02*
G01X2973885Y126462D01*
G01X4392112Y376458D02*
G01X4723999Y376458D01*
G01X3884112Y376458D02*
G01X4243883Y376458D01*
G01X3376115Y376458D02*
G01X3735883Y376458D01*
G01X2868115Y376458D02*
G01X3227885Y376458D01*
G01X2642001Y376458D02*
G01X2719885Y376458D01*
G01X4723999Y376458D02*
G01X4723999Y126462D01*
G01X2642001Y376458D02*
G01X2642001Y126462D01*
G01X776247Y1316139D02*
G01X412476Y1316139D01*
G01X1186175Y1316139D02*
G01X1022474Y1316139D01*
G01X1050399Y1316139D02*
G01X1050399Y416141D01*
G01X1186175Y685251D02*
G01X1186175Y1316139D01*
G01X1259350Y685251D02*
G01X1186175Y685251D01*
G01X1259350Y416141D02*
G01X1259350Y685251D01*
G01X412476Y416141D02*
G01X776229Y416141D01*
G01X1259350Y416141D02*
G01X1022457Y416141D01*
G01X-220647Y1316139D02*
G01X166248Y1316139D01*
G01X-220647Y416141D02*
G01X166248Y416141D01*
G01X-220647Y1316139D02*
G01X-220647Y416141D01*
G01X6739700Y3119575D02*
G01X6739700Y3171459D01*
G01X6739700Y2865575D02*
G01X6739700Y2971345D01*
G01X6739700Y2611575D02*
G01X6739700Y2717345D01*
G01X6739700Y2411461D02*
G01X6739700Y2463345D01*
G01X6239701Y2463345D02*
G01X6239701Y2411461D01*
G01X6239701Y2411461D02*
G01X6739700Y2411461D01*
G01X6239701Y2717345D02*
G01X6239701Y2611575D01*
G01X6239701Y2971345D02*
G01X6239701Y2865575D01*
G01X6739700Y3171459D02*
G01X6239701Y3171459D01*
G01X6239701Y3171459D02*
G01X6239701Y3119575D01*
G01X6164113Y124455D02*
G01X6476997Y124455D01*
G01X6418113Y378455D02*
G01X6476997Y378455D01*
G01X6476997Y124455D02*
G01X6476997Y378455D01*
G01X4952997Y378455D02*
G01X5265885Y378455D01*
G01X5910113Y378455D02*
G01X6281885Y378455D01*
G01X5402113Y378455D02*
G01X5773885Y378455D01*
G01X5656113Y124455D02*
G01X6027885Y124455D01*
G01X5148113Y124455D02*
G01X5519885Y124455D01*
G01X4952997Y124455D02*
G01X5011885Y124455D01*
G01X4952997Y124455D02*
G01X4952997Y378455D01*
G54D13*
G01X450451Y1633562D02*
G01X715688Y1633562D01*
G01X715688Y1633562D02*
G01X715688Y1748443D01*
G01X450451Y2098798D02*
G01X715688Y2098798D01*
G01X715688Y2098798D02*
G01X715688Y1983917D01*
G01X2247638Y136738D02*
G01X2247638Y416982D01*
G01X2431623Y136738D02*
G01X1886377Y136738D01*
G01X2431623Y416982D02*
G01X1886377Y416982D01*
G01X1886377Y136738D02*
G01X1886377Y176891D01*
G01X1886377Y416982D02*
G01X1886377Y376829D01*
G36*
G01X2424001Y129121D02*
G01X2424001Y181971D01*
G01X2469721Y181971D01*
G01X2469721Y129121D01*
G01X2424001Y129121D01*
G37*
G36*
G01X2424001Y424599D02*
G01X2469721Y424599D01*
G01X2469721Y371749D01*
G01X2424001Y371749D01*
G01X2424001Y424599D01*
G37*
G54D14*
G01X2708458Y3687412D02*
G01X2709454Y3687412D01*
G01X2709454Y3687412D02*
G01X2742458Y3654407D01*
G01X2708458Y3619409D02*
G01X2708458Y3620407D01*
G01X2708458Y3620407D02*
G01X2742458Y3654407D01*
G01X2708458Y3619409D02*
G01X2708458Y3687412D01*
G01X2706454Y3579401D02*
G01X2591453Y3579401D01*
G01X2706454Y3729413D02*
G01X2591453Y3729413D01*
G01X2591453Y3579411D02*
G01X2591453Y3727404D01*
G01X2744455Y3729645D02*
G01X2849466Y3729645D01*
G01X2879461Y3689637D02*
G01X2879461Y3699640D01*
G01X2879461Y3699640D02*
G01X2849466Y3729645D01*
G01X2879461Y3619642D02*
G01X2879461Y3689637D01*
G01X2879461Y3619642D02*
G01X2879461Y3609627D01*
G01X2879461Y3609627D02*
G01X2849466Y3579632D01*
G01X2744455Y3579632D02*
G01X2849466Y3579632D01*
G01X2708458Y3654407D02*
G01X2742458Y3654407D01*
G01X2708458Y4246212D02*
G01X2709454Y4246212D01*
G01X2709454Y4246212D02*
G01X2742458Y4213207D01*
G01X2708458Y4178209D02*
G01X2708458Y4179207D01*
G01X2708458Y4179207D02*
G01X2742458Y4213207D01*
G01X2708458Y4178209D02*
G01X2708458Y4246212D01*
G01X2706454Y4138201D02*
G01X2591453Y4138201D01*
G01X2706454Y4288213D02*
G01X2591453Y4288213D01*
G01X2591453Y4138211D02*
G01X2591453Y4286204D01*
G01X2744455Y4288445D02*
G01X2849466Y4288445D01*
G01X2879461Y4248437D02*
G01X2879461Y4258440D01*
G01X2879461Y4258440D02*
G01X2849466Y4288445D01*
G01X2879461Y4178442D02*
G01X2879461Y4248437D01*
G01X2879461Y4178442D02*
G01X2879461Y4168427D01*
G01X2879461Y4168427D02*
G01X2849466Y4138432D01*
G01X2744455Y4138432D02*
G01X2849466Y4138432D01*
G01X2708458Y4213207D02*
G01X2742458Y4213207D01*
G01X6115652Y3374842D02*
G01X6115652Y3373846D01*
G01X6115652Y3373846D02*
G01X6082647Y3340842D01*
G01X6047649Y3374842D02*
G01X6048647Y3374842D01*
G01X6048647Y3374842D02*
G01X6082647Y3340842D01*
G01X6047649Y3374842D02*
G01X6115652Y3374842D01*
G01X6007641Y3376846D02*
G01X6007641Y3491847D01*
G01X6157653Y3376846D02*
G01X6157653Y3491847D01*
G01X6007651Y3491847D02*
G01X6155644Y3491847D01*
G01X6157885Y3338845D02*
G01X6157885Y3233834D01*
G01X6117877Y3203839D02*
G01X6127880Y3203839D01*
G01X6127880Y3203839D02*
G01X6157885Y3233834D01*
G01X6047882Y3203839D02*
G01X6117877Y3203839D01*
G01X6047882Y3203839D02*
G01X6037867Y3203839D01*
G01X6037867Y3203839D02*
G01X6007872Y3233834D01*
G01X6007872Y3338845D02*
G01X6007872Y3233834D01*
G01X6082647Y3374842D02*
G01X6082647Y3340842D01*
G01X2708458Y3458812D02*
G01X2709454Y3458812D01*
G01X2709454Y3458812D02*
G01X2742458Y3425807D01*
G01X2708458Y3390809D02*
G01X2708458Y3391807D01*
G01X2708458Y3391807D02*
G01X2742458Y3425807D01*
G01X2708458Y3390809D02*
G01X2708458Y3458812D01*
G01X2706454Y3350801D02*
G01X2591453Y3350801D01*
G01X2706454Y3500813D02*
G01X2591453Y3500813D01*
G01X2591453Y3350811D02*
G01X2591453Y3498804D01*
G01X2744455Y3501045D02*
G01X2849466Y3501045D01*
G01X2879461Y3461037D02*
G01X2879461Y3471040D01*
G01X2879461Y3471040D02*
G01X2849466Y3501045D01*
G01X2879461Y3391042D02*
G01X2879461Y3461037D01*
G01X2879461Y3391042D02*
G01X2879461Y3381027D01*
G01X2879461Y3381027D02*
G01X2849466Y3351032D01*
G01X2744455Y3351032D02*
G01X2849466Y3351032D01*
G01X2708458Y3425807D02*
G01X2742458Y3425807D01*
G54D13*
G01X1767573Y576298D02*
G01X1503934Y574294D01*
G01X1503934Y574294D02*
G01X1503934Y1109980D01*
G01X1503934Y1109980D02*
G01X1643380Y1249426D01*
G01X1643380Y1249426D02*
G01X1772920Y1248090D01*
G01X1912269Y574911D02*
G01X2179117Y574243D01*
G01X2179117Y574243D02*
G01X2179117Y1109863D01*
G01X2179117Y1109863D02*
G01X2039503Y1249477D01*
G01X2039503Y1249477D02*
G01X1910080Y1249477D01*
G36*
G01X1699600Y601660D02*
G01X1679801Y601660D01*
G01X1679801Y680860D01*
G01X1699600Y680860D01*
G01X1699600Y601660D01*
G37*
G36*
G01X1699600Y1222060D02*
G01X1699600Y1142860D01*
G01X1679801Y1142860D01*
G01X1679801Y1222060D01*
G01X1699600Y1222060D01*
G37*
G36*
G01X1755699Y1192360D02*
G01X1755699Y1172561D01*
G01X1623700Y1172561D01*
G01X1623700Y1192360D01*
G01X1755699Y1192360D01*
G37*
G01X2478773Y576298D02*
G01X2215134Y574294D01*
G01X2215134Y574294D02*
G01X2215134Y1109980D01*
G01X2215134Y1109980D02*
G01X2354580Y1249426D01*
G01X2354580Y1249426D02*
G01X2484120Y1248090D01*
G01X2623469Y574911D02*
G01X2890317Y574243D01*
G01X2890317Y574243D02*
G01X2890317Y1109863D01*
G01X2890317Y1109863D02*
G01X2750703Y1249477D01*
G01X2750703Y1249477D02*
G01X2621280Y1249477D01*
G36*
G01X2410800Y601660D02*
G01X2391001Y601660D01*
G01X2391001Y680860D01*
G01X2410800Y680860D01*
G01X2410800Y601660D01*
G37*
G36*
G01X2410800Y1222060D02*
G01X2410800Y1142860D01*
G01X2391001Y1142860D01*
G01X2391001Y1222060D01*
G01X2410800Y1222060D01*
G37*
G36*
G01X2466899Y1192360D02*
G01X2466899Y1172561D01*
G01X2334900Y1172561D01*
G01X2334900Y1192360D01*
G01X2466899Y1192360D01*
G37*
G54D16*
G01X1145471Y3321417D02*
G02X1134676Y3293477I-9071J-12551D01*
G01X1104900Y3259517D02*
G01X1028700Y3259517D01*
G01X1104900Y3386517D02*
G01X1028700Y3386517D01*
G01X1003300Y3361117D02*
G01X1003300Y3284917D01*
G01X1181100Y3259517D02*
G01X1257300Y3259517D01*
G01X1282700Y3361117D02*
G01X1282700Y3284917D01*
G01X1181100Y3386517D02*
G01X1257300Y3386517D01*
G01X1143635Y3323017D02*
G02X1154430Y3350957I9071J12551D01*
G54D10*
G01X3979713Y4952995D02*
G01X4292597Y4952995D01*
G01X4233713Y5206995D02*
G01X4292597Y5206995D01*
G01X4292597Y4952995D02*
G01X4292597Y5206995D01*
G01X2768597Y5206995D02*
G01X3081485Y5206995D01*
G01X3725713Y5206995D02*
G01X4097485Y5206995D01*
G01X3217713Y5206995D02*
G01X3589485Y5206995D01*
G01X3471713Y4952995D02*
G01X3843485Y4952995D01*
G01X2963713Y4952995D02*
G01X3335485Y4952995D01*
G01X2768597Y4952995D02*
G01X2827485Y4952995D01*
G01X2768597Y4952995D02*
G01X2768597Y5206995D01*
G01X1983511Y4953064D02*
G01X1689125Y4953064D01*
G01X1689125Y4953064D02*
G01X1689125Y5207064D01*
G01X1689125Y5207064D02*
G01X1729511Y5207064D01*
G01X2503985Y4952997D02*
G01X2491489Y4952997D01*
G01X2705103Y4952997D02*
G01X2652215Y4952997D01*
G01X2705103Y5206997D02*
G01X2705103Y4952997D01*
G01X2705100Y5207000D02*
G01X2413000Y5207000D01*
G01X2237489Y5207008D02*
G01X1902711Y5207008D01*
G01X2156711Y4953008D02*
G01X2491489Y4953008D01*

G04 Circle Start*
G54D11*
G01X1775689Y2282749D02*
G03X1805711Y2282749I15011J0D01*
G03X1775689Y2282749I-15011J0D01*
G01X1521689Y3629355D02*
G03X1551711Y3629355I15011J0D01*
G03X1521689Y3629355I-15011J0D01*
G04 Circle End*

M02*

