G04 Layer: TopPasteMaskLayer*
G04 EasyEDA Pro v3.2.149, 2026-09-18 17:02:57*
G04 Gerber Generator version 0.3*
G04 Scale: 100 percent, Rotated: No, Reflected: No*
G04 Dimensions in millimeters*
G04 Leading zeros omitted, absolute positions, 4 integers and 5 decimals*
G04 Generated by one-click*
G04 Object Configs: Pad,Via,Track,Text,Image,Dimension,BoardOutline,BoardCutout,CopperFilled,SolidRegion,FPCStiffener,Line,PlaneZone,ComponentProperty,ComponentSilkscreen,TearDrop*
G04 Layer Configs: 1,2,3,4,5,6,7,8,9,10,11,13,14,56*
G04 Copper Areas: 0*
%FSLAX45Y45*%
%MOMM*%
%ADD10O,0.45001X1.65001*%
%ADD11O,1.65001X0.45001*%
%ADD12R,1.2X1.4*%
%ADD13R,1.575X0.67201*%
%ADD14R,1.01999X2.99999*%
%ADD15R,0.7X1.25001*%
%ADD16R,2.0X2.99999*%
%ADD17R,3.09999X1.01999*%
%ADD18O,0.63X1.865*%
%ADD19R,0.9090X2.49999*%
%ADD20R,0.9X2.49999*%
%ADD21O,0.55999X1.74501*%
%ADD22R,2.0X1.59301*%
%ADD23R,0.8X0.8*%
%ADD24R,0.8X0.9*%
%ADD25R,1.2X3.49999*%
%ADD26R,2.49999X1.1*%
G75*


G04 PolygonModel Start*
G36*
G01X563504Y3667453D02*
G01X563504Y3697455D01*
G01X673504Y3697455D01*
G01X673504Y3667453D01*
G01X563504Y3667453D01*
G37*
G36*
G01X673504Y3647443D02*
G01X673504Y3617440D01*
G01X563504Y3617440D01*
G01X563504Y3647443D01*
G01X673504Y3647443D01*
G37*
G36*
G01X673504Y4157462D02*
G01X673504Y4097462D01*
G01X563504Y4097462D01*
G01X563504Y4157462D01*
G01X673504Y4157462D01*
G37*
G36*
G01X563504Y3717465D02*
G01X563504Y3747468D01*
G01X673504Y3747468D01*
G01X673504Y3717465D01*
G01X563504Y3717465D01*
G37*
G36*
G01X673504Y3597443D02*
G01X673504Y3537443D01*
G01X563504Y3537443D01*
G01X563504Y3597443D01*
G01X673504Y3597443D01*
G37*
G36*
G01X563504Y3457458D02*
G01X563504Y3517458D01*
G01X673504Y3517458D01*
G01X673504Y3457458D01*
G01X563504Y3457458D01*
G37*
G36*
G01X563504Y3767452D02*
G01X563504Y3797455D01*
G01X673504Y3797455D01*
G01X673504Y3767452D01*
G01X563504Y3767452D01*
G37*
G36*
G01X563504Y3817465D02*
G01X563504Y3847468D01*
G01X673504Y3847468D01*
G01X673504Y3817465D01*
G01X563504Y3817465D01*
G37*
G36*
G01X673504Y4077452D02*
G01X673504Y4017452D01*
G01X563504Y4017452D01*
G01X563504Y4077452D01*
G01X673504Y4077452D01*
G37*
G36*
G01X563504Y3867452D02*
G01X563504Y3897455D01*
G01X673504Y3897455D01*
G01X673504Y3867452D01*
G01X563504Y3867452D01*
G37*
G36*
G01X563504Y3917439D02*
G01X563504Y3947442D01*
G01X673504Y3947442D01*
G01X673504Y3917439D01*
G01X563504Y3917439D01*
G37*
G36*
G01X563504Y3967452D02*
G01X563504Y3997455D01*
G01X673504Y3997455D01*
G01X673504Y3967452D01*
G01X563504Y3967452D01*
G37*
G36*
G01X663344Y3370478D02*
G01X663047Y3367502D01*
G01X662600Y3364542D01*
G01X662008Y3361611D01*
G01X661269Y3358711D01*
G01X660387Y3355853D01*
G01X659364Y3353041D01*
G01X658203Y3350285D01*
G01X656905Y3347588D01*
G01X655472Y3344962D01*
G01X653913Y3342409D01*
G01X652229Y3339937D01*
G01X650420Y3337552D01*
G01X648498Y3335261D01*
G01X646463Y3333067D01*
G01X644322Y3330979D01*
G01X642079Y3328998D01*
G01X639740Y3327133D01*
G01X637311Y3325388D01*
G01X634797Y3323765D01*
G01X632206Y3322269D01*
G01X629544Y3320903D01*
G01X626819Y3319673D01*
G01X624032Y3318581D01*
G01X621198Y3317626D01*
G01X618317Y3316816D01*
G01X615401Y3316150D01*
G01X612455Y3315632D01*
G01X609486Y3315259D01*
G01X606501Y3315035D01*
G01X603512Y3314962D01*
G01X523512Y3314962D01*
G01X520522Y3315035D01*
G01X517538Y3315259D01*
G01X514568Y3315632D01*
G01X511622Y3316150D01*
G01X508706Y3316816D01*
G01X505826Y3317626D01*
G01X502991Y3318581D01*
G01X500205Y3319673D01*
G01X497479Y3320903D01*
G01X494817Y3322269D01*
G01X492227Y3323765D01*
G01X489712Y3325388D01*
G01X487284Y3327133D01*
G01X484944Y3328998D01*
G01X482702Y3330979D01*
G01X480560Y3333067D01*
G01X478526Y3335261D01*
G01X476603Y3337552D01*
G01X474795Y3339937D01*
G01X473111Y3342409D01*
G01X471551Y3344962D01*
G01X470118Y3347588D01*
G01X468821Y3350285D01*
G01X467660Y3353041D01*
G01X466636Y3355853D01*
G01X465755Y3358711D01*
G01X465016Y3361611D01*
G01X464424Y3364542D01*
G01X463977Y3367502D01*
G01X463680Y3370478D01*
G01X463530Y3373465D01*
G01X463530Y3376458D01*
G01X463680Y3379445D01*
G01X463977Y3382421D01*
G01X464424Y3385381D01*
G01X465016Y3388312D01*
G01X465755Y3391212D01*
G01X466636Y3394070D01*
G01X467660Y3396882D01*
G01X468821Y3399638D01*
G01X470118Y3402335D01*
G01X471551Y3404961D01*
G01X473111Y3407514D01*
G01X474795Y3409986D01*
G01X476603Y3412371D01*
G01X478526Y3414662D01*
G01X480560Y3416856D01*
G01X482702Y3418944D01*
G01X484944Y3420925D01*
G01X487284Y3422790D01*
G01X489712Y3424535D01*
G01X492227Y3426158D01*
G01X494817Y3427654D01*
G01X497479Y3429020D01*
G01X500205Y3430250D01*
G01X502991Y3431342D01*
G01X505826Y3432297D01*
G01X508706Y3433107D01*
G01X511622Y3433773D01*
G01X514568Y3434291D01*
G01X517538Y3434664D01*
G01X520522Y3434888D01*
G01X523512Y3434961D01*
G01X603512Y3434961D01*
G01X606501Y3434888D01*
G01X609486Y3434664D01*
G01X612455Y3434291D01*
G01X615401Y3433773D01*
G01X618317Y3433107D01*
G01X621198Y3432297D01*
G01X624032Y3431342D01*
G01X626819Y3430250D01*
G01X629544Y3429020D01*
G01X632206Y3427654D01*
G01X634797Y3426158D01*
G01X637311Y3424535D01*
G01X639740Y3422790D01*
G01X642079Y3420925D01*
G01X644322Y3418944D01*
G01X646463Y3416856D01*
G01X648498Y3414662D01*
G01X650420Y3412371D01*
G01X652229Y3409986D01*
G01X653913Y3407514D01*
G01X655472Y3404961D01*
G01X656905Y3402335D01*
G01X658203Y3399638D01*
G01X659364Y3396882D01*
G01X660387Y3394070D01*
G01X661269Y3391212D01*
G01X662008Y3388312D01*
G01X662600Y3385381D01*
G01X663047Y3382421D01*
G01X663344Y3379445D01*
G01X663494Y3376458D01*
G01X663494Y3373465D01*
G01X663344Y3370478D01*
G37*
G36*
G01X663494Y4241455D02*
G01X663494Y4238462D01*
G01X663344Y4235475D01*
G01X663047Y4232499D01*
G01X662600Y4229539D01*
G01X662008Y4226608D01*
G01X661269Y4223708D01*
G01X660387Y4220850D01*
G01X659364Y4218038D01*
G01X658203Y4215282D01*
G01X656905Y4212585D01*
G01X655472Y4209959D01*
G01X653913Y4207406D01*
G01X652229Y4204934D01*
G01X650420Y4202549D01*
G01X648498Y4200258D01*
G01X646463Y4198064D01*
G01X644322Y4195976D01*
G01X642079Y4193995D01*
G01X639740Y4192130D01*
G01X637311Y4190385D01*
G01X634797Y4188762D01*
G01X632206Y4187266D01*
G01X629544Y4185900D01*
G01X626819Y4184670D01*
G01X624032Y4183578D01*
G01X621198Y4182623D01*
G01X618317Y4181813D01*
G01X615401Y4181147D01*
G01X612455Y4180629D01*
G01X609486Y4180256D01*
G01X606501Y4180032D01*
G01X603512Y4179959D01*
G01X523512Y4179959D01*
G01X520522Y4180032D01*
G01X517538Y4180256D01*
G01X514568Y4180629D01*
G01X511622Y4181147D01*
G01X508706Y4181813D01*
G01X505826Y4182623D01*
G01X502991Y4183578D01*
G01X500205Y4184670D01*
G01X497479Y4185900D01*
G01X494817Y4187266D01*
G01X492227Y4188762D01*
G01X489712Y4190385D01*
G01X487284Y4192130D01*
G01X484944Y4193995D01*
G01X482702Y4195976D01*
G01X480560Y4198064D01*
G01X478526Y4200258D01*
G01X476603Y4202549D01*
G01X474795Y4204934D01*
G01X473111Y4207406D01*
G01X471551Y4209959D01*
G01X470118Y4212585D01*
G01X468821Y4215282D01*
G01X467660Y4218038D01*
G01X466636Y4220850D01*
G01X465755Y4223708D01*
G01X465016Y4226608D01*
G01X464424Y4229539D01*
G01X463977Y4232499D01*
G01X463680Y4235475D01*
G01X463530Y4238462D01*
G01X463530Y4241455D01*
G01X463680Y4244442D01*
G01X463977Y4247418D01*
G01X464424Y4250378D01*
G01X465016Y4253309D01*
G01X465755Y4256209D01*
G01X466636Y4259067D01*
G01X467660Y4261879D01*
G01X468821Y4264635D01*
G01X470118Y4267332D01*
G01X471551Y4269958D01*
G01X473111Y4272511D01*
G01X474795Y4274983D01*
G01X476603Y4277368D01*
G01X478526Y4279659D01*
G01X480560Y4281853D01*
G01X482702Y4283941D01*
G01X484944Y4285922D01*
G01X487284Y4287787D01*
G01X489712Y4289532D01*
G01X492227Y4291155D01*
G01X494817Y4292651D01*
G01X497479Y4294017D01*
G01X500205Y4295247D01*
G01X502991Y4296339D01*
G01X505826Y4297294D01*
G01X508706Y4298104D01*
G01X511622Y4298770D01*
G01X514568Y4299288D01*
G01X517538Y4299661D01*
G01X520522Y4299885D01*
G01X523512Y4299958D01*
G01X603512Y4299958D01*
G01X606501Y4299885D01*
G01X609486Y4299661D01*
G01X612455Y4299288D01*
G01X615401Y4298770D01*
G01X618317Y4298104D01*
G01X621198Y4297294D01*
G01X624032Y4296339D01*
G01X626819Y4295247D01*
G01X629544Y4294017D01*
G01X632206Y4292651D01*
G01X634797Y4291155D01*
G01X637311Y4289532D01*
G01X639740Y4287787D01*
G01X642079Y4285922D01*
G01X644322Y4283941D01*
G01X646463Y4281853D01*
G01X648498Y4279659D01*
G01X650420Y4277368D01*
G01X652229Y4274983D01*
G01X653913Y4272511D01*
G01X655472Y4269958D01*
G01X656905Y4267332D01*
G01X658203Y4264635D01*
G01X659364Y4261879D01*
G01X660387Y4259067D01*
G01X661269Y4256209D01*
G01X662008Y4253309D01*
G01X662600Y4250378D01*
G01X663047Y4247418D01*
G01X663344Y4244442D01*
G01X663494Y4241455D01*
G37*
G36*
G01X218328Y4235475D02*
G01X218031Y4232499D01*
G01X217584Y4229539D01*
G01X216992Y4226608D01*
G01X216253Y4223708D01*
G01X215372Y4220850D01*
G01X214348Y4218038D01*
G01X213187Y4215282D01*
G01X211889Y4212585D01*
G01X210457Y4209959D01*
G01X208897Y4207406D01*
G01X207213Y4204934D01*
G01X205405Y4202549D01*
G01X203482Y4200258D01*
G01X201447Y4198064D01*
G01X199306Y4195976D01*
G01X197063Y4193995D01*
G01X194724Y4192130D01*
G01X192296Y4190385D01*
G01X189781Y4188762D01*
G01X187190Y4187266D01*
G01X184528Y4185900D01*
G01X181803Y4184670D01*
G01X179017Y4183578D01*
G01X176182Y4182623D01*
G01X173302Y4181813D01*
G01X170386Y4181147D01*
G01X167439Y4180629D01*
G01X164470Y4180256D01*
G01X161486Y4180032D01*
G01X158496Y4179959D01*
G01X128496Y4179959D01*
G01X125506Y4180032D01*
G01X122522Y4180256D01*
G01X119553Y4180629D01*
G01X116606Y4181147D01*
G01X113690Y4181813D01*
G01X110810Y4182623D01*
G01X107975Y4183578D01*
G01X105189Y4184670D01*
G01X102464Y4185900D01*
G01X99802Y4187266D01*
G01X97211Y4188762D01*
G01X94696Y4190385D01*
G01X92268Y4192130D01*
G01X89929Y4193995D01*
G01X87686Y4195976D01*
G01X85545Y4198064D01*
G01X83510Y4200258D01*
G01X81587Y4202549D01*
G01X79779Y4204934D01*
G01X78095Y4207406D01*
G01X76535Y4209959D01*
G01X75103Y4212585D01*
G01X73805Y4215282D01*
G01X72644Y4218038D01*
G01X71620Y4220850D01*
G01X70739Y4223708D01*
G01X70000Y4226608D01*
G01X69408Y4229539D01*
G01X68961Y4232499D01*
G01X68664Y4235475D01*
G01X68514Y4238462D01*
G01X68514Y4241455D01*
G01X68664Y4244442D01*
G01X68961Y4247418D01*
G01X69408Y4250378D01*
G01X70000Y4253309D01*
G01X70739Y4256209D01*
G01X71620Y4259067D01*
G01X72644Y4261879D01*
G01X73805Y4264635D01*
G01X75103Y4267332D01*
G01X76535Y4269958D01*
G01X78095Y4272511D01*
G01X79779Y4274983D01*
G01X81587Y4277368D01*
G01X83510Y4279659D01*
G01X85545Y4281853D01*
G01X87686Y4283941D01*
G01X89929Y4285922D01*
G01X92268Y4287787D01*
G01X94696Y4289532D01*
G01X97211Y4291155D01*
G01X99802Y4292651D01*
G01X102464Y4294017D01*
G01X105189Y4295247D01*
G01X107975Y4296339D01*
G01X110810Y4297294D01*
G01X113690Y4298104D01*
G01X116606Y4298770D01*
G01X119553Y4299288D01*
G01X122522Y4299661D01*
G01X125506Y4299885D01*
G01X128496Y4299958D01*
G01X158496Y4299958D01*
G01X161486Y4299885D01*
G01X164470Y4299661D01*
G01X167439Y4299288D01*
G01X170386Y4298770D01*
G01X173302Y4298104D01*
G01X176182Y4297294D01*
G01X179017Y4296339D01*
G01X181803Y4295247D01*
G01X184528Y4294017D01*
G01X187190Y4292651D01*
G01X189781Y4291155D01*
G01X192296Y4289532D01*
G01X194724Y4287787D01*
G01X197063Y4285922D01*
G01X199306Y4283941D01*
G01X201447Y4281853D01*
G01X203482Y4279659D01*
G01X205405Y4277368D01*
G01X207213Y4274983D01*
G01X208897Y4272511D01*
G01X210457Y4269958D01*
G01X211889Y4267332D01*
G01X213187Y4264635D01*
G01X214348Y4261879D01*
G01X215372Y4259067D01*
G01X216253Y4256209D01*
G01X216992Y4253309D01*
G01X217584Y4250378D01*
G01X218031Y4247418D01*
G01X218328Y4244442D01*
G01X218478Y4241455D01*
G01X218478Y4238462D01*
G01X218328Y4235475D01*
G37*
G36*
G01X218478Y3376458D02*
G01X218478Y3373465D01*
G01X218328Y3370478D01*
G01X218031Y3367502D01*
G01X217584Y3364542D01*
G01X216992Y3361611D01*
G01X216253Y3358711D01*
G01X215372Y3355853D01*
G01X214348Y3353041D01*
G01X213187Y3350285D01*
G01X211889Y3347588D01*
G01X210457Y3344962D01*
G01X208897Y3342409D01*
G01X207213Y3339937D01*
G01X205405Y3337552D01*
G01X203482Y3335261D01*
G01X201447Y3333067D01*
G01X199306Y3330979D01*
G01X197063Y3328998D01*
G01X194724Y3327133D01*
G01X192296Y3325388D01*
G01X189781Y3323765D01*
G01X187190Y3322269D01*
G01X184528Y3320903D01*
G01X181803Y3319673D01*
G01X179017Y3318581D01*
G01X176182Y3317626D01*
G01X173302Y3316816D01*
G01X170386Y3316150D01*
G01X167439Y3315632D01*
G01X164470Y3315259D01*
G01X161486Y3315035D01*
G01X158496Y3314962D01*
G01X128496Y3314962D01*
G01X125506Y3315035D01*
G01X122522Y3315259D01*
G01X119553Y3315632D01*
G01X116606Y3316150D01*
G01X113690Y3316816D01*
G01X110810Y3317626D01*
G01X107975Y3318581D01*
G01X105189Y3319673D01*
G01X102464Y3320903D01*
G01X99802Y3322269D01*
G01X97211Y3323765D01*
G01X94696Y3325388D01*
G01X92268Y3327133D01*
G01X89929Y3328998D01*
G01X87686Y3330979D01*
G01X85545Y3333067D01*
G01X83510Y3335261D01*
G01X81587Y3337552D01*
G01X79779Y3339937D01*
G01X78095Y3342409D01*
G01X76535Y3344962D01*
G01X75103Y3347588D01*
G01X73805Y3350285D01*
G01X72644Y3353041D01*
G01X71620Y3355853D01*
G01X70739Y3358711D01*
G01X70000Y3361611D01*
G01X69408Y3364542D01*
G01X68961Y3367502D01*
G01X68664Y3370478D01*
G01X68514Y3373465D01*
G01X68514Y3376458D01*
G01X68664Y3379445D01*
G01X68961Y3382421D01*
G01X69408Y3385381D01*
G01X70000Y3388312D01*
G01X70739Y3391212D01*
G01X71620Y3394070D01*
G01X72644Y3396882D01*
G01X73805Y3399638D01*
G01X75103Y3402335D01*
G01X76535Y3404961D01*
G01X78095Y3407514D01*
G01X79779Y3409986D01*
G01X81587Y3412371D01*
G01X83510Y3414662D01*
G01X85545Y3416856D01*
G01X87686Y3418944D01*
G01X89929Y3420925D01*
G01X92268Y3422790D01*
G01X94696Y3424535D01*
G01X97211Y3426158D01*
G01X99802Y3427654D01*
G01X102464Y3429020D01*
G01X105189Y3430250D01*
G01X107975Y3431342D01*
G01X110810Y3432297D01*
G01X113690Y3433107D01*
G01X116606Y3433773D01*
G01X119553Y3434291D01*
G01X122522Y3434664D01*
G01X125506Y3434888D01*
G01X128496Y3434961D01*
G01X158496Y3434961D01*
G01X161486Y3434888D01*
G01X164470Y3434664D01*
G01X167439Y3434291D01*
G01X170386Y3433773D01*
G01X173302Y3433107D01*
G01X176182Y3432297D01*
G01X179017Y3431342D01*
G01X181803Y3430250D01*
G01X184528Y3429020D01*
G01X187190Y3427654D01*
G01X189781Y3426158D01*
G01X192296Y3424535D01*
G01X194724Y3422790D01*
G01X197063Y3420925D01*
G01X199306Y3418944D01*
G01X201447Y3416856D01*
G01X203482Y3414662D01*
G01X205405Y3412371D01*
G01X207213Y3409986D01*
G01X208897Y3407514D01*
G01X210457Y3404961D01*
G01X211889Y3402335D01*
G01X213187Y3399638D01*
G01X214348Y3396882D01*
G01X215372Y3394070D01*
G01X216253Y3391212D01*
G01X216992Y3388312D01*
G01X217584Y3385381D01*
G01X218031Y3382421D01*
G01X218328Y3379445D01*
G01X218478Y3376458D01*
G37*
G36*
G01X1256231Y3901047D02*
G01X1261229Y3896045D01*
G01X1261229Y3816045D01*
G01X1256231Y3811047D01*
G01X1176231Y3811047D01*
G01X1171230Y3816045D01*
G01X1171230Y3840249D01*
G01X1208230Y3840249D01*
G01X1208230Y3873249D01*
G01X1171230Y3873249D01*
G01X1171230Y3896045D01*
G01X1176231Y3901047D01*
G01X1256231Y3901047D01*
G37*
G36*
G01X1101230Y3896045D02*
G01X1101230Y3873249D01*
G01X1063231Y3873249D01*
G01X1063231Y3840249D01*
G01X1101230Y3840249D01*
G01X1101230Y3816045D01*
G01X1096231Y3811047D01*
G01X1017232Y3811047D01*
G01X1012231Y3816045D01*
G01X1012231Y3896045D01*
G01X1017232Y3901047D01*
G01X1096231Y3901047D01*
G01X1101230Y3896045D01*
G37*
G36*
G01X1256231Y3722509D02*
G01X1261229Y3717508D01*
G01X1261229Y3637508D01*
G01X1256231Y3632510D01*
G01X1176231Y3632510D01*
G01X1171230Y3637508D01*
G01X1171230Y3661712D01*
G01X1208230Y3661712D01*
G01X1208230Y3694712D01*
G01X1171230Y3694712D01*
G01X1171230Y3717508D01*
G01X1176231Y3722509D01*
G01X1256231Y3722509D01*
G37*
G36*
G01X1101230Y3717508D02*
G01X1101230Y3694712D01*
G01X1063231Y3694712D01*
G01X1063231Y3661712D01*
G01X1101230Y3661712D01*
G01X1101230Y3637508D01*
G01X1096231Y3632510D01*
G01X1017232Y3632510D01*
G01X1012231Y3637508D01*
G01X1012231Y3717508D01*
G01X1017232Y3722509D01*
G01X1096231Y3722509D01*
G01X1101230Y3717508D01*
G37*
G36*
G01X1262502Y4079584D02*
G01X1267501Y4074583D01*
G01X1267501Y3994583D01*
G01X1262502Y3989584D01*
G01X1182502Y3989584D01*
G01X1177501Y3994583D01*
G01X1177501Y4018786D01*
G01X1214501Y4018786D01*
G01X1214501Y4051786D01*
G01X1177501Y4051786D01*
G01X1177501Y4074583D01*
G01X1182502Y4079584D01*
G01X1262502Y4079584D01*
G37*
G36*
G01X1107501Y4074583D02*
G01X1107501Y4051786D01*
G01X1069503Y4051786D01*
G01X1069503Y4018786D01*
G01X1107501Y4018786D01*
G01X1107501Y3994583D01*
G01X1102502Y3989584D01*
G01X1023503Y3989584D01*
G01X1018502Y3994583D01*
G01X1018502Y4074583D01*
G01X1023503Y4079584D01*
G01X1102502Y4079584D01*
G01X1107501Y4074583D01*
G37*
G36*
G01X1262502Y3543972D02*
G01X1267501Y3538971D01*
G01X1267501Y3458971D01*
G01X1262502Y3453972D01*
G01X1182502Y3453972D01*
G01X1177501Y3458971D01*
G01X1177501Y3483175D01*
G01X1214501Y3483175D01*
G01X1214501Y3516174D01*
G01X1177501Y3516174D01*
G01X1177501Y3538971D01*
G01X1182502Y3543972D01*
G01X1262502Y3543972D01*
G37*
G36*
G01X1107501Y3538971D02*
G01X1107501Y3516174D01*
G01X1069503Y3516174D01*
G01X1069503Y3483175D01*
G01X1107501Y3483175D01*
G01X1107501Y3458971D01*
G01X1102502Y3453972D01*
G01X1023503Y3453972D01*
G01X1018502Y3458971D01*
G01X1018502Y3538971D01*
G01X1023503Y3543972D01*
G01X1102502Y3543972D01*
G01X1107501Y3538971D01*
G37*
G36*
G01X2610998Y3979077D02*
G01X2605999Y3984078D01*
G01X2605999Y4064078D01*
G01X2610998Y4069077D01*
G01X2690998Y4069077D01*
G01X2695999Y4064078D01*
G01X2695999Y4039874D01*
G01X2658999Y4039874D01*
G01X2658999Y4006875D01*
G01X2695999Y4006875D01*
G01X2695999Y3984078D01*
G01X2690998Y3979077D01*
G01X2610998Y3979077D01*
G37*
G36*
G01X2765999Y3984078D02*
G01X2765999Y4006875D01*
G01X2803997Y4006875D01*
G01X2803997Y4039874D01*
G01X2765999Y4039874D01*
G01X2765999Y4064078D01*
G01X2770998Y4069077D01*
G01X2849997Y4069077D01*
G01X2854998Y4064078D01*
G01X2854998Y3984078D01*
G01X2849997Y3979077D01*
G01X2770998Y3979077D01*
G01X2765999Y3984078D01*
G37*
G36*
G01X2139401Y1844162D02*
G01X2144403Y1849161D01*
G01X2224402Y1849161D01*
G01X2229401Y1844162D01*
G01X2229401Y1764162D01*
G01X2224402Y1759161D01*
G01X2200199Y1759161D01*
G01X2200199Y1796161D01*
G01X2167199Y1796161D01*
G01X2167199Y1759161D01*
G01X2144403Y1759161D01*
G01X2139401Y1764162D01*
G01X2139401Y1844162D01*
G37*
G36*
G01X2144403Y1689161D02*
G01X2167199Y1689161D01*
G01X2167199Y1651163D01*
G01X2200199Y1651163D01*
G01X2200199Y1689161D01*
G01X2224402Y1689161D01*
G01X2229401Y1684162D01*
G01X2229401Y1605163D01*
G01X2224402Y1600162D01*
G01X2144403Y1600162D01*
G01X2139401Y1605163D01*
G01X2139401Y1684162D01*
G01X2144403Y1689161D01*
G37*
G36*
G01X1848399Y1605158D02*
G01X1843397Y1600159D01*
G01X1763398Y1600159D01*
G01X1758399Y1605158D01*
G01X1758399Y1685158D01*
G01X1763398Y1690159D01*
G01X1787601Y1690159D01*
G01X1787601Y1653159D01*
G01X1820601Y1653159D01*
G01X1820601Y1690159D01*
G01X1843397Y1690159D01*
G01X1848399Y1685158D01*
G01X1848399Y1605158D01*
G37*
G36*
G01X1843397Y1760159D02*
G01X1820601Y1760159D01*
G01X1820601Y1798157D01*
G01X1787601Y1798157D01*
G01X1787601Y1760159D01*
G01X1763398Y1760159D01*
G01X1758399Y1765158D01*
G01X1758399Y1844157D01*
G01X1763398Y1849158D01*
G01X1843397Y1849158D01*
G01X1848399Y1844157D01*
G01X1848399Y1765158D01*
G01X1843397Y1760159D01*
G37*
G36*
G01X2850002Y3230195D02*
G01X2855001Y3225194D01*
G01X2855001Y3145194D01*
G01X2850002Y3140195D01*
G01X2770002Y3140195D01*
G01X2765001Y3145194D01*
G01X2765001Y3169398D01*
G01X2802001Y3169398D01*
G01X2802001Y3202397D01*
G01X2765001Y3202397D01*
G01X2765001Y3225194D01*
G01X2770002Y3230195D01*
G01X2850002Y3230195D01*
G37*
G36*
G01X2695001Y3225194D02*
G01X2695001Y3202397D01*
G01X2657003Y3202397D01*
G01X2657003Y3169398D01*
G01X2695001Y3169398D01*
G01X2695001Y3145194D01*
G01X2690002Y3140195D01*
G01X2611003Y3140195D01*
G01X2606002Y3145194D01*
G01X2606002Y3225194D01*
G01X2611003Y3230195D01*
G01X2690002Y3230195D01*
G01X2695001Y3225194D01*
G37*
G36*
G01X2850002Y3888769D02*
G01X2855001Y3883767D01*
G01X2855001Y3803768D01*
G01X2850002Y3798769D01*
G01X2770002Y3798769D01*
G01X2765001Y3803768D01*
G01X2765001Y3827971D01*
G01X2802001Y3827971D01*
G01X2802001Y3860971D01*
G01X2765001Y3860971D01*
G01X2765001Y3883767D01*
G01X2770002Y3888769D01*
G01X2850002Y3888769D01*
G37*
G36*
G01X2695001Y3883767D02*
G01X2695001Y3860971D01*
G01X2657003Y3860971D01*
G01X2657003Y3827971D01*
G01X2695001Y3827971D01*
G01X2695001Y3803768D01*
G01X2690002Y3798769D01*
G01X2611003Y3798769D01*
G01X2606002Y3803768D01*
G01X2606002Y3883767D01*
G01X2611003Y3888769D01*
G01X2690002Y3888769D01*
G01X2695001Y3883767D01*
G37*
G36*
G01X1262502Y4436659D02*
G01X1267501Y4431657D01*
G01X1267501Y4351658D01*
G01X1262502Y4346659D01*
G01X1182502Y4346659D01*
G01X1177501Y4351658D01*
G01X1177501Y4375861D01*
G01X1214501Y4375861D01*
G01X1214501Y4408861D01*
G01X1177501Y4408861D01*
G01X1177501Y4431657D01*
G01X1182502Y4436659D01*
G01X1262502Y4436659D01*
G37*
G36*
G01X1107501Y4431657D02*
G01X1107501Y4408861D01*
G01X1069503Y4408861D01*
G01X1069503Y4375861D01*
G01X1107501Y4375861D01*
G01X1107501Y4351658D01*
G01X1102502Y4346659D01*
G01X1023503Y4346659D01*
G01X1018502Y4351658D01*
G01X1018502Y4431657D01*
G01X1023503Y4436659D01*
G01X1102502Y4436659D01*
G01X1107501Y4431657D01*
G37*
G36*
G01X5961502Y3476887D02*
G01X5966501Y3471885D01*
G01X5966501Y3391886D01*
G01X5961502Y3386887D01*
G01X5881502Y3386887D01*
G01X5876501Y3391886D01*
G01X5876501Y3416089D01*
G01X5913501Y3416089D01*
G01X5913501Y3449089D01*
G01X5876501Y3449089D01*
G01X5876501Y3471885D01*
G01X5881502Y3476887D01*
G01X5961502Y3476887D01*
G37*
G36*
G01X5806501Y3471885D02*
G01X5806501Y3449089D01*
G01X5768503Y3449089D01*
G01X5768503Y3416089D01*
G01X5806501Y3416089D01*
G01X5806501Y3391886D01*
G01X5801502Y3386887D01*
G01X5722503Y3386887D01*
G01X5717502Y3391886D01*
G01X5717502Y3471885D01*
G01X5722503Y3476887D01*
G01X5801502Y3476887D01*
G01X5806501Y3471885D01*
G37*
G36*
G01X2610998Y2213061D02*
G01X2605999Y2218063D01*
G01X2605999Y2298062D01*
G01X2610998Y2303061D01*
G01X2690998Y2303061D01*
G01X2695999Y2298062D01*
G01X2695999Y2273859D01*
G01X2658999Y2273859D01*
G01X2658999Y2240859D01*
G01X2695999Y2240859D01*
G01X2695999Y2218063D01*
G01X2690998Y2213061D01*
G01X2610998Y2213061D01*
G37*
G36*
G01X2765999Y2218063D02*
G01X2765999Y2240859D01*
G01X2803997Y2240859D01*
G01X2803997Y2273859D01*
G01X2765999Y2273859D01*
G01X2765999Y2298062D01*
G01X2770998Y2303061D01*
G01X2849997Y2303061D01*
G01X2854998Y2298062D01*
G01X2854998Y2218063D01*
G01X2849997Y2213061D01*
G01X2770998Y2213061D01*
G01X2765999Y2218063D01*
G37*
G36*
G01X2610998Y2676630D02*
G01X2605999Y2681631D01*
G01X2605999Y2761631D01*
G01X2610998Y2766629D01*
G01X2690998Y2766629D01*
G01X2695999Y2761631D01*
G01X2695999Y2737427D01*
G01X2658999Y2737427D01*
G01X2658999Y2704427D01*
G01X2695999Y2704427D01*
G01X2695999Y2681631D01*
G01X2690998Y2676630D01*
G01X2610998Y2676630D01*
G37*
G36*
G01X2765999Y2681631D02*
G01X2765999Y2704427D01*
G01X2803997Y2704427D01*
G01X2803997Y2737427D01*
G01X2765999Y2737427D01*
G01X2765999Y2761631D01*
G01X2770998Y2766629D01*
G01X2849997Y2766629D01*
G01X2854998Y2761631D01*
G01X2854998Y2681631D01*
G01X2849997Y2676630D01*
G01X2770998Y2676630D01*
G01X2765999Y2681631D01*
G37*
G36*
G01X1265889Y1604294D02*
G01X1260888Y1599296D01*
G01X1180888Y1599296D01*
G01X1175889Y1604294D01*
G01X1175889Y1684294D01*
G01X1180888Y1689296D01*
G01X1205092Y1689296D01*
G01X1205092Y1652295D01*
G01X1238091Y1652295D01*
G01X1238091Y1689296D01*
G01X1260888Y1689296D01*
G01X1265889Y1684294D01*
G01X1265889Y1604294D01*
G37*
G36*
G01X1260888Y1759295D02*
G01X1238091Y1759295D01*
G01X1238091Y1797294D01*
G01X1205092Y1797294D01*
G01X1205092Y1759295D01*
G01X1180888Y1759295D01*
G01X1175889Y1764294D01*
G01X1175889Y1843293D01*
G01X1180888Y1848295D01*
G01X1260888Y1848295D01*
G01X1265889Y1843293D01*
G01X1265889Y1764294D01*
G01X1260888Y1759295D01*
G37*
G36*
G01X1175028Y2207653D02*
G01X1180029Y2212652D01*
G01X1260029Y2212652D01*
G01X1265028Y2207653D01*
G01X1265028Y2127653D01*
G01X1260029Y2122652D01*
G01X1235826Y2122652D01*
G01X1235826Y2159652D01*
G01X1202826Y2159652D01*
G01X1202826Y2122652D01*
G01X1180029Y2122652D01*
G01X1175028Y2127653D01*
G01X1175028Y2207653D01*
G37*
G36*
G01X1180029Y2052652D02*
G01X1202826Y2052652D01*
G01X1202826Y2014654D01*
G01X1235826Y2014654D01*
G01X1235826Y2052652D01*
G01X1260029Y2052652D01*
G01X1265028Y2047653D01*
G01X1265028Y1968654D01*
G01X1260029Y1963653D01*
G01X1180029Y1963653D01*
G01X1175028Y1968654D01*
G01X1175028Y2047653D01*
G01X1180029Y2052652D01*
G37*
G36*
G01X1264199Y2333003D02*
G01X1259197Y2328005D01*
G01X1179198Y2328005D01*
G01X1174199Y2333003D01*
G01X1174199Y2413003D01*
G01X1179198Y2418005D01*
G01X1203401Y2418005D01*
G01X1203401Y2381004D01*
G01X1236401Y2381004D01*
G01X1236401Y2418005D01*
G01X1259197Y2418005D01*
G01X1264199Y2413003D01*
G01X1264199Y2333003D01*
G37*
G36*
G01X1259197Y2488004D02*
G01X1236401Y2488004D01*
G01X1236401Y2526003D01*
G01X1203401Y2526003D01*
G01X1203401Y2488004D01*
G01X1179198Y2488004D01*
G01X1174199Y2493003D01*
G01X1174199Y2572002D01*
G01X1179198Y2577003D01*
G01X1259197Y2577003D01*
G01X1264199Y2572002D01*
G01X1264199Y2493003D01*
G01X1259197Y2488004D01*
G37*
G36*
G01X894801Y2936362D02*
G01X899803Y2941361D01*
G01X979802Y2941361D01*
G01X984801Y2936362D01*
G01X984801Y2856362D01*
G01X979802Y2851361D01*
G01X955599Y2851361D01*
G01X955599Y2888361D01*
G01X922599Y2888361D01*
G01X922599Y2851361D01*
G01X899803Y2851361D01*
G01X894801Y2856362D01*
G01X894801Y2936362D01*
G37*
G36*
G01X899803Y2781361D02*
G01X922599Y2781361D01*
G01X922599Y2743363D01*
G01X955599Y2743363D01*
G01X955599Y2781361D01*
G01X979802Y2781361D01*
G01X984801Y2776362D01*
G01X984801Y2697363D01*
G01X979802Y2692362D01*
G01X899803Y2692362D01*
G01X894801Y2697363D01*
G01X894801Y2776362D01*
G01X899803Y2781361D01*
G37*
G36*
G01X896492Y2207653D02*
G01X901493Y2212652D01*
G01X981493Y2212652D01*
G01X986492Y2207653D01*
G01X986492Y2127653D01*
G01X981493Y2122652D01*
G01X957289Y2122652D01*
G01X957289Y2159652D01*
G01X924289Y2159652D01*
G01X924289Y2122652D01*
G01X901493Y2122652D01*
G01X896492Y2127653D01*
G01X896492Y2207653D01*
G37*
G36*
G01X901493Y2052652D02*
G01X924289Y2052652D01*
G01X924289Y2014654D01*
G01X957289Y2014654D01*
G01X957289Y2052652D01*
G01X981493Y2052652D01*
G01X986492Y2047653D01*
G01X986492Y1968654D01*
G01X981493Y1963653D01*
G01X901493Y1963653D01*
G01X896492Y1968654D01*
G01X896492Y2047653D01*
G01X901493Y2052652D01*
G37*
G36*
G01X1174201Y2936362D02*
G01X1179203Y2941361D01*
G01X1259202Y2941361D01*
G01X1264201Y2936362D01*
G01X1264201Y2856362D01*
G01X1259202Y2851361D01*
G01X1234999Y2851361D01*
G01X1234999Y2888361D01*
G01X1201999Y2888361D01*
G01X1201999Y2851361D01*
G01X1179203Y2851361D01*
G01X1174201Y2856362D01*
G01X1174201Y2936362D01*
G37*
G36*
G01X1179203Y2781361D02*
G01X1201999Y2781361D01*
G01X1201999Y2743363D01*
G01X1234999Y2743363D01*
G01X1234999Y2781361D01*
G01X1259202Y2781361D01*
G01X1264201Y2776362D01*
G01X1264201Y2697363D01*
G01X1259202Y2692362D01*
G01X1179203Y2692362D01*
G01X1174201Y2697363D01*
G01X1174201Y2776362D01*
G01X1179203Y2781361D01*
G37*
G36*
G01X1262502Y3192059D02*
G01X1267501Y3187057D01*
G01X1267501Y3107058D01*
G01X1262502Y3102059D01*
G01X1182502Y3102059D01*
G01X1177501Y3107058D01*
G01X1177501Y3131261D01*
G01X1214501Y3131261D01*
G01X1214501Y3164261D01*
G01X1177501Y3164261D01*
G01X1177501Y3187057D01*
G01X1182502Y3192059D01*
G01X1262502Y3192059D01*
G37*
G36*
G01X1107501Y3187057D02*
G01X1107501Y3164261D01*
G01X1069503Y3164261D01*
G01X1069503Y3131261D01*
G01X1107501Y3131261D01*
G01X1107501Y3107058D01*
G01X1102502Y3102059D01*
G01X1023503Y3102059D01*
G01X1018502Y3107058D01*
G01X1018502Y3187057D01*
G01X1023503Y3192059D01*
G01X1102502Y3192059D01*
G01X1107501Y3187057D01*
G37*
G36*
G01X1262502Y4258121D02*
G01X1267501Y4253120D01*
G01X1267501Y4173120D01*
G01X1262502Y4168121D01*
G01X1182502Y4168121D01*
G01X1177501Y4173120D01*
G01X1177501Y4197324D01*
G01X1214501Y4197324D01*
G01X1214501Y4230324D01*
G01X1177501Y4230324D01*
G01X1177501Y4253120D01*
G01X1182502Y4258121D01*
G01X1262502Y4258121D01*
G37*
G36*
G01X1107501Y4253120D02*
G01X1107501Y4230324D01*
G01X1069503Y4230324D01*
G01X1069503Y4197324D01*
G01X1107501Y4197324D01*
G01X1107501Y4173120D01*
G01X1102502Y4168121D01*
G01X1023503Y4168121D01*
G01X1018502Y4173120D01*
G01X1018502Y4253120D01*
G01X1023503Y4258121D01*
G01X1102502Y4258121D01*
G01X1107501Y4253120D01*
G37*
G36*
G01X2229399Y2900558D02*
G01X2224397Y2895559D01*
G01X2144398Y2895559D01*
G01X2139399Y2900558D01*
G01X2139399Y2980558D01*
G01X2144398Y2985559D01*
G01X2168601Y2985559D01*
G01X2168601Y2948559D01*
G01X2201601Y2948559D01*
G01X2201601Y2985559D01*
G01X2224397Y2985559D01*
G01X2229399Y2980558D01*
G01X2229399Y2900558D01*
G37*
G36*
G01X2224397Y3055559D02*
G01X2201601Y3055559D01*
G01X2201601Y3093557D01*
G01X2168601Y3093557D01*
G01X2168601Y3055559D01*
G01X2144398Y3055559D01*
G01X2139399Y3060558D01*
G01X2139399Y3139557D01*
G01X2144398Y3144558D01*
G01X2224397Y3144558D01*
G01X2229399Y3139557D01*
G01X2229399Y3060558D01*
G01X2224397Y3055559D01*
G37*
G36*
G01X2850002Y2998411D02*
G01X2855001Y2993410D01*
G01X2855001Y2913410D01*
G01X2850002Y2908411D01*
G01X2770002Y2908411D01*
G01X2765001Y2913410D01*
G01X2765001Y2937614D01*
G01X2802001Y2937614D01*
G01X2802001Y2970613D01*
G01X2765001Y2970613D01*
G01X2765001Y2993410D01*
G01X2770002Y2998411D01*
G01X2850002Y2998411D01*
G37*
G36*
G01X2695001Y2993410D02*
G01X2695001Y2970613D01*
G01X2657003Y2970613D01*
G01X2657003Y2937614D01*
G01X2695001Y2937614D01*
G01X2695001Y2913410D01*
G01X2690002Y2908411D01*
G01X2611003Y2908411D01*
G01X2606002Y2913410D01*
G01X2606002Y2993410D01*
G01X2611003Y2998411D01*
G01X2690002Y2998411D01*
G01X2695001Y2993410D01*
G37*
G36*
G01X2610998Y2444846D02*
G01X2605999Y2449847D01*
G01X2605999Y2529847D01*
G01X2610998Y2534845D01*
G01X2690998Y2534845D01*
G01X2695999Y2529847D01*
G01X2695999Y2505643D01*
G01X2658999Y2505643D01*
G01X2658999Y2472643D01*
G01X2695999Y2472643D01*
G01X2695999Y2449847D01*
G01X2690998Y2444846D01*
G01X2610998Y2444846D01*
G37*
G36*
G01X2765999Y2449847D02*
G01X2765999Y2472643D01*
G01X2803997Y2472643D01*
G01X2803997Y2505643D01*
G01X2765999Y2505643D01*
G01X2765999Y2529847D01*
G01X2770998Y2534845D01*
G01X2849997Y2534845D01*
G01X2854998Y2529847D01*
G01X2854998Y2449847D01*
G01X2849997Y2444846D01*
G01X2770998Y2444846D01*
G01X2765999Y2449847D01*
G37*
G36*
G01X5722498Y3173194D02*
G01X5717499Y3178195D01*
G01X5717499Y3258195D01*
G01X5722498Y3263194D01*
G01X5802498Y3263194D01*
G01X5807499Y3258195D01*
G01X5807499Y3233992D01*
G01X5770499Y3233992D01*
G01X5770499Y3200992D01*
G01X5807499Y3200992D01*
G01X5807499Y3178195D01*
G01X5802498Y3173194D01*
G01X5722498Y3173194D01*
G37*
G36*
G01X5877499Y3178195D02*
G01X5877499Y3200992D01*
G01X5915497Y3200992D01*
G01X5915497Y3233992D01*
G01X5877499Y3233992D01*
G01X5877499Y3258195D01*
G01X5882498Y3263194D01*
G01X5961497Y3263194D01*
G01X5966498Y3258195D01*
G01X5966498Y3178195D01*
G01X5961497Y3173194D01*
G01X5882498Y3173194D01*
G01X5877499Y3178195D01*
G37*
G36*
G01X5961502Y2408410D02*
G01X5966501Y2403409D01*
G01X5966501Y2323409D01*
G01X5961502Y2318410D01*
G01X5881502Y2318410D01*
G01X5876501Y2323409D01*
G01X5876501Y2347613D01*
G01X5913501Y2347613D01*
G01X5913501Y2380612D01*
G01X5876501Y2380612D01*
G01X5876501Y2403409D01*
G01X5881502Y2408410D01*
G01X5961502Y2408410D01*
G37*
G36*
G01X5806501Y2403409D02*
G01X5806501Y2380612D01*
G01X5768503Y2380612D01*
G01X5768503Y2347613D01*
G01X5806501Y2347613D01*
G01X5806501Y2323409D01*
G01X5801502Y2318410D01*
G01X5722503Y2318410D01*
G01X5717502Y2323409D01*
G01X5717502Y2403409D01*
G01X5722503Y2408410D01*
G01X5801502Y2408410D01*
G01X5806501Y2403409D01*
G37*
G36*
G01X5722498Y2959499D02*
G01X5717499Y2964500D01*
G01X5717499Y3044500D01*
G01X5722498Y3049499D01*
G01X5802498Y3049499D01*
G01X5807499Y3044500D01*
G01X5807499Y3020296D01*
G01X5770499Y3020296D01*
G01X5770499Y2987297D01*
G01X5807499Y2987297D01*
G01X5807499Y2964500D01*
G01X5802498Y2959499D01*
G01X5722498Y2959499D01*
G37*
G36*
G01X5877499Y2964500D02*
G01X5877499Y2987297D01*
G01X5915497Y2987297D01*
G01X5915497Y3020296D01*
G01X5877499Y3020296D01*
G01X5877499Y3044500D01*
G01X5882498Y3049499D01*
G01X5961497Y3049499D01*
G01X5966498Y3044500D01*
G01X5966498Y2964500D01*
G01X5961497Y2959499D01*
G01X5882498Y2959499D01*
G01X5877499Y2964500D01*
G37*
G36*
G01X5722498Y2745804D02*
G01X5717499Y2750805D01*
G01X5717499Y2830805D01*
G01X5722498Y2835803D01*
G01X5802498Y2835803D01*
G01X5807499Y2830805D01*
G01X5807499Y2806601D01*
G01X5770499Y2806601D01*
G01X5770499Y2773601D01*
G01X5807499Y2773601D01*
G01X5807499Y2750805D01*
G01X5802498Y2745804D01*
G01X5722498Y2745804D01*
G37*
G36*
G01X5877499Y2750805D02*
G01X5877499Y2773601D01*
G01X5915497Y2773601D01*
G01X5915497Y2806601D01*
G01X5877499Y2806601D01*
G01X5877499Y2830805D01*
G01X5882498Y2835803D01*
G01X5961497Y2835803D01*
G01X5966498Y2830805D01*
G01X5966498Y2750805D01*
G01X5961497Y2745804D01*
G01X5882498Y2745804D01*
G01X5877499Y2750805D01*
G37*
G36*
G01X5722498Y2532108D02*
G01X5717499Y2537109D01*
G01X5717499Y2617109D01*
G01X5722498Y2622108D01*
G01X5802498Y2622108D01*
G01X5807499Y2617109D01*
G01X5807499Y2592906D01*
G01X5770499Y2592906D01*
G01X5770499Y2559906D01*
G01X5807499Y2559906D01*
G01X5807499Y2537109D01*
G01X5802498Y2532108D01*
G01X5722498Y2532108D01*
G37*
G36*
G01X5877499Y2537109D02*
G01X5877499Y2559906D01*
G01X5915497Y2559906D01*
G01X5915497Y2592906D01*
G01X5877499Y2592906D01*
G01X5877499Y2617109D01*
G01X5882498Y2622108D01*
G01X5961497Y2622108D01*
G01X5966498Y2617109D01*
G01X5966498Y2537109D01*
G01X5961497Y2532108D01*
G01X5882498Y2532108D01*
G01X5877499Y2537109D01*
G37*
G36*
G01X1174501Y3309192D02*
G01X1174501Y3336842D01*
G01X1201920Y3366217D01*
G01X1252248Y3366217D01*
G01X1258649Y3359816D01*
G01X1258649Y3286217D01*
G01X1252248Y3279816D01*
G01X1201920Y3279816D01*
G01X1174501Y3309192D01*
G37*
G36*
G01X1111499Y3309192D02*
G01X1084080Y3279816D01*
G01X1033752Y3279816D01*
G01X1027351Y3286217D01*
G01X1027351Y3359816D01*
G01X1033752Y3366217D01*
G01X1084080Y3366217D01*
G01X1111499Y3336842D01*
G01X1111499Y3309192D01*
G37*

G04 Pad Start*
G54D10*
G01X4348748Y967679D03*
G01X4268748Y967679D03*
G01X4188748Y967679D03*
G01X4108748Y967679D03*
G01X4028749Y967679D03*
G01X3948749Y967679D03*
G01X3868749Y967679D03*
G01X3788749Y967679D03*
G54D11*
G01X3631869Y1125830D03*
G01X3631869Y1205829D03*
G01X3631869Y1285829D03*
G01X3631869Y1365829D03*
G01X3631869Y1445829D03*
G01X3631869Y1525829D03*
G01X3631869Y1605829D03*
G01X3631869Y1685828D03*
G54D10*
G01X3788749Y1843979D03*
G01X3868749Y1843979D03*
G01X3948749Y1843979D03*
G01X4028749Y1843979D03*
G01X4108748Y1843979D03*
G01X4188748Y1843979D03*
G01X4268748Y1843979D03*
G01X4348748Y1843979D03*
G54D11*
G01X4505629Y1685828D03*
G01X4505629Y1605829D03*
G01X4505629Y1525829D03*
G01X4505629Y1445829D03*
G01X4505629Y1365829D03*
G01X4505629Y1285829D03*
G01X4505629Y1205829D03*
G01X4505629Y1125830D03*
G54D12*
G01X4804499Y1532407D03*
G01X4804499Y1312393D03*
G01X4974501Y1312393D03*
G01X4974501Y1532407D03*
G54D13*
G01X385077Y2789060D03*
G01X385077Y2489060D03*
G36*
G01X749021Y2544077D02*
G01X563601Y2544077D01*
G01X559148Y2544183D01*
G01X554706Y2544496D01*
G01X550281Y2545017D01*
G01X545887Y2545743D01*
G01X541531Y2546678D01*
G01X537225Y2547813D01*
G01X532976Y2549149D01*
G01X528795Y2550683D01*
G01X524690Y2552413D01*
G01X520670Y2554331D01*
G01X516745Y2556436D01*
G01X512923Y2558725D01*
G01X509212Y2561189D01*
G01X505620Y2563823D01*
G01X502158Y2566622D01*
G01X498828Y2569583D01*
G01X495643Y2572695D01*
G01X492605Y2575954D01*
G01X489725Y2579350D01*
G01X487007Y2582878D01*
G01X484457Y2586530D01*
G01X482082Y2590297D01*
G01X479885Y2594173D01*
G01X477871Y2598146D01*
G01X476047Y2606076D01*
G01X306314Y2606076D01*
G01X306314Y2672075D01*
G01X476047Y2672075D01*
G01X477871Y2680010D01*
G01X479885Y2683982D01*
G01X482082Y2687858D01*
G01X484457Y2691625D01*
G01X487007Y2695278D01*
G01X489725Y2698806D01*
G01X492605Y2702202D01*
G01X495643Y2705461D01*
G01X498828Y2708572D01*
G01X502158Y2711534D01*
G01X505620Y2714333D01*
G01X509212Y2716967D01*
G01X512923Y2719431D01*
G01X516745Y2721719D01*
G01X520670Y2723825D01*
G01X524690Y2725743D01*
G01X528795Y2727472D01*
G01X532976Y2729006D01*
G01X537225Y2730343D01*
G01X541531Y2731478D01*
G01X545887Y2732413D01*
G01X550281Y2733139D01*
G01X554706Y2733660D01*
G01X559148Y2733972D01*
G01X563601Y2734079D01*
G01X749021Y2734079D01*
G01X753473Y2733972D01*
G01X757916Y2733660D01*
G01X762340Y2733139D01*
G01X766735Y2732413D01*
G01X771091Y2731478D01*
G01X775396Y2730343D01*
G01X779645Y2729006D01*
G01X783826Y2727472D01*
G01X787931Y2725743D01*
G01X791952Y2723825D01*
G01X795876Y2721719D01*
G01X799699Y2719431D01*
G01X803410Y2716967D01*
G01X807001Y2714333D01*
G01X810463Y2711534D01*
G01X813793Y2708572D01*
G01X816978Y2705461D01*
G01X820016Y2702202D01*
G01X822897Y2698806D01*
G01X825614Y2695278D01*
G01X828164Y2691625D01*
G01X830539Y2687858D01*
G01X832736Y2683982D01*
G01X834751Y2680010D01*
G01X836574Y2675946D01*
G01X838208Y2671803D01*
G01X839643Y2667587D01*
G01X840880Y2663307D01*
G01X841913Y2658974D01*
G01X842744Y2654600D01*
G01X843369Y2650188D01*
G01X843785Y2645753D01*
G01X843994Y2641305D01*
G01X843994Y2636850D01*
G01X843785Y2632403D01*
G01X843369Y2627968D01*
G01X842744Y2623556D01*
G01X841913Y2619182D01*
G01X840880Y2614849D01*
G01X839643Y2610569D01*
G01X838208Y2606352D01*
G01X836574Y2602210D01*
G01X834751Y2598146D01*
G01X832736Y2594173D01*
G01X830539Y2590297D01*
G01X828164Y2586530D01*
G01X825614Y2582878D01*
G01X822897Y2579350D01*
G01X820016Y2575954D01*
G01X816978Y2572695D01*
G01X813793Y2569583D01*
G01X810463Y2566622D01*
G01X807001Y2563823D01*
G01X803410Y2561189D01*
G01X799699Y2558725D01*
G01X795876Y2556436D01*
G01X791952Y2554331D01*
G01X787931Y2552413D01*
G01X783826Y2550683D01*
G01X779645Y2549149D01*
G01X775396Y2547813D01*
G01X771091Y2546678D01*
G01X766735Y2545743D01*
G01X762340Y2545017D01*
G01X757916Y2544496D01*
G01X753473Y2544183D01*
G01X749021Y2544077D01*
G37*
G54D14*
G01X4572000Y5227460D03*
G01X4826000Y4927460D03*
G01X5080000Y5227460D03*
G01X5334000Y4927460D03*
G01X5588000Y5227460D03*
G01X5842000Y4927460D03*
G01X6096000Y5227460D03*
G01X6350000Y4927460D03*
G01X2794000Y401460D03*
G01X3048000Y101460D03*
G01X3302000Y401460D03*
G01X3556000Y101460D03*
G01X3810000Y401460D03*
G01X4064000Y101460D03*
G01X4318000Y401460D03*
G01X4572000Y101460D03*
G54D15*
G01X1706651Y2947214D03*
G01X1896643Y2947214D03*
G01X1801647Y3147213D03*
G54D16*
G01X289362Y1416139D03*
G01X289362Y316141D03*
G01X899343Y316141D03*
G01X899361Y1416139D03*
G54D17*
G01X6758704Y2537452D03*
G01X6758704Y2791452D03*
G01X6758704Y3045452D03*
G01X6220706Y2537452D03*
G01X6220706Y2791452D03*
G01X6220706Y3045452D03*
G54D18*
G01X1790700Y2091411D03*
G01X1917700Y2091411D03*
G01X2044700Y2091411D03*
G01X2171700Y2091411D03*
G01X1790700Y2627909D03*
G01X1917700Y2627909D03*
G01X2044700Y2627909D03*
G01X2171700Y2627909D03*
G54D20*
G01X5079992Y86449D03*
G01X5333992Y416446D03*
G01X5587992Y86449D03*
G01X5841992Y416446D03*
G01X6095992Y86449D03*
G01X6349992Y416446D03*
G54D21*
G01X1536700Y3444011D03*
G01X1663700Y3444011D03*
G01X1790700Y3444011D03*
G01X1917700Y3444011D03*
G01X2044700Y3444011D03*
G01X2171700Y3444011D03*
G01X2298700Y3444011D03*
G01X2425700Y3444011D03*
G01X1536700Y4018509D03*
G01X1663700Y4018509D03*
G01X1790700Y4018509D03*
G01X1917700Y4018509D03*
G01X2044700Y4018509D03*
G01X2171700Y4018509D03*
G01X2298700Y4018509D03*
G01X2425700Y4018509D03*
G54D13*
G01X385077Y2016192D03*
G01X385077Y1716193D03*
G36*
G01X749021Y1771209D02*
G01X563601Y1771209D01*
G01X559148Y1771316D01*
G01X554706Y1771628D01*
G01X550281Y1772149D01*
G01X545887Y1772876D01*
G01X541531Y1773810D01*
G01X537225Y1774946D01*
G01X532976Y1776282D01*
G01X528795Y1777816D01*
G01X524690Y1779546D01*
G01X520670Y1781463D01*
G01X516745Y1783569D01*
G01X512923Y1785857D01*
G01X509212Y1788321D01*
G01X505620Y1790955D01*
G01X502158Y1793754D01*
G01X498828Y1796716D01*
G01X495643Y1799827D01*
G01X492605Y1803086D01*
G01X489725Y1806482D01*
G01X487007Y1810010D01*
G01X484457Y1813663D01*
G01X482082Y1817430D01*
G01X479885Y1821306D01*
G01X477871Y1825278D01*
G01X476047Y1833208D01*
G01X306314Y1833208D01*
G01X306314Y1899208D01*
G01X476047Y1899208D01*
G01X477871Y1907142D01*
G01X479885Y1911115D01*
G01X482082Y1914991D01*
G01X484457Y1918758D01*
G01X487007Y1922410D01*
G01X489725Y1925938D01*
G01X492605Y1929334D01*
G01X495643Y1932593D01*
G01X498828Y1935705D01*
G01X502158Y1938666D01*
G01X505620Y1941466D01*
G01X509212Y1944099D01*
G01X512923Y1946563D01*
G01X516745Y1948852D01*
G01X520670Y1950957D01*
G01X524690Y1952875D01*
G01X528795Y1954605D01*
G01X532976Y1956139D01*
G01X537225Y1957475D01*
G01X541531Y1958611D01*
G01X545887Y1959545D01*
G01X550281Y1960272D01*
G01X554706Y1960792D01*
G01X559148Y1961105D01*
G01X563601Y1961211D01*
G01X749021Y1961211D01*
G01X753473Y1961105D01*
G01X757916Y1960792D01*
G01X762340Y1960272D01*
G01X766735Y1959545D01*
G01X771091Y1958611D01*
G01X775396Y1957475D01*
G01X779645Y1956139D01*
G01X783826Y1954605D01*
G01X787931Y1952875D01*
G01X791952Y1950957D01*
G01X795876Y1948852D01*
G01X799699Y1946563D01*
G01X803410Y1944099D01*
G01X807001Y1941466D01*
G01X810463Y1938666D01*
G01X813793Y1935705D01*
G01X816978Y1932593D01*
G01X820016Y1929334D01*
G01X822897Y1925938D01*
G01X825614Y1922410D01*
G01X828164Y1918758D01*
G01X830539Y1914991D01*
G01X832736Y1911115D01*
G01X834751Y1907142D01*
G01X836574Y1903078D01*
G01X838208Y1898936D01*
G01X839643Y1894719D01*
G01X840880Y1890439D01*
G01X841913Y1886106D01*
G01X842744Y1881732D01*
G01X843369Y1877320D01*
G01X843785Y1872886D01*
G01X843994Y1868438D01*
G01X843994Y1863983D01*
G01X843785Y1859535D01*
G01X843369Y1855100D01*
G01X842744Y1850688D01*
G01X841913Y1846315D01*
G01X840880Y1841981D01*
G01X839643Y1837701D01*
G01X838208Y1833485D01*
G01X836574Y1829342D01*
G01X834751Y1825278D01*
G01X832736Y1821306D01*
G01X830539Y1817430D01*
G01X828164Y1813663D01*
G01X825614Y1810010D01*
G01X822897Y1806482D01*
G01X820016Y1803086D01*
G01X816978Y1799827D01*
G01X813793Y1796716D01*
G01X810463Y1793754D01*
G01X807001Y1790955D01*
G01X803410Y1788321D01*
G01X799699Y1785857D01*
G01X795876Y1783569D01*
G01X791952Y1781463D01*
G01X787931Y1779546D01*
G01X783826Y1777816D01*
G01X779645Y1776282D01*
G01X775396Y1774946D01*
G01X771091Y1773810D01*
G01X766735Y1772876D01*
G01X762340Y1772149D01*
G01X757916Y1771628D01*
G01X753473Y1771316D01*
G01X749021Y1771209D01*
G37*
G54D22*
G01X1948993Y276860D03*
G01X2369007Y276860D03*
G54D23*
G01X2650554Y3654717D03*
G01X2810447Y3655403D03*
G01X2650554Y4213517D03*
G01X2810447Y4214203D03*
G01X6083287Y3427700D03*
G01X6083313Y3277900D03*
G01X2650554Y3426117D03*
G01X2810447Y3426803D03*
G54D24*
G01X4692498Y939800D03*
G01X4832502Y939800D03*
G54D25*
G01X1841500Y1178865D03*
G01X1841500Y644855D03*
G01X2552700Y1178865D03*
G01X2552700Y644855D03*
G54D26*
G01X210007Y5162753D03*
G01X1059993Y5162753D03*
G01X210007Y4712767D03*
G01X1059993Y4712767D03*
G54D24*
G01X4794098Y1689100D03*
G01X4934102Y1689100D03*
G01X4794098Y1155700D03*
G01X4934102Y1155700D03*
G54D20*
G01X2895592Y4914989D03*
G01X3149592Y5244986D03*
G01X3403592Y4914989D03*
G01X3657592Y5244986D03*
G01X3911592Y4914989D03*
G01X4165592Y5244986D03*
G54D14*
G01X2578100Y4930000D03*
G01X2070100Y4930000D03*
G01X2324100Y5230000D03*
G01X1816100Y5230000D03*
G04 Pad End*

M02*

